<?xml version="1.0" encoding="utf-8" standalone="no"?>
<!DOCTYPE svg PUBLIC "-//W3C//DTD SVG 1.1//EN"
  "http://www.w3.org/Graphics/SVG/1.1/DTD/svg11.dtd">
<!-- Created with matplotlib (https://matplotlib.org/) -->
<svg height="180.65625pt" version="1.1" viewBox="0 0 251.482813 180.65625" width="251.482813pt" xmlns="http://www.w3.org/2000/svg" xmlns:xlink="http://www.w3.org/1999/xlink">
 <metadata>
  <rdf:RDF xmlns:cc="http://creativecommons.org/ns#" xmlns:dc="http://purl.org/dc/elements/1.1/" xmlns:rdf="http://www.w3.org/1999/02/22-rdf-syntax-ns#">
   <cc:Work>
    <dc:type rdf:resource="http://purl.org/dc/dcmitype/StillImage"/>
    <dc:date>2020-08-13T03:28:50.820601</dc:date>
    <dc:format>image/svg+xml</dc:format>
    <dc:creator>
     <cc:Agent>
      <dc:title>Matplotlib v3.3.0, https://matplotlib.org/</dc:title>
     </cc:Agent>
    </dc:creator>
   </cc:Work>
  </rdf:RDF>
 </metadata>
 <defs>
  <style type="text/css">*{stroke-linecap:butt;stroke-linejoin:round;}</style>
 </defs>
 <g id="figure_1">
  <g id="patch_1">
   <path d="M -0 180.65625 
L 251.482813 180.65625 
L 251.482813 0 
L -0 0 
z
" style="fill:none;"/>
  </g>
  <g id="axes_1">
   <g id="patch_2">
    <path d="M 48.982813 143.1 
L 244.282813 143.1 
L 244.282813 7.2 
L 48.982813 7.2 
z
" style="fill:#ffffff;"/>
   </g>
   <g id="matplotlib.axis_1">
    <g id="xtick_1">
     <g id="line2d_1">
      <path clip-path="url(#p002a7f5481)" d="M 82.72875 143.1 
L 82.72875 7.2 
" style="fill:none;stroke:#b0b0b0;stroke-linecap:square;stroke-width:0.8;"/>
     </g>
     <g id="line2d_2">
      <defs>
       <path d="M 0 0 
L 0 3.5 
" id="me0b6e40a5d" style="stroke:#000000;stroke-width:0.8;"/>
      </defs>
      <g>
       <use style="stroke:#000000;stroke-width:0.8;" x="82.72875" xlink:href="#me0b6e40a5d" y="143.1"/>
      </g>
     </g>
     <g id="text_1">
      <!-- −20 -->
      <g transform="translate(72.176406 157.698438)scale(0.1 -0.1)">
       <defs>
        <path d="M 10.59375 35.5 
L 73.1875 35.5 
L 73.1875 27.203125 
L 10.59375 27.203125 
z
" id="DejaVuSans-8722"/>
        <path d="M 19.1875 8.296875 
L 53.609375 8.296875 
L 53.609375 0 
L 7.328125 0 
L 7.328125 8.296875 
Q 12.9375 14.109375 22.625 23.890625 
Q 32.328125 33.6875 34.8125 36.53125 
Q 39.546875 41.84375 41.421875 45.53125 
Q 43.3125 49.21875 43.3125 52.78125 
Q 43.3125 58.59375 39.234375 62.25 
Q 35.15625 65.921875 28.609375 65.921875 
Q 23.96875 65.921875 18.8125 64.3125 
Q 13.671875 62.703125 7.8125 59.421875 
L 7.8125 69.390625 
Q 13.765625 71.78125 18.9375 73 
Q 24.125 74.21875 28.421875 74.21875 
Q 39.75 74.21875 46.484375 68.546875 
Q 53.21875 62.890625 53.21875 53.421875 
Q 53.21875 48.921875 51.53125 44.890625 
Q 49.859375 40.875 45.40625 35.40625 
Q 44.1875 33.984375 37.640625 27.21875 
Q 31.109375 20.453125 19.1875 8.296875 
z
" id="DejaVuSans-50"/>
        <path d="M 31.78125 66.40625 
Q 24.171875 66.40625 20.328125 58.90625 
Q 16.5 51.421875 16.5 36.375 
Q 16.5 21.390625 20.328125 13.890625 
Q 24.171875 6.390625 31.78125 6.390625 
Q 39.453125 6.390625 43.28125 13.890625 
Q 47.125 21.390625 47.125 36.375 
Q 47.125 51.421875 43.28125 58.90625 
Q 39.453125 66.40625 31.78125 66.40625 
z
M 31.78125 74.21875 
Q 44.046875 74.21875 50.515625 64.515625 
Q 56.984375 54.828125 56.984375 36.375 
Q 56.984375 17.96875 50.515625 8.265625 
Q 44.046875 -1.421875 31.78125 -1.421875 
Q 19.53125 -1.421875 13.0625 8.265625 
Q 6.59375 17.96875 6.59375 36.375 
Q 6.59375 54.828125 13.0625 64.515625 
Q 19.53125 74.21875 31.78125 74.21875 
z
" id="DejaVuSans-48"/>
       </defs>
       <use xlink:href="#DejaVuSans-8722"/>
       <use x="83.789062" xlink:href="#DejaVuSans-50"/>
       <use x="147.412109" xlink:href="#DejaVuSans-48"/>
      </g>
     </g>
    </g>
    <g id="xtick_2">
     <g id="line2d_3">
      <path clip-path="url(#p002a7f5481)" d="M 146.632812 143.1 
L 146.632812 7.2 
" style="fill:none;stroke:#b0b0b0;stroke-linecap:square;stroke-width:0.8;"/>
     </g>
     <g id="line2d_4">
      <g>
       <use style="stroke:#000000;stroke-width:0.8;" x="146.632812" xlink:href="#me0b6e40a5d" y="143.1"/>
      </g>
     </g>
     <g id="text_2">
      <!-- 0 -->
      <g transform="translate(143.451562 157.698438)scale(0.1 -0.1)">
       <use xlink:href="#DejaVuSans-48"/>
      </g>
     </g>
    </g>
    <g id="xtick_3">
     <g id="line2d_5">
      <path clip-path="url(#p002a7f5481)" d="M 210.536875 143.1 
L 210.536875 7.2 
" style="fill:none;stroke:#b0b0b0;stroke-linecap:square;stroke-width:0.8;"/>
     </g>
     <g id="line2d_6">
      <g>
       <use style="stroke:#000000;stroke-width:0.8;" x="210.536875" xlink:href="#me0b6e40a5d" y="143.1"/>
      </g>
     </g>
     <g id="text_3">
      <!-- 20 -->
      <g transform="translate(204.174375 157.698438)scale(0.1 -0.1)">
       <use xlink:href="#DejaVuSans-50"/>
       <use x="63.623047" xlink:href="#DejaVuSans-48"/>
      </g>
     </g>
    </g>
    <g id="text_4">
     <!-- x -->
     <g transform="translate(143.673438 171.376563)scale(0.1 -0.1)">
      <defs>
       <path d="M 54.890625 54.6875 
L 35.109375 28.078125 
L 55.90625 0 
L 45.3125 0 
L 29.390625 21.484375 
L 13.484375 0 
L 2.875 0 
L 24.125 28.609375 
L 4.6875 54.6875 
L 15.28125 54.6875 
L 29.78125 35.203125 
L 44.28125 54.6875 
z
" id="DejaVuSans-120"/>
      </defs>
      <use xlink:href="#DejaVuSans-120"/>
     </g>
    </g>
   </g>
   <g id="matplotlib.axis_2">
    <g id="ytick_1">
     <g id="line2d_7">
      <path clip-path="url(#p002a7f5481)" d="M 48.982813 121.334161 
L 244.282813 121.334161 
" style="fill:none;stroke:#b0b0b0;stroke-linecap:square;stroke-width:0.8;"/>
     </g>
     <g id="line2d_8">
      <defs>
       <path d="M 0 0 
L -3.5 0 
" id="maf5ca32af3" style="stroke:#000000;stroke-width:0.8;"/>
      </defs>
      <g>
       <use style="stroke:#000000;stroke-width:0.8;" x="48.982813" xlink:href="#maf5ca32af3" y="121.334161"/>
      </g>
     </g>
     <g id="text_5">
      <!-- −20 -->
      <g transform="translate(20.878125 125.133379)scale(0.1 -0.1)">
       <use xlink:href="#DejaVuSans-8722"/>
       <use x="83.789062" xlink:href="#DejaVuSans-50"/>
       <use x="147.412109" xlink:href="#DejaVuSans-48"/>
      </g>
     </g>
    </g>
    <g id="ytick_2">
     <g id="line2d_9">
      <path clip-path="url(#p002a7f5481)" d="M 48.982813 98.242083 
L 244.282813 98.242083 
" style="fill:none;stroke:#b0b0b0;stroke-linecap:square;stroke-width:0.8;"/>
     </g>
     <g id="line2d_10">
      <g>
       <use style="stroke:#000000;stroke-width:0.8;" x="48.982813" xlink:href="#maf5ca32af3" y="98.242083"/>
      </g>
     </g>
     <g id="text_6">
      <!-- −10 -->
      <g transform="translate(20.878125 102.041301)scale(0.1 -0.1)">
       <defs>
        <path d="M 12.40625 8.296875 
L 28.515625 8.296875 
L 28.515625 63.921875 
L 10.984375 60.40625 
L 10.984375 69.390625 
L 28.421875 72.90625 
L 38.28125 72.90625 
L 38.28125 8.296875 
L 54.390625 8.296875 
L 54.390625 0 
L 12.40625 0 
z
" id="DejaVuSans-49"/>
       </defs>
       <use xlink:href="#DejaVuSans-8722"/>
       <use x="83.789062" xlink:href="#DejaVuSans-49"/>
       <use x="147.412109" xlink:href="#DejaVuSans-48"/>
      </g>
     </g>
    </g>
    <g id="ytick_3">
     <g id="line2d_11">
      <path clip-path="url(#p002a7f5481)" d="M 48.982813 75.150004 
L 244.282813 75.150004 
" style="fill:none;stroke:#b0b0b0;stroke-linecap:square;stroke-width:0.8;"/>
     </g>
     <g id="line2d_12">
      <g>
       <use style="stroke:#000000;stroke-width:0.8;" x="48.982813" xlink:href="#maf5ca32af3" y="75.150004"/>
      </g>
     </g>
     <g id="text_7">
      <!-- 0 -->
      <g transform="translate(35.620313 78.949223)scale(0.1 -0.1)">
       <use xlink:href="#DejaVuSans-48"/>
      </g>
     </g>
    </g>
    <g id="ytick_4">
     <g id="line2d_13">
      <path clip-path="url(#p002a7f5481)" d="M 48.982813 52.057926 
L 244.282813 52.057926 
" style="fill:none;stroke:#b0b0b0;stroke-linecap:square;stroke-width:0.8;"/>
     </g>
     <g id="line2d_14">
      <g>
       <use style="stroke:#000000;stroke-width:0.8;" x="48.982813" xlink:href="#maf5ca32af3" y="52.057926"/>
      </g>
     </g>
     <g id="text_8">
      <!-- 10 -->
      <g transform="translate(29.257813 55.857145)scale(0.1 -0.1)">
       <use xlink:href="#DejaVuSans-49"/>
       <use x="63.623047" xlink:href="#DejaVuSans-48"/>
      </g>
     </g>
    </g>
    <g id="ytick_5">
     <g id="line2d_15">
      <path clip-path="url(#p002a7f5481)" d="M 48.982813 28.965848 
L 244.282813 28.965848 
" style="fill:none;stroke:#b0b0b0;stroke-linecap:square;stroke-width:0.8;"/>
     </g>
     <g id="line2d_16">
      <g>
       <use style="stroke:#000000;stroke-width:0.8;" x="48.982813" xlink:href="#maf5ca32af3" y="28.965848"/>
      </g>
     </g>
     <g id="text_9">
      <!-- 20 -->
      <g transform="translate(29.257813 32.765067)scale(0.1 -0.1)">
       <use xlink:href="#DejaVuSans-50"/>
       <use x="63.623047" xlink:href="#DejaVuSans-48"/>
      </g>
     </g>
    </g>
    <g id="text_10">
     <!-- f(x) -->
     <g transform="translate(14.798438 83.771094)rotate(-90)scale(0.1 -0.1)">
      <defs>
       <path d="M 37.109375 75.984375 
L 37.109375 68.5 
L 28.515625 68.5 
Q 23.6875 68.5 21.796875 66.546875 
Q 19.921875 64.59375 19.921875 59.515625 
L 19.921875 54.6875 
L 34.71875 54.6875 
L 34.71875 47.703125 
L 19.921875 47.703125 
L 19.921875 0 
L 10.890625 0 
L 10.890625 47.703125 
L 2.296875 47.703125 
L 2.296875 54.6875 
L 10.890625 54.6875 
L 10.890625 58.5 
Q 10.890625 67.625 15.140625 71.796875 
Q 19.390625 75.984375 28.609375 75.984375 
z
" id="DejaVuSans-102"/>
       <path d="M 31 75.875 
Q 24.46875 64.65625 21.28125 53.65625 
Q 18.109375 42.671875 18.109375 31.390625 
Q 18.109375 20.125 21.3125 9.0625 
Q 24.515625 -2 31 -13.1875 
L 23.1875 -13.1875 
Q 15.875 -1.703125 12.234375 9.375 
Q 8.59375 20.453125 8.59375 31.390625 
Q 8.59375 42.28125 12.203125 53.3125 
Q 15.828125 64.359375 23.1875 75.875 
z
" id="DejaVuSans-40"/>
       <path d="M 8.015625 75.875 
L 15.828125 75.875 
Q 23.140625 64.359375 26.78125 53.3125 
Q 30.421875 42.28125 30.421875 31.390625 
Q 30.421875 20.453125 26.78125 9.375 
Q 23.140625 -1.703125 15.828125 -13.1875 
L 8.015625 -13.1875 
Q 14.5 -2 17.703125 9.0625 
Q 20.90625 20.125 20.90625 31.390625 
Q 20.90625 42.671875 17.703125 53.65625 
Q 14.5 64.65625 8.015625 75.875 
z
" id="DejaVuSans-41"/>
      </defs>
      <use xlink:href="#DejaVuSans-102"/>
      <use x="35.205078" xlink:href="#DejaVuSans-40"/>
      <use x="74.21875" xlink:href="#DejaVuSans-120"/>
      <use x="133.398438" xlink:href="#DejaVuSans-41"/>
     </g>
    </g>
   </g>
   <g id="line2d_17">
    <path clip-path="url(#p002a7f5481)" d="M 57.860085 130.630593 
L 58.690839 133.600136 
L 59.393781 135.384032 
L 60.000872 136.379287 
L 60.512104 136.824142 
L 60.927477 136.921895 
L 61.342857 136.785185 
L 61.790184 136.378943 
L 62.301416 135.59157 
L 62.908506 134.220602 
L 63.643401 131.952571 
L 64.506107 128.489803 
L 65.496619 123.54133 
L 66.678847 116.45201 
L 68.148637 106.212205 
L 70.289423 89.536543 
L 74.12367 59.579166 
L 75.721271 48.919626 
L 77.031304 41.585852 
L 78.149626 36.520711 
L 79.108185 33.14269 
L 79.938938 30.972341 
L 80.641881 29.69876 
L 81.248971 29.017279 
L 81.760203 28.743387 
L 82.239482 28.733354 
L 82.718768 28.958682 
L 83.23 29.453259 
L 83.837084 30.37181 
L 84.540032 31.866536 
L 85.37078 34.194101 
L 86.361297 37.694113 
L 87.543519 42.76727 
L 89.013316 50.150417 
L 91.122149 62.039573 
L 94.988348 83.923689 
L 96.585947 91.624331 
L 97.895979 96.915357 
L 99.014302 100.569831 
L 100.004813 103.082637 
L 100.867519 104.692002 
L 101.602415 105.630155 
L 102.241455 106.122306 
L 102.816592 106.310654 
L 103.39173 106.262399 
L 103.966864 105.983805 
L 104.605907 105.413848 
L 105.340802 104.436363 
L 106.171556 102.945478 
L 107.162067 100.686479 
L 108.344292 97.406699 
L 109.846041 92.541063 
L 112.242444 83.896549 
L 115.213977 73.366241 
L 116.843532 68.398758 
L 118.185517 64.990106 
L 119.335792 62.645275 
L 120.358256 61.043909 
L 121.252915 60.027156 
L 122.083669 59.404773 
L 122.850517 59.100057 
L 123.585412 59.042627 
L 124.320308 59.203493 
L 125.119108 59.609442 
L 126.013767 60.323782 
L 127.068184 61.47173 
L 128.346264 63.219119 
L 130.103623 66.042754 
L 134.417149 73.130373 
L 135.886946 75.040979 
L 137.133073 76.309804 
L 138.251395 77.139628 
L 139.273859 77.631715 
L 140.26437 77.867358 
L 141.254882 77.876909 
L 142.309305 77.660657 
L 143.491526 77.180936 
L 144.92937 76.342454 
L 147.613341 74.448763 
L 149.498512 73.26117 
L 150.808544 72.686589 
L 151.926861 72.432111 
L 152.949331 72.42667 
L 153.939842 72.65011 
L 154.930353 73.110379 
L 155.952817 73.836586 
L 157.071139 74.913783 
L 158.317267 76.432509 
L 159.819016 78.631179 
L 162.023702 82.308098 
L 164.963295 87.146225 
L 166.36918 89.035441 
L 167.487496 90.189218 
L 168.446067 90.869773 
L 169.276814 91.19527 
L 170.043669 91.25703 
L 170.778564 91.087316 
L 171.513459 90.683764 
L 172.280301 90.006547 
L 173.143007 88.928365 
L 174.069619 87.399941 
L 175.124042 85.209395 
L 176.306264 82.221876 
L 177.712149 78.032985 
L 179.501467 71.94848 
L 185.093072 52.382364 
L 186.371146 48.955444 
L 187.425569 46.712774 
L 188.320222 45.296151 
L 189.087076 44.4752 
L 189.726119 44.087495 
L 190.301257 43.979388 
L 190.844435 44.09312 
L 191.419573 44.446836 
L 192.058616 45.125017 
L 192.761552 46.219384 
L 193.560353 47.903217 
L 194.455018 50.332755 
L 195.477482 53.780638 
L 196.659704 58.587505 
L 198.065589 65.288748 
L 199.886866 75.153798 
L 205.574324 106.838877 
L 206.916303 112.652561 
L 208.002673 116.440744 
L 208.929285 118.912842 
L 209.696139 120.376643 
L 210.33517 121.168015 
L 210.87836 121.522082 
L 211.357634 121.585043 
L 211.836919 121.410177 
L 212.348151 120.958689 
L 212.923288 120.122039 
L 213.594278 118.70673 
L 214.361132 116.516725 
L 215.223839 113.34237 
L 216.214344 108.814717 
L 217.364619 102.468695 
L 218.738557 93.565377 
L 220.495916 80.585728 
L 226.79047 32.544559 
L 228.068557 25.15944 
L 229.122967 20.250118 
L 230.01762 17.046271 
L 230.784474 15.065654 
L 231.423517 13.985428 
L 231.934749 13.507618 
L 232.382076 13.377326 
L 232.797456 13.499999 
L 233.244782 13.896603 
L 233.756014 14.686945 
L 234.363098 16.091709 
L 235.066047 18.344553 
L 235.385562 19.58725 
L 235.385562 19.58725 
" style="fill:none;stroke:#1f77b4;stroke-linecap:square;stroke-width:1.5;"/>
   </g>
   <g id="line2d_18">
    <path clip-path="url(#p002a7f5481)" d="M 178.584844 75.150004 
L 162.608828 83.314287 
L 226.496497 34.435752 
L 235.40554 19.669416 
L 232.264564 13.385311 
L 232.373458 13.377273 
L 232.373312 13.377273 
L 232.373318 13.377273 
L 232.373318 13.377273 
L 232.373318 13.377273 
L 232.373318 13.377273 
" style="fill:none;stroke:#ff7f0e;stroke-linecap:square;stroke-width:1.5;"/>
    <defs>
     <path d="M 0 3 
C 0.795609 3 1.55874 2.683901 2.12132 2.12132 
C 2.683901 1.55874 3 0.795609 3 0 
C 3 -0.795609 2.683901 -1.55874 2.12132 -2.12132 
C 1.55874 -2.683901 0.795609 -3 0 -3 
C -0.795609 -3 -1.55874 -2.683901 -2.12132 -2.12132 
C -2.683901 -1.55874 -3 -0.795609 -3 0 
C -3 0.795609 -2.683901 1.55874 -2.12132 2.12132 
C -1.55874 2.683901 -0.795609 3 0 3 
z
" id="m3e1abc0398" style="stroke:#ff7f0e;"/>
    </defs>
    <g clip-path="url(#p002a7f5481)">
     <use style="fill:#ff7f0e;stroke:#ff7f0e;" x="178.584844" xlink:href="#m3e1abc0398" y="75.150004"/>
     <use style="fill:#ff7f0e;stroke:#ff7f0e;" x="162.608828" xlink:href="#m3e1abc0398" y="83.314287"/>
     <use style="fill:#ff7f0e;stroke:#ff7f0e;" x="226.496497" xlink:href="#m3e1abc0398" y="34.435752"/>
     <use style="fill:#ff7f0e;stroke:#ff7f0e;" x="235.40554" xlink:href="#m3e1abc0398" y="19.669416"/>
     <use style="fill:#ff7f0e;stroke:#ff7f0e;" x="232.264564" xlink:href="#m3e1abc0398" y="13.385311"/>
     <use style="fill:#ff7f0e;stroke:#ff7f0e;" x="232.373458" xlink:href="#m3e1abc0398" y="13.377273"/>
     <use style="fill:#ff7f0e;stroke:#ff7f0e;" x="232.373312" xlink:href="#m3e1abc0398" y="13.377273"/>
     <use style="fill:#ff7f0e;stroke:#ff7f0e;" x="232.373318" xlink:href="#m3e1abc0398" y="13.377273"/>
     <use style="fill:#ff7f0e;stroke:#ff7f0e;" x="232.373318" xlink:href="#m3e1abc0398" y="13.377273"/>
     <use style="fill:#ff7f0e;stroke:#ff7f0e;" x="232.373318" xlink:href="#m3e1abc0398" y="13.377273"/>
     <use style="fill:#ff7f0e;stroke:#ff7f0e;" x="232.373318" xlink:href="#m3e1abc0398" y="13.377273"/>
    </g>
   </g>
   <g id="patch_3">
    <path d="M 48.982813 143.1 
L 48.982813 7.2 
" style="fill:none;stroke:#000000;stroke-linecap:square;stroke-linejoin:miter;stroke-width:0.8;"/>
   </g>
   <g id="patch_4">
    <path d="M 244.282813 143.1 
L 244.282813 7.2 
" style="fill:none;stroke:#000000;stroke-linecap:square;stroke-linejoin:miter;stroke-width:0.8;"/>
   </g>
   <g id="patch_5">
    <path d="M 48.982813 143.1 
L 244.282812 143.1 
" style="fill:none;stroke:#000000;stroke-linecap:square;stroke-linejoin:miter;stroke-width:0.8;"/>
   </g>
   <g id="patch_6">
    <path d="M 48.982813 7.2 
L 244.282812 7.2 
" style="fill:none;stroke:#000000;stroke-linecap:square;stroke-linejoin:miter;stroke-width:0.8;"/>
   </g>
  </g>
 </g>
 <defs>
  <clipPath id="p002a7f5481">
   <rect height="135.9" width="195.3" x="48.982813" y="7.2"/>
  </clipPath>
 </defs>
</svg>
