<?xml version="1.0" encoding="utf-8" standalone="no"?>
<!DOCTYPE svg PUBLIC "-//W3C//DTD SVG 1.1//EN"
  "http://www.w3.org/Graphics/SVG/1.1/DTD/svg11.dtd">
<!-- Created with matplotlib (https://matplotlib.org/) -->
<svg height="166.978125pt" version="1.1" viewBox="0 0 223.948487 166.978125" width="223.948487pt" xmlns="http://www.w3.org/2000/svg" xmlns:xlink="http://www.w3.org/1999/xlink">
 <defs>
  <style type="text/css">
*{stroke-linecap:butt;stroke-linejoin:round;}
  </style>
 </defs>
 <g id="figure_1">
  <g id="patch_1">
   <path d="M 0 166.978125 
L 223.948487 166.978125 
L 223.948487 0 
L 0 0 
z
" style="fill:none;"/>
  </g>
  <g id="axes_1">
   <g id="patch_2">
    <path d="M 20.5625 143.1 
L 215.8625 143.1 
L 215.8625 7.2 
L 20.5625 7.2 
z
" style="fill:#ffffff;"/>
   </g>
   <g id="matplotlib.axis_1">
    <g id="xtick_1">
     <g id="line2d_1">
      <defs>
       <path d="M 0 0 
L 0 3.5 
" id="mc7d53aaf1e" style="stroke:#000000;stroke-width:0.8;"/>
      </defs>
      <g>
       <use style="stroke:#000000;stroke-width:0.8;" x="27.628084" xlink:href="#mc7d53aaf1e" y="143.1"/>
      </g>
     </g>
     <g id="text_1">
      <!-- 0.0 -->
      <defs>
       <path d="M 31.78125 66.40625 
Q 24.171875 66.40625 20.328125 58.90625 
Q 16.5 51.421875 16.5 36.375 
Q 16.5 21.390625 20.328125 13.890625 
Q 24.171875 6.390625 31.78125 6.390625 
Q 39.453125 6.390625 43.28125 13.890625 
Q 47.125 21.390625 47.125 36.375 
Q 47.125 51.421875 43.28125 58.90625 
Q 39.453125 66.40625 31.78125 66.40625 
z
M 31.78125 74.21875 
Q 44.046875 74.21875 50.515625 64.515625 
Q 56.984375 54.828125 56.984375 36.375 
Q 56.984375 17.96875 50.515625 8.265625 
Q 44.046875 -1.421875 31.78125 -1.421875 
Q 19.53125 -1.421875 13.0625 8.265625 
Q 6.59375 17.96875 6.59375 36.375 
Q 6.59375 54.828125 13.0625 64.515625 
Q 19.53125 74.21875 31.78125 74.21875 
z
" id="DejaVuSans-48"/>
       <path d="M 10.6875 12.40625 
L 21 12.40625 
L 21 0 
L 10.6875 0 
z
" id="DejaVuSans-46"/>
      </defs>
      <g transform="translate(19.676522 157.698438)scale(0.1 -0.1)">
       <use xlink:href="#DejaVuSans-48"/>
       <use x="63.623047" xlink:href="#DejaVuSans-46"/>
       <use x="95.410156" xlink:href="#DejaVuSans-48"/>
      </g>
     </g>
    </g>
    <g id="xtick_2">
     <g id="line2d_2">
      <g>
       <use style="stroke:#000000;stroke-width:0.8;" x="63.861852" xlink:href="#mc7d53aaf1e" y="143.1"/>
      </g>
     </g>
     <g id="text_2">
      <!-- 0.2 -->
      <defs>
       <path d="M 19.1875 8.296875 
L 53.609375 8.296875 
L 53.609375 0 
L 7.328125 0 
L 7.328125 8.296875 
Q 12.9375 14.109375 22.625 23.890625 
Q 32.328125 33.6875 34.8125 36.53125 
Q 39.546875 41.84375 41.421875 45.53125 
Q 43.3125 49.21875 43.3125 52.78125 
Q 43.3125 58.59375 39.234375 62.25 
Q 35.15625 65.921875 28.609375 65.921875 
Q 23.96875 65.921875 18.8125 64.3125 
Q 13.671875 62.703125 7.8125 59.421875 
L 7.8125 69.390625 
Q 13.765625 71.78125 18.9375 73 
Q 24.125 74.21875 28.421875 74.21875 
Q 39.75 74.21875 46.484375 68.546875 
Q 53.21875 62.890625 53.21875 53.421875 
Q 53.21875 48.921875 51.53125 44.890625 
Q 49.859375 40.875 45.40625 35.40625 
Q 44.1875 33.984375 37.640625 27.21875 
Q 31.109375 20.453125 19.1875 8.296875 
z
" id="DejaVuSans-50"/>
      </defs>
      <g transform="translate(55.91029 157.698438)scale(0.1 -0.1)">
       <use xlink:href="#DejaVuSans-48"/>
       <use x="63.623047" xlink:href="#DejaVuSans-46"/>
       <use x="95.410156" xlink:href="#DejaVuSans-50"/>
      </g>
     </g>
    </g>
    <g id="xtick_3">
     <g id="line2d_3">
      <g>
       <use style="stroke:#000000;stroke-width:0.8;" x="100.095621" xlink:href="#mc7d53aaf1e" y="143.1"/>
      </g>
     </g>
     <g id="text_3">
      <!-- 0.4 -->
      <defs>
       <path d="M 37.796875 64.3125 
L 12.890625 25.390625 
L 37.796875 25.390625 
z
M 35.203125 72.90625 
L 47.609375 72.90625 
L 47.609375 25.390625 
L 58.015625 25.390625 
L 58.015625 17.1875 
L 47.609375 17.1875 
L 47.609375 0 
L 37.796875 0 
L 37.796875 17.1875 
L 4.890625 17.1875 
L 4.890625 26.703125 
z
" id="DejaVuSans-52"/>
      </defs>
      <g transform="translate(92.144058 157.698438)scale(0.1 -0.1)">
       <use xlink:href="#DejaVuSans-48"/>
       <use x="63.623047" xlink:href="#DejaVuSans-46"/>
       <use x="95.410156" xlink:href="#DejaVuSans-52"/>
      </g>
     </g>
    </g>
    <g id="xtick_4">
     <g id="line2d_4">
      <g>
       <use style="stroke:#000000;stroke-width:0.8;" x="136.329389" xlink:href="#mc7d53aaf1e" y="143.1"/>
      </g>
     </g>
     <g id="text_4">
      <!-- 0.6 -->
      <defs>
       <path d="M 33.015625 40.375 
Q 26.375 40.375 22.484375 35.828125 
Q 18.609375 31.296875 18.609375 23.390625 
Q 18.609375 15.53125 22.484375 10.953125 
Q 26.375 6.390625 33.015625 6.390625 
Q 39.65625 6.390625 43.53125 10.953125 
Q 47.40625 15.53125 47.40625 23.390625 
Q 47.40625 31.296875 43.53125 35.828125 
Q 39.65625 40.375 33.015625 40.375 
z
M 52.59375 71.296875 
L 52.59375 62.3125 
Q 48.875 64.0625 45.09375 64.984375 
Q 41.3125 65.921875 37.59375 65.921875 
Q 27.828125 65.921875 22.671875 59.328125 
Q 17.53125 52.734375 16.796875 39.40625 
Q 19.671875 43.65625 24.015625 45.921875 
Q 28.375 48.1875 33.59375 48.1875 
Q 44.578125 48.1875 50.953125 41.515625 
Q 57.328125 34.859375 57.328125 23.390625 
Q 57.328125 12.15625 50.6875 5.359375 
Q 44.046875 -1.421875 33.015625 -1.421875 
Q 20.359375 -1.421875 13.671875 8.265625 
Q 6.984375 17.96875 6.984375 36.375 
Q 6.984375 53.65625 15.1875 63.9375 
Q 23.390625 74.21875 37.203125 74.21875 
Q 40.921875 74.21875 44.703125 73.484375 
Q 48.484375 72.75 52.59375 71.296875 
z
" id="DejaVuSans-54"/>
      </defs>
      <g transform="translate(128.377826 157.698438)scale(0.1 -0.1)">
       <use xlink:href="#DejaVuSans-48"/>
       <use x="63.623047" xlink:href="#DejaVuSans-46"/>
       <use x="95.410156" xlink:href="#DejaVuSans-54"/>
      </g>
     </g>
    </g>
    <g id="xtick_5">
     <g id="line2d_5">
      <g>
       <use style="stroke:#000000;stroke-width:0.8;" x="172.563157" xlink:href="#mc7d53aaf1e" y="143.1"/>
      </g>
     </g>
     <g id="text_5">
      <!-- 0.8 -->
      <defs>
       <path d="M 31.78125 34.625 
Q 24.75 34.625 20.71875 30.859375 
Q 16.703125 27.09375 16.703125 20.515625 
Q 16.703125 13.921875 20.71875 10.15625 
Q 24.75 6.390625 31.78125 6.390625 
Q 38.8125 6.390625 42.859375 10.171875 
Q 46.921875 13.96875 46.921875 20.515625 
Q 46.921875 27.09375 42.890625 30.859375 
Q 38.875 34.625 31.78125 34.625 
z
M 21.921875 38.8125 
Q 15.578125 40.375 12.03125 44.71875 
Q 8.5 49.078125 8.5 55.328125 
Q 8.5 64.0625 14.71875 69.140625 
Q 20.953125 74.21875 31.78125 74.21875 
Q 42.671875 74.21875 48.875 69.140625 
Q 55.078125 64.0625 55.078125 55.328125 
Q 55.078125 49.078125 51.53125 44.71875 
Q 48 40.375 41.703125 38.8125 
Q 48.828125 37.15625 52.796875 32.3125 
Q 56.78125 27.484375 56.78125 20.515625 
Q 56.78125 9.90625 50.3125 4.234375 
Q 43.84375 -1.421875 31.78125 -1.421875 
Q 19.734375 -1.421875 13.25 4.234375 
Q 6.78125 9.90625 6.78125 20.515625 
Q 6.78125 27.484375 10.78125 32.3125 
Q 14.796875 37.15625 21.921875 38.8125 
z
M 18.3125 54.390625 
Q 18.3125 48.734375 21.84375 45.5625 
Q 25.390625 42.390625 31.78125 42.390625 
Q 38.140625 42.390625 41.71875 45.5625 
Q 45.3125 48.734375 45.3125 54.390625 
Q 45.3125 60.0625 41.71875 63.234375 
Q 38.140625 66.40625 31.78125 66.40625 
Q 25.390625 66.40625 21.84375 63.234375 
Q 18.3125 60.0625 18.3125 54.390625 
z
" id="DejaVuSans-56"/>
      </defs>
      <g transform="translate(164.611594 157.698438)scale(0.1 -0.1)">
       <use xlink:href="#DejaVuSans-48"/>
       <use x="63.623047" xlink:href="#DejaVuSans-46"/>
       <use x="95.410156" xlink:href="#DejaVuSans-56"/>
      </g>
     </g>
    </g>
    <g id="xtick_6">
     <g id="line2d_6">
      <g>
       <use style="stroke:#000000;stroke-width:0.8;" x="208.796925" xlink:href="#mc7d53aaf1e" y="143.1"/>
      </g>
     </g>
     <g id="text_6">
      <!-- 1.0 -->
      <defs>
       <path d="M 12.40625 8.296875 
L 28.515625 8.296875 
L 28.515625 63.921875 
L 10.984375 60.40625 
L 10.984375 69.390625 
L 28.421875 72.90625 
L 38.28125 72.90625 
L 38.28125 8.296875 
L 54.390625 8.296875 
L 54.390625 0 
L 12.40625 0 
z
" id="DejaVuSans-49"/>
      </defs>
      <g transform="translate(200.845362 157.698438)scale(0.1 -0.1)">
       <use xlink:href="#DejaVuSans-49"/>
       <use x="63.623047" xlink:href="#DejaVuSans-46"/>
       <use x="95.410156" xlink:href="#DejaVuSans-48"/>
      </g>
     </g>
    </g>
   </g>
   <g id="matplotlib.axis_2">
    <g id="ytick_1">
     <g id="line2d_7">
      <defs>
       <path d="M 0 0 
L -3.5 0 
" id="ma131a98d31" style="stroke:#000000;stroke-width:0.8;"/>
      </defs>
      <g>
       <use style="stroke:#000000;stroke-width:0.8;" x="20.5625" xlink:href="#ma131a98d31" y="136.922727"/>
      </g>
     </g>
     <g id="text_7">
      <!-- 0 -->
      <g transform="translate(7.2 140.721946)scale(0.1 -0.1)">
       <use xlink:href="#DejaVuSans-48"/>
      </g>
     </g>
    </g>
    <g id="ytick_2">
     <g id="line2d_8">
      <g>
       <use style="stroke:#000000;stroke-width:0.8;" x="20.5625" xlink:href="#ma131a98d31" y="110.095173"/>
      </g>
     </g>
     <g id="text_8">
      <!-- 1 -->
      <g transform="translate(7.2 113.894392)scale(0.1 -0.1)">
       <use xlink:href="#DejaVuSans-49"/>
      </g>
     </g>
    </g>
    <g id="ytick_3">
     <g id="line2d_9">
      <g>
       <use style="stroke:#000000;stroke-width:0.8;" x="20.5625" xlink:href="#ma131a98d31" y="83.267619"/>
      </g>
     </g>
     <g id="text_9">
      <!-- 2 -->
      <g transform="translate(7.2 87.066838)scale(0.1 -0.1)">
       <use xlink:href="#DejaVuSans-50"/>
      </g>
     </g>
    </g>
    <g id="ytick_4">
     <g id="line2d_10">
      <g>
       <use style="stroke:#000000;stroke-width:0.8;" x="20.5625" xlink:href="#ma131a98d31" y="56.440065"/>
      </g>
     </g>
     <g id="text_10">
      <!-- 3 -->
      <defs>
       <path d="M 40.578125 39.3125 
Q 47.65625 37.796875 51.625 33 
Q 55.609375 28.21875 55.609375 21.1875 
Q 55.609375 10.40625 48.1875 4.484375 
Q 40.765625 -1.421875 27.09375 -1.421875 
Q 22.515625 -1.421875 17.65625 -0.515625 
Q 12.796875 0.390625 7.625 2.203125 
L 7.625 11.71875 
Q 11.71875 9.328125 16.59375 8.109375 
Q 21.484375 6.890625 26.8125 6.890625 
Q 36.078125 6.890625 40.9375 10.546875 
Q 45.796875 14.203125 45.796875 21.1875 
Q 45.796875 27.640625 41.28125 31.265625 
Q 36.765625 34.90625 28.71875 34.90625 
L 20.21875 34.90625 
L 20.21875 43.015625 
L 29.109375 43.015625 
Q 36.375 43.015625 40.234375 45.921875 
Q 44.09375 48.828125 44.09375 54.296875 
Q 44.09375 59.90625 40.109375 62.90625 
Q 36.140625 65.921875 28.71875 65.921875 
Q 24.65625 65.921875 20.015625 65.03125 
Q 15.375 64.15625 9.8125 62.3125 
L 9.8125 71.09375 
Q 15.4375 72.65625 20.34375 73.4375 
Q 25.25 74.21875 29.59375 74.21875 
Q 40.828125 74.21875 47.359375 69.109375 
Q 53.90625 64.015625 53.90625 55.328125 
Q 53.90625 49.265625 50.4375 45.09375 
Q 46.96875 40.921875 40.578125 39.3125 
z
" id="DejaVuSans-51"/>
      </defs>
      <g transform="translate(7.2 60.239283)scale(0.1 -0.1)">
       <use xlink:href="#DejaVuSans-51"/>
      </g>
     </g>
    </g>
    <g id="ytick_5">
     <g id="line2d_11">
      <g>
       <use style="stroke:#000000;stroke-width:0.8;" x="20.5625" xlink:href="#ma131a98d31" y="29.61251"/>
      </g>
     </g>
     <g id="text_11">
      <!-- 4 -->
      <g transform="translate(7.2 33.411729)scale(0.1 -0.1)">
       <use xlink:href="#DejaVuSans-52"/>
      </g>
     </g>
    </g>
   </g>
   <g id="line2d_12">
    <path clip-path="url(#pd6dcbb56ab)" d="M 29.439773 13.377273 
L 31.251461 31.972716 
L 33.063149 42.850354 
L 34.874838 50.56816 
L 36.686526 56.554556 
L 38.498214 61.445798 
L 40.309903 65.581285 
L 42.121591 69.163604 
L 43.933279 72.323435 
L 45.744967 75.15 
L 47.556655 77.70694 
L 49.368345 80.041241 
L 51.180033 82.188588 
L 52.991722 84.176728 
L 54.803412 86.027638 
L 56.615098 87.759047 
L 58.426788 89.38546 
L 60.238477 90.918882 
L 62.050164 92.369371 
L 63.861853 93.745444 
L 65.67354 95.054366 
L 67.485229 96.302383 
L 69.296918 97.494917 
L 71.108605 98.636685 
L 72.920294 99.73184 
L 74.731981 100.784035 
L 76.543668 101.796513 
L 78.355354 102.772169 
L 80.167047 103.713585 
L 81.978733 104.623081 
L 83.79042 105.502749 
L 85.602112 106.354491 
L 87.413799 107.180018 
L 89.225485 107.980901 
L 91.037177 108.758568 
L 92.848864 109.514322 
L 94.660551 110.249369 
L 96.472243 110.964815 
L 98.28393 111.661673 
L 100.095616 112.340886 
L 101.907303 113.003328 
L 103.718995 113.649808 
L 105.530682 114.281073 
L 107.342368 114.897825 
L 109.15406 115.500717 
L 110.965747 116.090358 
L 112.777434 116.667316 
L 114.589126 117.232128 
L 116.400812 117.785293 
L 118.212499 118.327282 
L 120.024191 118.85854 
L 121.835878 119.379479 
L 123.647565 119.890494 
L 125.459251 120.391959 
L 127.270938 120.88422 
L 129.082635 121.367615 
L 130.894322 121.842451 
L 132.706009 122.309029 
L 134.517695 122.76763 
L 136.329382 123.218523 
L 138.141069 123.661964 
L 139.952766 124.098196 
L 141.764453 124.527445 
L 143.57614 124.949935 
L 145.387826 125.365874 
L 147.199513 125.775463 
L 149.0112 126.178892 
L 150.822886 126.576344 
L 152.634584 126.967996 
L 154.44627 127.35401 
L 156.257957 127.734549 
L 158.069644 128.109765 
L 159.881331 128.479806 
L 161.693017 128.844812 
L 163.504715 129.204921 
L 165.316401 129.560257 
L 167.128088 129.910949 
L 168.939775 130.257116 
L 170.751461 130.598872 
L 172.563148 130.93633 
L 174.374835 131.269595 
L 176.186532 131.598774 
L 177.998219 131.92396 
L 179.809906 132.245251 
L 181.621592 132.562741 
L 183.433279 132.876517 
L 185.244966 133.186665 
L 187.056663 133.49327 
L 188.86835 133.79641 
L 190.680036 134.096162 
L 192.491723 134.392601 
L 194.30341 134.685801 
L 196.115096 134.975832 
L 197.926794 135.262761 
L 199.738481 135.546653 
L 201.550167 135.827572 
L 203.361854 136.10558 
L 205.173541 136.380737 
L 206.985227 136.6531 
" style="fill:none;stroke:#1f77b4;stroke-linecap:square;stroke-width:1.5;"/>
   </g>
   <g id="line2d_13">
    <path clip-path="url(#pd6dcbb56ab)" d="M 29.439773 14.612722 
L 31.251461 34.071715 
L 33.063149 45.672525 
L 34.874838 54.022344 
L 36.686526 60.572967 
L 38.498214 65.974413 
L 40.309903 70.575185 
L 42.121591 74.584334 
L 43.933279 78.137371 
L 45.744967 81.327271 
L 47.556655 84.220676 
L 49.368345 86.867019 
L 51.180033 89.304027 
L 52.991722 91.561168 
L 54.803412 93.6619 
L 56.615098 95.625235 
L 58.426788 97.466797 
L 60.238477 99.199575 
L 62.050164 100.834508 
L 63.861853 102.380901 
L 65.67354 103.846722 
L 67.485229 105.238861 
L 69.296918 106.563314 
L 71.108605 107.825336 
L 72.920294 109.029562 
L 74.731981 110.180095 
L 76.543668 111.28059 
L 78.355354 112.334325 
L 80.167047 113.344235 
L 81.978733 114.312974 
L 83.79042 115.24294 
L 85.602112 116.136326 
L 87.413799 116.995111 
L 89.225485 117.821121 
L 91.037177 118.616025 
L 92.848864 119.381348 
L 94.660551 120.118512 
L 96.472243 120.828821 
L 98.28393 121.513484 
L 100.095616 122.173621 
L 101.907303 122.81028 
L 103.718995 123.424433 
L 105.530682 124.016983 
L 107.342368 124.588781 
L 109.15406 125.140622 
L 110.965747 125.673247 
L 112.777434 126.187359 
L 114.589126 126.683616 
L 116.400812 127.162636 
L 118.212499 127.625005 
L 120.024191 128.071275 
L 121.835878 128.501968 
L 123.647565 128.917577 
L 125.459251 129.318573 
L 127.270938 129.705398 
L 129.082635 130.078478 
L 130.894322 130.438208 
L 132.706009 130.784973 
L 134.517695 131.119137 
L 136.329382 131.441045 
L 138.141069 131.751029 
L 139.952766 132.049405 
L 141.764453 132.336473 
L 143.57614 132.612522 
L 145.387826 132.877828 
L 147.199513 133.132657 
L 149.0112 133.377261 
L 150.822886 133.611884 
L 152.634584 133.836761 
L 154.44627 134.052112 
L 156.257957 134.258155 
L 158.069644 134.455098 
L 159.881331 134.643138 
L 161.693017 134.822469 
L 163.504715 134.993276 
L 165.316401 135.155735 
L 167.128088 135.310018 
L 168.939775 135.456293 
L 170.751461 135.594717 
L 172.563148 135.725448 
L 174.374835 135.848632 
L 176.186532 135.964416 
L 177.998219 136.072937 
L 179.809906 136.174331 
L 181.621592 136.268729 
L 183.433279 136.356258 
L 185.244966 136.437039 
L 187.056663 136.511192 
L 188.86835 136.578832 
L 190.680036 136.640071 
L 192.491723 136.695016 
L 194.30341 136.743773 
L 196.115096 136.786444 
L 197.926794 136.823129 
L 199.738481 136.853924 
L 201.550167 136.878921 
L 203.361854 136.898213 
L 205.173541 136.911887 
L 206.985227 136.920031 
" style="fill:none;stroke:#ff7f0e;stroke-dasharray:5.55,2.4;stroke-dashoffset:0;stroke-width:1.5;"/>
   </g>
   <g id="line2d_14">
    <path clip-path="url(#pd6dcbb56ab)" d="M 29.439773 19.432223 
L 31.251461 42.056223 
L 33.063149 56.139572 
L 34.874838 66.511578 
L 36.686526 74.735374 
L 38.498214 81.529909 
L 40.309903 87.291316 
L 42.121591 92.263936 
L 43.933279 96.610686 
L 45.744967 100.446553 
L 47.556655 103.856284 
L 49.368345 106.904553 
L 51.180033 109.642086 
L 52.991722 112.109582 
L 54.803412 114.340302 
L 56.615098 116.361886 
L 58.426788 118.197606 
L 60.238477 119.86727 
L 62.050164 121.387933 
L 63.861853 122.774394 
L 65.67354 124.039595 
L 67.485229 125.194928 
L 69.296918 126.250472 
L 71.108605 127.215204 
L 72.920294 128.097155 
L 74.731981 128.903527 
L 76.543668 129.64081 
L 78.355354 130.314874 
L 80.167047 130.931035 
L 81.978733 131.494124 
L 83.79042 132.008542 
L 85.602112 132.478309 
L 87.413799 132.907089 
L 89.225485 133.298247 
L 91.037177 133.654867 
L 92.848864 133.979773 
L 94.660551 134.275566 
L 96.472243 134.544638 
L 98.28393 134.789188 
L 100.095616 135.011243 
L 101.907303 135.212671 
L 103.718995 135.395193 
L 105.530682 135.560396 
L 107.342368 135.709745 
L 109.15406 135.844591 
L 110.965747 135.966178 
L 112.777434 136.075655 
L 114.589126 136.174083 
L 116.400812 136.262438 
L 118.212499 136.34162 
L 120.024191 136.412459 
L 121.835878 136.475718 
L 123.647565 136.532101 
L 125.459251 136.582254 
L 127.270938 136.626772 
L 129.082635 136.666198 
L 130.894322 136.701034 
L 132.706009 136.731739 
L 134.517695 136.758732 
L 136.329382 136.782396 
L 138.141069 136.803083 
L 139.952766 136.821112 
L 141.764453 136.836773 
L 143.57614 136.850332 
L 145.387826 136.862028 
L 147.199513 136.872079 
L 149.0112 136.880681 
L 150.822886 136.888011 
L 152.634584 136.894228 
L 154.44627 136.899475 
L 156.257957 136.903881 
L 158.069644 136.90756 
L 159.881331 136.910613 
L 161.693017 136.91313 
L 163.504715 136.91519 
L 165.316401 136.916865 
L 167.128088 136.918214 
L 168.939775 136.919292 
L 170.751461 136.920145 
L 172.563148 136.920812 
L 174.374835 136.921327 
L 176.186532 136.921721 
L 177.998219 136.922018 
L 179.809906 136.922237 
L 181.621592 136.922396 
L 183.433279 136.92251 
L 185.244966 136.922589 
L 187.056663 136.922642 
L 188.86835 136.922677 
L 190.680036 136.922699 
L 192.491723 136.922712 
L 194.30341 136.92272 
L 196.115096 136.922724 
L 197.926794 136.922726 
L 199.738481 136.922727 
L 201.550167 136.922727 
L 203.361854 136.922727 
L 205.173541 136.922727 
L 206.985227 136.922727 
" style="fill:none;stroke:#2ca02c;stroke-dasharray:9.6,2.4,1.5,2.4;stroke-dashoffset:0;stroke-width:1.5;"/>
   </g>
   <g id="patch_3">
    <path d="M 20.5625 143.1 
L 20.5625 7.2 
" style="fill:none;stroke:#000000;stroke-linecap:square;stroke-linejoin:miter;stroke-width:0.8;"/>
   </g>
   <g id="patch_4">
    <path d="M 215.8625 143.1 
L 215.8625 7.2 
" style="fill:none;stroke:#000000;stroke-linecap:square;stroke-linejoin:miter;stroke-width:0.8;"/>
   </g>
   <g id="patch_5">
    <path d="M 20.5625 143.1 
L 215.8625 143.1 
" style="fill:none;stroke:#000000;stroke-linecap:square;stroke-linejoin:miter;stroke-width:0.8;"/>
   </g>
   <g id="patch_6">
    <path d="M 20.5625 7.2 
L 215.8625 7.2 
" style="fill:none;stroke:#000000;stroke-linecap:square;stroke-linejoin:miter;stroke-width:0.8;"/>
   </g>
   <g id="legend_1">
    <g id="patch_7">
     <path d="M 114.49375 59.234375 
L 208.8625 59.234375 
Q 210.8625 59.234375 210.8625 57.234375 
L 210.8625 14.2 
Q 210.8625 12.2 208.8625 12.2 
L 114.49375 12.2 
Q 112.49375 12.2 112.49375 14.2 
L 112.49375 57.234375 
Q 112.49375 59.234375 114.49375 59.234375 
z
" style="fill:#ffffff;opacity:0.8;stroke:#cccccc;stroke-linejoin:miter;"/>
    </g>
    <g id="line2d_15">
     <path d="M 116.49375 20.298438 
L 136.49375 20.298438 
" style="fill:none;stroke:#1f77b4;stroke-linecap:square;stroke-width:1.5;"/>
    </g>
    <g id="line2d_16"/>
    <g id="text_12">
     <!-- gamma=0.0 -->
     <defs>
      <path d="M 45.40625 27.984375 
Q 45.40625 37.75 41.375 43.109375 
Q 37.359375 48.484375 30.078125 48.484375 
Q 22.859375 48.484375 18.828125 43.109375 
Q 14.796875 37.75 14.796875 27.984375 
Q 14.796875 18.265625 18.828125 12.890625 
Q 22.859375 7.515625 30.078125 7.515625 
Q 37.359375 7.515625 41.375 12.890625 
Q 45.40625 18.265625 45.40625 27.984375 
z
M 54.390625 6.78125 
Q 54.390625 -7.171875 48.1875 -13.984375 
Q 42 -20.796875 29.203125 -20.796875 
Q 24.46875 -20.796875 20.265625 -20.09375 
Q 16.0625 -19.390625 12.109375 -17.921875 
L 12.109375 -9.1875 
Q 16.0625 -11.328125 19.921875 -12.34375 
Q 23.78125 -13.375 27.78125 -13.375 
Q 36.625 -13.375 41.015625 -8.765625 
Q 45.40625 -4.15625 45.40625 5.171875 
L 45.40625 9.625 
Q 42.625 4.78125 38.28125 2.390625 
Q 33.9375 0 27.875 0 
Q 17.828125 0 11.671875 7.65625 
Q 5.515625 15.328125 5.515625 27.984375 
Q 5.515625 40.671875 11.671875 48.328125 
Q 17.828125 56 27.875 56 
Q 33.9375 56 38.28125 53.609375 
Q 42.625 51.21875 45.40625 46.390625 
L 45.40625 54.6875 
L 54.390625 54.6875 
z
" id="DejaVuSans-103"/>
      <path d="M 34.28125 27.484375 
Q 23.390625 27.484375 19.1875 25 
Q 14.984375 22.515625 14.984375 16.5 
Q 14.984375 11.71875 18.140625 8.90625 
Q 21.296875 6.109375 26.703125 6.109375 
Q 34.1875 6.109375 38.703125 11.40625 
Q 43.21875 16.703125 43.21875 25.484375 
L 43.21875 27.484375 
z
M 52.203125 31.203125 
L 52.203125 0 
L 43.21875 0 
L 43.21875 8.296875 
Q 40.140625 3.328125 35.546875 0.953125 
Q 30.953125 -1.421875 24.3125 -1.421875 
Q 15.921875 -1.421875 10.953125 3.296875 
Q 6 8.015625 6 15.921875 
Q 6 25.140625 12.171875 29.828125 
Q 18.359375 34.515625 30.609375 34.515625 
L 43.21875 34.515625 
L 43.21875 35.40625 
Q 43.21875 41.609375 39.140625 45 
Q 35.0625 48.390625 27.6875 48.390625 
Q 23 48.390625 18.546875 47.265625 
Q 14.109375 46.140625 10.015625 43.890625 
L 10.015625 52.203125 
Q 14.9375 54.109375 19.578125 55.046875 
Q 24.21875 56 28.609375 56 
Q 40.484375 56 46.34375 49.84375 
Q 52.203125 43.703125 52.203125 31.203125 
z
" id="DejaVuSans-97"/>
      <path d="M 52 44.1875 
Q 55.375 50.25 60.0625 53.125 
Q 64.75 56 71.09375 56 
Q 79.640625 56 84.28125 50.015625 
Q 88.921875 44.046875 88.921875 33.015625 
L 88.921875 0 
L 79.890625 0 
L 79.890625 32.71875 
Q 79.890625 40.578125 77.09375 44.375 
Q 74.3125 48.1875 68.609375 48.1875 
Q 61.625 48.1875 57.5625 43.546875 
Q 53.515625 38.921875 53.515625 30.90625 
L 53.515625 0 
L 44.484375 0 
L 44.484375 32.71875 
Q 44.484375 40.625 41.703125 44.40625 
Q 38.921875 48.1875 33.109375 48.1875 
Q 26.21875 48.1875 22.15625 43.53125 
Q 18.109375 38.875 18.109375 30.90625 
L 18.109375 0 
L 9.078125 0 
L 9.078125 54.6875 
L 18.109375 54.6875 
L 18.109375 46.1875 
Q 21.1875 51.21875 25.484375 53.609375 
Q 29.78125 56 35.6875 56 
Q 41.65625 56 45.828125 52.96875 
Q 50 49.953125 52 44.1875 
z
" id="DejaVuSans-109"/>
      <path d="M 10.59375 45.40625 
L 73.1875 45.40625 
L 73.1875 37.203125 
L 10.59375 37.203125 
z
M 10.59375 25.484375 
L 73.1875 25.484375 
L 73.1875 17.1875 
L 10.59375 17.1875 
z
" id="DejaVuSans-61"/>
     </defs>
     <g transform="translate(144.49375 23.798438)scale(0.1 -0.1)">
      <use xlink:href="#DejaVuSans-103"/>
      <use x="63.476562" xlink:href="#DejaVuSans-97"/>
      <use x="124.755859" xlink:href="#DejaVuSans-109"/>
      <use x="222.167969" xlink:href="#DejaVuSans-109"/>
      <use x="319.580078" xlink:href="#DejaVuSans-97"/>
      <use x="380.859375" xlink:href="#DejaVuSans-61"/>
      <use x="464.648438" xlink:href="#DejaVuSans-48"/>
      <use x="528.271484" xlink:href="#DejaVuSans-46"/>
      <use x="560.058594" xlink:href="#DejaVuSans-48"/>
     </g>
    </g>
    <g id="line2d_17">
     <path d="M 116.49375 34.976562 
L 136.49375 34.976562 
" style="fill:none;stroke:#ff7f0e;stroke-dasharray:5.55,2.4;stroke-dashoffset:0;stroke-width:1.5;"/>
    </g>
    <g id="line2d_18"/>
    <g id="text_13">
     <!-- gamma=1.0 -->
     <g transform="translate(144.49375 38.476562)scale(0.1 -0.1)">
      <use xlink:href="#DejaVuSans-103"/>
      <use x="63.476562" xlink:href="#DejaVuSans-97"/>
      <use x="124.755859" xlink:href="#DejaVuSans-109"/>
      <use x="222.167969" xlink:href="#DejaVuSans-109"/>
      <use x="319.580078" xlink:href="#DejaVuSans-97"/>
      <use x="380.859375" xlink:href="#DejaVuSans-61"/>
      <use x="464.648438" xlink:href="#DejaVuSans-49"/>
      <use x="528.271484" xlink:href="#DejaVuSans-46"/>
      <use x="560.058594" xlink:href="#DejaVuSans-48"/>
     </g>
    </g>
    <g id="line2d_19">
     <path d="M 116.49375 49.654688 
L 136.49375 49.654688 
" style="fill:none;stroke:#2ca02c;stroke-dasharray:9.6,2.4,1.5,2.4;stroke-dashoffset:0;stroke-width:1.5;"/>
    </g>
    <g id="line2d_20"/>
    <g id="text_14">
     <!-- gamma=5.0 -->
     <defs>
      <path d="M 10.796875 72.90625 
L 49.515625 72.90625 
L 49.515625 64.59375 
L 19.828125 64.59375 
L 19.828125 46.734375 
Q 21.96875 47.46875 24.109375 47.828125 
Q 26.265625 48.1875 28.421875 48.1875 
Q 40.625 48.1875 47.75 41.5 
Q 54.890625 34.8125 54.890625 23.390625 
Q 54.890625 11.625 47.5625 5.09375 
Q 40.234375 -1.421875 26.90625 -1.421875 
Q 22.3125 -1.421875 17.546875 -0.640625 
Q 12.796875 0.140625 7.71875 1.703125 
L 7.71875 11.625 
Q 12.109375 9.234375 16.796875 8.0625 
Q 21.484375 6.890625 26.703125 6.890625 
Q 35.15625 6.890625 40.078125 11.328125 
Q 45.015625 15.765625 45.015625 23.390625 
Q 45.015625 31 40.078125 35.4375 
Q 35.15625 39.890625 26.703125 39.890625 
Q 22.75 39.890625 18.8125 39.015625 
Q 14.890625 38.140625 10.796875 36.28125 
z
" id="DejaVuSans-53"/>
     </defs>
     <g transform="translate(144.49375 53.154688)scale(0.1 -0.1)">
      <use xlink:href="#DejaVuSans-103"/>
      <use x="63.476562" xlink:href="#DejaVuSans-97"/>
      <use x="124.755859" xlink:href="#DejaVuSans-109"/>
      <use x="222.167969" xlink:href="#DejaVuSans-109"/>
      <use x="319.580078" xlink:href="#DejaVuSans-97"/>
      <use x="380.859375" xlink:href="#DejaVuSans-61"/>
      <use x="464.648438" xlink:href="#DejaVuSans-53"/>
      <use x="528.271484" xlink:href="#DejaVuSans-46"/>
      <use x="560.058594" xlink:href="#DejaVuSans-48"/>
     </g>
    </g>
   </g>
  </g>
 </g>
 <defs>
  <clipPath id="pd6dcbb56ab">
   <rect height="135.9" width="195.3" x="20.5625" y="7.2"/>
  </clipPath>
 </defs>
</svg>
