<?xml version="1.0" encoding="utf-8" standalone="no"?>
<!DOCTYPE svg PUBLIC "-//W3C//DTD SVG 1.1//EN"
  "http://www.w3.org/Graphics/SVG/1.1/DTD/svg11.dtd">
<!-- Created with matplotlib (https://matplotlib.org/) -->
<svg height="166.978125pt" version="1.1" viewBox="0 0 240.982812 166.978125" width="240.982812pt" xmlns="http://www.w3.org/2000/svg" xmlns:xlink="http://www.w3.org/1999/xlink">
 <defs>
  <style type="text/css">
*{stroke-linecap:butt;stroke-linejoin:round;}
  </style>
 </defs>
 <g id="figure_1">
  <g id="patch_1">
   <path d="M -0 166.978125 
L 240.982813 166.978125 
L 240.982813 0 
L -0 0 
z
" style="fill:none;"/>
  </g>
  <g id="axes_1">
   <g id="patch_2">
    <path d="M 38.482813 143.1 
L 233.782813 143.1 
L 233.782813 7.2 
L 38.482813 7.2 
z
" style="fill:#ffffff;"/>
   </g>
   <g id="PathCollection_1">
    <defs>
     <path d="M 0 3 
C 0.795609 3 1.55874 2.683901 2.12132 2.12132 
C 2.683901 1.55874 3 0.795609 3 0 
C 3 -0.795609 2.683901 -1.55874 2.12132 -2.12132 
C 1.55874 -2.683901 0.795609 -3 0 -3 
C -0.795609 -3 -1.55874 -2.683901 -2.12132 -2.12132 
C -2.683901 -1.55874 -3 -0.795609 -3 0 
C -3 0.795609 -2.683901 1.55874 -2.12132 2.12132 
C -1.55874 2.683901 -0.795609 3 0 3 
z
" id="m3de8881757" style="stroke:#1f77b4;"/>
    </defs>
    <g clip-path="url(#pd9236e27cc)">
     <use style="fill:#1f77b4;stroke:#1f77b4;" x="186.070583" xlink:href="#m3de8881757" y="30.726991"/>
     <use style="fill:#1f77b4;stroke:#1f77b4;" x="141.028132" xlink:href="#m3de8881757" y="64.737976"/>
     <use style="fill:#1f77b4;stroke:#1f77b4;" x="150.490428" xlink:href="#m3de8881757" y="60.013382"/>
     <use style="fill:#1f77b4;stroke:#1f77b4;" x="155.590017" xlink:href="#m3de8881757" y="57.816855"/>
     <use style="fill:#1f77b4;stroke:#1f77b4;" x="183.200753" xlink:href="#m3de8881757" y="49.836095"/>
     <use style="fill:#1f77b4;stroke:#1f77b4;" x="71.467226" xlink:href="#m3de8881757" y="101.544204"/>
     <use style="fill:#1f77b4;stroke:#1f77b4;" x="60.754998" xlink:href="#m3de8881757" y="124.012554"/>
     <use style="fill:#1f77b4;stroke:#1f77b4;" x="110.081801" xlink:href="#m3de8881757" y="105.670059"/>
     <use style="fill:#1f77b4;stroke:#1f77b4;" x="134.441292" xlink:href="#m3de8881757" y="68.549595"/>
     <use style="fill:#1f77b4;stroke:#1f77b4;" x="47.360085" xlink:href="#m3de8881757" y="108.761536"/>
     <use style="fill:#1f77b4;stroke:#1f77b4;" x="48.069756" xlink:href="#m3de8881757" y="118.845529"/>
     <use style="fill:#1f77b4;stroke:#1f77b4;" x="112.142152" xlink:href="#m3de8881757" y="90.968555"/>
     <use style="fill:#1f77b4;stroke:#1f77b4;" x="127.44924" xlink:href="#m3de8881757" y="82.098564"/>
     <use style="fill:#1f77b4;stroke:#1f77b4;" x="116.399378" xlink:href="#m3de8881757" y="85.168508"/>
     <use style="fill:#1f77b4;stroke:#1f77b4;" x="99.903213" xlink:href="#m3de8881757" y="91.988648"/>
     <use style="fill:#1f77b4;stroke:#1f77b4;" x="115.08438" xlink:href="#m3de8881757" y="81.976562"/>
     <use style="fill:#1f77b4;stroke:#1f77b4;" x="134.186469" xlink:href="#m3de8881757" y="68.492751"/>
     <use style="fill:#1f77b4;stroke:#1f77b4;" x="174.435001" xlink:href="#m3de8881757" y="67.24053"/>
     <use style="fill:#1f77b4;stroke:#1f77b4;" x="136.197363" xlink:href="#m3de8881757" y="63.460349"/>
     <use style="fill:#1f77b4;stroke:#1f77b4;" x="130.862775" xlink:href="#m3de8881757" y="79.40665"/>
     <use style="fill:#1f77b4;stroke:#1f77b4;" x="146.434433" xlink:href="#m3de8881757" y="51.288034"/>
     <use style="fill:#1f77b4;stroke:#1f77b4;" x="124.896044" xlink:href="#m3de8881757" y="87.189204"/>
     <use style="fill:#1f77b4;stroke:#1f77b4;" x="85.077657" xlink:href="#m3de8881757" y="103.922129"/>
     <use style="fill:#1f77b4;stroke:#1f77b4;" x="99.920452" xlink:href="#m3de8881757" y="113.332475"/>
     <use style="fill:#1f77b4;stroke:#1f77b4;" x="93.211329" xlink:href="#m3de8881757" y="103.466949"/>
     <use style="fill:#1f77b4;stroke:#1f77b4;" x="138.736652" xlink:href="#m3de8881757" y="63.437854"/>
     <use style="fill:#1f77b4;stroke:#1f77b4;" x="69.491635" xlink:href="#m3de8881757" y="116.036875"/>
     <use style="fill:#1f77b4;stroke:#1f77b4;" x="81.240604" xlink:href="#m3de8881757" y="105.299331"/>
     <use style="fill:#1f77b4;stroke:#1f77b4;" x="81.757867" xlink:href="#m3de8881757" y="103.86541"/>
     <use style="fill:#1f77b4;stroke:#1f77b4;" x="71.764988" xlink:href="#m3de8881757" y="108.918403"/>
     <use style="fill:#1f77b4;stroke:#1f77b4;" x="63.697747" xlink:href="#m3de8881757" y="106.829403"/>
     <use style="fill:#1f77b4;stroke:#1f77b4;" x="93.688021" xlink:href="#m3de8881757" y="84.684797"/>
     <use style="fill:#1f77b4;stroke:#1f77b4;" x="163.971392" xlink:href="#m3de8881757" y="65.204567"/>
     <use style="fill:#1f77b4;stroke:#1f77b4;" x="147.058292" xlink:href="#m3de8881757" y="65.476361"/>
     <use style="fill:#1f77b4;stroke:#1f77b4;" x="96.425729" xlink:href="#m3de8881757" y="94.822377"/>
     <use style="fill:#1f77b4;stroke:#1f77b4;" x="152.444699" xlink:href="#m3de8881757" y="51.267016"/>
     <use style="fill:#1f77b4;stroke:#1f77b4;" x="83.595686" xlink:href="#m3de8881757" y="101.546277"/>
     <use style="fill:#1f77b4;stroke:#1f77b4;" x="101.936463" xlink:href="#m3de8881757" y="102.278134"/>
     <use style="fill:#1f77b4;stroke:#1f77b4;" x="131.203147" xlink:href="#m3de8881757" y="78.714461"/>
     <use style="fill:#1f77b4;stroke:#1f77b4;" x="152.979125" xlink:href="#m3de8881757" y="72.413964"/>
     <use style="fill:#1f77b4;stroke:#1f77b4;" x="74.057225" xlink:href="#m3de8881757" y="119.615484"/>
     <use style="fill:#1f77b4;stroke:#1f77b4;" x="99.902592" xlink:href="#m3de8881757" y="94.198861"/>
     <use style="fill:#1f77b4;stroke:#1f77b4;" x="186.228045" xlink:href="#m3de8881757" y="46.035635"/>
     <use style="fill:#1f77b4;stroke:#1f77b4;" x="129.038612" xlink:href="#m3de8881757" y="81.554476"/>
     <use style="fill:#1f77b4;stroke:#1f77b4;" x="139.570129" xlink:href="#m3de8881757" y="78.200842"/>
     <use style="fill:#1f77b4;stroke:#1f77b4;" x="143.090276" xlink:href="#m3de8881757" y="53.563778"/>
     <use style="fill:#1f77b4;stroke:#1f77b4;" x="104.807907" xlink:href="#m3de8881757" y="102.897847"/>
     <use style="fill:#1f77b4;stroke:#1f77b4;" x="63.347508" xlink:href="#m3de8881757" y="136.922727"/>
     <use style="fill:#1f77b4;stroke:#1f77b4;" x="143.153615" xlink:href="#m3de8881757" y="76.982125"/>
     <use style="fill:#1f77b4;stroke:#1f77b4;" x="105.373237" xlink:href="#m3de8881757" y="98.349593"/>
     <use style="fill:#1f77b4;stroke:#1f77b4;" x="130.245432" xlink:href="#m3de8881757" y="80.623536"/>
     <use style="fill:#1f77b4;stroke:#1f77b4;" x="70.780816" xlink:href="#m3de8881757" y="105.288313"/>
     <use style="fill:#1f77b4;stroke:#1f77b4;" x="130.842637" xlink:href="#m3de8881757" y="78.413863"/>
     <use style="fill:#1f77b4;stroke:#1f77b4;" x="168.810719" xlink:href="#m3de8881757" y="59.133346"/>
     <use style="fill:#1f77b4;stroke:#1f77b4;" x="127.719827" xlink:href="#m3de8881757" y="82.747054"/>
     <use style="fill:#1f77b4;stroke:#1f77b4;" x="129.856764" xlink:href="#m3de8881757" y="68.607496"/>
     <use style="fill:#1f77b4;stroke:#1f77b4;" x="159.396676" xlink:href="#m3de8881757" y="79.861824"/>
     <use style="fill:#1f77b4;stroke:#1f77b4;" x="76.377221" xlink:href="#m3de8881757" y="93.680712"/>
     <use style="fill:#1f77b4;stroke:#1f77b4;" x="116.707074" xlink:href="#m3de8881757" y="87.955893"/>
     <use style="fill:#1f77b4;stroke:#1f77b4;" x="109.531256" xlink:href="#m3de8881757" y="94.960861"/>
     <use style="fill:#1f77b4;stroke:#1f77b4;" x="117.56427" xlink:href="#m3de8881757" y="97.34574"/>
     <use style="fill:#1f77b4;stroke:#1f77b4;" x="131.26497" xlink:href="#m3de8881757" y="79.935796"/>
     <use style="fill:#1f77b4;stroke:#1f77b4;" x="142.808756" xlink:href="#m3de8881757" y="69.809252"/>
     <use style="fill:#1f77b4;stroke:#1f77b4;" x="143.298965" xlink:href="#m3de8881757" y="68.040096"/>
     <use style="fill:#1f77b4;stroke:#1f77b4;" x="131.27903" xlink:href="#m3de8881757" y="61.286389"/>
     <use style="fill:#1f77b4;stroke:#1f77b4;" x="151.841322" xlink:href="#m3de8881757" y="59.911185"/>
     <use style="fill:#1f77b4;stroke:#1f77b4;" x="125.071481" xlink:href="#m3de8881757" y="91.450135"/>
     <use style="fill:#1f77b4;stroke:#1f77b4;" x="144.918114" xlink:href="#m3de8881757" y="65.465978"/>
     <use style="fill:#1f77b4;stroke:#1f77b4;" x="90.387423" xlink:href="#m3de8881757" y="99.824729"/>
     <use style="fill:#1f77b4;stroke:#1f77b4;" x="110.554965" xlink:href="#m3de8881757" y="85.513693"/>
     <use style="fill:#1f77b4;stroke:#1f77b4;" x="146.449127" xlink:href="#m3de8881757" y="61.441776"/>
     <use style="fill:#1f77b4;stroke:#1f77b4;" x="131.865196" xlink:href="#m3de8881757" y="80.835357"/>
     <use style="fill:#1f77b4;stroke:#1f77b4;" x="141.170171" xlink:href="#m3de8881757" y="64.572291"/>
     <use style="fill:#1f77b4;stroke:#1f77b4;" x="86.93885" xlink:href="#m3de8881757" y="109.81776"/>
     <use style="fill:#1f77b4;stroke:#1f77b4;" x="108.295465" xlink:href="#m3de8881757" y="98.368813"/>
     <use style="fill:#1f77b4;stroke:#1f77b4;" x="153.366449" xlink:href="#m3de8881757" y="44.416988"/>
     <use style="fill:#1f77b4;stroke:#1f77b4;" x="99.349815" xlink:href="#m3de8881757" y="87.039956"/>
     <use style="fill:#1f77b4;stroke:#1f77b4;" x="134.684735" xlink:href="#m3de8881757" y="58.875157"/>
     <use style="fill:#1f77b4;stroke:#1f77b4;" x="151.029463" xlink:href="#m3de8881757" y="69.61762"/>
     <use style="fill:#1f77b4;stroke:#1f77b4;" x="84.121805" xlink:href="#m3de8881757" y="97.486891"/>
     <use style="fill:#1f77b4;stroke:#1f77b4;" x="113.02033" xlink:href="#m3de8881757" y="82.51068"/>
     <use style="fill:#1f77b4;stroke:#1f77b4;" x="146.866362" xlink:href="#m3de8881757" y="70.536432"/>
     <use style="fill:#1f77b4;stroke:#1f77b4;" x="50.901349" xlink:href="#m3de8881757" y="116.118437"/>
     <use style="fill:#1f77b4;stroke:#1f77b4;" x="145.619298" xlink:href="#m3de8881757" y="63.841181"/>
     <use style="fill:#1f77b4;stroke:#1f77b4;" x="176.752896" xlink:href="#m3de8881757" y="37.971479"/>
     <use style="fill:#1f77b4;stroke:#1f77b4;" x="128.911181" xlink:href="#m3de8881757" y="77.861725"/>
     <use style="fill:#1f77b4;stroke:#1f77b4;" x="120.100185" xlink:href="#m3de8881757" y="79.573431"/>
     <use style="fill:#1f77b4;stroke:#1f77b4;" x="60.635521" xlink:href="#m3de8881757" y="134.840227"/>
     <use style="fill:#1f77b4;stroke:#1f77b4;" x="93.814661" xlink:href="#m3de8881757" y="96.099493"/>
     <use style="fill:#1f77b4;stroke:#1f77b4;" x="152.81482" xlink:href="#m3de8881757" y="66.394606"/>
     <use style="fill:#1f77b4;stroke:#1f77b4;" x="101.402711" xlink:href="#m3de8881757" y="84.493026"/>
     <use style="fill:#1f77b4;stroke:#1f77b4;" x="174.000012" xlink:href="#m3de8881757" y="54.232497"/>
     <use style="fill:#1f77b4;stroke:#1f77b4;" x="104.541987" xlink:href="#m3de8881757" y="88.035409"/>
     <use style="fill:#1f77b4;stroke:#1f77b4;" x="57.565733" xlink:href="#m3de8881757" y="116.425369"/>
     <use style="fill:#1f77b4;stroke:#1f77b4;" x="137.074457" xlink:href="#m3de8881757" y="58.397679"/>
     <use style="fill:#1f77b4;stroke:#1f77b4;" x="142.339871" xlink:href="#m3de8881757" y="58.167437"/>
     <use style="fill:#1f77b4;stroke:#1f77b4;" x="224.90554" xlink:href="#m3de8881757" y="13.377273"/>
     <use style="fill:#1f77b4;stroke:#1f77b4;" x="72.417034" xlink:href="#m3de8881757" y="100.324317"/>
     <use style="fill:#1f77b4;stroke:#1f77b4;" x="183.42016" xlink:href="#m3de8881757" y="50.027952"/>
     <use style="fill:#1f77b4;stroke:#1f77b4;" x="90.651603" xlink:href="#m3de8881757" y="82.967657"/>
    </g>
   </g>
   <g id="matplotlib.axis_1">
    <g id="xtick_1">
     <g id="line2d_1">
      <defs>
       <path d="M 0 0 
L 0 3.5 
" id="m015466747a" style="stroke:#000000;stroke-width:0.8;"/>
      </defs>
      <g>
       <use style="stroke:#000000;stroke-width:0.8;" x="51.433886" xlink:href="#m015466747a" y="143.1"/>
      </g>
     </g>
     <g id="text_1">
      <!-- −1 -->
      <defs>
       <path d="M 10.59375 35.5 
L 73.1875 35.5 
L 73.1875 27.203125 
L 10.59375 27.203125 
z
" id="DejaVuSans-8722"/>
       <path d="M 12.40625 8.296875 
L 28.515625 8.296875 
L 28.515625 63.921875 
L 10.984375 60.40625 
L 10.984375 69.390625 
L 28.421875 72.90625 
L 38.28125 72.90625 
L 38.28125 8.296875 
L 54.390625 8.296875 
L 54.390625 0 
L 12.40625 0 
z
" id="DejaVuSans-49"/>
      </defs>
      <g transform="translate(44.062793 157.698438)scale(0.1 -0.1)">
       <use xlink:href="#DejaVuSans-8722"/>
       <use x="83.789062" xlink:href="#DejaVuSans-49"/>
      </g>
     </g>
    </g>
    <g id="xtick_2">
     <g id="line2d_2">
      <g>
       <use style="stroke:#000000;stroke-width:0.8;" x="84.304989" xlink:href="#m015466747a" y="143.1"/>
      </g>
     </g>
     <g id="text_2">
      <!-- 0 -->
      <defs>
       <path d="M 31.78125 66.40625 
Q 24.171875 66.40625 20.328125 58.90625 
Q 16.5 51.421875 16.5 36.375 
Q 16.5 21.390625 20.328125 13.890625 
Q 24.171875 6.390625 31.78125 6.390625 
Q 39.453125 6.390625 43.28125 13.890625 
Q 47.125 21.390625 47.125 36.375 
Q 47.125 51.421875 43.28125 58.90625 
Q 39.453125 66.40625 31.78125 66.40625 
z
M 31.78125 74.21875 
Q 44.046875 74.21875 50.515625 64.515625 
Q 56.984375 54.828125 56.984375 36.375 
Q 56.984375 17.96875 50.515625 8.265625 
Q 44.046875 -1.421875 31.78125 -1.421875 
Q 19.53125 -1.421875 13.0625 8.265625 
Q 6.59375 17.96875 6.59375 36.375 
Q 6.59375 54.828125 13.0625 64.515625 
Q 19.53125 74.21875 31.78125 74.21875 
z
" id="DejaVuSans-48"/>
      </defs>
      <g transform="translate(81.123739 157.698438)scale(0.1 -0.1)">
       <use xlink:href="#DejaVuSans-48"/>
      </g>
     </g>
    </g>
    <g id="xtick_3">
     <g id="line2d_3">
      <g>
       <use style="stroke:#000000;stroke-width:0.8;" x="117.176092" xlink:href="#m015466747a" y="143.1"/>
      </g>
     </g>
     <g id="text_3">
      <!-- 1 -->
      <g transform="translate(113.994842 157.698438)scale(0.1 -0.1)">
       <use xlink:href="#DejaVuSans-49"/>
      </g>
     </g>
    </g>
    <g id="xtick_4">
     <g id="line2d_4">
      <g>
       <use style="stroke:#000000;stroke-width:0.8;" x="150.047194" xlink:href="#m015466747a" y="143.1"/>
      </g>
     </g>
     <g id="text_4">
      <!-- 2 -->
      <defs>
       <path d="M 19.1875 8.296875 
L 53.609375 8.296875 
L 53.609375 0 
L 7.328125 0 
L 7.328125 8.296875 
Q 12.9375 14.109375 22.625 23.890625 
Q 32.328125 33.6875 34.8125 36.53125 
Q 39.546875 41.84375 41.421875 45.53125 
Q 43.3125 49.21875 43.3125 52.78125 
Q 43.3125 58.59375 39.234375 62.25 
Q 35.15625 65.921875 28.609375 65.921875 
Q 23.96875 65.921875 18.8125 64.3125 
Q 13.671875 62.703125 7.8125 59.421875 
L 7.8125 69.390625 
Q 13.765625 71.78125 18.9375 73 
Q 24.125 74.21875 28.421875 74.21875 
Q 39.75 74.21875 46.484375 68.546875 
Q 53.21875 62.890625 53.21875 53.421875 
Q 53.21875 48.921875 51.53125 44.890625 
Q 49.859375 40.875 45.40625 35.40625 
Q 44.1875 33.984375 37.640625 27.21875 
Q 31.109375 20.453125 19.1875 8.296875 
z
" id="DejaVuSans-50"/>
      </defs>
      <g transform="translate(146.865944 157.698438)scale(0.1 -0.1)">
       <use xlink:href="#DejaVuSans-50"/>
      </g>
     </g>
    </g>
    <g id="xtick_5">
     <g id="line2d_5">
      <g>
       <use style="stroke:#000000;stroke-width:0.8;" x="182.918297" xlink:href="#m015466747a" y="143.1"/>
      </g>
     </g>
     <g id="text_5">
      <!-- 3 -->
      <defs>
       <path d="M 40.578125 39.3125 
Q 47.65625 37.796875 51.625 33 
Q 55.609375 28.21875 55.609375 21.1875 
Q 55.609375 10.40625 48.1875 4.484375 
Q 40.765625 -1.421875 27.09375 -1.421875 
Q 22.515625 -1.421875 17.65625 -0.515625 
Q 12.796875 0.390625 7.625 2.203125 
L 7.625 11.71875 
Q 11.71875 9.328125 16.59375 8.109375 
Q 21.484375 6.890625 26.8125 6.890625 
Q 36.078125 6.890625 40.9375 10.546875 
Q 45.796875 14.203125 45.796875 21.1875 
Q 45.796875 27.640625 41.28125 31.265625 
Q 36.765625 34.90625 28.71875 34.90625 
L 20.21875 34.90625 
L 20.21875 43.015625 
L 29.109375 43.015625 
Q 36.375 43.015625 40.234375 45.921875 
Q 44.09375 48.828125 44.09375 54.296875 
Q 44.09375 59.90625 40.109375 62.90625 
Q 36.140625 65.921875 28.71875 65.921875 
Q 24.65625 65.921875 20.015625 65.03125 
Q 15.375 64.15625 9.8125 62.3125 
L 9.8125 71.09375 
Q 15.4375 72.65625 20.34375 73.4375 
Q 25.25 74.21875 29.59375 74.21875 
Q 40.828125 74.21875 47.359375 69.109375 
Q 53.90625 64.015625 53.90625 55.328125 
Q 53.90625 49.265625 50.4375 45.09375 
Q 46.96875 40.921875 40.578125 39.3125 
z
" id="DejaVuSans-51"/>
      </defs>
      <g transform="translate(179.737047 157.698438)scale(0.1 -0.1)">
       <use xlink:href="#DejaVuSans-51"/>
      </g>
     </g>
    </g>
    <g id="xtick_6">
     <g id="line2d_6">
      <g>
       <use style="stroke:#000000;stroke-width:0.8;" x="215.789399" xlink:href="#m015466747a" y="143.1"/>
      </g>
     </g>
     <g id="text_6">
      <!-- 4 -->
      <defs>
       <path d="M 37.796875 64.3125 
L 12.890625 25.390625 
L 37.796875 25.390625 
z
M 35.203125 72.90625 
L 47.609375 72.90625 
L 47.609375 25.390625 
L 58.015625 25.390625 
L 58.015625 17.1875 
L 47.609375 17.1875 
L 47.609375 0 
L 37.796875 0 
L 37.796875 17.1875 
L 4.890625 17.1875 
L 4.890625 26.703125 
z
" id="DejaVuSans-52"/>
      </defs>
      <g transform="translate(212.608149 157.698438)scale(0.1 -0.1)">
       <use xlink:href="#DejaVuSans-52"/>
      </g>
     </g>
    </g>
   </g>
   <g id="matplotlib.axis_2">
    <g id="ytick_1">
     <g id="line2d_7">
      <defs>
       <path d="M 0 0 
L -3.5 0 
" id="med7e11cbff" style="stroke:#000000;stroke-width:0.8;"/>
      </defs>
      <g>
       <use style="stroke:#000000;stroke-width:0.8;" x="38.482813" xlink:href="#med7e11cbff" y="131.256394"/>
      </g>
     </g>
     <g id="text_7">
      <!-- −2.5 -->
      <defs>
       <path d="M 10.6875 12.40625 
L 21 12.40625 
L 21 0 
L 10.6875 0 
z
" id="DejaVuSans-46"/>
       <path d="M 10.796875 72.90625 
L 49.515625 72.90625 
L 49.515625 64.59375 
L 19.828125 64.59375 
L 19.828125 46.734375 
Q 21.96875 47.46875 24.109375 47.828125 
Q 26.265625 48.1875 28.421875 48.1875 
Q 40.625 48.1875 47.75 41.5 
Q 54.890625 34.8125 54.890625 23.390625 
Q 54.890625 11.625 47.5625 5.09375 
Q 40.234375 -1.421875 26.90625 -1.421875 
Q 22.3125 -1.421875 17.546875 -0.640625 
Q 12.796875 0.140625 7.71875 1.703125 
L 7.71875 11.625 
Q 12.109375 9.234375 16.796875 8.0625 
Q 21.484375 6.890625 26.703125 6.890625 
Q 35.15625 6.890625 40.078125 11.328125 
Q 45.015625 15.765625 45.015625 23.390625 
Q 45.015625 31 40.078125 35.4375 
Q 35.15625 39.890625 26.703125 39.890625 
Q 22.75 39.890625 18.8125 39.015625 
Q 14.890625 38.140625 10.796875 36.28125 
z
" id="DejaVuSans-53"/>
      </defs>
      <g transform="translate(7.2 135.055613)scale(0.1 -0.1)">
       <use xlink:href="#DejaVuSans-8722"/>
       <use x="83.789062" xlink:href="#DejaVuSans-50"/>
       <use x="147.412109" xlink:href="#DejaVuSans-46"/>
       <use x="179.199219" xlink:href="#DejaVuSans-53"/>
      </g>
     </g>
    </g>
    <g id="ytick_2">
     <g id="line2d_8">
      <g>
       <use style="stroke:#000000;stroke-width:0.8;" x="38.482813" xlink:href="#med7e11cbff" y="104.817852"/>
      </g>
     </g>
     <g id="text_8">
      <!-- 0.0 -->
      <g transform="translate(15.579688 108.617071)scale(0.1 -0.1)">
       <use xlink:href="#DejaVuSans-48"/>
       <use x="63.623047" xlink:href="#DejaVuSans-46"/>
       <use x="95.410156" xlink:href="#DejaVuSans-48"/>
      </g>
     </g>
    </g>
    <g id="ytick_3">
     <g id="line2d_9">
      <g>
       <use style="stroke:#000000;stroke-width:0.8;" x="38.482813" xlink:href="#med7e11cbff" y="78.37931"/>
      </g>
     </g>
     <g id="text_9">
      <!-- 2.5 -->
      <g transform="translate(15.579688 82.178529)scale(0.1 -0.1)">
       <use xlink:href="#DejaVuSans-50"/>
       <use x="63.623047" xlink:href="#DejaVuSans-46"/>
       <use x="95.410156" xlink:href="#DejaVuSans-53"/>
      </g>
     </g>
    </g>
    <g id="ytick_4">
     <g id="line2d_10">
      <g>
       <use style="stroke:#000000;stroke-width:0.8;" x="38.482813" xlink:href="#med7e11cbff" y="51.940768"/>
      </g>
     </g>
     <g id="text_10">
      <!-- 5.0 -->
      <g transform="translate(15.579688 55.739987)scale(0.1 -0.1)">
       <use xlink:href="#DejaVuSans-53"/>
       <use x="63.623047" xlink:href="#DejaVuSans-46"/>
       <use x="95.410156" xlink:href="#DejaVuSans-48"/>
      </g>
     </g>
    </g>
    <g id="ytick_5">
     <g id="line2d_11">
      <g>
       <use style="stroke:#000000;stroke-width:0.8;" x="38.482813" xlink:href="#med7e11cbff" y="25.502226"/>
      </g>
     </g>
     <g id="text_11">
      <!-- 7.5 -->
      <defs>
       <path d="M 8.203125 72.90625 
L 55.078125 72.90625 
L 55.078125 68.703125 
L 28.609375 0 
L 18.3125 0 
L 43.21875 64.59375 
L 8.203125 64.59375 
z
" id="DejaVuSans-55"/>
      </defs>
      <g transform="translate(15.579688 29.301445)scale(0.1 -0.1)">
       <use xlink:href="#DejaVuSans-55"/>
       <use x="63.623047" xlink:href="#DejaVuSans-46"/>
       <use x="95.410156" xlink:href="#DejaVuSans-53"/>
      </g>
     </g>
    </g>
   </g>
   <g id="patch_3">
    <path d="M 38.482813 143.1 
L 38.482813 7.2 
" style="fill:none;stroke:#000000;stroke-linecap:square;stroke-linejoin:miter;stroke-width:0.8;"/>
   </g>
   <g id="patch_4">
    <path d="M 233.782813 143.1 
L 233.782813 7.2 
" style="fill:none;stroke:#000000;stroke-linecap:square;stroke-linejoin:miter;stroke-width:0.8;"/>
   </g>
   <g id="patch_5">
    <path d="M 38.482813 143.1 
L 233.782813 143.1 
" style="fill:none;stroke:#000000;stroke-linecap:square;stroke-linejoin:miter;stroke-width:0.8;"/>
   </g>
   <g id="patch_6">
    <path d="M 38.482813 7.2 
L 233.782813 7.2 
" style="fill:none;stroke:#000000;stroke-linecap:square;stroke-linejoin:miter;stroke-width:0.8;"/>
   </g>
  </g>
 </g>
 <defs>
  <clipPath id="pd9236e27cc">
   <rect height="135.9" width="195.3" x="38.482813" y="7.2"/>
  </clipPath>
 </defs>
</svg>
