<?xml version="1.0" encoding="utf-8" standalone="no"?>
<!DOCTYPE svg PUBLIC "-//W3C//DTD SVG 1.1//EN"
  "http://www.w3.org/Graphics/SVG/1.1/DTD/svg11.dtd">
<!-- Created with matplotlib (https://matplotlib.org/) -->
<svg height="169.322863pt" version="1.1" viewBox="0 0 167.228315 169.322863" width="167.228315pt" xmlns="http://www.w3.org/2000/svg" xmlns:xlink="http://www.w3.org/1999/xlink">
 <metadata>
  <rdf:RDF xmlns:cc="http://creativecommons.org/ns#" xmlns:dc="http://purl.org/dc/elements/1.1/" xmlns:rdf="http://www.w3.org/1999/02/22-rdf-syntax-ns#">
   <cc:Work>
    <dc:type rdf:resource="http://purl.org/dc/dcmitype/StillImage"/>
    <dc:date>2020-08-13T04:00:58.976959</dc:date>
    <dc:format>image/svg+xml</dc:format>
    <dc:creator>
     <cc:Agent>
      <dc:title>Matplotlib v3.3.0, https://matplotlib.org/</dc:title>
     </cc:Agent>
    </dc:creator>
   </cc:Work>
  </rdf:RDF>
 </metadata>
 <defs>
  <style type="text/css">*{stroke-linecap:butt;stroke-linejoin:round;}</style>
 </defs>
 <g id="figure_1">
  <g id="patch_1">
   <path d="M 0 169.322863 
L 167.228315 169.322863 
L 167.228315 0 
L 0 0 
z
" style="fill:none;"/>
  </g>
  <g id="patch_2">
   <path d="M 7.242206 143.1 
L 143.142206 143.1 
L 143.142206 7.2 
L 7.242206 7.2 
z
" style="fill:#ffffff;"/>
  </g>
  <g id="pane3d_1">
   <g id="patch_3">
    <path d="M 17.503593 109.591415 
L 62.382211 71.973267 
L 61.758355 17.721174 
L 14.732064 52.038819 
" style="fill:#f2f2f2;opacity:0.5;stroke:#f2f2f2;stroke-linejoin:miter;"/>
   </g>
  </g>
  <g id="pane3d_2">
   <g id="patch_4">
    <path d="M 62.382211 71.973267 
L 134.396381 92.904944 
L 136.966312 36.784198 
L 61.758355 17.721174 
" style="fill:#e6e6e6;opacity:0.5;stroke:#e6e6e6;stroke-linejoin:miter;"/>
   </g>
  </g>
  <g id="pane3d_3">
   <g id="patch_5">
    <path d="M 17.503593 109.591415 
L 93.84213 134.523581 
L 134.396381 92.904944 
L 62.382211 71.973267 
" style="fill:#ececec;opacity:0.5;stroke:#ececec;stroke-linejoin:miter;"/>
   </g>
  </g>
  <g id="axis3d_1">
   <g id="line2d_1">
    <path d="M 17.503593 109.591415 
L 93.84213 134.523581 
" style="fill:none;stroke:#000000;stroke-linecap:square;stroke-width:0.8;"/>
   </g>
   <g id="text_1">
    <!-- x -->
    <g transform="translate(35.285103 160.043176)scale(0.1 -0.1)">
     <defs>
      <path d="M 54.890625 54.6875 
L 35.109375 28.078125 
L 55.90625 0 
L 45.3125 0 
L 29.390625 21.484375 
L 13.484375 0 
L 2.875 0 
L 24.125 28.609375 
L 4.6875 54.6875 
L 15.28125 54.6875 
L 29.78125 35.203125 
L 44.28125 54.6875 
z
" id="DejaVuSans-120"/>
     </defs>
     <use xlink:href="#DejaVuSans-120"/>
    </g>
   </g>
   <g id="Line3DCollection_1">
    <path d="M 22.127055 111.101438 
L 66.761892 73.246268 
L 66.323213 18.878232 
" style="fill:none;stroke:#b0b0b0;stroke-width:0.8;"/>
    <path d="M 54.666604 121.728855 
L 97.519476 82.186283 
L 98.41427 27.012379 
" style="fill:none;stroke:#b0b0b0;stroke-width:0.8;"/>
    <path d="M 88.738736 132.856813 
L 129.601877 91.511371 
L 131.949299 35.512532 
" style="fill:none;stroke:#b0b0b0;stroke-width:0.8;"/>
   </g>
   <g id="xtick_1">
    <g id="line2d_2">
     <path d="M 22.515733 110.771797 
L 21.348032 111.762134 
" style="fill:none;stroke:#000000;stroke-linecap:square;stroke-width:0.8;"/>
    </g>
    <g id="text_2">
     <!-- −1 -->
     <g transform="translate(7.2 134.466744)scale(0.1 -0.1)">
      <defs>
       <path d="M 10.59375 35.5 
L 73.1875 35.5 
L 73.1875 27.203125 
L 10.59375 27.203125 
z
" id="DejaVuSans-8722"/>
       <path d="M 12.40625 8.296875 
L 28.515625 8.296875 
L 28.515625 63.921875 
L 10.984375 60.40625 
L 10.984375 69.390625 
L 28.421875 72.90625 
L 38.28125 72.90625 
L 38.28125 8.296875 
L 54.390625 8.296875 
L 54.390625 0 
L 12.40625 0 
z
" id="DejaVuSans-49"/>
      </defs>
      <use xlink:href="#DejaVuSans-8722"/>
      <use x="83.789062" xlink:href="#DejaVuSans-49"/>
     </g>
    </g>
   </g>
   <g id="xtick_2">
    <g id="line2d_3">
     <path d="M 55.040462 121.383877 
L 53.917247 122.420325 
" style="fill:none;stroke:#000000;stroke-linecap:square;stroke-width:0.8;"/>
    </g>
    <g id="text_3">
     <!-- 0 -->
     <g transform="translate(43.997457 145.539064)scale(0.1 -0.1)">
      <defs>
       <path d="M 31.78125 66.40625 
Q 24.171875 66.40625 20.328125 58.90625 
Q 16.5 51.421875 16.5 36.375 
Q 16.5 21.390625 20.328125 13.890625 
Q 24.171875 6.390625 31.78125 6.390625 
Q 39.453125 6.390625 43.28125 13.890625 
Q 47.125 21.390625 47.125 36.375 
Q 47.125 51.421875 43.28125 58.90625 
Q 39.453125 66.40625 31.78125 66.40625 
z
M 31.78125 74.21875 
Q 44.046875 74.21875 50.515625 64.515625 
Q 56.984375 54.828125 56.984375 36.375 
Q 56.984375 17.96875 50.515625 8.265625 
Q 44.046875 -1.421875 31.78125 -1.421875 
Q 19.53125 -1.421875 13.0625 8.265625 
Q 6.59375 17.96875 6.59375 36.375 
Q 6.59375 54.828125 13.0625 64.515625 
Q 19.53125 74.21875 31.78125 74.21875 
z
" id="DejaVuSans-48"/>
      </defs>
      <use xlink:href="#DejaVuSans-48"/>
     </g>
    </g>
   </g>
   <g id="xtick_3">
    <g id="line2d_4">
     <path d="M 89.095932 132.495402 
L 88.02274 133.58126 
" style="fill:none;stroke:#000000;stroke-linecap:square;stroke-width:0.8;"/>
    </g>
    <g id="text_4">
     <!-- 1 -->
     <g transform="translate(78.152612 157.13687)scale(0.1 -0.1)">
      <use xlink:href="#DejaVuSans-49"/>
     </g>
    </g>
   </g>
  </g>
  <g id="axis3d_2">
   <g id="line2d_5">
    <path d="M 134.396381 92.904944 
L 93.84213 134.523581 
" style="fill:none;stroke:#000000;stroke-linecap:square;stroke-width:0.8;"/>
   </g>
   <g id="text_5">
    <!-- y -->
    <g transform="translate(139.069861 143.587338)scale(0.1 -0.1)">
     <defs>
      <path d="M 32.171875 -5.078125 
Q 28.375 -14.84375 24.75 -17.8125 
Q 21.140625 -20.796875 15.09375 -20.796875 
L 7.90625 -20.796875 
L 7.90625 -13.28125 
L 13.1875 -13.28125 
Q 16.890625 -13.28125 18.9375 -11.515625 
Q 21 -9.765625 23.484375 -3.21875 
L 25.09375 0.875 
L 2.984375 54.6875 
L 12.5 54.6875 
L 29.59375 11.921875 
L 46.6875 54.6875 
L 56.203125 54.6875 
z
" id="DejaVuSans-121"/>
     </defs>
     <use xlink:href="#DejaVuSans-121"/>
    </g>
   </g>
   <g id="Line3DCollection_2">
    <path d="M 17.984048 49.665669 
L 20.596109 106.999207 
L 96.64817 131.643894 
" style="fill:none;stroke:#b0b0b0;stroke-width:0.8;"/>
    <path d="M 39.291291 34.116614 
L 40.898687 89.981183 
L 115.027621 112.782056 
" style="fill:none;stroke:#b0b0b0;stroke-width:0.8;"/>
    <path d="M 59.005785 19.729874 
L 59.745943 74.18304 
L 132.024016 95.339573 
" style="fill:none;stroke:#b0b0b0;stroke-width:0.8;"/>
   </g>
   <g id="xtick_4">
    <g id="line2d_6">
     <path d="M 96.007277 131.436212 
L 97.931614 132.059794 
" style="fill:none;stroke:#000000;stroke-linecap:square;stroke-width:0.8;"/>
    </g>
    <g id="text_6">
     <!-- −1 -->
     <g transform="translate(102.165104 152.673329)scale(0.1 -0.1)">
      <use xlink:href="#DejaVuSans-8722"/>
      <use x="83.789062" xlink:href="#DejaVuSans-49"/>
     </g>
    </g>
   </g>
   <g id="xtick_5">
    <g id="line2d_7">
     <path d="M 114.404171 112.590293 
L 116.276069 113.166059 
" style="fill:none;stroke:#000000;stroke-linecap:square;stroke-width:0.8;"/>
    </g>
    <g id="text_7">
     <!-- 0 -->
     <g transform="translate(124.250678 133.264539)scale(0.1 -0.1)">
      <use xlink:href="#DejaVuSans-48"/>
     </g>
    </g>
   </g>
   <g id="xtick_6">
    <g id="line2d_8">
     <path d="M 131.417248 95.161966 
L 133.239002 95.695212 
" style="fill:none;stroke:#000000;stroke-linecap:square;stroke-width:0.8;"/>
    </g>
    <g id="text_8">
     <!-- 1 -->
     <g transform="translate(140.798291 115.317846)scale(0.1 -0.1)">
      <use xlink:href="#DejaVuSans-49"/>
     </g>
    </g>
   </g>
  </g>
  <g id="axis3d_3">
   <g id="line2d_9">
    <path d="M 134.396381 92.904944 
L 136.966312 36.784198 
" style="fill:none;stroke:#000000;stroke-linecap:square;stroke-width:0.8;"/>
   </g>
   <g id="Line3DCollection_3">
    <path d="M 134.445618 91.829732 
L 62.370234 70.931703 
L 17.450581 108.490593 
" style="fill:none;stroke:#b0b0b0;stroke-width:0.8;"/>
    <path d="M 135.653195 65.459319 
L 62.076788 45.41288 
L 16.149355 81.469798 
" style="fill:none;stroke:#b0b0b0;stroke-width:0.8;"/>
    <path d="M 136.912659 37.955845 
L 61.771353 18.851469 
L 14.790021 53.242344 
" style="fill:none;stroke:#b0b0b0;stroke-width:0.8;"/>
   </g>
   <g id="xtick_7">
    <g id="line2d_10">
     <path d="M 133.840682 91.654333 
L 135.656928 92.180948 
" style="fill:none;stroke:#000000;stroke-linecap:square;stroke-width:0.8;"/>
    </g>
    <g id="text_9">
     <!-- −1 -->
     <g transform="translate(145.286127 96.834718)scale(0.1 -0.1)">
      <use xlink:href="#DejaVuSans-8722"/>
      <use x="83.789062" xlink:href="#DejaVuSans-49"/>
     </g>
    </g>
   </g>
   <g id="xtick_8">
    <g id="line2d_11">
     <path d="M 135.035054 65.290902 
L 136.890981 65.796563 
" style="fill:none;stroke:#000000;stroke-linecap:square;stroke-width:0.8;"/>
    </g>
    <g id="text_10">
     <!-- 0 -->
     <g transform="translate(151.057056 70.567824)scale(0.1 -0.1)">
      <use xlink:href="#DejaVuSans-48"/>
     </g>
    </g>
   </g>
   <g id="xtick_9">
    <g id="line2d_12">
     <path d="M 136.280723 37.795178 
L 138.178101 38.277579 
" style="fill:none;stroke:#000000;stroke-linecap:square;stroke-width:0.8;"/>
    </g>
    <g id="text_11">
     <!-- 1 -->
     <g transform="translate(152.705661 43.179212)scale(0.1 -0.1)">
      <use xlink:href="#DejaVuSans-49"/>
     </g>
    </g>
   </g>
  </g>
  <g id="axes_1">
   <g id="line2d_13">
    <defs>
     <path d="M -3 3 
L 3 -3 
M -3 -3 
L 3 3 
" id="m2e44f1709f" style="stroke:#ff0000;"/>
    </defs>
    <g clip-path="url(#p8ad5aace70)">
     <use style="fill:#ff0000;stroke:#ff0000;" x="77.028692" xlink:href="#m2e44f1709f" y="73.313514"/>
    </g>
   </g>
   <g id="Line3DCollection_4">
    <path clip-path="url(#p8ad5aace70)" d="M 24.027359 80.414346 
L 24.720594 81.702703 
L 25.412374 82.968028 
L 26.102719 84.21041 
L 26.79168 85.429942 
L 27.4793 86.62671 
L 28.165607 87.800799 
L 28.850638 88.952293 
L 29.534443 90.081271 
L 30.217039 91.187813 
L 30.898474 92.271992 
L 31.578784 93.333885 
L 32.257998 94.373561 
L 32.936157 95.391082 
L 33.613299 96.386526 
L 34.289461 97.359946 
L 34.964676 98.311408 
L 35.63898 99.240971 
L 36.312408 100.148689 
L 36.98499 101.034626 
L 37.656774 101.898818 
L 38.327783 102.741328 
L 38.998053 103.562198 
L 39.667628 104.361473 
L 40.336535 105.1392 
L 41.00481 105.895415 
L 41.672491 106.630156 
L 42.339612 107.343464 
L 43.006204 108.03537 
L 43.672303 108.705905 
L 44.337946 109.355101 
L 45.003164 109.982987 
L 45.667997 110.589582 
L 46.332473 111.17492 
L 46.996635 111.739005 
L 47.660505 112.281869 
L 48.324125 112.803529 
L 48.987532 113.303992 
L 49.650758 113.783268 
L 50.313833 114.241382 
L 50.976794 114.678323 
L 51.639678 115.094102 
L 52.302521 115.488728 
L 52.96535 115.862208 
L 53.628207 116.21452 
L 54.291123 116.545674 
L 54.954134 116.855668 
L 55.617272 117.144486 
L 56.280577 117.412121 
L 56.944078 117.658558 
L 57.607817 117.883789 
L 58.271824 118.087787 
L 58.936133 118.270544 
L 59.600785 118.43203 
L 60.265809 118.57223 
L 60.931245 118.69111 
L 61.597125 118.788641 
L 62.263488 118.864806 
L 62.930371 118.919557 
L 63.597803 118.952869 
L 64.265828 118.964694 
L 64.934478 118.955003 
L 65.60379 118.923741 
L 66.273803 118.870876 
L 66.944551 118.796359 
L 67.616071 118.70014 
L 68.288401 118.582164 
L 68.96158 118.442377 
L 69.635643 118.280724 
L 70.310627 118.097144 
L 70.986573 117.891572 
L 71.663518 117.663954 
L 72.3415 117.414217 
L 73.020559 117.142294 
L 73.700731 116.848109 
L 74.382059 116.531591 
L 75.064579 116.192658 
L 75.748334 115.831232 
L 76.43336 115.447233 
L 77.119699 115.040575 
L 77.807394 114.611165 
L 78.496484 114.158923 
L 79.187008 113.683744 
L 79.879012 113.185536 
L 80.572535 112.664196 
L 81.267617 112.119633 
L 81.964305 111.55173 
L 82.662639 110.960381 
L 83.362665 110.345477 
L 84.064422 109.706905 
L 84.76796 109.044541 
L 85.473318 108.358267 
L 86.180545 107.647969 
L 86.889684 106.913504 
L 87.60078 106.154752 
L 88.313883 105.371585 
L 89.029036 104.563848 
L 89.746285 103.731417 
L 90.465679 102.874143 
L 91.187271 101.991872 
L 91.9111 101.084464 
" style="fill:none;stroke:#1f77b4;stroke-width:1.5;"/>
    <path clip-path="url(#p8ad5aace70)" d="M 27.911214 67.075047 
L 28.602824 68.368707 
L 29.293038 69.6391 
L 29.981901 70.886316 
L 30.669439 72.110447 
L 31.355707 73.311585 
L 32.040724 74.489807 
L 32.724543 75.645203 
L 33.407196 76.777854 
L 34.088714 77.887834 
L 34.769131 78.975221 
L 35.448495 80.040094 
L 36.126835 81.082513 
L 36.804193 82.102553 
L 37.480587 83.100283 
L 38.156073 84.075763 
L 38.830681 85.029053 
L 39.504446 85.960214 
L 40.1774 86.869306 
L 40.849578 87.756378 
L 41.521019 88.621485 
L 42.191757 89.46468 
L 42.861827 90.286004 
L 43.531263 91.085503 
L 44.200102 91.863229 
L 44.868371 92.619211 
L 45.536118 93.353496 
L 46.20337 94.066113 
L 46.870162 94.757103 
L 47.536524 95.426493 
L 48.2025 96.074316 
L 48.868121 96.700597 
L 49.533421 97.305362 
L 50.198429 97.888636 
L 50.86319 98.450431 
L 51.52773 98.990774 
L 52.192089 99.509681 
L 52.856298 100.007161 
L 53.520394 100.483227 
L 54.18441 100.93789 
L 54.848378 101.371156 
L 55.512337 101.783036 
L 56.176321 102.173521 
L 56.84036 102.542628 
L 57.504497 102.890338 
L 58.168761 103.216653 
L 58.833187 103.521573 
L 59.497813 103.805085 
L 60.16267 104.067176 
L 60.827795 104.307836 
L 61.493224 104.527049 
L 62.158991 104.7248 
L 62.825133 104.901063 
L 63.491683 105.055827 
L 64.158679 105.18906 
L 64.826155 105.300732 
L 65.494147 105.39082 
L 66.162691 105.459295 
L 66.831824 105.506112 
L 67.501581 105.53125 
L 68.172 105.534663 
L 68.843117 105.516303 
L 69.514967 105.476141 
L 70.18759 105.414125 
L 70.86102 105.330202 
L 71.535295 105.224335 
L 72.210453 105.096457 
L 72.886534 104.946518 
L 73.563571 104.774463 
L 74.241605 104.580229 
L 74.920674 104.363752 
L 75.600817 104.124967 
L 76.282072 103.863807 
L 76.964479 103.580207 
L 77.648074 103.274082 
L 78.332902 102.945362 
L 79.018999 102.593969 
L 79.706406 102.219818 
L 80.395163 101.822834 
L 81.08531 101.402925 
L 81.776891 100.959994 
L 82.469946 100.493957 
L 83.164514 100.00472 
L 83.860641 99.492178 
L 84.558367 98.956233 
L 85.257733 98.396789 
L 85.958785 97.813722 
L 86.661565 97.206936 
L 87.366119 96.576313 
L 88.072486 95.921739 
L 88.780717 95.24309 
L 89.490851 94.540248 
L 90.202939 93.813087 
L 90.917024 93.061475 
L 91.63315 92.285283 
L 92.35137 91.484376 
L 93.071725 90.658611 
L 93.794264 89.80785 
L 94.519036 88.931945 
L 95.246094 88.03074 
L 95.975477 87.104095 
" style="fill:none;stroke:#1f77b4;stroke-width:1.5;"/>
    <path clip-path="url(#p8ad5aace70)" d="M 31.873153 55.985405 
L 32.561897 57.281198 
L 33.249329 58.553571 
L 33.935471 59.802617 
L 34.620379 61.028426 
L 35.304075 62.231087 
L 35.986605 63.410682 
L 36.667996 64.5673 
L 37.348296 65.701022 
L 38.027536 66.81192 
L 38.705753 67.900075 
L 39.38298 68.965563 
L 40.059251 70.008446 
L 40.734609 71.028798 
L 41.409088 72.026688 
L 42.082724 73.002177 
L 42.755541 73.955324 
L 43.427593 74.886192 
L 44.0989 75.794838 
L 44.76951 76.681312 
L 45.439446 77.54567 
L 46.10875 78.387962 
L 46.777449 79.208232 
L 47.44559 80.006527 
L 48.113203 80.782892 
L 48.780318 81.537365 
L 49.446973 82.269984 
L 50.113198 82.980788 
L 50.779035 83.669809 
L 51.444516 84.337078 
L 52.109677 84.982623 
L 52.774548 85.606476 
L 53.439162 86.208655 
L 54.103562 86.78919 
L 54.767777 87.348097 
L 55.431841 87.885395 
L 56.095789 88.401098 
L 56.759657 88.895223 
L 57.423476 89.367779 
L 58.087286 89.818777 
L 58.751117 90.24822 
L 59.415007 90.656115 
L 60.078987 91.042469 
L 60.743093 91.407274 
L 61.407361 91.750534 
L 62.071824 92.072245 
L 62.736519 92.372394 
L 63.40148 92.650979 
L 64.066741 92.907985 
L 64.732337 93.143402 
L 65.398305 93.357215 
L 66.064679 93.549398 
L 66.731495 93.719938 
L 67.398787 93.868811 
L 68.066595 93.995994 
L 68.73495 94.101456 
L 69.40389 94.185169 
L 70.07345 94.247102 
L 70.743667 94.287224 
L 71.414578 94.305491 
L 72.086219 94.301869 
L 72.758626 94.276316 
L 73.431836 94.228787 
L 74.105886 94.15924 
L 74.780815 94.067619 
L 75.456658 93.95388 
L 76.133453 93.817965 
L 76.811241 93.659821 
L 77.490055 93.479389 
L 78.169936 93.276603 
L 78.850922 93.051405 
L 79.533053 92.803729 
L 80.216366 92.533502 
L 80.900903 92.240655 
L 81.586699 91.925115 
L 82.273799 91.586803 
L 82.962239 91.225642 
L 83.652063 90.841548 
L 84.343307 90.434434 
L 85.036015 90.00422 
L 85.730229 89.550803 
L 86.42599 89.0741 
L 87.123336 88.574013 
L 87.822316 88.050438 
L 88.522969 87.50328 
L 89.225335 86.932431 
L 89.929463 86.33778 
L 90.635392 85.719218 
L 91.343171 85.076633 
L 92.05284 84.409906 
L 92.764447 83.718915 
L 93.478033 83.003538 
L 94.193653 82.263652 
L 94.911343 81.499119 
L 95.631152 80.70981 
L 96.353134 79.895591 
L 97.07733 79.056317 
L 97.803785 78.191849 
L 98.532557 77.302034 
L 99.263692 76.386724 
L 99.997236 75.445768 
" style="fill:none;stroke:#1f77b4;stroke-width:1.5;"/>
    <path clip-path="url(#p8ad5aace70)" d="M 35.892138 47.190864 
L 36.576821 48.485608 
L 37.260274 49.756866 
L 37.942511 51.004722 
L 38.623582 52.229275 
L 39.303529 53.430615 
L 39.982375 54.608815 
L 40.660165 55.763968 
L 41.33694 56.896155 
L 42.012727 58.005447 
L 42.687562 59.091926 
L 43.361486 60.155666 
L 44.034525 61.19673 
L 44.706724 62.215191 
L 45.378119 63.211116 
L 46.04874 64.184569 
L 46.718621 65.13561 
L 47.387802 66.064296 
L 48.056318 66.970687 
L 48.724193 67.854833 
L 49.391478 68.716788 
L 50.058199 69.556604 
L 50.724388 70.374324 
L 51.390086 71.169994 
L 52.055321 71.943658 
L 52.720131 72.695355 
L 53.384553 73.425124 
L 54.048617 74.133 
L 54.712357 74.819018 
L 55.375812 75.483208 
L 56.039012 76.125598 
L 56.701993 76.746217 
L 57.364788 77.345087 
L 58.027433 77.922234 
L 58.689963 78.477675 
L 59.352407 79.011428 
L 60.014807 79.52351 
L 60.67719 80.013933 
L 61.339596 80.482709 
L 62.002057 80.929847 
L 62.664606 81.355352 
L 63.327279 81.759232 
L 63.990111 82.141485 
L 64.653133 82.502114 
L 65.316387 82.841115 
L 65.9799 83.158483 
L 66.643711 83.454214 
L 67.307854 83.728296 
L 67.972364 83.980718 
L 68.637275 84.211467 
L 69.302624 84.420526 
L 69.968444 84.60788 
L 70.634772 84.773506 
L 71.301643 84.917381 
L 71.969092 85.039481 
L 72.637157 85.139778 
L 73.305871 85.218243 
L 73.975272 85.274841 
L 74.645394 85.309542 
L 75.316276 85.322307 
L 75.987953 85.313094 
L 76.660461 85.281865 
L 77.333838 85.228576 
L 78.008122 85.153179 
L 78.683348 85.055626 
L 79.359555 84.935865 
L 80.036779 84.793843 
L 80.71506 84.629501 
L 81.394435 84.442785 
L 82.074942 84.233629 
L 82.75662 84.001972 
L 83.439507 83.747746 
L 84.123643 83.47088 
L 84.809068 83.171307 
L 85.495819 82.84895 
L 86.183939 82.503729 
L 86.873467 82.13557 
L 87.564443 81.744385 
L 88.256906 81.330093 
L 88.950898 80.892606 
L 89.646464 80.431827 
L 90.343643 79.947671 
L 91.042476 79.440036 
L 91.743009 78.908822 
L 92.44528 78.353931 
L 93.149332 77.775255 
L 93.855213 77.172684 
L 94.562965 76.546109 
L 95.272632 75.895416 
L 95.984256 75.220486 
L 96.697888 74.521197 
L 97.413568 73.797428 
L 98.131345 73.049052 
L 98.851266 72.275935 
L 99.573375 71.477946 
L 100.297723 70.65495 
L 101.024355 69.806799 
L 101.753317 68.933358 
L 102.484662 68.034476 
L 103.218442 67.109999 
L 103.9547 66.159777 
" style="fill:none;stroke:#1f77b4;stroke-width:1.5;"/>
    <path clip-path="url(#p8ad5aace70)" d="M 39.946775 40.712628 
L 40.626243 42.003174 
L 41.30455 43.270245 
L 41.981733 44.513935 
L 42.657824 45.734331 
L 43.332866 46.931524 
L 44.006894 48.105593 
L 44.679939 49.256625 
L 45.352042 50.384698 
L 46.023237 51.489893 
L 46.693559 52.572281 
L 47.363041 53.63194 
L 48.031719 54.668929 
L 48.69963 55.683324 
L 49.366808 56.675192 
L 50.033288 57.644594 
L 50.6991 58.591587 
L 51.364288 59.516234 
L 52.02888 60.418588 
L 52.692908 61.298705 
L 53.356413 62.156634 
L 54.019428 62.992428 
L 54.681983 63.806128 
L 55.344113 64.597781 
L 56.005856 65.367432 
L 56.667243 66.115116 
L 57.328311 66.840874 
L 57.989088 67.54474 
L 58.649613 68.226749 
L 59.309918 68.88693 
L 59.970039 69.525312 
L 60.630009 70.141921 
L 61.289861 70.736782 
L 61.949629 71.309918 
L 62.60935 71.861347 
L 63.269053 72.391086 
L 63.928775 72.899153 
L 64.58855 73.385559 
L 65.248412 73.850314 
L 65.908393 74.29343 
L 66.568529 74.71491 
L 67.228855 75.114759 
L 67.889404 75.492981 
L 68.550211 75.849573 
L 69.211309 76.184534 
L 69.872733 76.497859 
L 70.53452 76.789541 
L 71.196701 77.05957 
L 71.859313 77.307935 
L 72.52239 77.534624 
L 73.185967 77.739618 
L 73.850079 77.9229 
L 74.514761 78.08445 
L 75.180049 78.224243 
L 75.845978 78.342257 
L 76.512584 78.438462 
L 77.179902 78.512829 
L 77.847968 78.565326 
L 78.516819 78.595919 
L 79.18649 78.604569 
L 79.857017 78.591239 
L 80.528437 78.555887 
L 81.200787 78.498467 
L 81.874106 78.418936 
L 82.548427 78.317241 
L 83.223789 78.193334 
L 83.900231 78.047161 
L 84.577789 77.878664 
L 85.256502 77.687785 
L 85.936407 77.474463 
L 86.617543 77.238633 
L 87.29995 76.98023 
L 87.983664 76.699184 
L 88.668728 76.395425 
L 89.355179 76.068877 
L 90.043058 75.719463 
L 90.732404 75.347105 
L 91.423259 74.951718 
L 92.115661 74.533221 
L 92.809651 74.091524 
L 93.505276 73.626535 
L 94.202572 73.138163 
L 94.901581 72.626311 
L 95.602349 72.090876 
L 96.304917 71.531763 
L 97.009326 70.948865 
L 97.715623 70.34207 
L 98.423845 69.711271 
L 99.134046 69.056352 
L 99.846264 68.377197 
L 100.560549 67.673683 
L 101.276939 66.94569 
L 101.99549 66.19309 
L 102.716239 65.415753 
L 103.439235 64.613546 
L 104.164535 63.786332 
L 104.892172 62.933971 
L 105.622203 62.056322 
L 106.354676 61.153236 
L 107.089641 60.224558 
L 107.827146 59.270143 
" style="fill:none;stroke:#1f77b4;stroke-width:1.5;"/>
    <path clip-path="url(#p8ad5aace70)" d="M 44.015684 36.547748 
L 44.688822 37.831014 
L 45.360887 39.090905 
L 46.031907 40.327507 
L 46.70192 41.540908 
L 47.370964 42.731208 
L 48.039072 43.898468 
L 48.70628 45.042784 
L 49.37262 46.164237 
L 50.038131 47.262893 
L 50.702843 48.338837 
L 51.366797 49.392135 
L 52.030024 50.422854 
L 52.69256 51.431067 
L 53.354432 52.416833 
L 54.015685 53.380221 
L 54.676347 54.321284 
L 55.336453 55.240079 
L 55.996038 56.136668 
L 56.655133 57.011099 
L 57.313776 57.863423 
L 57.971998 58.693692 
L 58.629832 59.501948 
L 59.287314 60.288235 
L 59.944477 61.052598 
L 60.601356 61.795074 
L 61.25798 62.515699 
L 61.914385 63.21451 
L 62.570607 63.891539 
L 63.226678 64.546818 
L 63.882629 65.180371 
L 64.538495 65.792228 
L 65.194312 66.382412 
L 65.850111 66.950944 
L 66.505927 67.497842 
L 67.161791 68.023126 
L 67.817739 68.52681 
L 68.473804 69.008907 
L 69.13002 69.469426 
L 69.78642 69.908377 
L 70.443037 70.325766 
L 71.099907 70.721596 
L 71.757064 71.09587 
L 72.414539 71.448588 
L 73.072368 71.779745 
L 73.730586 72.089338 
L 74.389225 72.37736 
L 75.048321 72.643801 
L 75.707908 72.88865 
L 76.36802 73.111893 
L 77.028692 73.313514 
L 77.689959 73.493494 
L 78.351855 73.651813 
L 79.014416 73.788449 
L 79.677677 73.903377 
L 80.341673 73.996568 
L 81.006439 74.067993 
L 81.672011 74.117621 
L 82.338425 74.145417 
L 83.005716 74.151344 
L 83.673921 74.135363 
L 84.343076 74.097434 
L 85.013217 74.037511 
L 85.684381 73.95555 
L 86.356606 73.851502 
L 87.029927 73.725316 
L 87.704383 73.576938 
L 88.380011 73.406312 
L 89.056846 73.213381 
L 89.734931 72.998083 
L 90.4143 72.760355 
L 91.094994 72.500132 
L 91.777049 72.217344 
L 92.460509 71.911921 
L 93.145408 71.583789 
L 93.831788 71.232873 
L 94.519688 70.859092 
L 95.209152 70.462365 
L 95.900214 70.04261 
L 96.592917 69.599738 
L 97.287305 69.133658 
L 97.983418 68.64428 
L 98.681296 68.131507 
L 99.380984 67.595241 
L 100.082521 67.035382 
L 100.785953 66.451827 
L 101.491325 65.844465 
L 102.198676 65.213186 
L 102.908049 64.557884 
L 103.619493 63.878437 
L 104.333051 63.174724 
L 105.04877 62.446632 
L 105.766695 61.694026 
L 106.486872 60.916779 
L 107.209345 60.114763 
L 107.934163 59.287845 
L 108.661379 58.435875 
L 109.391032 57.558724 
L 110.123174 56.656239 
L 110.85786 55.728271 
L 111.59513 54.774673 
" style="fill:none;stroke:#1f77b4;stroke-width:1.5;"/>
    <path clip-path="url(#p8ad5aace70)" d="M 48.077838 34.669763 
L 48.743607 35.942784 
L 49.40839 37.192603 
L 50.072207 38.419307 
L 50.735102 39.622986 
L 51.397111 40.803732 
L 52.058262 41.961614 
L 52.71859 43.096719 
L 53.378136 44.209121 
L 54.036929 45.298901 
L 54.695001 46.366131 
L 55.352391 47.410882 
L 56.009129 48.433213 
L 56.665253 49.4332 
L 57.32079 50.410902 
L 57.97578 51.366386 
L 58.630255 52.299702 
L 59.284247 53.210909 
L 59.93779 54.100067 
L 60.590916 54.967224 
L 61.243659 55.812427 
L 61.896053 56.63573 
L 62.548129 57.437173 
L 63.199923 58.2168 
L 63.851466 58.974657 
L 64.502792 59.710777 
L 65.153935 60.425197 
L 65.804924 61.117952 
L 66.455797 61.789076 
L 67.106584 62.438599 
L 67.757318 63.066544 
L 68.408032 63.672943 
L 69.058761 64.257813 
L 69.709537 64.821182 
L 70.360392 65.363062 
L 71.01136 65.883475 
L 71.662473 66.382435 
L 72.313765 66.859953 
L 72.965271 67.316039 
L 73.617021 67.750704 
L 74.269049 68.16395 
L 74.92139 68.555784 
L 75.574077 68.926208 
L 76.227142 69.275219 
L 76.88062 69.602817 
L 77.534544 69.908994 
L 78.188949 70.193745 
L 78.843867 70.457062 
L 79.499333 70.698931 
L 80.155381 70.91934 
L 80.812044 71.118272 
L 81.469359 71.295711 
L 82.127357 71.451634 
L 82.786075 71.58602 
L 83.445549 71.698845 
L 84.105811 71.79008 
L 84.766896 71.859697 
L 85.42884 71.907664 
L 86.091678 71.933948 
L 86.755448 71.938512 
L 87.420182 71.921318 
L 88.085918 71.882325 
L 88.752692 71.821489 
L 89.420539 71.738767 
L 90.089497 71.634108 
L 90.759601 71.507464 
L 91.430889 71.358782 
L 92.103399 71.188007 
L 92.777167 70.995081 
L 93.45223 70.779945 
L 94.128629 70.542534 
L 94.806397 70.282787 
L 95.485576 70.000634 
L 96.166204 69.696005 
L 96.848319 69.368829 
L 97.531962 69.01903 
L 98.217172 68.64653 
L 98.903988 68.251247 
L 99.592449 67.833102 
L 100.282595 67.392009 
L 100.974473 66.927875 
L 101.668119 66.440613 
L 102.363571 65.930127 
L 103.060878 65.396319 
L 103.76008 64.839095 
L 104.461216 64.25835 
L 105.164333 63.653974 
L 105.869472 63.025865 
L 106.576678 62.373908 
L 107.285994 61.697991 
L 107.997463 60.997997 
L 108.711135 60.273802 
L 109.427051 59.525287 
L 110.145261 58.752322 
L 110.865807 57.954779 
L 111.588735 57.132527 
L 112.3141 56.285423 
L 113.04194 55.413334 
L 113.772305 54.516119 
L 114.505256 53.593618 
L 115.240827 52.645699 
" style="fill:none;stroke:#1f77b4;stroke-width:1.5;"/>
    <path clip-path="url(#p8ad5aace70)" d="M 52.112931 35.029973 
L 52.770364 36.289924 
L 53.426893 37.526926 
L 54.082541 38.741061 
L 54.737346 39.932422 
L 55.391346 41.101088 
L 56.044573 42.24714 
L 56.697055 43.370658 
L 57.348833 44.471718 
L 57.999939 45.550392 
L 58.6504 46.606752 
L 59.300255 47.640872 
L 59.949534 48.652807 
L 60.598273 49.642627 
L 61.246503 50.610402 
L 61.894257 51.556185 
L 62.541568 52.480031 
L 63.18847 53.382003 
L 63.834994 54.262146 
L 64.481169 55.120519 
L 65.127036 55.957166 
L 65.772622 56.772134 
L 66.417957 57.56547 
L 67.063078 58.337212 
L 67.708017 59.087403 
L 68.352805 59.816079 
L 68.997476 60.52328 
L 69.642058 61.209035 
L 70.286589 61.873377 
L 70.931097 62.516334 
L 71.575617 63.137937 
L 72.22018 63.738208 
L 72.864818 64.31717 
L 73.509565 64.874847 
L 74.154454 65.411253 
L 74.799515 65.926407 
L 75.444781 66.420323 
L 76.090286 66.893013 
L 76.736062 67.344488 
L 77.38214 67.774754 
L 78.028555 68.18382 
L 78.675338 68.571688 
L 79.322524 68.93836 
L 79.970144 69.283835 
L 80.618232 69.608111 
L 81.26682 69.911183 
L 81.915943 70.193044 
L 82.565633 70.453686 
L 83.215923 70.693096 
L 83.866849 70.911261 
L 84.518441 71.108167 
L 85.170736 71.283795 
L 85.823766 71.438126 
L 86.477565 71.571137 
L 87.132169 71.682804 
L 87.78761 71.773101 
L 88.443923 71.841999 
L 89.101145 71.889467 
L 89.75931 71.915472 
L 90.418449 71.919979 
L 91.078602 71.902949 
L 91.739801 71.864343 
L 92.402085 71.804119 
L 93.065487 71.722232 
L 93.730043 71.618636 
L 94.39579 71.49328 
L 95.062765 71.346114 
L 95.731003 71.177084 
L 96.400544 70.986134 
L 97.07142 70.773203 
L 97.743674 70.538232 
L 98.417338 70.281158 
L 99.092454 70.001913 
L 99.769061 69.700429 
L 100.447192 69.376636 
L 101.126889 69.030461 
L 101.808191 68.661825 
L 102.491139 68.270652 
L 103.175771 67.856859 
L 103.862124 67.420364 
L 104.550245 66.961078 
L 105.240169 66.478914 
L 105.931932 65.973779 
L 106.625589 65.445578 
L 107.321172 64.894215 
L 108.018723 64.319588 
L 108.718289 63.721595 
L 109.419912 63.100129 
L 110.123631 62.455084 
L 110.82949 61.786347 
L 111.537541 61.093796 
L 112.247818 60.377326 
L 112.960373 59.636808 
L 113.67525 58.872119 
L 114.392487 58.083133 
L 115.112142 57.269722 
L 115.834254 56.431748 
L 116.558875 55.569079 
L 117.286047 54.681572 
L 118.015826 53.769085 
L 118.748255 52.83147 
" style="fill:none;stroke:#1f77b4;stroke-width:1.5;"/>
    <path clip-path="url(#p8ad5aace70)" d="M 56.101671 37.55916 
L 56.749878 38.803397 
L 57.397258 40.025006 
L 58.043843 41.22407 
L 58.689666 42.400676 
L 59.334766 43.554907 
L 59.97917 44.686829 
L 60.62291 45.796534 
L 61.266025 46.884091 
L 61.908542 47.949567 
L 62.550493 48.993038 
L 63.191914 50.014572 
L 63.832833 51.014226 
L 64.473287 51.99207 
L 65.113301 52.948163 
L 65.752915 53.882565 
L 66.392155 54.79533 
L 67.031057 55.686515 
L 67.669652 56.556168 
L 68.307968 57.40434 
L 68.946041 58.231081 
L 69.583901 59.036434 
L 70.221578 59.820444 
L 70.859107 60.583151 
L 71.496518 61.324595 
L 72.133842 62.044812 
L 72.771113 62.743838 
L 73.408358 63.421707 
L 74.045614 64.078448 
L 74.682909 64.714088 
L 75.320276 65.328657 
L 75.957746 65.922179 
L 76.595351 66.494673 
L 77.233123 67.046165 
L 77.871094 67.576667 
L 78.509295 68.086201 
L 79.147757 68.574776 
L 79.786514 69.042407 
L 80.425597 69.489104 
L 81.065037 69.914875 
L 81.704867 70.319724 
L 82.345119 70.703654 
L 82.985825 71.066672 
L 83.627018 71.408771 
L 84.26873 71.729954 
L 84.910992 72.030213 
L 85.553839 72.309542 
L 86.197302 72.567934 
L 86.841414 72.805376 
L 87.486209 73.021855 
L 88.131717 73.217359 
L 88.777974 73.391867 
L 89.425013 73.54536 
L 90.072867 73.67782 
L 90.721571 73.789221 
L 91.371154 73.879537 
L 92.021655 73.94874 
L 92.673106 73.9968 
L 93.325539 74.023688 
L 93.978994 74.029364 
L 94.6335 74.013795 
L 95.289092 73.976942 
L 95.945811 73.918762 
L 96.603683 73.839212 
L 97.262751 73.738248 
L 97.923047 73.615822 
L 98.58461 73.471883 
L 99.247471 73.306377 
L 99.91167 73.119252 
L 100.57724 72.91045 
L 101.24422 72.67991 
L 101.912649 72.427572 
L 102.58256 72.153371 
L 103.253993 71.857239 
L 103.926984 71.53911 
L 104.601572 71.198909 
L 105.2778 70.836564 
L 105.955699 70.451997 
L 106.635315 70.045131 
L 107.316673 69.615883 
L 107.999833 69.164168 
L 108.684823 68.6899 
L 109.371685 68.192989 
L 110.06046 67.673343 
L 110.751191 67.130868 
L 111.443909 66.565467 
L 112.138669 65.977038 
L 112.835511 65.365476 
L 113.534472 64.73068 
L 114.235591 64.072539 
L 114.938925 63.390938 
L 115.644508 62.68577 
L 116.352386 61.956911 
L 117.062605 61.204242 
L 117.775207 60.427639 
L 118.490245 59.626978 
L 119.207754 58.802125 
L 119.927789 57.952953 
L 120.65039 57.079319 
L 121.375614 56.181091 
L 122.103497 55.258123 
" style="fill:none;stroke:#1f77b4;stroke-width:1.5;"/>
    <path clip-path="url(#p8ad5aace70)" d="M 60.026057 42.169758 
L 60.664222 43.395835 
L 61.301645 44.599669 
L 61.938355 45.781348 
L 62.574383 46.940951 
L 63.209766 48.078555 
L 63.844535 49.194236 
L 64.478716 50.288068 
L 65.112346 51.360124 
L 65.745456 52.410479 
L 66.378074 53.439192 
L 67.010236 54.446339 
L 67.641968 55.431969 
L 68.273307 56.396152 
L 68.904279 57.338949 
L 69.53492 58.260418 
L 70.165256 59.160606 
L 70.795322 60.03957 
L 71.425147 60.89736 
L 72.054761 61.734024 
L 72.684198 62.549612 
L 73.313487 63.344167 
L 73.942657 64.117726 
L 74.571741 64.870333 
L 75.200771 65.602029 
L 75.829774 66.312845 
L 76.458785 67.002817 
L 77.087831 67.671977 
L 77.716946 68.320356 
L 78.346158 68.947979 
L 78.9755 69.554876 
L 79.605001 70.14107 
L 80.234694 70.70658 
L 80.864608 71.251428 
L 81.494776 71.775631 
L 82.125227 72.279206 
L 82.755993 72.762164 
L 83.387105 73.224521 
L 84.018594 73.666284 
L 84.650491 74.087462 
L 85.282827 74.488059 
L 85.915635 74.86808 
L 86.548946 75.227528 
L 87.182788 75.566402 
L 87.817199 75.884698 
L 88.452205 76.182412 
L 89.087841 76.459539 
L 89.724138 76.71607 
L 90.361128 76.951995 
L 90.998843 77.167301 
L 91.637314 77.361974 
L 92.276577 77.535998 
L 92.916661 77.689351 
L 93.557599 77.822017 
L 94.199428 77.933971 
L 94.842178 78.025187 
L 95.485878 78.095639 
L 96.130568 78.1453 
L 96.776278 78.174135 
L 97.423043 78.182113 
L 98.070895 78.169197 
L 98.719869 78.135353 
L 99.369998 78.080538 
L 100.021323 78.004711 
L 100.673868 77.907826 
L 101.327675 77.78984 
L 101.982776 77.650702 
L 102.63921 77.490361 
L 103.29701 77.308769 
L 103.956207 77.105862 
L 104.616845 76.881588 
L 105.278954 76.635887 
L 105.942575 76.368696 
L 106.607744 76.07995 
L 107.274497 75.769583 
L 107.942871 75.437523 
L 108.612903 75.083703 
L 109.284632 74.708043 
L 109.958093 74.310473 
L 110.633329 73.89091 
L 111.310384 73.449271 
L 111.989285 72.985475 
L 112.670069 72.499434 
L 113.352793 71.991058 
L 114.037485 71.460257 
L 114.724191 70.906938 
L 115.412947 70.330999 
L 116.10379 69.732344 
L 116.796774 69.110869 
L 117.491936 68.466471 
L 118.189317 67.799035 
L 118.888954 67.10846 
L 119.590905 66.394626 
L 120.295204 65.657418 
L 121.001893 64.896716 
L 121.711022 64.1124 
L 122.422634 63.304337 
L 123.136771 62.472409 
L 123.853487 61.616477 
L 124.572824 60.736407 
L 125.294831 59.832065 
" style="fill:none;stroke:#1f77b4;stroke-width:1.5;"/>
    <path clip-path="url(#p8ad5aace70)" d="M 63.86958 48.758277 
L 64.496981 49.963978 
L 65.123725 51.147882 
L 65.749831 52.310068 
L 66.375336 53.450621 
L 67.000274 54.569617 
L 67.624671 55.667121 
L 68.248558 56.743209 
L 68.871969 57.797956 
L 69.494931 58.831424 
L 70.117475 59.843681 
L 70.739633 60.834795 
L 71.361433 61.804816 
L 71.982908 62.753812 
L 72.604085 63.681838 
L 73.224998 64.588952 
L 73.845673 65.475204 
L 74.466143 66.340643 
L 75.086438 67.185322 
L 75.706584 68.009287 
L 76.326617 68.812582 
L 76.946563 69.595252 
L 77.566451 70.357337 
L 78.186313 71.098874 
L 78.806181 71.819899 
L 79.42608 72.520455 
L 80.046044 73.200567 
L 80.666099 73.860269 
L 81.286279 74.499589 
L 81.906611 75.118554 
L 82.527127 75.717193 
L 83.147855 76.295527 
L 83.768827 76.853574 
L 84.390071 77.391359 
L 85.01162 77.908893 
L 85.633501 78.406197 
L 86.255747 78.883285 
L 86.878386 79.340162 
L 87.501449 79.776845 
L 88.124967 80.193338 
L 88.748969 80.589644 
L 89.373488 80.965773 
L 89.998551 81.321722 
L 90.624194 81.657497 
L 91.250442 81.973086 
L 91.877331 82.268495 
L 92.504888 82.543711 
L 93.133145 82.79873 
L 93.762137 83.03354 
L 94.391889 83.248131 
L 95.022436 83.442488 
L 95.653811 83.616595 
L 96.286042 83.770433 
L 96.919165 83.903987 
L 97.553209 84.01723 
L 98.188207 84.110142 
L 98.824189 84.18269 
L 99.461193 84.234857 
L 100.099247 84.266602 
L 100.738388 84.277902 
L 101.378641 84.268716 
L 102.020048 84.239014 
L 102.662638 84.188752 
L 103.306448 84.117892 
L 103.951506 84.026394 
L 104.59785 83.91421 
L 105.245513 83.781295 
L 105.894529 83.6276 
L 106.544934 83.453075 
L 107.196765 83.257663 
L 107.850052 83.04131 
L 108.50483 82.803961 
L 109.161141 82.545554 
L 109.819017 82.266028 
L 110.478491 81.965319 
L 111.139605 81.643354 
L 111.802393 81.300072 
L 112.466894 80.9354 
L 113.133144 80.54926 
L 113.801173 80.14158 
L 114.471033 79.712278 
L 115.142756 79.261279 
L 115.816381 78.788493 
L 116.491944 78.293837 
L 117.169485 77.777223 
L 117.849046 77.238561 
L 118.530667 76.677755 
L 119.214382 76.094709 
L 119.90024 75.489326 
L 120.588273 74.861505 
L 121.278531 74.211138 
L 121.971057 73.538124 
L 122.665888 72.84235 
L 123.36307 72.123703 
L 124.062643 71.382071 
L 124.764647 70.617335 
L 125.469135 69.82937 
L 126.176141 69.01806 
L 126.885719 68.183273 
L 127.597919 67.324878 
L 128.312768 66.44275 
" style="fill:none;stroke:#1f77b4;stroke-width:1.5;"/>
    <path clip-path="url(#p8ad5aace70)" d="M 24.027359 80.414346 
L 24.411645 78.980972 
L 24.796895 77.569496 
L 25.183092 76.180005 
L 25.570214 74.812571 
L 25.958244 73.467262 
L 26.34715 72.144156 
L 26.736921 70.843317 
L 27.127535 69.564808 
L 27.518981 68.308698 
L 27.911214 67.075047 
L 28.304242 65.863907 
L 28.698024 64.675345 
L 29.092546 63.509408 
L 29.487784 62.366146 
L 29.883729 61.245613 
L 30.280347 60.147855 
L 30.677616 59.072914 
L 31.075525 58.020832 
L 31.474039 56.99165 
L 31.873153 55.985405 
L 32.272835 55.002129 
L 32.673071 54.041859 
L 33.073829 53.104619 
L 33.475094 52.190442 
L 33.876848 51.299348 
L 34.279065 50.431361 
L 34.681725 49.586506 
L 35.084804 48.764796 
L 35.488282 47.966243 
L 35.892138 47.190864 
L 36.296352 46.438666 
L 36.700901 45.709658 
L 37.105764 45.003848 
L 37.510917 44.321242 
L 37.916341 43.66183 
L 38.322019 43.02562 
L 38.72792 42.412602 
L 39.134028 41.822768 
L 39.540322 41.256115 
L 39.946775 40.712628 
L 40.353376 40.192295 
L 40.760097 39.6951 
L 41.16692 39.221021 
L 41.573819 38.770041 
L 41.980772 38.342136 
L 42.387767 37.937278 
L 42.794776 37.555441 
L 43.201782 37.196599 
L 43.608754 36.860711 
L 44.015684 36.547748 
L 44.422544 36.257673 
L 44.829318 35.990452 
L 45.235979 35.746032 
L 45.642511 35.524372 
L 46.048893 35.325433 
L 46.455105 35.14917 
L 46.861126 34.995517 
L 47.266935 34.86444 
L 47.67251 34.755875 
L 48.077838 34.669763 
L 48.48289 34.606053 
L 48.887655 34.564681 
L 49.292107 34.545585 
L 49.696226 34.5487 
L 50.1 34.573964 
L 50.503402 34.621304 
L 50.906415 34.69064 
L 51.30902 34.781919 
L 51.711196 34.895052 
L 52.112931 35.029973 
L 52.514198 35.186596 
L 52.914981 35.364846 
L 53.315266 35.564638 
L 53.715031 35.785887 
L 54.114252 36.028512 
L 54.512921 36.292431 
L 54.911015 36.577538 
L 55.308515 36.883761 
L 55.705409 37.211004 
L 56.101671 37.55916 
L 56.497293 37.928149 
L 56.89225 38.317868 
L 57.286525 38.728215 
L 57.680109 39.159095 
L 58.072978 39.610403 
L 58.465119 40.082041 
L 58.856513 40.573906 
L 59.247145 41.085884 
L 59.636998 41.617866 
L 60.026057 42.169758 
L 60.414308 42.741432 
L 60.801731 43.332784 
L 61.188313 43.943706 
L 61.57404 44.57408 
L 61.958894 45.223787 
L 62.342862 45.892719 
L 62.725931 46.580755 
L 63.108082 47.287774 
L 63.489304 48.013655 
L 63.86958 48.758277 
" style="fill:none;stroke:#1f77b4;stroke-width:1.5;"/>
    <path clip-path="url(#p8ad5aace70)" d="M 30.898474 92.271992 
L 31.281992 90.84412 
L 31.666347 89.437875 
L 32.051526 88.053336 
L 32.437514 86.690572 
L 32.824281 85.349659 
L 33.21181 84.030666 
L 33.600076 82.733663 
L 33.989064 81.458711 
L 34.378761 80.205877 
L 34.769131 78.975221 
L 35.160166 77.766796 
L 35.551836 76.580668 
L 35.944127 75.416884 
L 36.337015 74.275496 
L 36.730483 73.156552 
L 37.124509 72.060104 
L 37.519066 70.98619 
L 37.914141 69.934853 
L 38.309705 68.906137 
L 38.705753 67.900075 
L 39.10224 66.9167 
L 39.499169 65.956051 
L 39.896504 65.018154 
L 40.294227 64.103032 
L 40.69232 63.210719 
L 41.090755 62.34123 
L 41.489521 61.494592 
L 41.888591 60.670817 
L 42.287945 59.869924 
L 42.687562 59.091926 
L 43.087417 58.33683 
L 43.487494 57.604647 
L 43.887776 56.895386 
L 44.288233 56.209045 
L 44.688849 55.545629 
L 45.089602 54.905137 
L 45.490467 54.287562 
L 45.89143 53.6929 
L 46.292465 53.121142 
L 46.693559 52.572281 
L 47.094679 52.046299 
L 47.495812 51.543182 
L 47.89694 51.062913 
L 48.298034 50.605476 
L 48.69908 50.170842 
L 49.100054 49.758989 
L 49.500941 49.369897 
L 49.901713 49.003527 
L 50.302353 48.659851 
L 50.702843 48.338837 
L 51.103164 48.040448 
L 51.503287 47.764648 
L 51.9032 47.511394 
L 52.302882 47.280646 
L 52.702316 47.072359 
L 53.101471 46.886485 
L 53.50034 46.722975 
L 53.898896 46.581787 
L 54.297125 46.462855 
L 54.695001 46.366131 
L 55.09251 46.291556 
L 55.489633 46.239077 
L 55.886349 46.208621 
L 56.282636 46.200135 
L 56.678482 46.21355 
L 57.073865 46.2488 
L 57.468765 46.305822 
L 57.863168 46.384531 
L 58.257052 46.484868 
L 58.6504 46.606752 
L 59.043192 46.750105 
L 59.435412 46.914855 
L 59.827044 47.100915 
L 60.218069 47.308206 
L 60.608468 47.53665 
L 60.998224 47.786155 
L 61.387324 48.056635 
L 61.775745 48.348004 
L 62.163472 48.660163 
L 62.550493 48.993038 
L 62.936784 49.346519 
L 63.322334 49.720519 
L 63.707126 50.114936 
L 64.09114 50.529675 
L 64.474365 50.964635 
L 64.856784 51.41972 
L 65.238378 51.894824 
L 65.619134 52.389837 
L 65.999038 52.904663 
L 66.378074 53.439192 
L 66.756227 53.993312 
L 67.133481 54.566919 
L 67.509824 55.159899 
L 67.885239 55.772142 
L 68.259711 56.403531 
L 68.63323 57.053959 
L 69.00578 57.723305 
L 69.377346 58.411451 
L 69.747914 59.118285 
L 70.117475 59.843681 
" style="fill:none;stroke:#1f77b4;stroke-width:1.5;"/>
    <path clip-path="url(#p8ad5aace70)" d="M 37.656774 101.898818 
L 38.040179 100.473794 
L 38.42431 99.070192 
L 38.809144 97.688097 
L 39.194665 96.32758 
L 39.580854 94.98871 
L 39.96768 93.671563 
L 40.355127 92.376203 
L 40.743182 91.102693 
L 41.13182 89.851101 
L 41.521019 88.621485 
L 41.910762 87.413901 
L 42.301023 86.228409 
L 42.691787 85.065061 
L 43.083033 83.923908 
L 43.474739 82.804998 
L 43.866885 81.708382 
L 44.259447 80.6341 
L 44.652409 79.582192 
L 45.045748 78.552705 
L 45.439446 77.54567 
L 45.833478 76.561122 
L 46.227829 75.5991 
L 46.622469 74.659627 
L 47.01739 73.742732 
L 47.41256 72.848444 
L 47.807957 71.976781 
L 48.203573 71.127769 
L 48.599378 70.301422 
L 48.995353 69.497757 
L 49.391478 68.716788 
L 49.787732 67.958525 
L 50.184092 67.222979 
L 50.580543 66.510155 
L 50.977059 65.820055 
L 51.373622 65.152684 
L 51.770213 64.50804 
L 52.166803 63.886119 
L 52.563383 63.286917 
L 52.959927 62.710424 
L 53.356413 62.156634 
L 53.752825 61.625534 
L 54.149138 61.117103 
L 54.545337 60.631333 
L 54.941398 60.168199 
L 55.337301 59.72768 
L 55.73303 59.309755 
L 56.128562 58.914396 
L 56.523876 58.541574 
L 56.918953 58.191262 
L 57.313776 57.863423 
L 57.708323 57.558026 
L 58.102573 57.275031 
L 58.496511 57.0144 
L 58.890115 56.776091 
L 59.283364 56.560061 
L 59.676245 56.366266 
L 60.068731 56.194655 
L 60.460809 56.04518 
L 60.852459 55.917788 
L 61.243659 55.812427 
L 61.634393 55.72904 
L 62.024644 55.667568 
L 62.414392 55.627955 
L 62.803618 55.610133 
L 63.192307 55.614042 
L 63.580438 55.639614 
L 63.967994 55.686783 
L 64.354957 55.755479 
L 64.74131 55.845632 
L 65.127036 55.957166 
L 65.512116 56.090004 
L 65.896534 56.244075 
L 66.280275 56.419295 
L 66.663319 56.615587 
L 67.04565 56.832866 
L 67.42725 57.071047 
L 67.808107 57.330047 
L 68.1882 57.609779 
L 68.567517 57.910154 
L 68.946041 58.231081 
L 69.323753 58.572463 
L 69.700639 58.934213 
L 70.076686 59.316233 
L 70.451875 59.718423 
L 70.826195 60.140694 
L 71.199628 60.582936 
L 71.572158 61.045053 
L 71.943773 61.526939 
L 72.314457 62.028493 
L 72.684198 62.549612 
L 73.05298 63.090184 
L 73.420788 63.650102 
L 73.787611 64.229259 
L 74.153432 64.827545 
L 74.51824 65.444843 
L 74.882021 66.081047 
L 75.244763 66.736036 
L 75.60645 67.409702 
L 75.967072 68.101922 
L 76.326617 68.812582 
" style="fill:none;stroke:#1f77b4;stroke-width:1.5;"/>
    <path clip-path="url(#p8ad5aace70)" d="M 44.337946 109.355101 
L 44.721907 107.930291 
L 45.106473 106.526782 
L 45.491632 105.144654 
L 45.877356 103.783978 
L 46.263629 102.444823 
L 46.650428 101.12727 
L 47.037733 99.83138 
L 47.425531 98.557212 
L 47.813791 97.304839 
L 48.2025 96.074316 
L 48.591639 94.865701 
L 48.98118 93.679055 
L 49.371104 92.514429 
L 49.761398 91.371874 
L 50.152033 90.251438 
L 50.543 89.15317 
L 50.934262 88.077114 
L 51.325809 87.02331 
L 51.717624 85.991801 
L 52.109677 84.982623 
L 52.501952 83.995811 
L 52.894429 83.031399 
L 53.287084 82.089415 
L 53.679901 81.169887 
L 54.072859 80.272844 
L 54.465933 79.398305 
L 54.859105 78.546296 
L 55.252357 77.71683 
L 55.645664 76.909926 
L 56.039012 76.125598 
L 56.432373 75.363856 
L 56.825732 74.62471 
L 57.21907 73.908167 
L 57.612357 73.21423 
L 58.005584 72.542903 
L 58.398726 71.894185 
L 58.791762 71.268072 
L 59.184673 70.664561 
L 59.577438 70.083644 
L 59.970039 69.525312 
L 60.362455 68.98955 
L 60.754667 68.476348 
L 61.146654 67.985687 
L 61.538396 67.517549 
L 61.929875 67.071914 
L 62.321069 66.648756 
L 62.711963 66.248052 
L 63.102532 65.869773 
L 63.492761 65.513891 
L 63.882629 65.180371 
L 64.272117 64.869181 
L 64.661206 64.580282 
L 65.049877 64.313638 
L 65.438112 64.069208 
L 65.825892 63.846947 
L 66.213198 63.646811 
L 66.600012 63.468752 
L 66.986316 63.312723 
L 67.372091 63.178672 
L 67.757318 63.066544 
L 68.14198 62.976285 
L 68.52606 62.907837 
L 68.909539 62.861142 
L 69.2924 62.836138 
L 69.674627 62.83276 
L 70.056198 62.850945 
L 70.4371 62.890625 
L 70.817317 62.951731 
L 71.196827 63.034193 
L 71.575617 63.137937 
L 71.953669 63.26289 
L 72.330967 63.408973 
L 72.707495 63.576111 
L 73.083236 63.764222 
L 73.458175 63.973226 
L 73.832294 64.203039 
L 74.20558 64.453576 
L 74.578015 64.72475 
L 74.949586 65.016473 
L 75.320276 65.328657 
L 75.690069 65.661206 
L 76.058952 66.014033 
L 76.426911 66.387039 
L 76.793928 66.780128 
L 77.159992 67.193205 
L 77.525088 67.62617 
L 77.889199 68.078923 
L 78.252314 68.551358 
L 78.614418 69.043377 
L 78.9755 69.554876 
L 79.335544 70.085745 
L 79.694536 70.635877 
L 80.052465 71.205167 
L 80.409318 71.793503 
L 80.76508 72.400773 
L 81.119743 73.026869 
L 81.473291 73.671672 
L 81.825711 74.335072 
L 82.176994 75.01695 
L 82.527127 75.717193 
" style="fill:none;stroke:#1f77b4;stroke-width:1.5;"/>
    <path clip-path="url(#p8ad5aace70)" d="M 50.976794 114.678323 
L 51.361973 113.251104 
L 51.747642 111.845127 
L 52.133789 110.460487 
L 52.520388 109.09725 
L 52.90742 107.755484 
L 53.294867 106.435263 
L 53.682706 105.136658 
L 54.070917 103.859729 
L 54.459482 102.60454 
L 54.848378 101.371156 
L 55.237587 100.159635 
L 55.627084 98.970031 
L 56.016854 97.802396 
L 56.406877 96.656788 
L 56.797128 95.533248 
L 57.187588 94.431833 
L 57.578239 93.35258 
L 57.969056 92.295532 
L 58.360023 91.260733 
L 58.751117 90.24822 
L 59.14232 89.258024 
L 59.53361 88.290184 
L 59.924965 87.344729 
L 60.316368 86.421682 
L 60.707795 85.521075 
L 61.099227 84.642931 
L 61.490645 83.787269 
L 61.882028 82.954107 
L 62.273354 82.143464 
L 62.664606 81.355352 
L 63.05576 80.589785 
L 63.446798 79.846771 
L 63.837701 79.126316 
L 64.228448 78.428426 
L 64.619019 77.753103 
L 65.009393 77.100347 
L 65.39955 76.470155 
L 65.789472 75.862523 
L 66.179138 75.277445 
L 66.568529 74.71491 
L 66.957626 74.174906 
L 67.346408 73.657421 
L 67.734857 73.162437 
L 68.122951 72.689937 
L 68.510675 72.239899 
L 68.898006 71.812301 
L 69.284928 71.407117 
L 69.671419 71.02432 
L 70.057462 70.66388 
L 70.443037 70.325766 
L 70.828127 70.009942 
L 71.212713 69.716374 
L 71.596776 69.445023 
L 71.980298 69.195847 
L 72.363259 68.968804 
L 72.745644 68.76385 
L 73.127433 68.580938 
L 73.508609 68.420018 
L 73.889154 68.28104 
L 74.269049 68.16395 
L 74.648279 68.068694 
L 75.026825 67.995214 
L 75.404671 67.943452 
L 75.781799 67.913345 
L 76.158192 67.904831 
L 76.533833 67.917846 
L 76.908707 67.952321 
L 77.282796 68.00819 
L 77.656084 68.08538 
L 78.028555 68.18382 
L 78.400192 68.303435 
L 78.770981 68.444149 
L 79.140904 68.605885 
L 79.509948 68.788562 
L 79.878095 68.992099 
L 80.245331 69.216412 
L 80.611642 69.461419 
L 80.97701 69.727033 
L 81.341424 70.013163 
L 81.704867 70.319724 
L 82.067324 70.646619 
L 82.428783 70.993761 
L 82.789229 71.361053 
L 83.148647 71.748398 
L 83.507024 72.155699 
L 83.864347 72.58286 
L 84.220601 73.029779 
L 84.575775 73.496352 
L 84.929855 73.98248 
L 85.282827 74.488059 
L 85.634682 75.012979 
L 85.985401 75.557135 
L 86.334979 76.120419 
L 86.683398 76.702722 
L 87.030648 77.303932 
L 87.376719 77.92394 
L 87.721599 78.562629 
L 88.065274 79.219886 
L 88.407734 79.895599 
L 88.748969 80.589644 
" style="fill:none;stroke:#1f77b4;stroke-width:1.5;"/>
    <path clip-path="url(#p8ad5aace70)" d="M 57.607817 117.883789 
L 57.994892 116.451502 
L 58.382345 115.040487 
L 58.770158 113.650828 
L 59.158313 112.282591 
L 59.546785 110.935858 
L 59.935557 109.610689 
L 60.324606 108.307164 
L 60.713914 107.025334 
L 61.10346 105.765277 
L 61.493224 104.527049 
L 61.883185 103.310706 
L 62.27332 102.116313 
L 62.663612 100.943916 
L 63.054041 99.793568 
L 63.444584 98.665326 
L 63.835221 97.559237 
L 64.225932 96.475333 
L 64.616697 95.41367 
L 65.007494 94.374283 
L 65.398305 93.357215 
L 65.789107 92.362492 
L 66.179882 91.390158 
L 66.570608 90.440237 
L 66.961266 89.51276 
L 67.351833 88.607753 
L 67.74229 87.725244 
L 68.132619 86.865247 
L 68.522797 86.027784 
L 68.912805 85.212871 
L 69.302624 84.420526 
L 69.692231 83.650758 
L 70.081608 82.903577 
L 70.470736 82.178989 
L 70.859594 81.477 
L 71.248161 80.797613 
L 71.63642 80.140826 
L 72.02435 79.50664 
L 72.41193 78.895047 
L 72.799142 78.306044 
L 73.185967 77.739618 
L 73.572384 77.195759 
L 73.958376 76.674454 
L 74.343922 76.175686 
L 74.729004 75.699436 
L 75.113603 75.245684 
L 75.4977 74.814408 
L 75.881276 74.405581 
L 76.264312 74.019176 
L 76.64679 73.655165 
L 77.028692 73.313514 
L 77.409999 72.994189 
L 77.790694 72.697155 
L 78.170757 72.422373 
L 78.550171 72.169802 
L 78.928919 71.9394 
L 79.306983 71.731121 
L 79.684344 71.544919 
L 80.060987 71.380745 
L 80.436892 71.238547 
L 80.812044 71.118272 
L 81.186426 71.019866 
L 81.560019 70.94327 
L 81.932808 70.888425 
L 82.304777 70.855271 
L 82.675909 70.843744 
L 83.046186 70.853778 
L 83.415594 70.885308 
L 83.784117 70.938263 
L 84.151737 71.012574 
L 84.518441 71.108167 
L 84.884213 71.224967 
L 85.249036 71.3629 
L 85.612896 71.521885 
L 85.975779 71.701846 
L 86.337668 71.902696 
L 86.69855 72.124356 
L 87.05841 72.36674 
L 87.417233 72.629761 
L 87.775008 72.91333 
L 88.131717 73.217359 
L 88.487347 73.541753 
L 88.841885 73.886422 
L 89.19532 74.251272 
L 89.547635 74.636203 
L 89.898818 75.04112 
L 90.248857 75.465924 
L 90.597738 75.910516 
L 90.945451 76.374788 
L 91.291979 76.858642 
L 91.637314 77.361974 
L 91.981445 77.884674 
L 92.324355 78.426635 
L 92.666037 78.987753 
L 93.006477 79.567914 
L 93.345664 80.167003 
L 93.683589 80.784918 
L 94.02024 81.421538 
L 94.355603 82.076752 
L 94.689672 82.750441 
L 95.022436 83.442488 
" style="fill:none;stroke:#1f77b4;stroke-width:1.5;"/>
    <path clip-path="url(#p8ad5aace70)" d="M 64.265828 118.964694 
L 64.655496 117.524632 
L 65.045431 116.105938 
L 65.435609 114.708699 
L 65.826014 113.332986 
L 66.216622 111.978861 
L 66.607412 110.646416 
L 66.998366 109.335702 
L 67.389463 108.046798 
L 67.780681 106.779762 
L 68.172 105.534663 
L 68.563401 104.311541 
L 68.95486 103.110482 
L 69.346359 101.931525 
L 69.737875 100.774725 
L 70.129391 99.640128 
L 70.520885 98.527791 
L 70.912334 97.437755 
L 71.30372 96.37006 
L 71.695022 95.324751 
L 72.086219 94.301869 
L 72.477292 93.301442 
L 72.868219 92.323512 
L 73.258978 91.36811 
L 73.649553 90.435257 
L 74.03992 89.524984 
L 74.430061 88.637318 
L 74.819955 87.772277 
L 75.209582 86.929882 
L 75.598921 86.11015 
L 75.987953 85.313094 
L 76.376657 84.538726 
L 76.765014 83.787059 
L 77.153005 83.058097 
L 77.540609 82.351844 
L 77.927806 81.668306 
L 78.314578 81.007482 
L 78.700904 80.369367 
L 79.086766 79.753961 
L 79.472143 79.161255 
L 79.857017 78.591239 
L 80.241368 78.043902 
L 80.625178 77.51923 
L 81.008428 77.017207 
L 81.391098 76.537814 
L 81.773171 76.081031 
L 82.154627 75.646833 
L 82.535449 75.235196 
L 82.915617 74.846093 
L 83.295114 74.479492 
L 83.673921 74.135363 
L 84.052021 73.81367 
L 84.429395 73.514377 
L 84.806027 73.237445 
L 85.181898 72.982833 
L 85.55699 72.750498 
L 85.931288 72.540395 
L 86.304772 72.352476 
L 86.677428 72.186691 
L 87.049237 72.04299 
L 87.420182 71.921318 
L 87.790248 71.821619 
L 88.159418 71.743837 
L 88.527676 71.687909 
L 88.895004 71.653777 
L 89.261389 71.641375 
L 89.626815 71.650637 
L 89.991263 71.681495 
L 90.354722 71.733882 
L 90.717172 71.807724 
L 91.078602 71.902949 
L 91.438994 72.01948 
L 91.798335 72.157242 
L 92.156609 72.316155 
L 92.513805 72.49614 
L 92.869905 72.697111 
L 93.224896 72.918988 
L 93.578765 73.161683 
L 93.931497 73.425109 
L 94.28308 73.709176 
L 94.6335 74.013795 
L 94.982741 74.338872 
L 95.330794 74.684314 
L 95.677644 75.050026 
L 96.023279 75.435908 
L 96.367689 75.841863 
L 96.710857 76.267794 
L 97.052775 76.713596 
L 97.393425 77.179165 
L 97.732802 77.6644 
L 98.070895 78.169197 
L 98.407687 78.693444 
L 98.743171 79.237033 
L 99.077336 79.799857 
L 99.410167 80.381805 
L 99.74166 80.982763 
L 100.071802 81.602621 
L 100.400577 82.24126 
L 100.727984 82.898567 
L 101.054009 83.574426 
L 101.378641 84.268716 
" style="fill:none;stroke:#1f77b4;stroke-width:1.5;"/>
    <path clip-path="url(#p8ad5aace70)" d="M 70.986573 117.891572 
L 71.379563 116.440945 
L 71.772701 115.011849 
L 72.165967 113.604386 
L 72.559342 112.218621 
L 72.952803 110.854626 
L 73.346329 109.512487 
L 73.7399 108.192258 
L 74.133496 106.894014 
L 74.527093 105.617825 
L 74.920674 104.363752 
L 75.314217 103.131846 
L 75.707699 101.922177 
L 76.101101 100.734798 
L 76.494401 99.569763 
L 76.887581 98.427113 
L 77.280618 97.306911 
L 77.673491 96.209196 
L 78.06618 95.134012 
L 78.458664 94.081402 
L 78.850922 93.051405 
L 79.242936 92.044057 
L 79.634683 91.059393 
L 80.026142 90.097444 
L 80.417295 89.158238 
L 80.80812 88.241804 
L 81.198596 87.348165 
L 81.588705 86.477346 
L 81.978425 85.629363 
L 82.367737 84.804231 
L 82.75662 84.001972 
L 83.145054 83.222591 
L 83.53302 82.466103 
L 83.920499 81.732512 
L 84.30747 81.021823 
L 84.693913 80.334043 
L 85.079811 79.669166 
L 85.465142 79.027192 
L 85.849886 78.408117 
L 86.234027 77.811933 
L 86.617543 77.238633 
L 87.000417 76.688201 
L 87.38263 76.160626 
L 87.764164 75.655891 
L 88.144997 75.173974 
L 88.525114 74.714859 
L 88.904494 74.278517 
L 89.283123 73.864926 
L 89.660976 73.474055 
L 90.038042 73.105876 
L 90.4143 72.760355 
L 90.789731 72.437457 
L 91.164321 72.137144 
L 91.538048 71.859378 
L 91.9109 71.604117 
L 92.282856 71.371316 
L 92.653902 71.16093 
L 93.024016 70.97291 
L 93.393188 70.807206 
L 93.761398 70.663765 
L 94.128629 70.542534 
L 94.494864 70.443455 
L 94.86009 70.36647 
L 95.224292 70.311516 
L 95.587449 70.278533 
L 95.949552 70.267455 
L 96.310582 70.278215 
L 96.670524 70.310744 
L 97.029365 70.364972 
L 97.387085 70.440826 
L 97.743674 70.538232 
L 98.099118 70.657112 
L 98.453399 70.79739 
L 98.806508 70.958983 
L 99.158428 71.141812 
L 99.509142 71.345792 
L 99.858642 71.570838 
L 100.206912 71.816862 
L 100.55394 72.083776 
L 100.899715 72.37149 
L 101.24422 72.67991 
L 101.587442 73.008943 
L 101.929375 73.358494 
L 102.269999 73.728467 
L 102.609308 74.11876 
L 102.947289 74.529277 
L 103.283926 74.959914 
L 103.619212 75.41057 
L 103.953132 75.881136 
L 104.285681 76.37151 
L 104.616845 76.881588 
L 104.946611 77.411255 
L 105.274975 77.960402 
L 105.601917 78.528921 
L 105.927433 79.116697 
L 106.251515 79.723615 
L 106.574152 80.349567 
L 106.895333 80.994428 
L 107.215048 81.658085 
L 107.53329 82.340419 
L 107.850052 83.04131 
" style="fill:none;stroke:#1f77b4;stroke-width:1.5;"/>
    <path clip-path="url(#p8ad5aace70)" d="M 77.807394 114.611165 
L 78.204468 113.147043 
L 78.60157 111.704705 
L 78.99868 110.284257 
L 79.395777 108.885764 
L 79.79284 107.509301 
L 80.189846 106.154944 
L 80.586776 104.822775 
L 80.983608 103.512843 
L 81.38032 102.225229 
L 81.776891 100.959994 
L 82.173302 99.717193 
L 82.569528 98.496901 
L 82.96555 97.299158 
L 83.361347 96.124026 
L 83.7569 94.971558 
L 84.152184 93.841806 
L 84.54718 92.734809 
L 84.941867 91.650612 
L 85.336223 90.589266 
L 85.730229 89.550803 
L 86.123864 88.535261 
L 86.517107 87.542683 
L 86.909936 86.57309 
L 87.302332 85.626514 
L 87.694275 84.702989 
L 88.085742 83.802532 
L 88.476715 82.925171 
L 88.867174 82.070921 
L 89.257097 81.239801 
L 89.646464 80.431827 
L 90.035258 79.647012 
L 90.423457 78.885363 
L 90.811041 78.146887 
L 91.197989 77.43159 
L 91.584286 76.739475 
L 91.969908 76.070543 
L 92.354836 75.424788 
L 92.739052 74.802207 
L 93.122539 74.202793 
L 93.505276 73.626535 
L 93.887243 73.073422 
L 94.268423 72.543436 
L 94.648796 72.036565 
L 95.028346 71.552785 
L 95.407053 71.092075 
L 95.784896 70.654413 
L 96.161861 70.239769 
L 96.537931 69.848118 
L 96.913083 69.479426 
L 97.287305 69.133658 
L 97.660578 68.810781 
L 98.032879 68.510756 
L 98.404199 68.233541 
L 98.774519 67.979094 
L 99.143821 67.74737 
L 99.512084 67.538325 
L 99.879299 67.351903 
L 100.245446 67.188058 
L 100.610511 67.046734 
L 100.974473 66.927875 
L 101.337321 66.831423 
L 101.69904 66.757318 
L 102.059608 66.705498 
L 102.419017 66.6759 
L 102.777251 66.668454 
L 103.13429 66.683095 
L 103.490122 66.71975 
L 103.844738 66.778349 
L 104.198116 66.858816 
L 104.550245 66.961078 
L 104.90111 67.085052 
L 105.250694 67.230662 
L 105.598992 67.397824 
L 105.945984 67.586454 
L 106.291658 67.796467 
L 106.636007 68.027777 
L 106.97901 68.280293 
L 107.320655 68.553925 
L 107.660935 68.848581 
L 107.999833 69.164168 
L 108.33734 69.500586 
L 108.673444 69.857741 
L 109.008128 70.235534 
L 109.341391 70.633862 
L 109.673212 71.052624 
L 110.003585 71.491717 
L 110.332503 71.951037 
L 110.659945 72.430473 
L 110.985907 72.929919 
L 111.310384 73.449271 
L 111.633352 73.988409 
L 111.954812 74.547225 
L 112.274756 75.125607 
L 112.593168 75.723439 
L 112.910039 76.340601 
L 113.22537 76.976983 
L 113.539143 77.632462 
L 113.851351 78.306918 
L 114.161983 79.000232 
L 114.471033 79.712278 
" style="fill:none;stroke:#1f77b4;stroke-width:1.5;"/>
    <path clip-path="url(#p8ad5aace70)" d="M 84.76796 109.044541 
L 85.169926 107.563838 
L 85.571796 106.105267 
L 85.973549 104.668922 
L 86.375164 103.254877 
L 86.776618 101.863207 
L 87.177889 100.493993 
L 87.578955 99.147304 
L 87.979798 97.82321 
L 88.380391 96.521784 
L 88.780717 95.24309 
L 89.180752 93.987182 
L 89.580474 92.754133 
L 89.979861 91.543996 
L 90.378895 90.356828 
L 90.777553 89.192675 
L 91.175813 88.051597 
L 91.573653 86.933638 
L 91.971054 85.838841 
L 92.367991 84.767255 
L 92.764447 83.718915 
L 93.1604 82.693858 
L 93.555829 81.692124 
L 93.950711 80.713747 
L 94.345029 79.758748 
L 94.738758 78.827165 
L 95.131879 77.919015 
L 95.524375 77.034326 
L 95.91622 76.173114 
L 96.307398 75.3354 
L 96.697888 74.521197 
L 97.087669 73.730514 
L 97.47672 72.963365 
L 97.865025 72.219758 
L 98.252559 71.499693 
L 98.639307 70.803175 
L 99.025248 70.130205 
L 99.410357 69.480775 
L 99.794627 68.854884 
L 100.178028 68.252524 
L 100.560549 67.673683 
L 100.942162 67.118345 
L 101.322856 66.5865 
L 101.702611 66.078125 
L 102.081408 65.593205 
L 102.459225 65.131713 
L 102.836052 64.693626 
L 103.211866 64.278914 
L 103.586649 63.887549 
L 103.960381 63.519497 
L 104.333051 63.174724 
L 104.704642 62.853193 
L 105.075126 62.554865 
L 105.444498 62.279697 
L 105.81274 62.027642 
L 106.17983 61.798659 
L 106.545752 61.592695 
L 106.910491 61.409701 
L 107.274038 61.249625 
L 107.636366 61.112407 
L 107.997463 60.997997 
L 108.35732 60.906324 
L 108.715913 60.837335 
L 109.073236 60.790961 
L 109.429262 60.76714 
L 109.783989 60.765799 
L 110.137393 60.786871 
L 110.489462 60.830283 
L 110.84019 60.895958 
L 111.189553 60.983821 
L 111.537541 61.093796 
L 111.88414 61.2258 
L 112.229337 61.379749 
L 112.573117 61.555561 
L 112.915471 61.753151 
L 113.256386 61.972428 
L 113.595848 62.213303 
L 113.933845 62.475688 
L 114.270362 62.759484 
L 114.605396 63.0646 
L 114.938925 63.390938 
L 115.270945 63.738398 
L 115.601439 64.106883 
L 115.930401 64.496288 
L 116.257816 64.90651 
L 116.583682 65.337445 
L 116.907983 65.788987 
L 117.230702 66.261028 
L 117.551834 66.753455 
L 117.871376 67.266161 
L 118.189317 67.799035 
L 118.505638 68.351958 
L 118.820342 68.924816 
L 119.133412 69.517495 
L 119.44484 70.129876 
L 119.754621 70.761838 
L 120.062751 71.413265 
L 120.369212 72.084031 
L 120.674002 72.774015 
L 120.97711 73.483092 
L 121.278531 74.211138 
" style="fill:none;stroke:#1f77b4;stroke-width:1.5;"/>
    <path clip-path="url(#p8ad5aace70)" d="M 91.9111 101.084464 
L 92.318827 99.583908 
L 92.726324 98.10591 
L 93.133573 96.650573 
L 93.540553 95.217971 
L 93.947237 93.808181 
L 94.353606 92.421287 
L 94.759636 91.05736 
L 95.165307 89.716471 
L 95.570595 88.398695 
L 95.975477 87.104095 
L 96.379935 85.832733 
L 96.783943 84.584682 
L 97.187479 83.359991 
L 97.590525 82.158721 
L 97.993055 80.980922 
L 98.39505 79.826652 
L 98.796488 78.695956 
L 99.197342 77.58888 
L 99.597599 76.50547 
L 99.997236 75.445768 
L 100.396223 74.409808 
L 100.794551 73.397633 
L 101.19219 72.40927 
L 101.589122 71.444754 
L 101.985327 70.504109 
L 102.380779 69.587362 
L 102.775464 68.694539 
L 103.169362 67.825655 
L 103.562444 66.980729 
L 103.9547 66.159777 
L 104.346101 65.362809 
L 104.736633 64.589836 
L 105.126275 63.840865 
L 105.515001 63.115901 
L 105.902801 62.414943 
L 106.289647 61.737993 
L 106.675521 61.085047 
L 107.060412 60.456093 
L 107.444291 59.851128 
L 107.827146 59.270143 
L 108.208951 58.713121 
L 108.589694 58.180044 
L 108.969353 57.670891 
L 109.347912 57.185648 
L 109.725349 56.724283 
L 110.101653 56.286776 
L 110.4768 55.873093 
L 110.850773 55.483207 
L 111.223555 55.117079 
L 111.59513 54.774673 
L 111.965485 54.455953 
L 112.334592 54.160882 
L 112.702445 53.889404 
L 113.069021 53.641481 
L 113.434313 53.417061 
L 113.798289 53.216104 
L 114.160946 53.038539 
L 114.522264 52.884326 
L 114.882234 52.753396 
L 115.240827 52.645699 
L 115.598038 52.561163 
L 115.953848 52.499733 
L 116.308251 52.461334 
L 116.661215 52.445901 
L 117.012747 52.453367 
L 117.362813 52.483651 
L 117.711412 52.53668 
L 118.058531 52.61238 
L 118.40415 52.710669 
L 118.748255 52.83147 
L 119.090839 52.974696 
L 119.431882 53.140259 
L 119.771382 53.328073 
L 120.10932 53.538053 
L 120.445686 53.770104 
L 120.780465 54.024135 
L 121.113646 54.300047 
L 121.445218 54.597749 
L 121.775176 54.917142 
L 122.103497 55.258123 
L 122.430184 55.620588 
L 122.755213 56.004439 
L 123.078581 56.409568 
L 123.400282 56.835865 
L 123.720303 57.283226 
L 124.038627 57.751542 
L 124.355249 58.240697 
L 124.670164 58.750578 
L 124.983359 59.281072 
L 125.294831 59.832065 
L 125.604563 60.403435 
L 125.912554 60.995064 
L 126.218788 61.606836 
L 126.523265 62.238623 
L 126.825974 62.890305 
L 127.12691 63.56176 
L 127.426067 64.252858 
L 127.723435 64.963475 
L 128.019002 65.693482 
L 128.312768 66.44275 
" style="fill:none;stroke:#1f77b4;stroke-width:1.5;"/>
   </g>
  </g>
 </g>
 <defs>
  <clipPath id="p8ad5aace70">
   <rect height="135.9" width="135.9" x="7.242206" y="7.2"/>
  </clipPath>
 </defs>
</svg>
