<?xml version="1.0" encoding="utf-8" standalone="no"?>
<!DOCTYPE svg PUBLIC "-//W3C//DTD SVG 1.1//EN"
  "http://www.w3.org/Graphics/SVG/1.1/DTD/svg11.dtd">
<!-- Created with matplotlib (https://matplotlib.org/) -->
<svg height="180.65625pt" version="1.1" viewBox="0 0 245.120313 180.65625" width="245.120313pt" xmlns="http://www.w3.org/2000/svg" xmlns:xlink="http://www.w3.org/1999/xlink">
 <metadata>
  <rdf:RDF xmlns:cc="http://creativecommons.org/ns#" xmlns:dc="http://purl.org/dc/elements/1.1/" xmlns:rdf="http://www.w3.org/1999/02/22-rdf-syntax-ns#">
   <cc:Work>
    <dc:type rdf:resource="http://purl.org/dc/dcmitype/StillImage"/>
    <dc:date>2020-08-13T04:01:19.127526</dc:date>
    <dc:format>image/svg+xml</dc:format>
    <dc:creator>
     <cc:Agent>
      <dc:title>Matplotlib v3.3.0, https://matplotlib.org/</dc:title>
     </cc:Agent>
    </dc:creator>
   </cc:Work>
  </rdf:RDF>
 </metadata>
 <defs>
  <style type="text/css">*{stroke-linecap:butt;stroke-linejoin:round;}</style>
 </defs>
 <g id="figure_1">
  <g id="patch_1">
   <path d="M 0 180.65625 
L 245.120313 180.65625 
L 245.120313 0 
L 0 0 
z
" style="fill:none;"/>
  </g>
  <g id="axes_1">
   <g id="patch_2">
    <path d="M 42.620312 143.1 
L 237.920313 143.1 
L 237.920313 7.2 
L 42.620312 7.2 
z
" style="fill:#ffffff;"/>
   </g>
   <g id="matplotlib.axis_1">
    <g id="xtick_1">
     <g id="line2d_1">
      <defs>
       <path d="M 0 0 
L 0 3.5 
" id="m6a3b80edda" style="stroke:#000000;stroke-width:0.8;"/>
      </defs>
      <g>
       <use style="stroke:#000000;stroke-width:0.8;" x="88.393749" xlink:href="#m6a3b80edda" y="143.1"/>
      </g>
     </g>
     <g id="text_1">
      <!-- −4 -->
      <g transform="translate(81.022656 157.698438)scale(0.1 -0.1)">
       <defs>
        <path d="M 10.59375 35.5 
L 73.1875 35.5 
L 73.1875 27.203125 
L 10.59375 27.203125 
z
" id="DejaVuSans-8722"/>
        <path d="M 37.796875 64.3125 
L 12.890625 25.390625 
L 37.796875 25.390625 
z
M 35.203125 72.90625 
L 47.609375 72.90625 
L 47.609375 25.390625 
L 58.015625 25.390625 
L 58.015625 17.1875 
L 47.609375 17.1875 
L 47.609375 0 
L 37.796875 0 
L 37.796875 17.1875 
L 4.890625 17.1875 
L 4.890625 26.703125 
z
" id="DejaVuSans-52"/>
       </defs>
       <use xlink:href="#DejaVuSans-8722"/>
       <use x="83.789062" xlink:href="#DejaVuSans-52"/>
      </g>
     </g>
    </g>
    <g id="xtick_2">
     <g id="line2d_2">
      <g>
       <use style="stroke:#000000;stroke-width:0.8;" x="149.424998" xlink:href="#m6a3b80edda" y="143.1"/>
      </g>
     </g>
     <g id="text_2">
      <!-- −2 -->
      <g transform="translate(142.053905 157.698438)scale(0.1 -0.1)">
       <defs>
        <path d="M 19.1875 8.296875 
L 53.609375 8.296875 
L 53.609375 0 
L 7.328125 0 
L 7.328125 8.296875 
Q 12.9375 14.109375 22.625 23.890625 
Q 32.328125 33.6875 34.8125 36.53125 
Q 39.546875 41.84375 41.421875 45.53125 
Q 43.3125 49.21875 43.3125 52.78125 
Q 43.3125 58.59375 39.234375 62.25 
Q 35.15625 65.921875 28.609375 65.921875 
Q 23.96875 65.921875 18.8125 64.3125 
Q 13.671875 62.703125 7.8125 59.421875 
L 7.8125 69.390625 
Q 13.765625 71.78125 18.9375 73 
Q 24.125 74.21875 28.421875 74.21875 
Q 39.75 74.21875 46.484375 68.546875 
Q 53.21875 62.890625 53.21875 53.421875 
Q 53.21875 48.921875 51.53125 44.890625 
Q 49.859375 40.875 45.40625 35.40625 
Q 44.1875 33.984375 37.640625 27.21875 
Q 31.109375 20.453125 19.1875 8.296875 
z
" id="DejaVuSans-50"/>
       </defs>
       <use xlink:href="#DejaVuSans-8722"/>
       <use x="83.789062" xlink:href="#DejaVuSans-50"/>
      </g>
     </g>
    </g>
    <g id="xtick_3">
     <g id="line2d_3">
      <g>
       <use style="stroke:#000000;stroke-width:0.8;" x="210.456247" xlink:href="#m6a3b80edda" y="143.1"/>
      </g>
     </g>
     <g id="text_3">
      <!-- 0 -->
      <g transform="translate(207.274997 157.698438)scale(0.1 -0.1)">
       <defs>
        <path d="M 31.78125 66.40625 
Q 24.171875 66.40625 20.328125 58.90625 
Q 16.5 51.421875 16.5 36.375 
Q 16.5 21.390625 20.328125 13.890625 
Q 24.171875 6.390625 31.78125 6.390625 
Q 39.453125 6.390625 43.28125 13.890625 
Q 47.125 21.390625 47.125 36.375 
Q 47.125 51.421875 43.28125 58.90625 
Q 39.453125 66.40625 31.78125 66.40625 
z
M 31.78125 74.21875 
Q 44.046875 74.21875 50.515625 64.515625 
Q 56.984375 54.828125 56.984375 36.375 
Q 56.984375 17.96875 50.515625 8.265625 
Q 44.046875 -1.421875 31.78125 -1.421875 
Q 19.53125 -1.421875 13.0625 8.265625 
Q 6.59375 17.96875 6.59375 36.375 
Q 6.59375 54.828125 13.0625 64.515625 
Q 19.53125 74.21875 31.78125 74.21875 
z
" id="DejaVuSans-48"/>
       </defs>
       <use xlink:href="#DejaVuSans-48"/>
      </g>
     </g>
    </g>
    <g id="text_4">
     <!-- x1 -->
     <g transform="translate(134.129687 171.376563)scale(0.1 -0.1)">
      <defs>
       <path d="M 54.890625 54.6875 
L 35.109375 28.078125 
L 55.90625 0 
L 45.3125 0 
L 29.390625 21.484375 
L 13.484375 0 
L 2.875 0 
L 24.125 28.609375 
L 4.6875 54.6875 
L 15.28125 54.6875 
L 29.78125 35.203125 
L 44.28125 54.6875 
z
" id="DejaVuSans-120"/>
       <path d="M 12.40625 8.296875 
L 28.515625 8.296875 
L 28.515625 63.921875 
L 10.984375 60.40625 
L 10.984375 69.390625 
L 28.421875 72.90625 
L 38.28125 72.90625 
L 38.28125 8.296875 
L 54.390625 8.296875 
L 54.390625 0 
L 12.40625 0 
z
" id="DejaVuSans-49"/>
      </defs>
      <use xlink:href="#DejaVuSans-120"/>
      <use x="59.179688" xlink:href="#DejaVuSans-49"/>
     </g>
    </g>
   </g>
   <g id="matplotlib.axis_2">
    <g id="ytick_1">
     <g id="line2d_4">
      <defs>
       <path d="M 0 0 
L -3.5 0 
" id="mdc2dcff007" style="stroke:#000000;stroke-width:0.8;"/>
      </defs>
      <g>
       <use style="stroke:#000000;stroke-width:0.8;" x="42.620312" xlink:href="#mdc2dcff007" y="143.1"/>
      </g>
     </g>
     <g id="text_5">
      <!-- −3 -->
      <g transform="translate(20.878125 146.899219)scale(0.1 -0.1)">
       <defs>
        <path d="M 40.578125 39.3125 
Q 47.65625 37.796875 51.625 33 
Q 55.609375 28.21875 55.609375 21.1875 
Q 55.609375 10.40625 48.1875 4.484375 
Q 40.765625 -1.421875 27.09375 -1.421875 
Q 22.515625 -1.421875 17.65625 -0.515625 
Q 12.796875 0.390625 7.625 2.203125 
L 7.625 11.71875 
Q 11.71875 9.328125 16.59375 8.109375 
Q 21.484375 6.890625 26.8125 6.890625 
Q 36.078125 6.890625 40.9375 10.546875 
Q 45.796875 14.203125 45.796875 21.1875 
Q 45.796875 27.640625 41.28125 31.265625 
Q 36.765625 34.90625 28.71875 34.90625 
L 20.21875 34.90625 
L 20.21875 43.015625 
L 29.109375 43.015625 
Q 36.375 43.015625 40.234375 45.921875 
Q 44.09375 48.828125 44.09375 54.296875 
Q 44.09375 59.90625 40.109375 62.90625 
Q 36.140625 65.921875 28.71875 65.921875 
Q 24.65625 65.921875 20.015625 65.03125 
Q 15.375 64.15625 9.8125 62.3125 
L 9.8125 71.09375 
Q 15.4375 72.65625 20.34375 73.4375 
Q 25.25 74.21875 29.59375 74.21875 
Q 40.828125 74.21875 47.359375 69.109375 
Q 53.90625 64.015625 53.90625 55.328125 
Q 53.90625 49.265625 50.4375 45.09375 
Q 46.96875 40.921875 40.578125 39.3125 
z
" id="DejaVuSans-51"/>
       </defs>
       <use xlink:href="#DejaVuSans-8722"/>
       <use x="83.789062" xlink:href="#DejaVuSans-51"/>
      </g>
     </g>
    </g>
    <g id="ytick_2">
     <g id="line2d_5">
      <g>
       <use style="stroke:#000000;stroke-width:0.8;" x="42.620312" xlink:href="#mdc2dcff007" y="108.253847"/>
      </g>
     </g>
     <g id="text_6">
      <!-- −2 -->
      <g transform="translate(20.878125 112.053066)scale(0.1 -0.1)">
       <use xlink:href="#DejaVuSans-8722"/>
       <use x="83.789062" xlink:href="#DejaVuSans-50"/>
      </g>
     </g>
    </g>
    <g id="ytick_3">
     <g id="line2d_6">
      <g>
       <use style="stroke:#000000;stroke-width:0.8;" x="42.620312" xlink:href="#mdc2dcff007" y="73.407694"/>
      </g>
     </g>
     <g id="text_7">
      <!-- −1 -->
      <g transform="translate(20.878125 77.206913)scale(0.1 -0.1)">
       <use xlink:href="#DejaVuSans-8722"/>
       <use x="83.789062" xlink:href="#DejaVuSans-49"/>
      </g>
     </g>
    </g>
    <g id="ytick_4">
     <g id="line2d_7">
      <g>
       <use style="stroke:#000000;stroke-width:0.8;" x="42.620312" xlink:href="#mdc2dcff007" y="38.561541"/>
      </g>
     </g>
     <g id="text_8">
      <!-- 0 -->
      <g transform="translate(29.257812 42.36076)scale(0.1 -0.1)">
       <use xlink:href="#DejaVuSans-48"/>
      </g>
     </g>
    </g>
    <g id="text_9">
     <!-- x2 -->
     <g transform="translate(14.798437 81.290625)rotate(-90)scale(0.1 -0.1)">
      <use xlink:href="#DejaVuSans-120"/>
      <use x="59.179688" xlink:href="#DejaVuSans-50"/>
     </g>
    </g>
   </g>
   <g id="LineCollection_1">
    <path clip-path="url(#p632b8a559c)" d="M 210.456247 38.561541 
" style="fill:none;stroke:#1f77b4;stroke-width:1.5;"/>
   </g>
   <g id="LineCollection_2">
    <path clip-path="url(#p632b8a559c)" d="M 237.920312 104.627964 
L 237.381806 104.769231 
L 234.868753 105.394674 
L 231.817193 106.064792 
L 228.765619 106.645564 
L 225.71406 107.136983 
L 222.6625 107.539055 
L 219.610941 107.851775 
L 216.559381 108.075149 
L 213.507807 108.209171 
L 210.456247 108.253847 
L 207.404688 108.209171 
L 204.353128 108.075149 
L 201.301569 107.851776 
L 198.249995 107.539055 
L 195.198435 107.136983 
L 192.146876 106.645564 
L 189.095316 106.064795 
L 186.043757 105.394678 
L 183.530689 104.769231 
L 182.992182 104.627964 
L 179.940623 103.733267 
L 176.889063 102.744389 
L 173.837504 101.661334 
L 172.860994 101.284615 
L 170.785944 100.438356 
L 167.73437 99.094286 
L 164.998486 97.799999 
L 164.682811 97.641608 
L 161.631251 96.004897 
L 158.672158 94.315387 
L 158.579684 94.259182 
L 155.528125 92.29206 
L 153.383783 90.830771 
L 152.476565 90.169898 
L 149.424998 87.826791 
L 148.829571 87.346154 
L 146.373439 85.216673 
L 144.883133 83.861538 
L 143.321872 82.32831 
L 141.423124 80.376922 
L 140.270312 79.08913 
L 138.387433 76.89231 
L 137.218753 75.398909 
L 135.724106 73.407694 
L 134.167186 71.115184 
L 133.389334 69.923074 
L 131.354959 66.438462 
L 131.115627 65.973858 
L 129.618631 62.95385 
L 128.121638 59.469229 
L 128.06406 59.310834 
L 126.898921 55.984618 
L 125.900226 52.499997 
L 125.123463 49.015385 
L 125.0125 48.318479 
L 124.584208 45.530773 
L 124.262991 42.046153 
L 124.155919 38.561541 
L 124.262992 35.076921 
L 124.584208 31.592309 
L 125.0125 28.804603 
L 125.123463 28.107697 
L 125.900227 24.623076 
L 126.898921 21.138465 
L 128.06406 17.812254 
L 128.121643 17.653844 
L 129.618631 14.169232 
L 131.115627 11.149224 
L 131.354959 10.68462 
L 133.389338 7.2 
" style="fill:none;stroke:#1f77b4;stroke-width:1.5;"/>
   </g>
   <g id="LineCollection_3">
    <path clip-path="url(#p632b8a559c)" d="M 237.920312 134.57853 
L 234.868753 135.117062 
L 231.817193 135.592236 
L 228.765619 136.004058 
L 227.655985 136.130768 
L 225.71406 136.344737 
L 222.6625 136.619839 
L 219.610941 136.833805 
L 216.559381 136.986639 
L 213.507807 137.078339 
L 210.456247 137.108907 
L 207.404688 137.078339 
L 204.353128 136.986641 
L 201.301569 136.833805 
L 198.249995 136.619839 
L 195.198435 136.344737 
L 193.25651 136.130768 
L 192.146876 136.004058 
L 189.095316 135.592241 
L 186.043757 135.117063 
L 182.992182 134.57853 
L 179.940623 133.976642 
L 176.889063 133.311398 
L 174.102863 132.646156 
L 173.837504 132.580407 
L 170.785944 131.758564 
L 167.73437 130.870973 
L 164.682811 129.917635 
L 162.418732 129.161535 
L 161.631251 128.888239 
L 158.579684 127.760862 
L 155.528125 126.56516 
L 153.383778 125.676924 
L 152.476565 125.285798 
L 149.424998 123.899059 
L 146.373439 122.441211 
L 145.876675 122.192312 
L 143.321872 120.857775 
L 140.270312 119.189606 
L 139.426264 118.707691 
L 137.218753 117.391283 
L 134.167186 115.494104 
L 133.748345 115.223079 
L 131.115627 113.440257 
L 128.697396 111.738459 
L 128.06406 111.271015 
L 125.0125 108.933772 
L 124.155922 108.253847 
L 121.960941 106.422192 
L 120.047242 104.769231 
L 118.909374 103.733267 
L 116.308045 101.284615 
L 115.857814 100.836592 
L 112.903125 97.799999 
L 112.806247 97.694402 
L 109.801636 94.315387 
L 109.754688 94.259182 
L 106.9764 90.830771 
L 106.703128 90.470296 
L 104.403397 87.346154 
L 103.651562 86.249147 
L 102.061307 83.861538 
L 100.600002 81.492012 
L 99.931159 80.376922 
L 98.008261 76.89231 
L 97.548443 75.979684 
L 96.287123 73.407694 
L 94.740999 69.923074 
L 94.496876 69.308148 
L 93.387216 66.438462 
L 92.198295 62.95385 
L 91.445309 60.407392 
L 91.174918 59.469229 
L 90.325119 55.984618 
L 89.629824 52.499997 
L 89.089043 49.015385 
L 88.702768 45.530773 
L 88.471006 42.046153 
L 88.393749 38.561541 
L 88.471006 35.076921 
L 88.702768 31.592309 
L 89.089043 28.107697 
L 89.629824 24.623076 
L 90.325119 21.138465 
L 91.174922 17.653844 
L 91.445309 16.715694 
L 92.198295 14.169232 
L 93.387216 10.68462 
L 94.496876 7.814927 
L 94.740999 7.2 
" style="fill:none;stroke:#1f77b4;stroke-width:1.5;"/>
   </g>
   <g id="LineCollection_4">
    <path clip-path="url(#p632b8a559c)" d="M 135.724103 143.1 
L 134.167186 142.361734 
L 131.115627 140.855672 
L 128.697418 139.615388 
L 128.06406 139.279146 
L 125.0125 137.597977 
L 122.442757 136.130768 
L 121.960941 135.845668 
L 118.909374 133.97664 
L 116.808305 132.646156 
L 115.857814 132.021554 
L 112.806247 129.950509 
L 111.679509 129.161535 
L 109.754688 127.760863 
L 106.9764 125.676924 
L 106.703128 125.463582 
L 103.651562 123.010127 
L 102.663029 122.192312 
L 100.600002 120.412934 
L 98.677096 118.707691 
L 97.548443 117.662313 
L 94.985122 115.223079 
L 94.496876 114.736858 
L 91.564196 111.738459 
L 91.445309 111.610978 
L 88.393749 108.253847 
L 85.455206 104.769231 
L 85.34219 104.627968 
L 82.73181 101.284615 
L 82.29063 100.687266 
L 80.208379 97.799999 
L 79.239056 96.374469 
L 77.871123 94.315387 
L 76.187497 91.617615 
L 75.707478 90.830771 
L 73.71882 87.346154 
L 73.135937 86.249147 
L 71.89519 83.861538 
L 70.218509 80.376922 
L 70.084378 80.073919 
L 68.706251 76.89231 
L 67.328125 73.407694 
L 67.032818 72.582408 
L 66.101278 69.923074 
L 65.009145 66.438462 
L 64.045489 62.95385 
L 63.981244 62.685796 
L 63.226219 59.469229 
L 62.534114 55.984618 
L 61.967844 52.499997 
L 61.527415 49.015385 
L 61.212819 45.530773 
L 61.024065 42.046153 
L 60.961144 38.561541 
L 61.024065 35.076921 
L 61.212819 31.592309 
L 61.527415 28.107697 
L 61.967844 24.623076 
L 62.534114 21.138465 
L 63.226225 17.653844 
L 63.981244 14.437287 
L 64.045489 14.169232 
L 65.009145 10.68462 
L 66.101284 7.2 
" style="fill:none;stroke:#1f77b4;stroke-width:1.5;"/>
   </g>
   <g id="LineCollection_5">
    <path clip-path="url(#p632b8a559c)" d="M 96.287123 143.1 
L 94.496876 141.800653 
L 91.564211 139.615388 
L 91.445309 139.52368 
L 88.393749 137.108906 
L 87.188192 136.130768 
L 85.34219 134.578536 
L 83.09947 132.646156 
L 82.29063 131.922942 
L 79.274964 129.161535 
L 79.239056 129.127365 
L 76.187497 126.155203 
L 75.707478 125.676924 
L 73.135937 123.010127 
L 72.364665 122.192312 
L 70.084378 119.671523 
L 69.231251 118.707691 
L 67.032818 116.113597 
L 66.294013 115.223079 
L 63.981244 112.30572 
L 63.540813 111.738459 
L 60.96115 108.253847 
L 60.929684 108.209163 
L 58.556252 104.769231 
L 57.878125 103.733261 
L 56.307021 101.284615 
L 54.826565 98.845397 
L 54.204393 97.799999 
L 52.249024 94.315387 
L 51.775006 93.416152 
L 50.438126 90.830771 
L 48.7525 87.346154 
L 48.723432 87.281611 
L 47.211914 83.861538 
L 45.785952 80.376922 
L 45.671872 80.073905 
L 44.496043 76.89231 
L 43.320213 73.407694 
L 42.620312 71.115187 
" style="fill:none;stroke:#1f77b4;stroke-width:1.5;"/>
   </g>
   <g id="LineCollection_6">
    <path clip-path="url(#p632b8a559c)" d="M 67.328119 143.1 
L 67.032818 142.834235 
L 63.981244 140.028815 
L 63.540815 139.615388 
L 60.929684 137.078341 
L 59.974143 136.130768 
L 57.878125 133.97664 
L 56.609163 132.646156 
L 54.826565 130.706605 
L 53.434101 129.161535 
L 51.775006 127.248424 
L 50.438126 125.676924 
L 48.723432 123.579038 
L 47.611182 122.192312 
L 45.671872 119.671518 
L 44.943982 118.707691 
L 42.620312 115.494103 
" style="fill:none;stroke:#1f77b4;stroke-width:1.5;"/>
   </g>
   <g id="LineCollection_7">
    <path clip-path="url(#p632b8a559c)" d="M 43.320214 143.1 
L 42.620312 142.361735 
" style="fill:none;stroke:#1f77b4;stroke-width:1.5;"/>
   </g>
   <g id="LineCollection_8"/>
   <g id="line2d_8">
    <path clip-path="url(#p632b8a559c)" d="M 57.878125 108.253847 
L 85.098446 82.323272 
L 107.385206 70.938794 
L 130.999291 54.254373 
L 146.671836 45.248153 
L 160.006132 41.791213 
L 164.710945 43.638302 
L 169.938146 37.80828 
L 178.629037 39.767087 
L 184.516078 39.431548 
L 189.101548 40.724548 
L 193.967049 42.219207 
L 194.767357 41.234032 
L 196.602426 38.822912 
L 199.501425 41.450789 
L 203.165058 43.282506 
L 202.55583 37.913756 
L 202.034283 39.494884 
L 205.029786 37.098721 
L 206.008451 37.887161 
L 207.310159 38.706392 
L 209.358489 38.761152 
L 212.620388 39.065278 
L 211.101491 42.063531 
L 209.996784 44.383741 
L 210.018093 42.310096 
L 211.206012 43.741655 
L 211.006778 42.897787 
L 210.723517 46.020153 
L 207.276346 45.383981 
L 209.391093 45.002624 
L 210.268887 40.621148 
L 209.510143 40.03825 
L 211.515746 40.365819 
L 210.748404 38.698749 
L 210.942964 36.715483 
L 208.268917 39.012524 
L 209.396213 39.094855 
L 210.732528 40.00766 
L 211.290613 39.478825 
L 210.732941 40.897655 
L 210.367658 41.43696 
L 208.910591 41.206893 
L 209.356766 39.37787 
L 207.210461 36.363337 
L 207.006324 34.904941 
L 206.621897 32.193962 
L 208.220936 33.945279 
L 209.611544 34.097526 
L 210.849936 35.796016 
L 211.220011 34.525645 
" style="fill:none;stroke:#ff7f0e;stroke-linecap:square;stroke-width:1.5;"/>
    <defs>
     <path d="M 0 3 
C 0.795609 3 1.55874 2.683901 2.12132 2.12132 
C 2.683901 1.55874 3 0.795609 3 0 
C 3 -0.795609 2.683901 -1.55874 2.12132 -2.12132 
C 1.55874 -2.683901 0.795609 -3 0 -3 
C -0.795609 -3 -1.55874 -2.683901 -2.12132 -2.12132 
C -2.683901 -1.55874 -3 -0.795609 -3 0 
C -3 0.795609 -2.683901 1.55874 -2.12132 2.12132 
C -1.55874 2.683901 -0.795609 3 0 3 
z
" id="m23fa5d2c54" style="stroke:#ff7f0e;"/>
    </defs>
    <g clip-path="url(#p632b8a559c)">
     <use style="fill:#ff7f0e;stroke:#ff7f0e;" x="57.878125" xlink:href="#m23fa5d2c54" y="108.253847"/>
     <use style="fill:#ff7f0e;stroke:#ff7f0e;" x="85.098446" xlink:href="#m23fa5d2c54" y="82.323272"/>
     <use style="fill:#ff7f0e;stroke:#ff7f0e;" x="107.385206" xlink:href="#m23fa5d2c54" y="70.938794"/>
     <use style="fill:#ff7f0e;stroke:#ff7f0e;" x="130.999291" xlink:href="#m23fa5d2c54" y="54.254373"/>
     <use style="fill:#ff7f0e;stroke:#ff7f0e;" x="146.671836" xlink:href="#m23fa5d2c54" y="45.248153"/>
     <use style="fill:#ff7f0e;stroke:#ff7f0e;" x="160.006132" xlink:href="#m23fa5d2c54" y="41.791213"/>
     <use style="fill:#ff7f0e;stroke:#ff7f0e;" x="164.710945" xlink:href="#m23fa5d2c54" y="43.638302"/>
     <use style="fill:#ff7f0e;stroke:#ff7f0e;" x="169.938146" xlink:href="#m23fa5d2c54" y="37.80828"/>
     <use style="fill:#ff7f0e;stroke:#ff7f0e;" x="178.629037" xlink:href="#m23fa5d2c54" y="39.767087"/>
     <use style="fill:#ff7f0e;stroke:#ff7f0e;" x="184.516078" xlink:href="#m23fa5d2c54" y="39.431548"/>
     <use style="fill:#ff7f0e;stroke:#ff7f0e;" x="189.101548" xlink:href="#m23fa5d2c54" y="40.724548"/>
     <use style="fill:#ff7f0e;stroke:#ff7f0e;" x="193.967049" xlink:href="#m23fa5d2c54" y="42.219207"/>
     <use style="fill:#ff7f0e;stroke:#ff7f0e;" x="194.767357" xlink:href="#m23fa5d2c54" y="41.234032"/>
     <use style="fill:#ff7f0e;stroke:#ff7f0e;" x="196.602426" xlink:href="#m23fa5d2c54" y="38.822912"/>
     <use style="fill:#ff7f0e;stroke:#ff7f0e;" x="199.501425" xlink:href="#m23fa5d2c54" y="41.450789"/>
     <use style="fill:#ff7f0e;stroke:#ff7f0e;" x="203.165058" xlink:href="#m23fa5d2c54" y="43.282506"/>
     <use style="fill:#ff7f0e;stroke:#ff7f0e;" x="202.55583" xlink:href="#m23fa5d2c54" y="37.913756"/>
     <use style="fill:#ff7f0e;stroke:#ff7f0e;" x="202.034283" xlink:href="#m23fa5d2c54" y="39.494884"/>
     <use style="fill:#ff7f0e;stroke:#ff7f0e;" x="205.029786" xlink:href="#m23fa5d2c54" y="37.098721"/>
     <use style="fill:#ff7f0e;stroke:#ff7f0e;" x="206.008451" xlink:href="#m23fa5d2c54" y="37.887161"/>
     <use style="fill:#ff7f0e;stroke:#ff7f0e;" x="207.310159" xlink:href="#m23fa5d2c54" y="38.706392"/>
     <use style="fill:#ff7f0e;stroke:#ff7f0e;" x="209.358489" xlink:href="#m23fa5d2c54" y="38.761152"/>
     <use style="fill:#ff7f0e;stroke:#ff7f0e;" x="212.620388" xlink:href="#m23fa5d2c54" y="39.065278"/>
     <use style="fill:#ff7f0e;stroke:#ff7f0e;" x="211.101491" xlink:href="#m23fa5d2c54" y="42.063531"/>
     <use style="fill:#ff7f0e;stroke:#ff7f0e;" x="209.996784" xlink:href="#m23fa5d2c54" y="44.383741"/>
     <use style="fill:#ff7f0e;stroke:#ff7f0e;" x="210.018093" xlink:href="#m23fa5d2c54" y="42.310096"/>
     <use style="fill:#ff7f0e;stroke:#ff7f0e;" x="211.206012" xlink:href="#m23fa5d2c54" y="43.741655"/>
     <use style="fill:#ff7f0e;stroke:#ff7f0e;" x="211.006778" xlink:href="#m23fa5d2c54" y="42.897787"/>
     <use style="fill:#ff7f0e;stroke:#ff7f0e;" x="210.723517" xlink:href="#m23fa5d2c54" y="46.020153"/>
     <use style="fill:#ff7f0e;stroke:#ff7f0e;" x="207.276346" xlink:href="#m23fa5d2c54" y="45.383981"/>
     <use style="fill:#ff7f0e;stroke:#ff7f0e;" x="209.391093" xlink:href="#m23fa5d2c54" y="45.002624"/>
     <use style="fill:#ff7f0e;stroke:#ff7f0e;" x="210.268887" xlink:href="#m23fa5d2c54" y="40.621148"/>
     <use style="fill:#ff7f0e;stroke:#ff7f0e;" x="209.510143" xlink:href="#m23fa5d2c54" y="40.03825"/>
     <use style="fill:#ff7f0e;stroke:#ff7f0e;" x="211.515746" xlink:href="#m23fa5d2c54" y="40.365819"/>
     <use style="fill:#ff7f0e;stroke:#ff7f0e;" x="210.748404" xlink:href="#m23fa5d2c54" y="38.698749"/>
     <use style="fill:#ff7f0e;stroke:#ff7f0e;" x="210.942964" xlink:href="#m23fa5d2c54" y="36.715483"/>
     <use style="fill:#ff7f0e;stroke:#ff7f0e;" x="208.268917" xlink:href="#m23fa5d2c54" y="39.012524"/>
     <use style="fill:#ff7f0e;stroke:#ff7f0e;" x="209.396213" xlink:href="#m23fa5d2c54" y="39.094855"/>
     <use style="fill:#ff7f0e;stroke:#ff7f0e;" x="210.732528" xlink:href="#m23fa5d2c54" y="40.00766"/>
     <use style="fill:#ff7f0e;stroke:#ff7f0e;" x="211.290613" xlink:href="#m23fa5d2c54" y="39.478825"/>
     <use style="fill:#ff7f0e;stroke:#ff7f0e;" x="210.732941" xlink:href="#m23fa5d2c54" y="40.897655"/>
     <use style="fill:#ff7f0e;stroke:#ff7f0e;" x="210.367658" xlink:href="#m23fa5d2c54" y="41.43696"/>
     <use style="fill:#ff7f0e;stroke:#ff7f0e;" x="208.910591" xlink:href="#m23fa5d2c54" y="41.206893"/>
     <use style="fill:#ff7f0e;stroke:#ff7f0e;" x="209.356766" xlink:href="#m23fa5d2c54" y="39.37787"/>
     <use style="fill:#ff7f0e;stroke:#ff7f0e;" x="207.210461" xlink:href="#m23fa5d2c54" y="36.363337"/>
     <use style="fill:#ff7f0e;stroke:#ff7f0e;" x="207.006324" xlink:href="#m23fa5d2c54" y="34.904941"/>
     <use style="fill:#ff7f0e;stroke:#ff7f0e;" x="206.621897" xlink:href="#m23fa5d2c54" y="32.193962"/>
     <use style="fill:#ff7f0e;stroke:#ff7f0e;" x="208.220936" xlink:href="#m23fa5d2c54" y="33.945279"/>
     <use style="fill:#ff7f0e;stroke:#ff7f0e;" x="209.611544" xlink:href="#m23fa5d2c54" y="34.097526"/>
     <use style="fill:#ff7f0e;stroke:#ff7f0e;" x="210.849936" xlink:href="#m23fa5d2c54" y="35.796016"/>
     <use style="fill:#ff7f0e;stroke:#ff7f0e;" x="211.220011" xlink:href="#m23fa5d2c54" y="34.525645"/>
    </g>
   </g>
   <g id="patch_3">
    <path d="M 42.620312 143.1 
L 42.620312 7.2 
" style="fill:none;stroke:#000000;stroke-linecap:square;stroke-linejoin:miter;stroke-width:0.8;"/>
   </g>
   <g id="patch_4">
    <path d="M 237.920313 143.1 
L 237.920313 7.2 
" style="fill:none;stroke:#000000;stroke-linecap:square;stroke-linejoin:miter;stroke-width:0.8;"/>
   </g>
   <g id="patch_5">
    <path d="M 42.620312 143.1 
L 237.920312 143.1 
" style="fill:none;stroke:#000000;stroke-linecap:square;stroke-linejoin:miter;stroke-width:0.8;"/>
   </g>
   <g id="patch_6">
    <path d="M 42.620312 7.2 
L 237.920312 7.2 
" style="fill:none;stroke:#000000;stroke-linecap:square;stroke-linejoin:miter;stroke-width:0.8;"/>
   </g>
  </g>
 </g>
 <defs>
  <clipPath id="p632b8a559c">
   <rect height="135.9" width="195.3" x="42.620312" y="7.2"/>
  </clipPath>
 </defs>
</svg>
