<?xml version="1.0" encoding="utf-8" standalone="no"?>
<!DOCTYPE svg PUBLIC "-//W3C//DTD SVG 1.1//EN"
  "http://www.w3.org/Graphics/SVG/1.1/DTD/svg11.dtd">
<!-- Created with matplotlib (https://matplotlib.org/) -->
<svg height="180.65625pt" version="1.1" viewBox="0 0 245.120313 180.65625" width="245.120313pt" xmlns="http://www.w3.org/2000/svg" xmlns:xlink="http://www.w3.org/1999/xlink">
 <metadata>
  <rdf:RDF xmlns:cc="http://creativecommons.org/ns#" xmlns:dc="http://purl.org/dc/elements/1.1/" xmlns:rdf="http://www.w3.org/1999/02/22-rdf-syntax-ns#">
   <cc:Work>
    <dc:type rdf:resource="http://purl.org/dc/dcmitype/StillImage"/>
    <dc:date>2020-08-13T04:01:05.103890</dc:date>
    <dc:format>image/svg+xml</dc:format>
    <dc:creator>
     <cc:Agent>
      <dc:title>Matplotlib v3.3.0, https://matplotlib.org/</dc:title>
     </cc:Agent>
    </dc:creator>
   </cc:Work>
  </rdf:RDF>
 </metadata>
 <defs>
  <style type="text/css">*{stroke-linecap:butt;stroke-linejoin:round;}</style>
 </defs>
 <g id="figure_1">
  <g id="patch_1">
   <path d="M 0 180.65625 
L 245.120313 180.65625 
L 245.120313 0 
L 0 0 
z
" style="fill:none;"/>
  </g>
  <g id="axes_1">
   <g id="patch_2">
    <path d="M 42.620312 143.1 
L 237.920313 143.1 
L 237.920313 7.2 
L 42.620312 7.2 
z
" style="fill:#ffffff;"/>
   </g>
   <g id="matplotlib.axis_1">
    <g id="xtick_1">
     <g id="line2d_1">
      <defs>
       <path d="M 0 0 
L 0 3.5 
" id="m348ffcc8b2" style="stroke:#000000;stroke-width:0.8;"/>
      </defs>
      <g>
       <use style="stroke:#000000;stroke-width:0.8;" x="88.393749" xlink:href="#m348ffcc8b2" y="143.1"/>
      </g>
     </g>
     <g id="text_1">
      <!-- −4 -->
      <g transform="translate(81.022656 157.698438)scale(0.1 -0.1)">
       <defs>
        <path d="M 10.59375 35.5 
L 73.1875 35.5 
L 73.1875 27.203125 
L 10.59375 27.203125 
z
" id="DejaVuSans-8722"/>
        <path d="M 37.796875 64.3125 
L 12.890625 25.390625 
L 37.796875 25.390625 
z
M 35.203125 72.90625 
L 47.609375 72.90625 
L 47.609375 25.390625 
L 58.015625 25.390625 
L 58.015625 17.1875 
L 47.609375 17.1875 
L 47.609375 0 
L 37.796875 0 
L 37.796875 17.1875 
L 4.890625 17.1875 
L 4.890625 26.703125 
z
" id="DejaVuSans-52"/>
       </defs>
       <use xlink:href="#DejaVuSans-8722"/>
       <use x="83.789062" xlink:href="#DejaVuSans-52"/>
      </g>
     </g>
    </g>
    <g id="xtick_2">
     <g id="line2d_2">
      <g>
       <use style="stroke:#000000;stroke-width:0.8;" x="149.424998" xlink:href="#m348ffcc8b2" y="143.1"/>
      </g>
     </g>
     <g id="text_2">
      <!-- −2 -->
      <g transform="translate(142.053905 157.698438)scale(0.1 -0.1)">
       <defs>
        <path d="M 19.1875 8.296875 
L 53.609375 8.296875 
L 53.609375 0 
L 7.328125 0 
L 7.328125 8.296875 
Q 12.9375 14.109375 22.625 23.890625 
Q 32.328125 33.6875 34.8125 36.53125 
Q 39.546875 41.84375 41.421875 45.53125 
Q 43.3125 49.21875 43.3125 52.78125 
Q 43.3125 58.59375 39.234375 62.25 
Q 35.15625 65.921875 28.609375 65.921875 
Q 23.96875 65.921875 18.8125 64.3125 
Q 13.671875 62.703125 7.8125 59.421875 
L 7.8125 69.390625 
Q 13.765625 71.78125 18.9375 73 
Q 24.125 74.21875 28.421875 74.21875 
Q 39.75 74.21875 46.484375 68.546875 
Q 53.21875 62.890625 53.21875 53.421875 
Q 53.21875 48.921875 51.53125 44.890625 
Q 49.859375 40.875 45.40625 35.40625 
Q 44.1875 33.984375 37.640625 27.21875 
Q 31.109375 20.453125 19.1875 8.296875 
z
" id="DejaVuSans-50"/>
       </defs>
       <use xlink:href="#DejaVuSans-8722"/>
       <use x="83.789062" xlink:href="#DejaVuSans-50"/>
      </g>
     </g>
    </g>
    <g id="xtick_3">
     <g id="line2d_3">
      <g>
       <use style="stroke:#000000;stroke-width:0.8;" x="210.456247" xlink:href="#m348ffcc8b2" y="143.1"/>
      </g>
     </g>
     <g id="text_3">
      <!-- 0 -->
      <g transform="translate(207.274997 157.698438)scale(0.1 -0.1)">
       <defs>
        <path d="M 31.78125 66.40625 
Q 24.171875 66.40625 20.328125 58.90625 
Q 16.5 51.421875 16.5 36.375 
Q 16.5 21.390625 20.328125 13.890625 
Q 24.171875 6.390625 31.78125 6.390625 
Q 39.453125 6.390625 43.28125 13.890625 
Q 47.125 21.390625 47.125 36.375 
Q 47.125 51.421875 43.28125 58.90625 
Q 39.453125 66.40625 31.78125 66.40625 
z
M 31.78125 74.21875 
Q 44.046875 74.21875 50.515625 64.515625 
Q 56.984375 54.828125 56.984375 36.375 
Q 56.984375 17.96875 50.515625 8.265625 
Q 44.046875 -1.421875 31.78125 -1.421875 
Q 19.53125 -1.421875 13.0625 8.265625 
Q 6.59375 17.96875 6.59375 36.375 
Q 6.59375 54.828125 13.0625 64.515625 
Q 19.53125 74.21875 31.78125 74.21875 
z
" id="DejaVuSans-48"/>
       </defs>
       <use xlink:href="#DejaVuSans-48"/>
      </g>
     </g>
    </g>
    <g id="text_4">
     <!-- x1 -->
     <g transform="translate(134.129687 171.376563)scale(0.1 -0.1)">
      <defs>
       <path d="M 54.890625 54.6875 
L 35.109375 28.078125 
L 55.90625 0 
L 45.3125 0 
L 29.390625 21.484375 
L 13.484375 0 
L 2.875 0 
L 24.125 28.609375 
L 4.6875 54.6875 
L 15.28125 54.6875 
L 29.78125 35.203125 
L 44.28125 54.6875 
z
" id="DejaVuSans-120"/>
       <path d="M 12.40625 8.296875 
L 28.515625 8.296875 
L 28.515625 63.921875 
L 10.984375 60.40625 
L 10.984375 69.390625 
L 28.421875 72.90625 
L 38.28125 72.90625 
L 38.28125 8.296875 
L 54.390625 8.296875 
L 54.390625 0 
L 12.40625 0 
z
" id="DejaVuSans-49"/>
      </defs>
      <use xlink:href="#DejaVuSans-120"/>
      <use x="59.179688" xlink:href="#DejaVuSans-49"/>
     </g>
    </g>
   </g>
   <g id="matplotlib.axis_2">
    <g id="ytick_1">
     <g id="line2d_4">
      <defs>
       <path d="M 0 0 
L -3.5 0 
" id="m95163e2af5" style="stroke:#000000;stroke-width:0.8;"/>
      </defs>
      <g>
       <use style="stroke:#000000;stroke-width:0.8;" x="42.620312" xlink:href="#m95163e2af5" y="143.1"/>
      </g>
     </g>
     <g id="text_5">
      <!-- −3 -->
      <g transform="translate(20.878125 146.899219)scale(0.1 -0.1)">
       <defs>
        <path d="M 40.578125 39.3125 
Q 47.65625 37.796875 51.625 33 
Q 55.609375 28.21875 55.609375 21.1875 
Q 55.609375 10.40625 48.1875 4.484375 
Q 40.765625 -1.421875 27.09375 -1.421875 
Q 22.515625 -1.421875 17.65625 -0.515625 
Q 12.796875 0.390625 7.625 2.203125 
L 7.625 11.71875 
Q 11.71875 9.328125 16.59375 8.109375 
Q 21.484375 6.890625 26.8125 6.890625 
Q 36.078125 6.890625 40.9375 10.546875 
Q 45.796875 14.203125 45.796875 21.1875 
Q 45.796875 27.640625 41.28125 31.265625 
Q 36.765625 34.90625 28.71875 34.90625 
L 20.21875 34.90625 
L 20.21875 43.015625 
L 29.109375 43.015625 
Q 36.375 43.015625 40.234375 45.921875 
Q 44.09375 48.828125 44.09375 54.296875 
Q 44.09375 59.90625 40.109375 62.90625 
Q 36.140625 65.921875 28.71875 65.921875 
Q 24.65625 65.921875 20.015625 65.03125 
Q 15.375 64.15625 9.8125 62.3125 
L 9.8125 71.09375 
Q 15.4375 72.65625 20.34375 73.4375 
Q 25.25 74.21875 29.59375 74.21875 
Q 40.828125 74.21875 47.359375 69.109375 
Q 53.90625 64.015625 53.90625 55.328125 
Q 53.90625 49.265625 50.4375 45.09375 
Q 46.96875 40.921875 40.578125 39.3125 
z
" id="DejaVuSans-51"/>
       </defs>
       <use xlink:href="#DejaVuSans-8722"/>
       <use x="83.789062" xlink:href="#DejaVuSans-51"/>
      </g>
     </g>
    </g>
    <g id="ytick_2">
     <g id="line2d_5">
      <g>
       <use style="stroke:#000000;stroke-width:0.8;" x="42.620312" xlink:href="#m95163e2af5" y="108.253847"/>
      </g>
     </g>
     <g id="text_6">
      <!-- −2 -->
      <g transform="translate(20.878125 112.053066)scale(0.1 -0.1)">
       <use xlink:href="#DejaVuSans-8722"/>
       <use x="83.789062" xlink:href="#DejaVuSans-50"/>
      </g>
     </g>
    </g>
    <g id="ytick_3">
     <g id="line2d_6">
      <g>
       <use style="stroke:#000000;stroke-width:0.8;" x="42.620312" xlink:href="#m95163e2af5" y="73.407694"/>
      </g>
     </g>
     <g id="text_7">
      <!-- −1 -->
      <g transform="translate(20.878125 77.206913)scale(0.1 -0.1)">
       <use xlink:href="#DejaVuSans-8722"/>
       <use x="83.789062" xlink:href="#DejaVuSans-49"/>
      </g>
     </g>
    </g>
    <g id="ytick_4">
     <g id="line2d_7">
      <g>
       <use style="stroke:#000000;stroke-width:0.8;" x="42.620312" xlink:href="#m95163e2af5" y="38.561541"/>
      </g>
     </g>
     <g id="text_8">
      <!-- 0 -->
      <g transform="translate(29.257812 42.36076)scale(0.1 -0.1)">
       <use xlink:href="#DejaVuSans-48"/>
      </g>
     </g>
    </g>
    <g id="text_9">
     <!-- x2 -->
     <g transform="translate(14.798437 81.290625)rotate(-90)scale(0.1 -0.1)">
      <use xlink:href="#DejaVuSans-120"/>
      <use x="59.179688" xlink:href="#DejaVuSans-50"/>
     </g>
    </g>
   </g>
   <g id="LineCollection_1">
    <path clip-path="url(#pf20df649da)" d="M 210.456247 38.561541 
" style="fill:none;stroke:#1f77b4;stroke-width:1.5;"/>
   </g>
   <g id="LineCollection_2">
    <path clip-path="url(#pf20df649da)" d="M 237.920312 80.648724 
L 234.868753 80.767201 
L 231.817193 80.87174 
L 228.765619 80.96234 
L 225.71406 81.039001 
L 222.6625 81.101725 
L 219.610941 81.150509 
L 216.559381 81.185356 
L 213.507807 81.206264 
L 210.456247 81.213233 
L 207.404688 81.206264 
L 204.353128 81.185356 
L 201.301569 81.150509 
L 198.249995 81.101725 
L 195.198435 81.039001 
L 192.146876 80.96234 
L 189.095316 80.87174 
L 186.043757 80.767202 
L 182.992182 80.648724 
L 179.940623 80.51631 
L 177.03433 80.376922 
L 176.889063 80.369349 
L 173.837504 80.195118 
L 170.785944 80.005738 
L 167.73437 79.801205 
L 164.682811 79.581524 
L 161.631251 79.34669 
L 158.579684 79.096707 
L 155.528125 78.831575 
L 152.476565 78.551289 
L 149.424998 78.255854 
L 146.373439 77.94527 
L 143.321872 77.619534 
L 140.270312 77.278647 
L 137.218753 76.922611 
L 136.969649 76.89231 
L 134.167186 76.518958 
L 131.115627 76.095827 
L 128.06406 75.6561 
L 125.0125 75.199783 
L 121.960941 74.726871 
L 118.909374 74.237364 
L 115.857814 73.731266 
L 113.968754 73.407694 
L 112.806247 73.187612 
L 109.754688 72.59156 
L 106.703128 71.977167 
L 103.651562 71.344435 
L 100.600002 70.693362 
L 97.548443 70.02395 
L 97.100855 69.923074 
L 94.496876 69.26715 
L 91.445309 68.477985 
L 88.393749 67.668327 
L 85.34219 66.838168 
L 83.908318 66.438462 
L 82.29063 65.927389 
L 79.239056 64.940075 
L 76.187497 63.929538 
L 73.307377 62.95385 
L 73.135937 62.886836 
L 70.084378 61.66722 
L 67.032818 60.420802 
L 64.752163 59.469229 
L 63.981244 59.089091 
L 60.929684 57.552694 
L 57.878125 55.984618 
L 54.826565 54.029365 
L 52.486033 52.499997 
L 51.775006 51.902647 
L 48.723432 49.289169 
L 48.409729 49.015385 
L 45.671872 45.670156 
L 45.55989 45.530773 
L 43.880133 42.046153 
L 43.320214 38.561541 
L 43.880133 35.076921 
L 45.55989 31.592309 
L 45.671872 31.452926 
L 48.409729 28.107697 
L 48.723432 27.833913 
L 51.775006 25.220438 
L 52.486047 24.623076 
L 54.826565 23.093718 
L 57.878125 21.138465 
L 60.929684 19.570388 
L 63.981244 18.033991 
L 64.752179 17.653844 
L 67.032818 16.702279 
L 70.084378 15.455861 
L 73.135937 14.236246 
L 73.307377 14.169232 
L 76.187497 13.193544 
L 79.239056 12.183007 
L 82.29063 11.195693 
L 83.908318 10.68462 
L 85.34219 10.284914 
L 88.393749 9.454754 
L 91.445309 8.645096 
L 94.496876 7.855932 
L 97.100893 7.2 
" style="fill:none;stroke:#1f77b4;stroke-width:1.5;"/>
   </g>
   <g id="LineCollection_3">
    <path clip-path="url(#pf20df649da)" d="M 237.920312 98.491946 
L 234.868753 98.576571 
L 231.817193 98.651241 
L 228.765619 98.715958 
L 225.71406 98.770714 
L 222.6625 98.815518 
L 219.610941 98.850364 
L 216.559381 98.875252 
L 213.507807 98.890188 
L 210.456247 98.895165 
L 207.404688 98.890188 
L 204.353128 98.875252 
L 201.301569 98.850364 
L 198.249995 98.815518 
L 195.198435 98.770714 
L 192.146876 98.715958 
L 189.095316 98.651243 
L 186.043757 98.576571 
L 182.992182 98.491946 
L 179.940623 98.397363 
L 176.889063 98.292825 
L 173.837504 98.17833 
L 170.785944 98.053878 
L 167.73437 97.919472 
L 165.208907 97.799999 
L 164.682811 97.773602 
L 161.631251 97.60993 
L 158.579684 97.435699 
L 155.528125 97.25091 
L 152.476565 97.055559 
L 149.424998 96.84965 
L 146.373439 96.633182 
L 143.321872 96.406153 
L 140.270312 96.168568 
L 137.218753 95.920421 
L 134.167186 95.661713 
L 131.115627 95.392447 
L 128.06406 95.112622 
L 125.0125 94.822238 
L 121.960941 94.521293 
L 119.943827 94.315387 
L 118.909374 94.202977 
L 115.857814 93.860137 
L 112.806247 93.506054 
L 109.754688 93.140732 
L 106.703128 92.764169 
L 103.651562 92.376366 
L 100.600002 91.977321 
L 97.548443 91.567036 
L 94.496876 91.145509 
L 92.277554 90.830771 
L 91.445309 90.704604 
L 88.393749 90.229975 
L 85.34219 89.743331 
L 82.29063 89.244671 
L 79.239056 88.733993 
L 76.187497 88.211301 
L 73.135937 87.676594 
L 71.291579 87.346154 
L 70.084378 87.113848 
L 67.032818 86.51372 
L 63.981244 85.900684 
L 60.929684 85.274745 
L 57.878125 84.635899 
L 54.826565 83.984148 
L 54.263641 83.861538 
L 51.775006 83.276125 
L 48.723432 82.544352 
L 45.671872 81.798649 
L 42.620312 81.039001 
" style="fill:none;stroke:#1f77b4;stroke-width:1.5;"/>
   </g>
   <g id="LineCollection_4">
    <path clip-path="url(#pf20df649da)" d="M 237.920312 112.139599 
L 234.868753 112.208481 
L 231.817193 112.269261 
L 228.765619 112.321933 
L 225.71406 112.366507 
L 222.6625 112.402973 
L 219.610941 112.431336 
L 216.559381 112.451596 
L 213.507807 112.463748 
L 210.456247 112.467802 
L 207.404688 112.463748 
L 204.353128 112.451596 
L 201.301569 112.431336 
L 198.249995 112.402973 
L 195.198435 112.366507 
L 192.146876 112.321933 
L 189.095316 112.269261 
L 186.043757 112.208481 
L 182.992182 112.139599 
L 179.940623 112.062613 
L 176.889063 111.977524 
L 173.837504 111.884331 
L 170.785944 111.783036 
L 169.542551 111.738459 
L 167.73437 111.670471 
L 164.682811 111.547234 
L 161.631251 111.415502 
L 158.579684 111.275267 
L 155.528125 111.12653 
L 152.476565 110.969299 
L 149.424998 110.803569 
L 146.373439 110.629336 
L 143.321872 110.446605 
L 140.270312 110.255376 
L 137.218753 110.055648 
L 134.167186 109.847422 
L 131.115627 109.630697 
L 128.06406 109.40547 
L 125.0125 109.171745 
L 121.960941 108.929524 
L 118.909374 108.678802 
L 115.857814 108.419577 
L 113.968762 108.253847 
L 112.806247 108.146627 
L 109.754688 107.856244 
L 106.703128 107.556924 
L 103.651562 107.248668 
L 100.600002 106.931482 
L 97.548443 106.605357 
L 94.496876 106.270297 
L 91.445309 105.926302 
L 88.393749 105.573374 
L 85.34219 105.211509 
L 82.29063 104.840713 
L 81.716196 104.769231 
L 79.239056 104.444313 
L 76.187497 104.034636 
L 73.135937 103.615542 
L 70.084378 103.187029 
L 67.032818 102.749098 
L 63.981244 102.301748 
L 60.929684 101.84498 
L 57.878125 101.378796 
L 57.273841 101.284615 
L 54.826565 100.881398 
L 51.775006 100.368663 
L 48.723432 99.845968 
L 45.671872 99.313318 
L 42.620312 98.770713 
" style="fill:none;stroke:#1f77b4;stroke-width:1.5;"/>
   </g>
   <g id="LineCollection_5">
    <path clip-path="url(#pf20df649da)" d="M 237.920312 123.611044 
L 234.868753 123.671492 
L 231.817193 123.724829 
L 228.765619 123.771052 
L 225.71406 123.810168 
L 222.6625 123.842169 
L 219.610941 123.867058 
L 216.559381 123.884838 
L 213.507807 123.895502 
L 210.456247 123.899059 
L 207.404688 123.895502 
L 204.353128 123.884838 
L 201.301569 123.867058 
L 198.249995 123.842169 
L 195.198435 123.810168 
L 192.146876 123.771052 
L 189.095316 123.724829 
L 186.043757 123.671492 
L 182.992182 123.611044 
L 179.940623 123.543485 
L 176.889063 123.468815 
L 173.837504 123.387034 
L 170.785944 123.298143 
L 167.73437 123.202136 
L 164.682811 123.099019 
L 161.631251 122.988795 
L 158.579684 122.871456 
L 155.528125 122.747002 
L 152.476565 122.615441 
L 149.424998 122.47677 
L 146.373439 122.330983 
L 143.605784 122.192312 
L 143.321872 122.177481 
L 140.270312 122.010664 
L 137.218753 121.836433 
L 134.167186 121.654789 
L 131.115627 121.465731 
L 128.06406 121.269256 
L 125.0125 121.065368 
L 121.960941 120.85407 
L 118.909374 120.635354 
L 115.857814 120.409222 
L 112.806247 120.175679 
L 109.754688 119.934723 
L 106.703128 119.68635 
L 103.651562 119.430563 
L 100.600002 119.167366 
L 97.548443 118.896753 
L 95.473374 118.707691 
L 94.496876 118.614768 
L 91.445309 118.316641 
L 88.393749 118.010767 
L 85.34219 117.697155 
L 82.29063 117.375795 
L 79.239056 117.046693 
L 76.187497 116.709847 
L 73.135937 116.365258 
L 70.084378 116.012923 
L 67.032818 115.652848 
L 63.981244 115.285027 
L 63.477901 115.223079 
L 60.929684 114.894876 
L 57.878125 114.49374 
L 54.826565 114.084501 
L 51.775006 113.667159 
L 48.723432 113.24171 
L 45.671872 112.808158 
L 42.620312 112.366503 
" style="fill:none;stroke:#1f77b4;stroke-width:1.5;"/>
   </g>
   <g id="LineCollection_6">
    <path clip-path="url(#pf20df649da)" d="M 237.920312 133.720047 
L 234.868753 133.773901 
L 231.817193 133.82142 
L 228.765619 133.8626 
L 225.71406 133.897448 
L 222.6625 133.925958 
L 219.610941 133.948133 
L 216.559381 133.963973 
L 213.507807 133.973474 
L 210.456247 133.976643 
L 207.404688 133.973474 
L 204.353128 133.963973 
L 201.301569 133.948133 
L 198.249995 133.925958 
L 195.198435 133.897448 
L 192.146876 133.8626 
L 189.095316 133.82142 
L 186.043757 133.773901 
L 182.992182 133.720047 
L 179.940623 133.659858 
L 176.889063 133.593334 
L 173.837504 133.520475 
L 170.785944 133.44128 
L 167.73437 133.355747 
L 164.682811 133.263879 
L 161.631251 133.165679 
L 158.579684 133.061141 
L 155.528125 132.950264 
L 152.476565 132.833055 
L 149.424998 132.709511 
L 147.936483 132.646156 
L 146.373439 132.577118 
L 143.321872 132.43576 
L 140.270312 132.287829 
L 137.218753 132.133322 
L 134.167186 131.972242 
L 131.115627 131.804587 
L 128.06406 131.630355 
L 125.0125 131.449549 
L 121.960941 131.262171 
L 118.909374 131.068216 
L 115.857814 130.867686 
L 112.806247 130.660581 
L 109.754688 130.446903 
L 106.703128 130.226648 
L 103.651562 129.999818 
L 100.600002 129.766418 
L 97.548443 129.52644 
L 94.496876 129.279885 
L 93.070115 129.161535 
L 91.445309 129.021473 
L 88.393749 128.751584 
L 85.34219 128.474867 
L 82.29063 128.191314 
L 79.239056 127.900929 
L 76.187497 127.603712 
L 73.135937 127.299663 
L 70.084378 126.988779 
L 67.032818 126.671065 
L 63.981244 126.346517 
L 60.929684 126.015136 
L 57.878125 125.676924 
L 54.826565 125.317796 
L 51.775006 124.951557 
L 48.723432 124.578203 
L 45.671872 124.197739 
L 42.620312 123.810168 
" style="fill:none;stroke:#1f77b4;stroke-width:1.5;"/>
   </g>
   <g id="LineCollection_7">
    <path clip-path="url(#pf20df649da)" d="M 210.456247 143.1 
L 207.404688 143.097049 
L 204.353128 143.088189 
L 201.301569 143.07342 
L 198.249995 143.052749 
L 195.198435 143.026175 
L 192.146876 142.993692 
L 189.095316 142.9553 
L 186.043757 142.911006 
L 182.992182 142.860804 
L 179.940623 142.804692 
L 176.889063 142.742678 
L 173.837504 142.674761 
L 170.785944 142.60093 
L 167.73437 142.521202 
L 164.682811 142.435559 
L 161.631251 142.344014 
L 158.579684 142.246566 
L 155.528125 142.143209 
L 152.476565 142.033943 
L 149.424998 141.918775 
L 146.373439 141.797698 
L 143.321872 141.670719 
L 140.270312 141.537831 
L 137.218753 141.399034 
L 134.167186 141.254334 
L 131.115627 141.103726 
L 128.06406 140.947215 
L 125.0125 140.784796 
L 121.960941 140.616474 
L 118.909374 140.442243 
L 115.857814 140.262103 
L 112.806247 140.076061 
L 109.754688 139.88411 
L 106.703128 139.686256 
L 105.641795 139.615388 
L 103.651562 139.477832 
L 100.600002 139.26081 
L 97.548443 139.037672 
L 94.496876 138.80842 
L 91.445309 138.573055 
L 88.393749 138.331578 
L 85.34219 138.083987 
L 82.29063 137.830285 
L 79.239056 137.570464 
L 76.187497 137.304534 
L 73.135937 137.032489 
L 70.084378 136.754332 
L 67.032818 136.47006 
L 63.981244 136.179677 
L 63.477871 136.130768 
L 60.929684 135.874175 
L 57.878125 135.560557 
L 54.826565 135.240612 
L 51.775006 134.914323 
L 48.723432 134.581696 
L 45.671872 134.242743 
L 42.620312 133.897445 
" style="fill:none;stroke:#1f77b4;stroke-width:1.5;"/>
    <path clip-path="url(#pf20df649da)" d="M 237.920312 142.860804 
L 234.868753 142.911006 
L 231.817193 142.9553 
L 228.765619 142.993692 
L 225.71406 143.026175 
L 222.6625 143.052749 
L 219.610941 143.07342 
L 216.559381 143.088189 
L 213.507807 143.097049 
L 210.456247 143.1 
" style="fill:none;stroke:#1f77b4;stroke-width:1.5;"/>
   </g>
   <g id="LineCollection_8">
    <path clip-path="url(#pf20df649da)" d="M 43.320206 143.1 
L 42.620312 143.026175 
" style="fill:none;stroke:#1f77b4;stroke-width:1.5;"/>
   </g>
   <g id="LineCollection_9"/>
   <g id="line2d_8">
    <path clip-path="url(#pf20df649da)" d="M 57.878125 108.253847 
L 96.477483 64.176566 
L 120.357141 48.253162 
L 138.04326 41.967447 
L 152.011131 39.642224 
L 163.368485 38.864651 
L 172.726059 38.634763 
L 180.468973 38.576225 
L 186.866075 38.563851 
L 192.121322 38.561799 
L 196.400248 38.561557 
L 199.844225 38.561541 
L 202.578129 38.561541 
L 204.714221 38.561541 
L 206.353863 38.561541 
L 207.588037 38.561541 
L 208.497341 38.561541 
L 209.151868 38.561541 
L 209.611241 38.561541 
L 209.92492 38.561541 
L 210.132822 38.561541 
" style="fill:none;stroke:#ff7f0e;stroke-linecap:square;stroke-width:1.5;"/>
    <defs>
     <path d="M 0 3 
C 0.795609 3 1.55874 2.683901 2.12132 2.12132 
C 2.683901 1.55874 3 0.795609 3 0 
C 3 -0.795609 2.683901 -1.55874 2.12132 -2.12132 
C 1.55874 -2.683901 0.795609 -3 0 -3 
C -0.795609 -3 -1.55874 -2.683901 -2.12132 -2.12132 
C -2.683901 -1.55874 -3 -0.795609 -3 0 
C -3 0.795609 -2.683901 1.55874 -2.12132 2.12132 
C -1.55874 2.683901 -0.795609 3 0 3 
z
" id="mf24c7e5c93" style="stroke:#ff7f0e;"/>
    </defs>
    <g clip-path="url(#pf20df649da)">
     <use style="fill:#ff7f0e;stroke:#ff7f0e;" x="57.878125" xlink:href="#mf24c7e5c93" y="108.253847"/>
     <use style="fill:#ff7f0e;stroke:#ff7f0e;" x="96.477483" xlink:href="#mf24c7e5c93" y="64.176566"/>
     <use style="fill:#ff7f0e;stroke:#ff7f0e;" x="120.357141" xlink:href="#mf24c7e5c93" y="48.253162"/>
     <use style="fill:#ff7f0e;stroke:#ff7f0e;" x="138.04326" xlink:href="#mf24c7e5c93" y="41.967447"/>
     <use style="fill:#ff7f0e;stroke:#ff7f0e;" x="152.011131" xlink:href="#mf24c7e5c93" y="39.642224"/>
     <use style="fill:#ff7f0e;stroke:#ff7f0e;" x="163.368485" xlink:href="#mf24c7e5c93" y="38.864651"/>
     <use style="fill:#ff7f0e;stroke:#ff7f0e;" x="172.726059" xlink:href="#mf24c7e5c93" y="38.634763"/>
     <use style="fill:#ff7f0e;stroke:#ff7f0e;" x="180.468973" xlink:href="#mf24c7e5c93" y="38.576225"/>
     <use style="fill:#ff7f0e;stroke:#ff7f0e;" x="186.866075" xlink:href="#mf24c7e5c93" y="38.563851"/>
     <use style="fill:#ff7f0e;stroke:#ff7f0e;" x="192.121322" xlink:href="#mf24c7e5c93" y="38.561799"/>
     <use style="fill:#ff7f0e;stroke:#ff7f0e;" x="196.400248" xlink:href="#mf24c7e5c93" y="38.561557"/>
     <use style="fill:#ff7f0e;stroke:#ff7f0e;" x="199.844225" xlink:href="#mf24c7e5c93" y="38.561541"/>
     <use style="fill:#ff7f0e;stroke:#ff7f0e;" x="202.578129" xlink:href="#mf24c7e5c93" y="38.561541"/>
     <use style="fill:#ff7f0e;stroke:#ff7f0e;" x="204.714221" xlink:href="#mf24c7e5c93" y="38.561541"/>
     <use style="fill:#ff7f0e;stroke:#ff7f0e;" x="206.353863" xlink:href="#mf24c7e5c93" y="38.561541"/>
     <use style="fill:#ff7f0e;stroke:#ff7f0e;" x="207.588037" xlink:href="#mf24c7e5c93" y="38.561541"/>
     <use style="fill:#ff7f0e;stroke:#ff7f0e;" x="208.497341" xlink:href="#mf24c7e5c93" y="38.561541"/>
     <use style="fill:#ff7f0e;stroke:#ff7f0e;" x="209.151868" xlink:href="#mf24c7e5c93" y="38.561541"/>
     <use style="fill:#ff7f0e;stroke:#ff7f0e;" x="209.611241" xlink:href="#mf24c7e5c93" y="38.561541"/>
     <use style="fill:#ff7f0e;stroke:#ff7f0e;" x="209.92492" xlink:href="#mf24c7e5c93" y="38.561541"/>
     <use style="fill:#ff7f0e;stroke:#ff7f0e;" x="210.132822" xlink:href="#mf24c7e5c93" y="38.561541"/>
    </g>
   </g>
   <g id="patch_3">
    <path d="M 42.620312 143.1 
L 42.620312 7.2 
" style="fill:none;stroke:#000000;stroke-linecap:square;stroke-linejoin:miter;stroke-width:0.8;"/>
   </g>
   <g id="patch_4">
    <path d="M 237.920313 143.1 
L 237.920313 7.2 
" style="fill:none;stroke:#000000;stroke-linecap:square;stroke-linejoin:miter;stroke-width:0.8;"/>
   </g>
   <g id="patch_5">
    <path d="M 42.620312 143.1 
L 237.920312 143.1 
" style="fill:none;stroke:#000000;stroke-linecap:square;stroke-linejoin:miter;stroke-width:0.8;"/>
   </g>
   <g id="patch_6">
    <path d="M 42.620312 7.2 
L 237.920312 7.2 
" style="fill:none;stroke:#000000;stroke-linecap:square;stroke-linejoin:miter;stroke-width:0.8;"/>
   </g>
  </g>
 </g>
 <defs>
  <clipPath id="pf20df649da">
   <rect height="135.9" width="195.3" x="42.620312" y="7.2"/>
  </clipPath>
 </defs>
</svg>
