<?xml version="1.0" encoding="utf-8" standalone="no"?>
<!DOCTYPE svg PUBLIC "-//W3C//DTD SVG 1.1//EN"
  "http://www.w3.org/Graphics/SVG/1.1/DTD/svg11.dtd">
<!-- Created with matplotlib (https://matplotlib.org/) -->
<svg height="180.65625pt" version="1.1" viewBox="0 0 245.120313 180.65625" width="245.120313pt" xmlns="http://www.w3.org/2000/svg" xmlns:xlink="http://www.w3.org/1999/xlink">
 <metadata>
  <rdf:RDF xmlns:cc="http://creativecommons.org/ns#" xmlns:dc="http://purl.org/dc/elements/1.1/" xmlns:rdf="http://www.w3.org/1999/02/22-rdf-syntax-ns#">
   <cc:Work>
    <dc:type rdf:resource="http://purl.org/dc/dcmitype/StillImage"/>
    <dc:date>2020-08-13T04:00:30.424672</dc:date>
    <dc:format>image/svg+xml</dc:format>
    <dc:creator>
     <cc:Agent>
      <dc:title>Matplotlib v3.3.0, https://matplotlib.org/</dc:title>
     </cc:Agent>
    </dc:creator>
   </cc:Work>
  </rdf:RDF>
 </metadata>
 <defs>
  <style type="text/css">*{stroke-linecap:butt;stroke-linejoin:round;}</style>
 </defs>
 <g id="figure_1">
  <g id="patch_1">
   <path d="M 0 180.65625 
L 245.120313 180.65625 
L 245.120313 0 
L 0 0 
z
" style="fill:none;"/>
  </g>
  <g id="axes_1">
   <g id="patch_2">
    <path d="M 42.620312 143.1 
L 237.920313 143.1 
L 237.920313 7.2 
L 42.620312 7.2 
z
" style="fill:#ffffff;"/>
   </g>
   <g id="matplotlib.axis_1">
    <g id="xtick_1">
     <g id="line2d_1">
      <defs>
       <path d="M 0 0 
L 0 3.5 
" id="mcd03bd3a43" style="stroke:#000000;stroke-width:0.8;"/>
      </defs>
      <g>
       <use style="stroke:#000000;stroke-width:0.8;" x="88.393749" xlink:href="#mcd03bd3a43" y="143.1"/>
      </g>
     </g>
     <g id="text_1">
      <!-- −4 -->
      <g transform="translate(81.022656 157.698438)scale(0.1 -0.1)">
       <defs>
        <path d="M 10.59375 35.5 
L 73.1875 35.5 
L 73.1875 27.203125 
L 10.59375 27.203125 
z
" id="DejaVuSans-8722"/>
        <path d="M 37.796875 64.3125 
L 12.890625 25.390625 
L 37.796875 25.390625 
z
M 35.203125 72.90625 
L 47.609375 72.90625 
L 47.609375 25.390625 
L 58.015625 25.390625 
L 58.015625 17.1875 
L 47.609375 17.1875 
L 47.609375 0 
L 37.796875 0 
L 37.796875 17.1875 
L 4.890625 17.1875 
L 4.890625 26.703125 
z
" id="DejaVuSans-52"/>
       </defs>
       <use xlink:href="#DejaVuSans-8722"/>
       <use x="83.789062" xlink:href="#DejaVuSans-52"/>
      </g>
     </g>
    </g>
    <g id="xtick_2">
     <g id="line2d_2">
      <g>
       <use style="stroke:#000000;stroke-width:0.8;" x="149.424998" xlink:href="#mcd03bd3a43" y="143.1"/>
      </g>
     </g>
     <g id="text_2">
      <!-- −2 -->
      <g transform="translate(142.053905 157.698438)scale(0.1 -0.1)">
       <defs>
        <path d="M 19.1875 8.296875 
L 53.609375 8.296875 
L 53.609375 0 
L 7.328125 0 
L 7.328125 8.296875 
Q 12.9375 14.109375 22.625 23.890625 
Q 32.328125 33.6875 34.8125 36.53125 
Q 39.546875 41.84375 41.421875 45.53125 
Q 43.3125 49.21875 43.3125 52.78125 
Q 43.3125 58.59375 39.234375 62.25 
Q 35.15625 65.921875 28.609375 65.921875 
Q 23.96875 65.921875 18.8125 64.3125 
Q 13.671875 62.703125 7.8125 59.421875 
L 7.8125 69.390625 
Q 13.765625 71.78125 18.9375 73 
Q 24.125 74.21875 28.421875 74.21875 
Q 39.75 74.21875 46.484375 68.546875 
Q 53.21875 62.890625 53.21875 53.421875 
Q 53.21875 48.921875 51.53125 44.890625 
Q 49.859375 40.875 45.40625 35.40625 
Q 44.1875 33.984375 37.640625 27.21875 
Q 31.109375 20.453125 19.1875 8.296875 
z
" id="DejaVuSans-50"/>
       </defs>
       <use xlink:href="#DejaVuSans-8722"/>
       <use x="83.789062" xlink:href="#DejaVuSans-50"/>
      </g>
     </g>
    </g>
    <g id="xtick_3">
     <g id="line2d_3">
      <g>
       <use style="stroke:#000000;stroke-width:0.8;" x="210.456247" xlink:href="#mcd03bd3a43" y="143.1"/>
      </g>
     </g>
     <g id="text_3">
      <!-- 0 -->
      <g transform="translate(207.274997 157.698438)scale(0.1 -0.1)">
       <defs>
        <path d="M 31.78125 66.40625 
Q 24.171875 66.40625 20.328125 58.90625 
Q 16.5 51.421875 16.5 36.375 
Q 16.5 21.390625 20.328125 13.890625 
Q 24.171875 6.390625 31.78125 6.390625 
Q 39.453125 6.390625 43.28125 13.890625 
Q 47.125 21.390625 47.125 36.375 
Q 47.125 51.421875 43.28125 58.90625 
Q 39.453125 66.40625 31.78125 66.40625 
z
M 31.78125 74.21875 
Q 44.046875 74.21875 50.515625 64.515625 
Q 56.984375 54.828125 56.984375 36.375 
Q 56.984375 17.96875 50.515625 8.265625 
Q 44.046875 -1.421875 31.78125 -1.421875 
Q 19.53125 -1.421875 13.0625 8.265625 
Q 6.59375 17.96875 6.59375 36.375 
Q 6.59375 54.828125 13.0625 64.515625 
Q 19.53125 74.21875 31.78125 74.21875 
z
" id="DejaVuSans-48"/>
       </defs>
       <use xlink:href="#DejaVuSans-48"/>
      </g>
     </g>
    </g>
    <g id="text_4">
     <!-- x1 -->
     <g transform="translate(134.129687 171.376563)scale(0.1 -0.1)">
      <defs>
       <path d="M 54.890625 54.6875 
L 35.109375 28.078125 
L 55.90625 0 
L 45.3125 0 
L 29.390625 21.484375 
L 13.484375 0 
L 2.875 0 
L 24.125 28.609375 
L 4.6875 54.6875 
L 15.28125 54.6875 
L 29.78125 35.203125 
L 44.28125 54.6875 
z
" id="DejaVuSans-120"/>
       <path d="M 12.40625 8.296875 
L 28.515625 8.296875 
L 28.515625 63.921875 
L 10.984375 60.40625 
L 10.984375 69.390625 
L 28.421875 72.90625 
L 38.28125 72.90625 
L 38.28125 8.296875 
L 54.390625 8.296875 
L 54.390625 0 
L 12.40625 0 
z
" id="DejaVuSans-49"/>
      </defs>
      <use xlink:href="#DejaVuSans-120"/>
      <use x="59.179688" xlink:href="#DejaVuSans-49"/>
     </g>
    </g>
   </g>
   <g id="matplotlib.axis_2">
    <g id="ytick_1">
     <g id="line2d_4">
      <defs>
       <path d="M 0 0 
L -3.5 0 
" id="m8033e0c014" style="stroke:#000000;stroke-width:0.8;"/>
      </defs>
      <g>
       <use style="stroke:#000000;stroke-width:0.8;" x="42.620312" xlink:href="#m8033e0c014" y="120.784729"/>
      </g>
     </g>
     <g id="text_5">
      <!-- −2 -->
      <g transform="translate(20.878125 124.583948)scale(0.1 -0.1)">
       <use xlink:href="#DejaVuSans-8722"/>
       <use x="83.789062" xlink:href="#DejaVuSans-50"/>
      </g>
     </g>
    </g>
    <g id="ytick_2">
     <g id="line2d_5">
      <g>
       <use style="stroke:#000000;stroke-width:0.8;" x="42.620312" xlink:href="#m8033e0c014" y="76.154187"/>
      </g>
     </g>
     <g id="text_6">
      <!-- 0 -->
      <g transform="translate(29.257812 79.953406)scale(0.1 -0.1)">
       <use xlink:href="#DejaVuSans-48"/>
      </g>
     </g>
    </g>
    <g id="ytick_3">
     <g id="line2d_6">
      <g>
       <use style="stroke:#000000;stroke-width:0.8;" x="42.620312" xlink:href="#m8033e0c014" y="31.523645"/>
      </g>
     </g>
     <g id="text_7">
      <!-- 2 -->
      <g transform="translate(29.257812 35.322864)scale(0.1 -0.1)">
       <use xlink:href="#DejaVuSans-50"/>
      </g>
     </g>
    </g>
    <g id="text_8">
     <!-- x2 -->
     <g transform="translate(14.798437 81.290625)rotate(-90)scale(0.1 -0.1)">
      <use xlink:href="#DejaVuSans-120"/>
      <use x="59.179688" xlink:href="#DejaVuSans-50"/>
     </g>
    </g>
   </g>
   <g id="LineCollection_1">
    <path clip-path="url(#p78a0390223)" d="M 210.456247 76.154187 
" style="fill:none;stroke:#1f77b4;stroke-width:1.5;"/>
   </g>
   <g id="LineCollection_2">
    <path clip-path="url(#p78a0390223)" d="M 237.920312 103.106571 
L 234.868753 103.182443 
L 231.817193 103.249389 
L 228.765619 103.307409 
L 225.71406 103.356502 
L 222.6625 103.39667 
L 219.610941 103.427911 
L 216.559381 103.450227 
L 213.507807 103.463616 
L 210.456247 103.468079 
L 207.404688 103.463616 
L 204.353128 103.450227 
L 201.301569 103.427911 
L 198.249995 103.39667 
L 195.198435 103.356502 
L 192.146876 103.307409 
L 189.095316 103.249389 
L 186.043757 103.182444 
L 182.992182 103.106571 
L 179.940623 103.021774 
L 177.03433 102.932511 
L 176.889063 102.927661 
L 173.837504 102.816085 
L 170.785944 102.694807 
L 167.73437 102.563825 
L 164.682811 102.423143 
L 161.631251 102.272756 
L 158.579684 102.112669 
L 155.528125 101.942879 
L 152.476565 101.763386 
L 149.424998 101.574191 
L 146.373439 101.375295 
L 143.321872 101.166696 
L 140.270312 100.948394 
L 137.218753 100.72039 
L 136.969649 100.700986 
L 134.167186 100.461893 
L 131.115627 100.190923 
L 128.06406 99.909324 
L 125.0125 99.617101 
L 121.960941 99.314251 
L 118.909374 99.000774 
L 115.857814 98.676672 
L 113.968754 98.469458 
L 112.806247 98.328519 
L 109.754688 97.946811 
L 106.703128 97.553357 
L 103.651562 97.148159 
L 100.600002 96.731216 
L 97.548443 96.302528 
L 97.100855 96.237928 
L 94.496876 95.817878 
L 91.445309 95.312502 
L 88.393749 94.794001 
L 85.34219 94.262372 
L 83.908318 94.006403 
L 82.29063 93.679115 
L 79.239056 93.046845 
L 76.187497 92.399703 
L 73.307377 91.774878 
L 73.135937 91.731963 
L 70.084378 90.950928 
L 67.032818 90.152729 
L 64.752163 89.543348 
L 63.981244 89.299909 
L 60.929684 88.31601 
L 57.878125 87.311823 
L 54.826565 86.05969 
L 52.486033 85.080292 
L 51.775006 84.697753 
L 48.723432 83.024097 
L 48.409729 82.848767 
L 45.671872 80.706502 
L 45.55989 80.617242 
L 43.880133 78.385712 
L 43.320214 76.154187 
L 43.880133 73.922657 
L 45.55989 71.691132 
L 45.671872 71.601872 
L 48.409729 69.459607 
L 48.723432 69.284278 
L 51.775006 67.610623 
L 52.486047 67.228077 
L 54.826565 66.248684 
L 57.878125 64.996552 
L 60.929684 63.992365 
L 63.981244 63.008465 
L 64.752179 62.765021 
L 67.032818 62.155645 
L 70.084378 61.357446 
L 73.135937 60.576411 
L 73.307377 60.533496 
L 76.187497 59.908672 
L 79.239056 59.26153 
L 82.29063 58.62926 
L 83.908318 58.301972 
L 85.34219 58.046002 
L 88.393749 57.514373 
L 91.445309 56.995872 
L 94.496876 56.490496 
L 97.100893 56.070441 
" style="fill:none;stroke:#1f77b4;stroke-width:1.5;"/>
   </g>
   <g id="LineCollection_3">
    <path clip-path="url(#p78a0390223)" d="M 237.920312 114.533265 
L 234.868753 114.587459 
L 231.817193 114.635277 
L 228.765619 114.676721 
L 225.71406 114.711787 
L 222.6625 114.740479 
L 219.610941 114.762794 
L 216.559381 114.778732 
L 213.507807 114.788297 
L 210.456247 114.791484 
L 207.404688 114.788297 
L 204.353128 114.778732 
L 201.301569 114.762794 
L 198.249995 114.740479 
L 195.198435 114.711787 
L 192.146876 114.676721 
L 189.095316 114.635278 
L 186.043757 114.587459 
L 182.992182 114.533265 
L 179.940623 114.472695 
L 176.889063 114.405749 
L 173.837504 114.332427 
L 170.785944 114.252729 
L 167.73437 114.166656 
L 165.208907 114.090146 
L 164.682811 114.073242 
L 161.631251 113.968427 
L 158.579684 113.856851 
L 155.528125 113.738513 
L 152.476565 113.613412 
L 149.424998 113.481548 
L 146.373439 113.342924 
L 143.321872 113.197536 
L 140.270312 113.045387 
L 137.218753 112.886476 
L 134.167186 112.720801 
L 131.115627 112.548364 
L 128.06406 112.369166 
L 125.0125 112.183206 
L 121.960941 111.990483 
L 119.943827 111.858621 
L 118.909374 111.786635 
L 115.857814 111.567082 
L 112.806247 111.340329 
L 109.754688 111.106379 
L 106.703128 110.86523 
L 103.651562 110.616884 
L 100.600002 110.361338 
L 97.548443 110.098594 
L 94.496876 109.82865 
L 92.277554 109.627094 
L 91.445309 109.546297 
L 88.393749 109.242348 
L 85.34219 108.930704 
L 82.29063 108.611365 
L 79.239056 108.284329 
L 76.187497 107.949601 
L 73.135937 107.607177 
L 71.291579 107.395566 
L 70.084378 107.246799 
L 67.032818 106.86248 
L 63.981244 106.469895 
L 60.929684 106.069047 
L 57.878125 105.659934 
L 54.826565 105.242557 
L 54.263641 105.164038 
L 51.775006 104.789143 
L 48.723432 104.32052 
L 45.671872 103.842976 
L 42.620312 103.356502 
" style="fill:none;stroke:#1f77b4;stroke-width:1.5;"/>
   </g>
   <g id="LineCollection_4">
    <path clip-path="url(#p78a0390223)" d="M 237.920312 123.273141 
L 234.868753 123.317254 
L 231.817193 123.356176 
L 228.765619 123.389908 
L 225.71406 123.418452 
L 222.6625 123.441805 
L 219.610941 123.459968 
L 216.559381 123.472942 
L 213.507807 123.480725 
L 210.456247 123.483321 
L 207.404688 123.480725 
L 204.353128 123.472942 
L 201.301569 123.459968 
L 198.249995 123.441805 
L 195.198435 123.418452 
L 192.146876 123.389908 
L 189.095316 123.356176 
L 186.043757 123.317254 
L 182.992182 123.273141 
L 179.940623 123.22384 
L 176.889063 123.16935 
L 173.837504 123.10967 
L 170.785944 123.044801 
L 169.542551 123.016254 
L 167.73437 122.972715 
L 164.682811 122.893794 
L 161.631251 122.809434 
L 158.579684 122.719629 
L 155.528125 122.624378 
L 152.476565 122.523688 
L 149.424998 122.417556 
L 146.373439 122.305978 
L 143.321872 122.188959 
L 140.270312 122.066496 
L 137.218753 121.938592 
L 134.167186 121.805245 
L 131.115627 121.666456 
L 128.06406 121.522222 
L 125.0125 121.372545 
L 121.960941 121.217429 
L 118.909374 121.056868 
L 115.857814 120.890862 
L 113.968762 120.784729 
L 112.806247 120.716066 
L 109.754688 120.530107 
L 106.703128 120.338424 
L 103.651562 120.141019 
L 100.600002 119.937894 
L 97.548443 119.729046 
L 94.496876 119.514475 
L 91.445309 119.294183 
L 88.393749 119.06817 
L 85.34219 118.836434 
L 82.29063 118.598978 
L 81.716196 118.553201 
L 79.239056 118.345126 
L 76.187497 118.082771 
L 73.135937 117.814386 
L 70.084378 117.539969 
L 67.032818 117.25952 
L 63.981244 116.97304 
L 60.929684 116.680529 
L 57.878125 116.381987 
L 57.273841 116.321674 
L 54.826565 116.063456 
L 51.775006 115.735104 
L 48.723432 115.400373 
L 45.671872 115.059267 
L 42.620312 114.711786 
" style="fill:none;stroke:#1f77b4;stroke-width:1.5;"/>
   </g>
   <g id="LineCollection_5">
    <path clip-path="url(#p78a0390223)" d="M 237.920312 130.619388 
L 234.868753 130.658098 
L 231.817193 130.692255 
L 228.765619 130.721856 
L 225.71406 130.746905 
L 222.6625 130.767398 
L 219.610941 130.783338 
L 216.559381 130.794723 
L 213.507807 130.801553 
L 210.456247 130.803831 
L 207.404688 130.801553 
L 204.353128 130.794723 
L 201.301569 130.783338 
L 198.249995 130.767398 
L 195.198435 130.746905 
L 192.146876 130.721856 
L 189.095316 130.692255 
L 186.043757 130.658098 
L 182.992182 130.619388 
L 179.940623 130.576123 
L 176.889063 130.528305 
L 173.837504 130.475933 
L 170.785944 130.419007 
L 167.73437 130.357525 
L 164.682811 130.29149 
L 161.631251 130.220903 
L 158.579684 130.145759 
L 155.528125 130.06606 
L 152.476565 129.981809 
L 149.424998 129.893005 
L 146.373439 129.799644 
L 143.605784 129.71084 
L 143.321872 129.701342 
L 140.270312 129.594513 
L 137.218753 129.482937 
L 134.167186 129.366613 
L 131.115627 129.245542 
L 128.06406 129.11972 
L 125.0125 128.989152 
L 121.960941 128.853837 
L 118.909374 128.713773 
L 115.857814 128.568959 
L 112.806247 128.4194 
L 109.754688 128.265093 
L 106.703128 128.106036 
L 103.651562 127.942232 
L 100.600002 127.773682 
L 97.548443 127.600383 
L 95.473374 127.479309 
L 94.496876 127.419802 
L 91.445309 127.228883 
L 88.393749 127.033003 
L 85.34219 126.832168 
L 82.29063 126.626371 
L 79.239056 126.415616 
L 76.187497 126.199902 
L 73.135937 125.979229 
L 70.084378 125.753596 
L 67.032818 125.523006 
L 63.981244 125.287455 
L 63.477901 125.247784 
L 60.929684 125.037605 
L 57.878125 124.78072 
L 54.826565 124.518646 
L 51.775006 124.251382 
L 48.723432 123.978927 
L 45.671872 123.701283 
L 42.620312 123.41845 
" style="fill:none;stroke:#1f77b4;stroke-width:1.5;"/>
   </g>
   <g id="LineCollection_6">
    <path clip-path="url(#p78a0390223)" d="M 237.920312 137.093134 
L 234.868753 137.127621 
L 231.817193 137.158052 
L 228.765619 137.184424 
L 225.71406 137.20674 
L 222.6625 137.224998 
L 219.610941 137.239198 
L 216.559381 137.249342 
L 213.507807 137.255427 
L 210.456247 137.257456 
L 207.404688 137.255427 
L 204.353128 137.249342 
L 201.301569 137.239198 
L 198.249995 137.224998 
L 195.198435 137.20674 
L 192.146876 137.184424 
L 189.095316 137.158052 
L 186.043757 137.127621 
L 182.992182 137.093134 
L 179.940623 137.054589 
L 176.889063 137.011987 
L 173.837504 136.965329 
L 170.785944 136.914613 
L 167.73437 136.859838 
L 164.682811 136.801006 
L 161.631251 136.738119 
L 158.579684 136.671174 
L 155.528125 136.600169 
L 152.476565 136.525109 
L 149.424998 136.445992 
L 147.936483 136.40542 
L 146.373439 136.361209 
L 143.321872 136.270684 
L 140.270312 136.175949 
L 137.218753 136.077004 
L 134.167186 135.973849 
L 131.115627 135.866484 
L 128.06406 135.754907 
L 125.0125 135.63912 
L 121.960941 135.519124 
L 118.909374 135.394917 
L 115.857814 135.266498 
L 112.806247 135.133869 
L 109.754688 134.997031 
L 106.703128 134.855981 
L 103.651562 134.710721 
L 100.600002 134.561253 
L 97.548443 134.407572 
L 94.496876 134.24968 
L 93.070115 134.173889 
L 91.445309 134.084194 
L 88.393749 133.911359 
L 85.34219 133.734151 
L 82.29063 133.552565 
L 79.239056 133.366605 
L 76.187497 133.176269 
L 73.135937 132.981557 
L 70.084378 132.782469 
L 67.032818 132.579007 
L 63.981244 132.371168 
L 60.929684 132.158954 
L 57.878125 131.942365 
L 54.826565 131.712381 
L 51.775006 131.477844 
L 48.723432 131.238751 
L 45.671872 130.995104 
L 42.620312 130.746905 
" style="fill:none;stroke:#1f77b4;stroke-width:1.5;"/>
   </g>
   <g id="LineCollection_7">
    <path clip-path="url(#p78a0390223)" d="M 210.456247 143.1 
L 207.404688 143.09811 
L 204.353128 143.092436 
L 201.301569 143.082978 
L 198.249995 143.069741 
L 195.198435 143.052723 
L 192.146876 143.031921 
L 189.095316 143.007335 
L 186.043757 142.97897 
L 182.992182 142.94682 
L 179.940623 142.910887 
L 176.889063 142.871173 
L 173.837504 142.82768 
L 170.785944 142.780399 
L 167.73437 142.729341 
L 164.682811 142.674496 
L 161.631251 142.615871 
L 158.579684 142.553466 
L 155.528125 142.487276 
L 152.476565 142.417304 
L 149.424998 142.343551 
L 146.373439 142.266014 
L 143.321872 142.184697 
L 140.270312 142.099596 
L 137.218753 142.010711 
L 134.167186 141.918047 
L 131.115627 141.821598 
L 128.06406 141.721369 
L 125.0125 141.617357 
L 121.960941 141.509564 
L 118.909374 141.397988 
L 115.857814 141.282628 
L 112.806247 141.163487 
L 109.754688 141.040563 
L 106.703128 140.913859 
L 105.641795 140.868475 
L 103.651562 140.780385 
L 100.600002 140.641405 
L 97.548443 140.498509 
L 94.496876 140.351697 
L 91.445309 140.200971 
L 88.393749 140.046331 
L 85.34219 139.887775 
L 82.29063 139.725305 
L 79.239056 139.558918 
L 76.187497 139.388618 
L 73.135937 139.214402 
L 70.084378 139.036272 
L 67.032818 138.854225 
L 63.981244 138.668266 
L 63.477871 138.636945 
L 60.929684 138.472624 
L 57.878125 138.271785 
L 54.826565 138.066894 
L 51.775006 137.857941 
L 48.723432 137.644928 
L 45.671872 137.427865 
L 42.620312 137.206738 
" style="fill:none;stroke:#1f77b4;stroke-width:1.5;"/>
    <path clip-path="url(#p78a0390223)" d="M 237.920312 142.94682 
L 234.868753 142.97897 
L 231.817193 143.007335 
L 228.765619 143.031921 
L 225.71406 143.052723 
L 222.6625 143.069741 
L 219.610941 143.082978 
L 216.559381 143.092436 
L 213.507807 143.09811 
L 210.456247 143.1 
" style="fill:none;stroke:#1f77b4;stroke-width:1.5;"/>
   </g>
   <g id="LineCollection_8">
    <path clip-path="url(#p78a0390223)" d="M 43.320206 143.1 
L 42.620312 143.052723 
" style="fill:none;stroke:#1f77b4;stroke-width:1.5;"/>
   </g>
   <g id="LineCollection_9"/>
   <g id="line2d_7">
    <path clip-path="url(#p78a0390223)" d="M 57.878125 120.784729 
L 76.187499 13.671429 
L 96.877093 136.851724 
L 115.67899 21.972709 
L 131.752735 123.288502 
L 145.215593 35.495094 
L 156.410186 111.128565 
L 165.694361 46.098425 
L 173.386832 101.974719 
L 179.758279 53.974517 
L 185.034897 95.205676 
L 189.404614 59.789893 
L 193.023239 90.210253 
L 196.019856 64.080785 
L 198.501378 86.524583 
L 200.556342 67.246582 
L 202.258072 83.805334 
L 203.667286 69.58227 
L 204.834264 81.799106 
L 205.800647 71.30551 
L 206.600915 80.318936 
" style="fill:none;stroke:#ff7f0e;stroke-linecap:square;stroke-width:1.5;"/>
    <defs>
     <path d="M 0 3 
C 0.795609 3 1.55874 2.683901 2.12132 2.12132 
C 2.683901 1.55874 3 0.795609 3 0 
C 3 -0.795609 2.683901 -1.55874 2.12132 -2.12132 
C 1.55874 -2.683901 0.795609 -3 0 -3 
C -0.795609 -3 -1.55874 -2.683901 -2.12132 -2.12132 
C -2.683901 -1.55874 -3 -0.795609 -3 0 
C -3 0.795609 -2.683901 1.55874 -2.12132 2.12132 
C -1.55874 2.683901 -0.795609 3 0 3 
z
" id="m9ed28290af" style="stroke:#ff7f0e;"/>
    </defs>
    <g clip-path="url(#p78a0390223)">
     <use style="fill:#ff7f0e;stroke:#ff7f0e;" x="57.878125" xlink:href="#m9ed28290af" y="120.784729"/>
     <use style="fill:#ff7f0e;stroke:#ff7f0e;" x="76.187499" xlink:href="#m9ed28290af" y="13.671429"/>
     <use style="fill:#ff7f0e;stroke:#ff7f0e;" x="96.877093" xlink:href="#m9ed28290af" y="136.851724"/>
     <use style="fill:#ff7f0e;stroke:#ff7f0e;" x="115.67899" xlink:href="#m9ed28290af" y="21.972709"/>
     <use style="fill:#ff7f0e;stroke:#ff7f0e;" x="131.752735" xlink:href="#m9ed28290af" y="123.288502"/>
     <use style="fill:#ff7f0e;stroke:#ff7f0e;" x="145.215593" xlink:href="#m9ed28290af" y="35.495094"/>
     <use style="fill:#ff7f0e;stroke:#ff7f0e;" x="156.410186" xlink:href="#m9ed28290af" y="111.128565"/>
     <use style="fill:#ff7f0e;stroke:#ff7f0e;" x="165.694361" xlink:href="#m9ed28290af" y="46.098425"/>
     <use style="fill:#ff7f0e;stroke:#ff7f0e;" x="173.386832" xlink:href="#m9ed28290af" y="101.974719"/>
     <use style="fill:#ff7f0e;stroke:#ff7f0e;" x="179.758279" xlink:href="#m9ed28290af" y="53.974517"/>
     <use style="fill:#ff7f0e;stroke:#ff7f0e;" x="185.034897" xlink:href="#m9ed28290af" y="95.205676"/>
     <use style="fill:#ff7f0e;stroke:#ff7f0e;" x="189.404614" xlink:href="#m9ed28290af" y="59.789893"/>
     <use style="fill:#ff7f0e;stroke:#ff7f0e;" x="193.023239" xlink:href="#m9ed28290af" y="90.210253"/>
     <use style="fill:#ff7f0e;stroke:#ff7f0e;" x="196.019856" xlink:href="#m9ed28290af" y="64.080785"/>
     <use style="fill:#ff7f0e;stroke:#ff7f0e;" x="198.501378" xlink:href="#m9ed28290af" y="86.524583"/>
     <use style="fill:#ff7f0e;stroke:#ff7f0e;" x="200.556342" xlink:href="#m9ed28290af" y="67.246582"/>
     <use style="fill:#ff7f0e;stroke:#ff7f0e;" x="202.258072" xlink:href="#m9ed28290af" y="83.805334"/>
     <use style="fill:#ff7f0e;stroke:#ff7f0e;" x="203.667286" xlink:href="#m9ed28290af" y="69.58227"/>
     <use style="fill:#ff7f0e;stroke:#ff7f0e;" x="204.834264" xlink:href="#m9ed28290af" y="81.799106"/>
     <use style="fill:#ff7f0e;stroke:#ff7f0e;" x="205.800647" xlink:href="#m9ed28290af" y="71.30551"/>
     <use style="fill:#ff7f0e;stroke:#ff7f0e;" x="206.600915" xlink:href="#m9ed28290af" y="80.318936"/>
    </g>
   </g>
   <g id="patch_3">
    <path d="M 42.620312 143.1 
L 42.620312 7.2 
" style="fill:none;stroke:#000000;stroke-linecap:square;stroke-linejoin:miter;stroke-width:0.8;"/>
   </g>
   <g id="patch_4">
    <path d="M 237.920313 143.1 
L 237.920313 7.2 
" style="fill:none;stroke:#000000;stroke-linecap:square;stroke-linejoin:miter;stroke-width:0.8;"/>
   </g>
   <g id="patch_5">
    <path d="M 42.620312 143.1 
L 237.920312 143.1 
" style="fill:none;stroke:#000000;stroke-linecap:square;stroke-linejoin:miter;stroke-width:0.8;"/>
   </g>
   <g id="patch_6">
    <path d="M 42.620312 7.2 
L 237.920312 7.2 
" style="fill:none;stroke:#000000;stroke-linecap:square;stroke-linejoin:miter;stroke-width:0.8;"/>
   </g>
  </g>
 </g>
 <defs>
  <clipPath id="p78a0390223">
   <rect height="135.9" width="195.3" x="42.620312" y="7.2"/>
  </clipPath>
 </defs>
</svg>
