<?xml version="1.0" encoding="utf-8" standalone="no"?>
<!DOCTYPE svg PUBLIC "-//W3C//DTD SVG 1.1//EN"
  "http://www.w3.org/Graphics/SVG/1.1/DTD/svg11.dtd">
<!-- Created with matplotlib (https://matplotlib.org/) -->
<svg height="166.978125pt" version="1.1" viewBox="0 0 298.553477 166.978125" width="298.553477pt" xmlns="http://www.w3.org/2000/svg" xmlns:xlink="http://www.w3.org/1999/xlink">
 <metadata>
  <rdf:RDF xmlns:cc="http://creativecommons.org/ns#" xmlns:dc="http://purl.org/dc/elements/1.1/" xmlns:rdf="http://www.w3.org/1999/02/22-rdf-syntax-ns#">
   <cc:Work>
    <dc:type rdf:resource="http://purl.org/dc/dcmitype/StillImage"/>
    <dc:date>2020-08-13T04:28:36.705151</dc:date>
    <dc:format>image/svg+xml</dc:format>
    <dc:creator>
     <cc:Agent>
      <dc:title>Matplotlib v3.3.0, https://matplotlib.org/</dc:title>
     </cc:Agent>
    </dc:creator>
   </cc:Work>
  </rdf:RDF>
 </metadata>
 <defs>
  <style type="text/css">*{stroke-linecap:butt;stroke-linejoin:round;}</style>
 </defs>
 <g id="figure_1">
  <g id="patch_1">
   <path d="M 0 166.978125 
L 298.553477 166.978125 
L 298.553477 0 
L 0 0 
z
" style="fill:none;"/>
  </g>
  <g id="axes_1">
   <g id="patch_2">
    <path d="M 38.482813 143.1 
L 289.582813 143.1 
L 289.582813 7.2 
L 38.482813 7.2 
z
" style="fill:#ffffff;"/>
   </g>
   <g id="matplotlib.axis_1">
    <g id="xtick_1">
     <g id="line2d_1">
      <path clip-path="url(#pf9514a9d6c)" d="M 48.977846 143.1 
L 48.977846 7.2 
" style="fill:none;stroke:#b0b0b0;stroke-linecap:square;stroke-width:0.8;"/>
     </g>
     <g id="line2d_2">
      <defs>
       <path d="M 0 0 
L 0 3.5 
" id="m80115f8db5" style="stroke:#000000;stroke-width:0.8;"/>
      </defs>
      <g>
       <use style="stroke:#000000;stroke-width:0.8;" x="48.977846" xlink:href="#m80115f8db5" y="143.1"/>
      </g>
     </g>
     <g id="text_1">
      <!-- 0 -->
      <g transform="translate(45.796596 157.698438)scale(0.1 -0.1)">
       <defs>
        <path d="M 31.78125 66.40625 
Q 24.171875 66.40625 20.328125 58.90625 
Q 16.5 51.421875 16.5 36.375 
Q 16.5 21.390625 20.328125 13.890625 
Q 24.171875 6.390625 31.78125 6.390625 
Q 39.453125 6.390625 43.28125 13.890625 
Q 47.125 21.390625 47.125 36.375 
Q 47.125 51.421875 43.28125 58.90625 
Q 39.453125 66.40625 31.78125 66.40625 
z
M 31.78125 74.21875 
Q 44.046875 74.21875 50.515625 64.515625 
Q 56.984375 54.828125 56.984375 36.375 
Q 56.984375 17.96875 50.515625 8.265625 
Q 44.046875 -1.421875 31.78125 -1.421875 
Q 19.53125 -1.421875 13.0625 8.265625 
Q 6.59375 17.96875 6.59375 36.375 
Q 6.59375 54.828125 13.0625 64.515625 
Q 19.53125 74.21875 31.78125 74.21875 
z
" id="DejaVuSans-48"/>
       </defs>
       <use xlink:href="#DejaVuSans-48"/>
      </g>
     </g>
    </g>
    <g id="xtick_2">
     <g id="line2d_3">
      <path clip-path="url(#pf9514a9d6c)" d="M 94.907973 143.1 
L 94.907973 7.2 
" style="fill:none;stroke:#b0b0b0;stroke-linecap:square;stroke-width:0.8;"/>
     </g>
     <g id="line2d_4">
      <g>
       <use style="stroke:#000000;stroke-width:0.8;" x="94.907973" xlink:href="#m80115f8db5" y="143.1"/>
      </g>
     </g>
     <g id="text_2">
      <!-- 200 -->
      <g transform="translate(85.364223 157.698438)scale(0.1 -0.1)">
       <defs>
        <path d="M 19.1875 8.296875 
L 53.609375 8.296875 
L 53.609375 0 
L 7.328125 0 
L 7.328125 8.296875 
Q 12.9375 14.109375 22.625 23.890625 
Q 32.328125 33.6875 34.8125 36.53125 
Q 39.546875 41.84375 41.421875 45.53125 
Q 43.3125 49.21875 43.3125 52.78125 
Q 43.3125 58.59375 39.234375 62.25 
Q 35.15625 65.921875 28.609375 65.921875 
Q 23.96875 65.921875 18.8125 64.3125 
Q 13.671875 62.703125 7.8125 59.421875 
L 7.8125 69.390625 
Q 13.765625 71.78125 18.9375 73 
Q 24.125 74.21875 28.421875 74.21875 
Q 39.75 74.21875 46.484375 68.546875 
Q 53.21875 62.890625 53.21875 53.421875 
Q 53.21875 48.921875 51.53125 44.890625 
Q 49.859375 40.875 45.40625 35.40625 
Q 44.1875 33.984375 37.640625 27.21875 
Q 31.109375 20.453125 19.1875 8.296875 
z
" id="DejaVuSans-50"/>
       </defs>
       <use xlink:href="#DejaVuSans-50"/>
       <use x="63.623047" xlink:href="#DejaVuSans-48"/>
       <use x="127.246094" xlink:href="#DejaVuSans-48"/>
      </g>
     </g>
    </g>
    <g id="xtick_3">
     <g id="line2d_5">
      <path clip-path="url(#pf9514a9d6c)" d="M 140.838099 143.1 
L 140.838099 7.2 
" style="fill:none;stroke:#b0b0b0;stroke-linecap:square;stroke-width:0.8;"/>
     </g>
     <g id="line2d_6">
      <g>
       <use style="stroke:#000000;stroke-width:0.8;" x="140.838099" xlink:href="#m80115f8db5" y="143.1"/>
      </g>
     </g>
     <g id="text_3">
      <!-- 400 -->
      <g transform="translate(131.294349 157.698438)scale(0.1 -0.1)">
       <defs>
        <path d="M 37.796875 64.3125 
L 12.890625 25.390625 
L 37.796875 25.390625 
z
M 35.203125 72.90625 
L 47.609375 72.90625 
L 47.609375 25.390625 
L 58.015625 25.390625 
L 58.015625 17.1875 
L 47.609375 17.1875 
L 47.609375 0 
L 37.796875 0 
L 37.796875 17.1875 
L 4.890625 17.1875 
L 4.890625 26.703125 
z
" id="DejaVuSans-52"/>
       </defs>
       <use xlink:href="#DejaVuSans-52"/>
       <use x="63.623047" xlink:href="#DejaVuSans-48"/>
       <use x="127.246094" xlink:href="#DejaVuSans-48"/>
      </g>
     </g>
    </g>
    <g id="xtick_4">
     <g id="line2d_7">
      <path clip-path="url(#pf9514a9d6c)" d="M 186.768225 143.1 
L 186.768225 7.2 
" style="fill:none;stroke:#b0b0b0;stroke-linecap:square;stroke-width:0.8;"/>
     </g>
     <g id="line2d_8">
      <g>
       <use style="stroke:#000000;stroke-width:0.8;" x="186.768225" xlink:href="#m80115f8db5" y="143.1"/>
      </g>
     </g>
     <g id="text_4">
      <!-- 600 -->
      <g transform="translate(177.224475 157.698438)scale(0.1 -0.1)">
       <defs>
        <path d="M 33.015625 40.375 
Q 26.375 40.375 22.484375 35.828125 
Q 18.609375 31.296875 18.609375 23.390625 
Q 18.609375 15.53125 22.484375 10.953125 
Q 26.375 6.390625 33.015625 6.390625 
Q 39.65625 6.390625 43.53125 10.953125 
Q 47.40625 15.53125 47.40625 23.390625 
Q 47.40625 31.296875 43.53125 35.828125 
Q 39.65625 40.375 33.015625 40.375 
z
M 52.59375 71.296875 
L 52.59375 62.3125 
Q 48.875 64.0625 45.09375 64.984375 
Q 41.3125 65.921875 37.59375 65.921875 
Q 27.828125 65.921875 22.671875 59.328125 
Q 17.53125 52.734375 16.796875 39.40625 
Q 19.671875 43.65625 24.015625 45.921875 
Q 28.375 48.1875 33.59375 48.1875 
Q 44.578125 48.1875 50.953125 41.515625 
Q 57.328125 34.859375 57.328125 23.390625 
Q 57.328125 12.15625 50.6875 5.359375 
Q 44.046875 -1.421875 33.015625 -1.421875 
Q 20.359375 -1.421875 13.671875 8.265625 
Q 6.984375 17.96875 6.984375 36.375 
Q 6.984375 53.65625 15.1875 63.9375 
Q 23.390625 74.21875 37.203125 74.21875 
Q 40.921875 74.21875 44.703125 73.484375 
Q 48.484375 72.75 52.59375 71.296875 
z
" id="DejaVuSans-54"/>
       </defs>
       <use xlink:href="#DejaVuSans-54"/>
       <use x="63.623047" xlink:href="#DejaVuSans-48"/>
       <use x="127.246094" xlink:href="#DejaVuSans-48"/>
      </g>
     </g>
    </g>
    <g id="xtick_5">
     <g id="line2d_9">
      <path clip-path="url(#pf9514a9d6c)" d="M 232.698351 143.1 
L 232.698351 7.2 
" style="fill:none;stroke:#b0b0b0;stroke-linecap:square;stroke-width:0.8;"/>
     </g>
     <g id="line2d_10">
      <g>
       <use style="stroke:#000000;stroke-width:0.8;" x="232.698351" xlink:href="#m80115f8db5" y="143.1"/>
      </g>
     </g>
     <g id="text_5">
      <!-- 800 -->
      <g transform="translate(223.154601 157.698438)scale(0.1 -0.1)">
       <defs>
        <path d="M 31.78125 34.625 
Q 24.75 34.625 20.71875 30.859375 
Q 16.703125 27.09375 16.703125 20.515625 
Q 16.703125 13.921875 20.71875 10.15625 
Q 24.75 6.390625 31.78125 6.390625 
Q 38.8125 6.390625 42.859375 10.171875 
Q 46.921875 13.96875 46.921875 20.515625 
Q 46.921875 27.09375 42.890625 30.859375 
Q 38.875 34.625 31.78125 34.625 
z
M 21.921875 38.8125 
Q 15.578125 40.375 12.03125 44.71875 
Q 8.5 49.078125 8.5 55.328125 
Q 8.5 64.0625 14.71875 69.140625 
Q 20.953125 74.21875 31.78125 74.21875 
Q 42.671875 74.21875 48.875 69.140625 
Q 55.078125 64.0625 55.078125 55.328125 
Q 55.078125 49.078125 51.53125 44.71875 
Q 48 40.375 41.703125 38.8125 
Q 48.828125 37.15625 52.796875 32.3125 
Q 56.78125 27.484375 56.78125 20.515625 
Q 56.78125 9.90625 50.3125 4.234375 
Q 43.84375 -1.421875 31.78125 -1.421875 
Q 19.734375 -1.421875 13.25 4.234375 
Q 6.78125 9.90625 6.78125 20.515625 
Q 6.78125 27.484375 10.78125 32.3125 
Q 14.796875 37.15625 21.921875 38.8125 
z
M 18.3125 54.390625 
Q 18.3125 48.734375 21.84375 45.5625 
Q 25.390625 42.390625 31.78125 42.390625 
Q 38.140625 42.390625 41.71875 45.5625 
Q 45.3125 48.734375 45.3125 54.390625 
Q 45.3125 60.0625 41.71875 63.234375 
Q 38.140625 66.40625 31.78125 66.40625 
Q 25.390625 66.40625 21.84375 63.234375 
Q 18.3125 60.0625 18.3125 54.390625 
z
" id="DejaVuSans-56"/>
       </defs>
       <use xlink:href="#DejaVuSans-56"/>
       <use x="63.623047" xlink:href="#DejaVuSans-48"/>
       <use x="127.246094" xlink:href="#DejaVuSans-48"/>
      </g>
     </g>
    </g>
    <g id="xtick_6">
     <g id="line2d_11">
      <path clip-path="url(#pf9514a9d6c)" d="M 278.628477 143.1 
L 278.628477 7.2 
" style="fill:none;stroke:#b0b0b0;stroke-linecap:square;stroke-width:0.8;"/>
     </g>
     <g id="line2d_12">
      <g>
       <use style="stroke:#000000;stroke-width:0.8;" x="278.628477" xlink:href="#m80115f8db5" y="143.1"/>
      </g>
     </g>
     <g id="text_6">
      <!-- 1000 -->
      <g transform="translate(265.903477 157.698438)scale(0.1 -0.1)">
       <defs>
        <path d="M 12.40625 8.296875 
L 28.515625 8.296875 
L 28.515625 63.921875 
L 10.984375 60.40625 
L 10.984375 69.390625 
L 28.421875 72.90625 
L 38.28125 72.90625 
L 38.28125 8.296875 
L 54.390625 8.296875 
L 54.390625 0 
L 12.40625 0 
z
" id="DejaVuSans-49"/>
       </defs>
       <use xlink:href="#DejaVuSans-49"/>
       <use x="63.623047" xlink:href="#DejaVuSans-48"/>
       <use x="127.246094" xlink:href="#DejaVuSans-48"/>
       <use x="190.869141" xlink:href="#DejaVuSans-48"/>
      </g>
     </g>
    </g>
   </g>
   <g id="matplotlib.axis_2">
    <g id="ytick_1">
     <g id="line2d_13">
      <path clip-path="url(#pf9514a9d6c)" d="M 38.482813 129.873686 
L 289.582813 129.873686 
" style="fill:none;stroke:#b0b0b0;stroke-linecap:square;stroke-width:0.8;"/>
     </g>
     <g id="line2d_14">
      <defs>
       <path d="M 0 0 
L -3.5 0 
" id="m492fb4e5a4" style="stroke:#000000;stroke-width:0.8;"/>
      </defs>
      <g>
       <use style="stroke:#000000;stroke-width:0.8;" x="38.482813" xlink:href="#m492fb4e5a4" y="129.873686"/>
      </g>
     </g>
     <g id="text_7">
      <!-- −1.0 -->
      <g transform="translate(7.2 133.672905)scale(0.1 -0.1)">
       <defs>
        <path d="M 10.59375 35.5 
L 73.1875 35.5 
L 73.1875 27.203125 
L 10.59375 27.203125 
z
" id="DejaVuSans-8722"/>
        <path d="M 10.6875 12.40625 
L 21 12.40625 
L 21 0 
L 10.6875 0 
z
" id="DejaVuSans-46"/>
       </defs>
       <use xlink:href="#DejaVuSans-8722"/>
       <use x="83.789062" xlink:href="#DejaVuSans-49"/>
       <use x="147.412109" xlink:href="#DejaVuSans-46"/>
       <use x="179.199219" xlink:href="#DejaVuSans-48"/>
      </g>
     </g>
    </g>
    <g id="ytick_2">
     <g id="line2d_15">
      <path clip-path="url(#pf9514a9d6c)" d="M 38.482813 102.314168 
L 289.582813 102.314168 
" style="fill:none;stroke:#b0b0b0;stroke-linecap:square;stroke-width:0.8;"/>
     </g>
     <g id="line2d_16">
      <g>
       <use style="stroke:#000000;stroke-width:0.8;" x="38.482813" xlink:href="#m492fb4e5a4" y="102.314168"/>
      </g>
     </g>
     <g id="text_8">
      <!-- −0.5 -->
      <g transform="translate(7.2 106.113387)scale(0.1 -0.1)">
       <defs>
        <path d="M 10.796875 72.90625 
L 49.515625 72.90625 
L 49.515625 64.59375 
L 19.828125 64.59375 
L 19.828125 46.734375 
Q 21.96875 47.46875 24.109375 47.828125 
Q 26.265625 48.1875 28.421875 48.1875 
Q 40.625 48.1875 47.75 41.5 
Q 54.890625 34.8125 54.890625 23.390625 
Q 54.890625 11.625 47.5625 5.09375 
Q 40.234375 -1.421875 26.90625 -1.421875 
Q 22.3125 -1.421875 17.546875 -0.640625 
Q 12.796875 0.140625 7.71875 1.703125 
L 7.71875 11.625 
Q 12.109375 9.234375 16.796875 8.0625 
Q 21.484375 6.890625 26.703125 6.890625 
Q 35.15625 6.890625 40.078125 11.328125 
Q 45.015625 15.765625 45.015625 23.390625 
Q 45.015625 31 40.078125 35.4375 
Q 35.15625 39.890625 26.703125 39.890625 
Q 22.75 39.890625 18.8125 39.015625 
Q 14.890625 38.140625 10.796875 36.28125 
z
" id="DejaVuSans-53"/>
       </defs>
       <use xlink:href="#DejaVuSans-8722"/>
       <use x="83.789062" xlink:href="#DejaVuSans-48"/>
       <use x="147.412109" xlink:href="#DejaVuSans-46"/>
       <use x="179.199219" xlink:href="#DejaVuSans-53"/>
      </g>
     </g>
    </g>
    <g id="ytick_3">
     <g id="line2d_17">
      <path clip-path="url(#pf9514a9d6c)" d="M 38.482813 74.754651 
L 289.582813 74.754651 
" style="fill:none;stroke:#b0b0b0;stroke-linecap:square;stroke-width:0.8;"/>
     </g>
     <g id="line2d_18">
      <g>
       <use style="stroke:#000000;stroke-width:0.8;" x="38.482813" xlink:href="#m492fb4e5a4" y="74.754651"/>
      </g>
     </g>
     <g id="text_9">
      <!-- 0.0 -->
      <g transform="translate(15.579688 78.55387)scale(0.1 -0.1)">
       <use xlink:href="#DejaVuSans-48"/>
       <use x="63.623047" xlink:href="#DejaVuSans-46"/>
       <use x="95.410156" xlink:href="#DejaVuSans-48"/>
      </g>
     </g>
    </g>
    <g id="ytick_4">
     <g id="line2d_19">
      <path clip-path="url(#pf9514a9d6c)" d="M 38.482813 47.195133 
L 289.582813 47.195133 
" style="fill:none;stroke:#b0b0b0;stroke-linecap:square;stroke-width:0.8;"/>
     </g>
     <g id="line2d_20">
      <g>
       <use style="stroke:#000000;stroke-width:0.8;" x="38.482813" xlink:href="#m492fb4e5a4" y="47.195133"/>
      </g>
     </g>
     <g id="text_10">
      <!-- 0.5 -->
      <g transform="translate(15.579688 50.994352)scale(0.1 -0.1)">
       <use xlink:href="#DejaVuSans-48"/>
       <use x="63.623047" xlink:href="#DejaVuSans-46"/>
       <use x="95.410156" xlink:href="#DejaVuSans-53"/>
      </g>
     </g>
    </g>
    <g id="ytick_5">
     <g id="line2d_21">
      <path clip-path="url(#pf9514a9d6c)" d="M 38.482813 19.635616 
L 289.582813 19.635616 
" style="fill:none;stroke:#b0b0b0;stroke-linecap:square;stroke-width:0.8;"/>
     </g>
     <g id="line2d_22">
      <g>
       <use style="stroke:#000000;stroke-width:0.8;" x="38.482813" xlink:href="#m492fb4e5a4" y="19.635616"/>
      </g>
     </g>
     <g id="text_11">
      <!-- 1.0 -->
      <g transform="translate(15.579688 23.434834)scale(0.1 -0.1)">
       <use xlink:href="#DejaVuSans-49"/>
       <use x="63.623047" xlink:href="#DejaVuSans-46"/>
       <use x="95.410156" xlink:href="#DejaVuSans-48"/>
      </g>
     </g>
    </g>
   </g>
   <g id="line2d_23">
    <path clip-path="url(#pf9514a9d6c)" d="M 49.896449 60.017278 
L 50.126099 62.659073 
L 50.35575 63.389299 
L 50.585401 63.250787 
L 50.815051 61.601916 
L 51.044702 61.678453 
L 51.274353 62.001602 
L 51.504003 69.363284 
L 51.733654 69.646371 
L 51.963305 76.190224 
L 52.192955 73.164064 
L 52.422606 71.959958 
L 52.652256 81.039259 
L 52.881907 76.041061 
L 53.111558 75.788209 
L 53.341208 70.967017 
L 53.570859 63.277765 
L 53.80051 70.61793 
L 54.259811 62.396136 
L 54.489461 65.609646 
L 54.719112 59.956548 
L 54.948763 62.917937 
L 55.178413 63.470231 
L 55.408064 60.873808 
L 55.637715 61.929268 
L 56.097016 58.328577 
L 56.326667 57.136908 
L 56.556317 53.245522 
L 56.785968 52.306559 
L 57.015618 48.824202 
L 57.47492 61.153842 
L 57.70457 60.868231 
L 58.163872 49.975277 
L 58.393522 50.456824 
L 58.852823 45.766821 
L 59.082474 47.995371 
L 59.312125 53.54691 
L 59.541775 56.306074 
L 59.771426 56.935225 
L 60.230727 62.417458 
L 60.460378 63.427488 
L 60.690029 59.659014 
L 60.919679 48.722484 
L 61.14933 48.099727 
L 61.608631 52.550299 
L 61.838282 54.153662 
L 62.067932 51.579754 
L 62.297583 51.251846 
L 62.527234 50.560185 
L 62.756884 50.891539 
L 62.986535 50.564393 
L 63.216185 49.077729 
L 63.445836 46.394947 
L 63.905137 36.624827 
L 64.134788 39.537954 
L 64.364439 40.037695 
L 64.594089 43.92272 
L 64.82374 44.932821 
L 65.053391 40.707381 
L 65.283041 39.924955 
L 65.512692 36.002016 
L 65.971993 37.162297 
L 66.431294 44.483234 
L 66.660945 41.94101 
L 66.890596 44.129908 
L 67.120246 39.817596 
L 67.349897 41.708861 
L 67.579547 45.577256 
L 67.809198 45.76939 
L 68.038849 47.417905 
L 68.268499 43.256951 
L 68.49815 35.368003 
L 68.727801 36.287855 
L 68.957451 34.190231 
L 69.187102 37.174131 
L 69.416753 37.435513 
L 69.646403 39.262543 
L 69.876054 37.028879 
L 70.105704 32.142912 
L 70.565006 32.195103 
L 71.024307 48.063476 
L 71.253958 46.998268 
L 71.483608 47.747875 
L 71.713259 41.927488 
L 72.17256 37.38739 
L 72.402211 37.302181 
L 72.631861 36.87703 
L 72.861512 33.10688 
L 73.091163 34.412196 
L 73.550464 25.944343 
L 73.780114 32.666039 
L 74.009765 31.187697 
L 74.239416 33.631051 
L 74.469066 32.294006 
L 74.928368 26.377773 
L 75.387669 37.94701 
L 75.61732 34.215765 
L 75.84697 35.726264 
L 76.076621 26.22959 
L 76.306271 27.61108 
L 76.535922 33.201117 
L 76.765573 32.313231 
L 76.995223 36.395207 
L 77.224874 34.482555 
L 77.454525 35.513669 
L 77.684175 30.096809 
L 77.913826 29.480103 
L 78.143476 25.548583 
L 78.373127 27.009296 
L 79.29173 18.93993 
L 79.52138 20.793669 
L 79.751031 28.838553 
L 79.980682 28.298967 
L 80.210332 30.753124 
L 80.669633 26.149027 
L 80.899284 29.196603 
L 81.588236 23.263372 
L 81.817887 21.517826 
L 82.047537 25.004476 
L 82.277188 23.959025 
L 82.506838 26.050913 
L 82.736489 26.724653 
L 82.96614 26.945501 
L 83.425441 33.647143 
L 83.884742 23.279339 
L 84.114393 21.568065 
L 84.344044 15.403506 
L 84.573694 20.583098 
L 84.803345 17.889564 
L 85.032995 17.132665 
L 85.951598 28.831883 
L 86.181249 23.04895 
L 86.410899 21.84002 
L 86.8702 28.082705 
L 87.099851 26.650647 
L 87.329502 28.772885 
L 87.788803 16.463281 
L 88.018454 18.928707 
L 88.248104 17.712345 
L 88.937056 25.564859 
L 89.396357 33.603356 
L 89.626008 36.290161 
L 89.855659 35.686393 
L 90.085309 28.84559 
L 90.544611 25.090303 
L 90.774261 25.22815 
L 91.003912 23.558022 
L 91.233562 23.571334 
L 91.463213 22.540076 
L 91.922514 33.101945 
L 92.152165 29.487455 
L 92.381816 29.185532 
L 92.841117 19.797124 
L 93.070768 17.459846 
L 93.300418 13.377273 
L 93.530069 17.918389 
L 93.759719 19.04236 
L 93.98937 21.070374 
L 94.219021 25.334128 
L 94.448671 25.708021 
L 94.678322 24.945682 
L 94.907973 25.237539 
L 95.137623 29.429311 
L 95.367274 24.561407 
L 95.596924 24.149096 
L 95.826575 31.748053 
L 96.056226 32.64381 
L 96.285876 31.216811 
L 96.515527 36.273163 
L 96.745178 35.357148 
L 96.974828 30.829653 
L 97.204479 33.233261 
L 97.434129 25.965179 
L 97.66378 26.21844 
L 98.123081 32.30216 
L 98.352732 38.828226 
L 98.582383 37.439903 
L 98.812033 34.511939 
L 99.041684 26.028744 
L 99.271335 25.675936 
L 99.500985 26.138928 
L 99.960286 33.672098 
L 100.189937 36.080641 
L 100.419588 34.551173 
L 100.649238 40.007253 
L 100.878889 40.36715 
L 101.10854 39.899881 
L 101.33819 40.769986 
L 101.567841 38.012244 
L 101.797491 37.321354 
L 102.256793 35.227725 
L 102.486443 36.41831 
L 102.716094 32.359325 
L 102.945745 34.881042 
L 103.175395 31.534203 
L 103.405046 34.850107 
L 103.634697 34.292379 
L 103.864347 35.862014 
L 104.093998 34.233729 
L 104.553299 37.928224 
L 105.0126 44.543961 
L 105.242251 44.156493 
L 105.471902 41.470831 
L 105.701552 40.885381 
L 105.931203 39.43756 
L 106.160853 43.789513 
L 106.390504 43.820244 
L 106.620155 44.107627 
L 106.849805 45.949387 
L 107.079456 46.020371 
L 107.309107 44.747902 
L 107.768408 53.96113 
L 107.998059 51.443415 
L 108.227709 54.074718 
L 108.45736 47.386914 
L 108.916661 43.32434 
L 109.146312 44.452562 
L 109.375962 43.179292 
L 109.605613 42.976783 
L 109.835264 44.283978 
L 110.064914 48.181772 
L 110.294565 54.204246 
L 110.524215 52.912942 
L 110.753866 55.130643 
L 110.983517 47.070579 
L 111.213167 47.1157 
L 111.442818 54.564524 
L 111.672469 55.052819 
L 112.13177 48.998888 
L 112.361421 49.076875 
L 112.591071 49.009979 
L 113.050372 53.852891 
L 113.280023 51.185824 
L 113.509674 50.307729 
L 113.739324 47.176321 
L 113.968975 48.020743 
L 114.428276 58.865945 
L 114.657927 62.008219 
L 114.887577 60.583585 
L 115.117228 53.23946 
L 115.346879 52.638422 
L 115.576529 53.778613 
L 115.80618 53.988008 
L 116.035831 53.266962 
L 116.265481 50.921284 
L 116.495132 50.860985 
L 116.724783 53.714785 
L 116.954433 53.505794 
L 117.413734 60.028966 
L 117.643385 71.413577 
L 118.102686 79.63226 
L 118.332337 75.11845 
L 118.561988 73.342904 
L 118.791638 74.503689 
L 119.021289 74.042485 
L 119.48059 68.025736 
L 119.710241 64.684437 
L 119.939891 63.440451 
L 120.169542 64.642629 
L 120.399193 63.124814 
L 121.317795 82.505046 
L 121.547446 83.88734 
L 122.006747 90.876079 
L 122.236398 77.007995 
L 122.466048 72.83504 
L 122.695699 80.59595 
L 123.155 90.078529 
L 123.614301 87.124096 
L 123.843952 76.367575 
L 124.303253 67.835415 
L 124.532904 67.836848 
L 124.762555 72.11786 
L 124.992205 72.623645 
L 125.221856 72.259158 
L 125.451506 81.74396 
L 126.140458 92.893286 
L 126.370109 94.065645 
L 126.59976 93.733697 
L 126.82941 92.770422 
L 127.288712 94.850693 
L 127.518362 93.897325 
L 127.748013 91.480548 
L 127.977663 90.802057 
L 128.207314 89.455776 
L 128.436965 91.893403 
L 128.896266 99.951413 
L 129.125917 100.099566 
L 129.355567 92.800631 
L 129.585218 92.808378 
L 129.814868 94.606614 
L 130.044519 97.991935 
L 130.27417 103.082677 
L 130.50382 104.190852 
L 130.733471 103.423634 
L 130.963122 99.433351 
L 131.192772 102.41741 
L 131.422423 103.579909 
L 131.652074 102.109177 
L 131.881724 103.083643 
L 132.111375 95.127467 
L 132.341025 96.45665 
L 132.570676 95.387687 
L 132.800327 101.235874 
L 133.029977 103.170406 
L 133.489279 110.986081 
L 133.718929 121.127281 
L 133.94858 109.595615 
L 134.17823 110.211218 
L 134.407881 103.535681 
L 134.637532 102.338092 
L 134.867182 107.47455 
L 135.096833 101.159078 
L 135.326484 109.874009 
L 135.556134 109.728823 
L 135.785785 115.67398 
L 136.015436 117.624086 
L 136.245086 116.291199 
L 136.474737 109.253854 
L 136.704387 108.464752 
L 136.934038 106.870943 
L 137.163689 106.954013 
L 137.393339 108.381665 
L 137.852641 118.614382 
L 138.082291 118.51414 
L 138.311942 117.923979 
L 138.541592 116.234869 
L 139.000894 108.777238 
L 139.460195 118.549865 
L 139.919496 116.731121 
L 140.149147 113.75529 
L 140.378798 118.648662 
L 140.608448 119.997784 
L 140.838099 120.133233 
L 141.067749 123.021049 
L 141.2974 121.204493 
L 141.527051 115.471498 
L 141.756701 118.937135 
L 141.986352 113.591436 
L 142.216003 114.72728 
L 142.445653 117.503572 
L 142.675304 117.280852 
L 142.904954 119.951034 
L 143.134605 119.467726 
L 143.364256 119.313222 
L 143.593906 121.000683 
L 143.823557 114.633339 
L 144.053208 115.706591 
L 144.282858 115.740548 
L 144.742159 126.236717 
L 144.97181 126.582231 
L 145.201461 123.960765 
L 145.431111 127.060953 
L 145.660762 121.844775 
L 145.890413 125.672084 
L 146.120063 121.133425 
L 146.349714 119.620757 
L 146.579365 116.965268 
L 146.809015 123.748452 
L 147.038666 124.537245 
L 147.268316 127.561279 
L 147.497967 126.228241 
L 147.727618 125.863456 
L 147.957268 116.259292 
L 148.186919 120.873895 
L 148.41657 113.590976 
L 148.875871 126.654798 
L 149.105521 125.01322 
L 149.335172 129.202817 
L 149.794473 123.475078 
L 150.024124 125.162506 
L 150.253775 126.023354 
L 150.483425 124.44082 
L 150.713076 124.682773 
L 150.942727 124.400456 
L 151.172377 125.949394 
L 151.631678 117.984259 
L 151.861329 117.571369 
L 152.09098 120.82133 
L 152.32063 120.643776 
L 152.550281 121.19831 
L 153.009582 126.428102 
L 153.239233 127.65817 
L 153.468883 122.809703 
L 153.928185 120.36209 
L 154.157835 125.372315 
L 154.387486 124.654499 
L 154.617137 129.19074 
L 154.846787 122.960434 
L 155.076438 125.110847 
L 155.306089 122.21326 
L 155.76539 133.023404 
L 155.99504 129.102614 
L 156.224691 133.146447 
L 156.454342 130.738232 
L 156.683992 135.770502 
L 156.913643 136.922727 
L 157.372944 128.827624 
L 157.602595 129.302265 
L 157.832245 128.548507 
L 158.061896 135.305047 
L 158.750848 131.309693 
L 158.980499 130.419757 
L 159.210149 125.54109 
L 159.4398 125.85883 
L 159.669451 124.298998 
L 159.899101 128.231878 
L 160.128752 125.592624 
L 160.358402 128.67906 
L 160.588053 123.633071 
L 160.817704 129.208829 
L 161.047354 127.963471 
L 161.277005 134.467513 
L 161.506656 133.948802 
L 161.736306 125.479017 
L 161.965957 126.83929 
L 162.195607 123.646784 
L 162.425258 131.806727 
L 162.654909 130.686081 
L 162.884559 130.157691 
L 163.11421 130.293468 
L 163.343861 125.968488 
L 163.573511 126.427544 
L 163.803162 124.21396 
L 164.262463 128.933392 
L 164.492114 124.105931 
L 164.721764 122.62136 
L 164.951415 123.186769 
L 165.181066 128.730351 
L 165.410716 124.730601 
L 165.640367 126.594229 
L 165.870018 117.896362 
L 166.099668 121.490273 
L 166.329319 121.523429 
L 166.558969 121.152099 
L 166.78862 124.793634 
L 167.018271 121.795285 
L 167.247921 127.825874 
L 167.477572 127.840954 
L 167.707223 127.35147 
L 167.936873 129.447648 
L 168.166524 125.790554 
L 168.396174 128.173885 
L 168.625825 126.618515 
L 168.855476 132.163693 
L 169.085126 128.341136 
L 169.314777 133.523842 
L 169.544428 123.388995 
L 169.774078 131.566535 
L 170.003729 121.039214 
L 170.23338 120.631883 
L 170.692681 112.803872 
L 171.151982 125.173834 
L 171.381633 121.606246 
L 171.611283 122.549299 
L 171.840934 117.433286 
L 172.070585 125.270424 
L 172.300235 122.814611 
L 172.529886 123.341929 
L 172.759536 123.38454 
L 173.218838 117.207635 
L 173.90779 110.813101 
L 174.13744 116.090668 
L 174.367091 116.539296 
L 174.596742 121.624204 
L 174.826392 120.721376 
L 175.285693 117.168979 
L 175.515344 114.035103 
L 175.744995 115.370795 
L 175.974645 117.577578 
L 176.204296 118.674622 
L 176.433947 115.218013 
L 176.663597 116.448311 
L 176.893248 111.361031 
L 177.122898 112.715384 
L 177.352549 112.291114 
L 177.5822 106.974767 
L 177.81185 109.272698 
L 178.041501 109.967971 
L 178.271152 108.828256 
L 178.500802 110.339274 
L 178.730453 109.441815 
L 178.960104 117.595339 
L 179.189754 119.987337 
L 179.419405 112.221741 
L 179.649055 111.319938 
L 179.878706 99.623325 
L 180.108357 96.656174 
L 180.338007 97.474509 
L 180.567658 110.560549 
L 181.026959 115.426482 
L 181.715911 98.802069 
L 181.945562 98.78402 
L 182.175212 101.4128 
L 182.404863 109.014315 
L 182.634514 111.934621 
L 182.864164 112.173104 
L 183.323466 107.855894 
L 183.782767 103.121182 
L 184.012417 98.937845 
L 184.242068 102.607741 
L 184.471719 101.053491 
L 184.701369 98.393824 
L 184.93102 98.986542 
L 185.160671 92.86755 
L 185.390321 94.469137 
L 185.619972 94.282656 
L 185.849622 95.028601 
L 186.308924 99.321989 
L 186.538574 99.874533 
L 186.768225 94.963257 
L 186.997876 95.478497 
L 187.227526 85.533473 
L 187.457177 85.639632 
L 187.686827 77.7161 
L 187.916478 74.045483 
L 188.60543 87.375169 
L 189.064731 79.978466 
L 189.294382 89.492198 
L 189.524033 90.375809 
L 189.753683 89.607141 
L 189.983334 85.734584 
L 190.212984 95.083614 
L 190.442635 94.688561 
L 190.672286 89.532228 
L 190.901936 78.227661 
L 191.131587 80.000213 
L 191.590888 86.390639 
L 191.820539 83.742901 
L 192.050189 75.983677 
L 192.27984 72.58453 
L 192.509491 72.303949 
L 192.739141 73.930892 
L 192.968792 74.744794 
L 193.428093 63.014789 
L 193.657744 64.679714 
L 193.887395 72.632068 
L 194.117045 85.7771 
L 194.346696 83.496998 
L 194.576346 87.560653 
L 194.805997 76.195567 
L 195.035648 70.443701 
L 195.265298 70.737359 
L 195.494949 74.623036 
L 195.95425 91.624577 
L 196.413551 79.258125 
L 196.872853 66.790606 
L 197.332154 64.181539 
L 197.561805 72.373361 
L 197.791455 71.979352 
L 198.021106 68.70964 
L 198.250757 61.771941 
L 198.480407 65.072682 
L 198.939708 67.575914 
L 199.39901 63.901722 
L 199.62866 65.827838 
L 200.087962 60.946774 
L 200.317612 56.376752 
L 200.547263 55.296583 
L 200.776913 58.236229 
L 201.006564 58.008115 
L 201.465865 54.624975 
L 201.695516 56.331859 
L 201.925167 54.670707 
L 202.154817 58.387902 
L 202.384468 57.156521 
L 202.614119 58.476983 
L 202.843769 56.705357 
L 203.07342 57.918461 
L 203.30307 54.46577 
L 203.532721 57.560033 
L 203.762372 54.29297 
L 203.992022 56.672578 
L 204.221673 54.955422 
L 204.451324 54.473201 
L 204.680974 51.038509 
L 204.910625 50.875647 
L 205.140275 56.429289 
L 205.369926 52.889157 
L 205.599577 53.737037 
L 206.058878 43.974208 
L 206.288529 38.468447 
L 206.518179 39.349053 
L 207.207131 45.599662 
L 207.436782 43.503608 
L 207.666432 42.594604 
L 207.896083 42.624212 
L 208.125734 41.879962 
L 208.585035 47.801417 
L 208.814686 43.188477 
L 209.044336 45.020487 
L 209.273987 40.608584 
L 209.503637 40.0068 
L 209.733288 42.506748 
L 209.962939 38.560003 
L 210.192589 36.88889 
L 210.42224 36.362886 
L 210.881541 53.420578 
L 211.111192 49.068317 
L 211.340842 51.077075 
L 211.570493 36.844696 
L 211.800144 31.917958 
L 212.259445 37.034228 
L 212.489096 41.543417 
L 212.948397 46.608357 
L 213.407698 34.100745 
L 213.637349 36.132458 
L 213.866999 32.185431 
L 214.09665 33.791665 
L 214.326301 37.094165 
L 214.555951 36.758087 
L 214.785602 39.256688 
L 215.244903 32.866327 
L 215.474554 34.726328 
L 215.704204 32.016545 
L 216.393156 37.212484 
L 216.622807 37.647149 
L 216.852458 36.52212 
L 217.082108 37.914925 
L 217.311759 36.305136 
L 217.54141 38.565247 
L 217.77106 39.042385 
L 218.000711 33.911587 
L 218.230361 34.838464 
L 218.460012 29.226447 
L 218.689663 28.815246 
L 218.919313 27.855582 
L 219.148964 29.073574 
L 219.378615 28.866229 
L 219.837916 37.649324 
L 220.067566 40.19737 
L 220.297217 40.625004 
L 220.986169 24.70819 
L 221.21582 24.473833 
L 221.44547 25.565194 
L 221.675121 32.255554 
L 221.904772 35.315825 
L 222.134422 35.767942 
L 222.364073 34.590157 
L 223.053025 25.964002 
L 223.282675 26.072458 
L 223.512326 25.860159 
L 223.741977 17.839817 
L 223.971627 23.947375 
L 224.201278 18.536416 
L 224.430928 16.059111 
L 224.660579 21.126501 
L 224.89023 16.577112 
L 225.11988 22.059173 
L 225.349531 22.24632 
L 225.579182 26.46927 
L 225.808832 25.309672 
L 226.038483 23.234553 
L 226.268134 24.472782 
L 226.497784 20.312142 
L 226.727435 26.036379 
L 226.957085 24.903077 
L 227.186736 29.165425 
L 227.416387 27.396777 
L 227.646037 31.095825 
L 227.875688 26.65503 
L 228.105339 28.898471 
L 228.334989 25.471988 
L 228.79429 31.246044 
L 229.253592 28.494379 
L 229.712893 23.400844 
L 230.401845 27.207652 
L 230.631496 32.099677 
L 230.861146 29.441743 
L 231.090797 30.715276 
L 231.550098 21.625631 
L 231.779749 27.324624 
L 232.009399 25.546296 
L 232.23905 28.386508 
L 232.468701 29.63253 
L 232.698351 28.867615 
L 232.928002 29.202629 
L 233.157652 29.89752 
L 233.387303 27.127713 
L 233.616954 26.414017 
L 233.846604 26.545496 
L 234.076255 27.234165 
L 234.305906 21.37306 
L 234.535556 23.967009 
L 234.765207 24.007451 
L 235.224508 29.706273 
L 235.454159 30.995609 
L 235.683809 27.511284 
L 235.91346 27.370008 
L 236.143111 27.509714 
L 236.372761 23.920593 
L 237.291364 33.272909 
L 237.521014 32.038951 
L 237.750665 31.789685 
L 237.980316 29.994806 
L 238.209966 32.189131 
L 238.439617 27.615588 
L 238.669268 29.894129 
L 238.898918 30.128861 
L 239.128569 36.795803 
L 239.358219 38.304022 
L 239.58787 33.491463 
L 239.817521 32.129074 
L 240.047171 21.410014 
L 240.276822 22.590427 
L 240.506473 22.491249 
L 240.736123 24.047835 
L 240.965774 27.617178 
L 241.195425 26.75936 
L 241.425075 30.530955 
L 241.654726 28.433699 
L 241.884376 34.970081 
L 242.114027 33.874496 
L 242.343678 28.872221 
L 242.573328 30.487812 
L 242.802979 25.484663 
L 243.03263 32.566532 
L 243.26228 34.459071 
L 243.491931 33.600859 
L 243.721581 34.408575 
L 243.951232 31.382735 
L 244.410533 37.030561 
L 244.640184 34.224852 
L 244.869835 36.334113 
L 245.099485 33.567381 
L 245.329136 34.15402 
L 245.558787 36.32013 
L 245.788437 30.723516 
L 246.018088 29.434923 
L 246.247738 26.896641 
L 246.477389 27.103664 
L 246.70704 34.107381 
L 247.395992 42.335646 
L 247.625642 42.916148 
L 247.855293 41.484813 
L 248.084943 37.80208 
L 248.314594 39.344072 
L 248.544245 37.048322 
L 248.773895 40.196607 
L 249.003546 45.185708 
L 249.233197 44.427239 
L 249.462847 46.029359 
L 249.692498 36.989534 
L 250.151799 30.800958 
L 250.6111 36.123535 
L 250.840751 41.621319 
L 251.070402 39.64499 
L 251.300052 39.8164 
L 251.529703 38.879878 
L 251.759354 36.16932 
L 251.989004 40.381678 
L 252.218655 41.403047 
L 252.448305 39.61533 
L 252.677956 41.869271 
L 252.907607 39.00982 
L 253.137257 34.374809 
L 253.366908 38.342947 
L 253.596559 39.941493 
L 254.515161 51.213969 
L 254.744812 50.274379 
L 254.974462 55.371334 
L 255.204113 57.749828 
L 255.433764 57.392797 
L 255.893065 45.853094 
L 256.352366 52.716722 
L 256.582017 53.988737 
L 256.811667 53.598336 
L 257.041318 56.30543 
L 257.270969 60.770367 
L 257.500619 59.274515 
L 257.73027 60.183389 
L 257.959921 56.561204 
L 258.419222 60.620784 
L 258.648872 58.332235 
L 258.878523 59.810574 
L 259.108174 57.923669 
L 259.337824 53.866538 
L 259.567475 58.615493 
L 259.797126 65.990934 
L 260.026776 67.07545 
L 260.256427 65.905084 
L 260.486078 58.568355 
L 260.715728 63.053972 
L 260.945379 61.136962 
L 261.175029 63.202935 
L 261.40468 60.286002 
L 261.634331 61.685518 
L 261.863981 61.384712 
L 262.552933 78.241371 
L 262.782584 77.064954 
L 263.471536 63.538214 
L 263.701186 65.261049 
L 264.160488 72.754331 
L 264.390138 72.769874 
L 264.619789 71.601435 
L 265.07909 77.983575 
L 265.308741 76.362064 
L 265.538391 70.817159 
L 265.768042 70.862244 
L 265.997693 76.803572 
L 266.227343 77.800868 
L 266.686645 69.068468 
L 266.916295 71.538147 
L 267.375596 85.760529 
L 267.605247 82.729576 
L 267.834898 77.76897 
L 268.064548 77.669175 
L 268.52385 86.261492 
L 268.7535 89.362548 
L 269.442452 92.611924 
L 269.672103 94.410688 
L 269.901753 85.658601 
L 270.131404 82.882734 
L 270.590705 69.948664 
L 270.820356 69.194974 
L 271.050007 67.191621 
L 271.509308 93.049238 
L 271.738958 100.213793 
L 271.738958 100.213793 
" style="fill:none;stroke:#1f77b4;stroke-linecap:square;stroke-width:1.5;"/>
   </g>
   <g id="line2d_24">
    <path clip-path="url(#pf9514a9d6c)" d="M 50.815051 60.111387 
L 51.044702 60.275663 
L 51.274353 61.406761 
L 51.504003 59.810403 
L 51.733654 60.385589 
L 51.963305 57.849957 
L 52.422606 72.368115 
L 52.652256 69.755887 
L 52.881907 74.914217 
L 53.111558 73.413934 
L 53.341208 73.617402 
L 53.570859 91.792186 
L 53.80051 76.849594 
L 54.03016 69.383783 
L 54.259811 70.345044 
L 54.489461 61.440594 
L 54.719112 65.979826 
L 54.948763 61.830384 
L 55.178413 59.90533 
L 55.408064 61.99066 
L 55.637715 58.866385 
L 55.867365 60.850436 
L 56.097016 60.186286 
L 56.326667 58.686764 
L 56.556317 59.408031 
L 56.785968 57.100575 
L 57.245269 54.210048 
L 57.47492 51.600024 
L 57.70457 50.478166 
L 57.934221 47.156793 
L 58.163872 60.628793 
L 58.393522 60.130329 
L 58.852823 50.848599 
L 59.082474 51.050655 
L 59.312125 49.624543 
L 59.541775 45.172238 
L 59.771426 45.238477 
L 60.230727 55.239132 
L 60.460378 54.523112 
L 60.690029 54.572797 
L 60.919679 61.582066 
L 61.14933 61.334633 
L 61.37898 59.051562 
L 61.838282 45.442537 
L 62.067932 49.807655 
L 62.297583 50.751195 
L 62.527234 52.542385 
L 62.756884 51.136678 
L 62.986535 50.950241 
L 63.216185 49.106729 
L 63.445836 50.83598 
L 63.675487 48.838556 
L 63.905137 50.858757 
L 64.134788 46.613955 
L 64.364439 45.814879 
L 64.82374 37.784989 
L 65.053391 43.410265 
L 65.283041 42.900595 
L 65.512692 43.980385 
L 65.742342 44.32007 
L 65.971993 42.764569 
L 66.431294 37.152533 
L 66.660945 40.545216 
L 66.890596 40.675073 
L 67.349897 45.208692 
L 67.579547 43.352469 
L 67.809198 43.637309 
L 68.038849 40.410004 
L 68.49815 46.550495 
L 68.727801 46.87037 
L 68.957451 45.955814 
L 69.187102 42.675628 
L 69.416753 36.664231 
L 69.646403 38.840664 
L 69.876054 38.199489 
L 70.105704 40.656911 
L 70.335355 39.314267 
L 70.565006 41.670409 
L 70.794656 39.050375 
L 71.024307 34.225437 
L 71.253958 35.395744 
L 71.483608 38.959686 
L 71.942909 49.982949 
L 72.17256 45.74015 
L 72.402211 44.755931 
L 72.631861 41.689457 
L 72.861512 41.195788 
L 73.091163 39.152306 
L 73.320813 39.036235 
L 73.550464 40.241367 
L 74.009765 35.541213 
L 74.239416 35.271893 
L 74.469066 32.64241 
L 74.698717 36.834058 
L 74.928368 36.004198 
L 75.158018 37.618619 
L 75.387669 35.988316 
L 75.84697 31.081639 
L 76.076621 40.18344 
L 76.306271 42.231514 
L 76.535922 36.645511 
L 76.765573 34.252337 
L 76.995223 33.179762 
L 77.454525 37.261613 
L 77.684175 36.605627 
L 77.913826 39.988001 
L 78.143476 37.815523 
L 78.373127 37.348544 
L 78.602778 33.950039 
L 78.832428 33.864232 
L 79.062079 31.797287 
L 79.29173 32.542529 
L 79.52138 31.418913 
L 79.751031 28.403139 
L 79.980682 27.071711 
L 80.210332 28.018602 
L 80.439983 30.216067 
L 80.669633 35.813424 
L 80.899284 34.35003 
L 81.128935 33.643851 
L 81.358585 33.861085 
L 81.588236 33.319922 
L 81.817887 33.811246 
L 82.506838 29.524987 
L 82.736489 29.432873 
L 82.96614 32.506239 
L 83.425441 31.035414 
L 84.114393 35.756548 
L 84.344044 37.034241 
L 84.803345 27.34042 
L 85.032995 27.935968 
L 85.262646 26.995846 
L 85.492297 28.37108 
L 85.721947 25.767676 
L 85.951598 25.5159 
L 86.410899 33.593165 
L 86.64055 32.630859 
L 86.8702 32.201339 
L 87.099851 30.129255 
L 87.329502 29.159216 
L 87.559152 31.603017 
L 87.788803 35.925717 
L 88.707406 26.085988 
L 88.937056 26.197551 
L 89.166707 27.067387 
L 89.626008 31.574461 
L 89.855659 31.729707 
L 90.31496 39.626192 
L 90.544611 39.898488 
L 90.774261 36.747482 
L 91.003912 31.788673 
L 91.233562 32.273971 
L 91.463213 33.189474 
L 91.692864 31.461136 
L 91.922514 28.186384 
L 92.381816 32.504393 
L 92.611466 33.22901 
L 92.841117 37.238169 
L 93.300418 32.627764 
L 93.530069 28.328587 
L 93.98937 26.742072 
L 94.219021 22.792864 
L 94.448671 25.656954 
L 94.678322 30.941479 
L 94.907973 31.027588 
L 95.137623 28.975006 
L 95.596924 34.44934 
L 95.826575 31.459283 
L 96.285876 32.482611 
L 96.515527 32.154168 
L 96.974828 38.168147 
L 97.204479 36.296824 
L 97.66378 39.346194 
L 98.352732 31.267182 
L 98.582383 32.97703 
L 99.271335 42.317249 
L 99.500985 39.719995 
L 99.960286 29.779983 
L 100.649238 36.37336 
L 100.878889 36.997786 
L 101.10854 40.167545 
L 101.33819 38.21125 
L 101.567841 42.106756 
L 101.797491 41.60325 
L 102.027142 42.132888 
L 102.256793 41.614512 
L 102.486443 39.693896 
L 102.716094 39.066624 
L 102.945745 39.367293 
L 103.175395 38.620349 
L 103.405046 38.615749 
L 103.634697 35.905092 
L 103.864347 38.335161 
L 104.093998 35.749537 
L 104.323648 38.209903 
L 104.553299 37.744087 
L 104.78295 39.626842 
L 105.0126 37.160766 
L 105.242251 38.329943 
L 105.701552 45.404545 
L 105.931203 44.804476 
L 106.160853 42.671882 
L 106.390504 42.349557 
L 106.620155 43.130117 
L 106.849805 41.086504 
L 107.079456 44.885598 
L 107.309107 44.224454 
L 107.538757 45.232511 
L 107.768408 45.157703 
L 107.998059 47.237841 
L 108.227709 44.023088 
L 108.45736 51.194767 
L 108.68701 54.205409 
L 109.835264 43.59408 
L 110.064914 44.892457 
L 110.524215 42.830696 
L 110.753866 45.755388 
L 111.213167 56.062493 
L 111.442818 49.243512 
L 111.672469 47.98627 
L 111.902119 47.409665 
L 112.361421 53.671001 
L 112.591071 53.385524 
L 112.820722 48.781345 
L 113.050372 46.913572 
L 113.280023 49.2993 
L 113.509674 49.359406 
L 113.739324 51.438037 
L 113.968975 52.144929 
L 114.657927 45.751386 
L 114.887577 48.707349 
L 115.117228 56.59951 
L 115.346879 59.864723 
L 115.576529 59.301279 
L 116.035831 50.186611 
L 116.495132 54.074133 
L 116.954433 50.468527 
L 117.184084 49.297158 
L 117.413734 52.230286 
L 117.643385 52.054043 
L 117.873036 52.610253 
L 118.102686 54.429776 
L 118.791638 83.360502 
L 119.021289 80.746037 
L 119.250939 74.19294 
L 119.48059 73.688356 
L 119.710241 74.650331 
L 119.939891 72.057579 
L 120.169542 66.823961 
L 120.399193 65.906423 
L 120.628843 61.13277 
L 120.858494 60.021478 
L 121.088144 63.059959 
L 121.317795 62.577146 
L 122.006747 85.988385 
L 122.236398 88.496559 
L 122.466048 101.692148 
L 122.695699 95.797386 
L 122.92535 93.251023 
L 123.155 71.994369 
L 123.614301 89.162861 
L 123.843952 97.888934 
L 124.073603 97.738243 
L 124.303253 95.284142 
L 124.532904 94.360617 
L 124.762555 74.426371 
L 124.992205 65.980547 
L 125.221856 69.240178 
L 125.451506 67.904248 
L 125.681157 69.407781 
L 125.910808 72.367292 
L 126.140458 79.475543 
L 126.370109 91.373448 
L 126.82941 98.559859 
L 127.059061 105.067354 
L 127.518362 100.219031 
L 127.977663 104.451197 
L 128.666615 98.956152 
L 128.896266 101.777514 
L 129.125917 96.557055 
L 129.585218 109.04387 
L 129.814868 106.354995 
L 130.044519 105.961564 
L 130.27417 99.666935 
L 130.50382 103.455368 
L 130.733471 103.53489 
L 130.963122 106.815933 
L 131.192772 111.887082 
L 131.881724 106.205732 
L 132.111375 109.997572 
L 132.341025 110.301631 
L 132.570676 108.105886 
L 132.800327 109.128787 
L 133.029977 102.391118 
L 133.259628 103.324995 
L 133.489279 107.203381 
L 133.718929 108.74353 
L 133.94858 109.060484 
L 134.407881 116.082041 
L 134.637532 123.149224 
L 134.867182 110.618437 
L 135.096833 111.124992 
L 135.326484 111.934903 
L 135.556134 108.011452 
L 135.785785 111.213053 
L 136.015436 107.948456 
L 136.474737 117.692007 
L 136.934038 119.134269 
L 137.163689 118.706641 
L 137.393339 112.267433 
L 137.62299 112.130014 
L 138.082291 112.250711 
L 138.311942 113.130863 
L 138.771243 122.370661 
L 139.000894 119.745377 
L 139.460195 118.400066 
L 139.919496 112.523848 
L 140.378798 123.619108 
L 140.608448 117.775586 
L 140.838099 116.708787 
L 141.067749 118.240095 
L 141.2974 121.173637 
L 141.527051 121.337879 
L 141.756701 121.164208 
L 141.986352 123.748636 
L 142.216003 122.117046 
L 142.445653 116.431602 
L 142.675304 119.442389 
L 142.904954 117.670869 
L 143.134605 116.945023 
L 143.364256 119.784118 
L 143.593906 119.920151 
L 143.823557 121.348057 
L 144.053208 120.847507 
L 144.282858 120.677004 
L 144.512509 122.187773 
L 144.742159 116.208711 
L 144.97181 117.132689 
L 145.660762 125.497796 
L 145.890413 126.883143 
L 146.120063 122.555009 
L 146.349714 124.751647 
L 146.579365 123.676805 
L 146.809015 125.015408 
L 147.038666 121.046126 
L 147.268316 120.537199 
L 147.497967 118.889281 
L 147.957268 126.939809 
L 148.41657 124.634833 
L 148.64622 125.995198 
L 148.875871 115.761798 
L 149.105521 119.127883 
L 149.564823 121.215769 
L 149.794473 125.333456 
L 150.024124 126.794163 
L 150.253775 127.119563 
L 150.483425 124.443258 
L 150.713076 123.291545 
L 150.942727 125.131966 
L 151.172377 125.627817 
L 151.402028 123.876554 
L 151.631678 124.330071 
L 151.861329 124.400213 
L 152.09098 125.477611 
L 152.32063 121.108141 
L 152.550281 118.959811 
L 152.779932 119.467003 
L 153.009582 122.868018 
L 153.239233 121.83762 
L 153.468883 121.787361 
L 153.928185 126.867373 
L 154.157835 126.071215 
L 154.387486 122.024215 
L 154.617137 122.0987 
L 154.846787 121.645158 
L 155.076438 125.147354 
L 155.306089 124.986569 
L 155.535739 127.312709 
L 155.76539 121.684286 
L 156.454342 126.959357 
L 156.683992 130.188127 
L 156.913643 126.058671 
L 157.372944 131.103202 
L 157.602595 130.85088 
L 157.832245 131.191854 
L 158.061896 130.201327 
L 158.291547 125.653876 
L 158.521197 126.400558 
L 158.980499 132.019151 
L 159.210149 129.3706 
L 159.4398 128.350578 
L 159.669451 129.446367 
L 159.899101 127.791102 
L 160.128752 123.814783 
L 160.588053 125.138162 
L 160.817704 126.992295 
L 161.047354 124.489897 
L 161.277005 126.498106 
L 161.506656 122.933521 
L 161.965957 129.628553 
L 162.195607 130.291628 
L 162.425258 129.529953 
L 162.654909 122.918829 
L 163.11421 125.898155 
L 163.343861 129.508322 
L 163.573511 127.971928 
L 163.803162 127.684223 
L 164.032813 128.619536 
L 164.262463 123.947367 
L 164.951415 125.447412 
L 165.181066 127.119504 
L 165.410716 123.092499 
L 165.640367 122.376897 
L 165.870018 124.449566 
L 166.099668 128.970214 
L 166.329319 122.208727 
L 166.558969 123.527322 
L 166.78862 120.113159 
L 167.247921 123.740462 
L 167.477572 121.709991 
L 167.707223 123.850436 
L 167.936873 123.307065 
L 168.166524 126.465936 
L 168.396174 127.657007 
L 168.625825 125.478518 
L 168.855476 126.838127 
L 169.085126 125.436347 
L 169.314777 126.504782 
L 169.544428 125.492855 
L 169.774078 129.050101 
L 170.003729 127.066511 
L 170.23338 129.27587 
L 170.46303 120.69899 
L 170.692681 125.722376 
L 170.922331 125.387947 
L 171.151982 118.455043 
L 171.381633 116.642094 
L 171.611283 117.10025 
L 172.070585 126.674661 
L 172.300235 120.54946 
L 172.529886 121.101971 
L 172.759536 120.534932 
L 172.989187 125.09287 
L 173.218838 122.889648 
L 173.448488 123.067366 
L 173.678139 124.3477 
L 173.90779 120.225899 
L 174.367091 117.355981 
L 174.596742 116.169024 
L 174.826392 114.364919 
L 175.056043 118.675148 
L 175.515344 122.725703 
L 176.204296 118.964541 
L 176.433947 116.595258 
L 176.663597 117.998274 
L 176.893248 120.622356 
L 177.122898 120.609195 
L 177.352549 117.001683 
L 177.5822 118.306755 
L 177.81185 114.967952 
L 178.041501 115.783507 
L 178.271152 116.010078 
L 178.500802 111.291251 
L 178.730453 113.003293 
L 178.960104 116.110163 
L 179.189754 113.001499 
L 179.649055 114.204213 
L 179.878706 120.570703 
L 180.108357 123.155768 
L 180.338007 112.440289 
L 180.567658 112.458148 
L 180.797309 105.487988 
L 181.026959 103.038969 
L 181.48626 117.747759 
L 181.715911 116.147505 
L 181.945562 117.23878 
L 182.175212 114.034689 
L 182.634514 105.006993 
L 182.864164 106.262397 
L 183.093815 112.177901 
L 183.323466 114.480091 
L 183.782767 115.767508 
L 184.242068 112.144955 
L 184.471719 110.94366 
L 184.701369 109.053421 
L 184.93102 105.69099 
L 185.160671 109.263857 
L 185.390321 108.414217 
L 185.619972 105.277899 
L 185.849622 105.958588 
L 186.079273 100.557237 
L 186.308924 103.510969 
L 186.538574 102.985609 
L 186.768225 103.142346 
L 186.997876 106.577883 
L 187.227526 107.234611 
L 187.457177 106.869974 
L 187.686827 102.042598 
L 187.916478 103.266867 
L 188.146129 91.247137 
L 188.375779 89.87057 
L 188.60543 76.516335 
L 188.835081 73.799346 
L 189.064731 93.670965 
L 189.294382 93.142881 
L 189.524033 90.997923 
L 189.753683 86.59296 
L 190.212984 102.458638 
L 190.672286 93.719181 
L 190.901936 104.439997 
L 191.131587 103.531667 
L 191.361238 99.896722 
L 191.590888 93.485689 
L 191.820539 80.076214 
L 192.050189 89.716814 
L 192.27984 93.492204 
L 192.509491 93.217673 
L 192.739141 86.861396 
L 192.968792 72.503428 
L 193.198443 70.384469 
L 193.657744 77.419305 
L 194.117045 63.103214 
L 194.346696 60.756802 
L 194.576346 65.242776 
L 195.035648 101.650516 
L 195.265298 89.696599 
L 195.494949 89.194933 
L 195.7246 73.197828 
L 195.95425 67.354243 
L 196.183901 69.459316 
L 196.413551 87.753155 
L 196.643202 97.179517 
L 196.872853 100.363986 
L 197.561805 67.245148 
L 198.021106 61.039549 
L 198.250757 69.73686 
L 198.480407 72.615051 
L 198.939708 61.760786 
L 199.169359 61.559009 
L 199.39901 64.678831 
L 199.858311 64.173756 
L 200.087962 62.059245 
L 200.317612 62.372066 
L 200.547263 63.902394 
L 201.006564 55.631031 
L 201.236215 53.995758 
L 201.465865 55.591426 
L 201.695516 56.380377 
L 201.925167 56.509394 
L 202.154817 51.981726 
L 202.384468 53.672276 
L 202.614119 54.280079 
L 202.843769 55.287827 
L 203.07342 54.873203 
L 203.30307 57.070675 
L 203.532721 55.339966 
L 203.762372 54.675451 
L 204.221673 54.911411 
L 204.451324 54.629942 
L 204.680974 52.703278 
L 204.910625 55.741015 
L 205.599577 48.532614 
L 205.829227 53.032631 
L 206.058878 55.204767 
L 206.288529 51.400252 
L 206.518179 50.423439 
L 206.74783 45.535768 
L 206.977481 43.301947 
L 207.207131 39.262057 
L 207.896083 45.729361 
L 208.125734 44.936731 
L 208.355384 42.768452 
L 208.814686 44.061283 
L 209.044336 42.784202 
L 209.503637 48.245944 
L 209.962939 41.463255 
L 210.192589 43.238691 
L 210.651891 42.319555 
L 210.881541 39.252496 
L 211.111192 39.08742 
L 211.340842 39.871141 
L 211.800144 54.518408 
L 212.259445 42.506478 
L 212.489096 38.835204 
L 212.718746 37.348136 
L 212.948397 36.881702 
L 213.178048 40.611311 
L 213.407698 46.263079 
L 213.637349 45.244213 
L 214.09665 40.82179 
L 214.326301 37.532116 
L 214.555951 37.961794 
L 214.785602 36.265173 
L 215.015253 37.494177 
L 215.244903 41.157671 
L 215.704204 39.595618 
L 215.933855 39.130084 
L 216.163506 37.009055 
L 216.393156 36.962903 
L 216.622807 36.303007 
L 216.852458 38.00861 
L 217.082108 38.734856 
L 217.311759 39.928753 
L 217.54141 40.293308 
L 217.77106 39.050322 
L 218.000711 39.724824 
L 218.230361 39.583462 
L 218.460012 41.051226 
L 218.689663 41.2794 
L 218.919313 36.497572 
L 219.148964 36.277118 
L 219.378615 34.406217 
L 219.608265 34.188713 
L 219.837916 32.633041 
L 220.297217 35.480638 
L 220.756518 41.037815 
L 220.986169 42.293587 
L 221.21582 41.837088 
L 221.904772 29.990272 
L 222.593723 37.069506 
L 222.823374 39.886786 
L 223.053025 39.470525 
L 223.282675 36.107036 
L 223.512326 34.388876 
L 223.741977 34.075953 
L 224.201278 30.603864 
L 224.430928 32.279911 
L 224.660579 27.050284 
L 224.89023 28.70999 
L 225.11988 27.700829 
L 225.349531 25.713547 
L 225.579182 27.853368 
L 225.808832 27.040257 
L 226.038483 30.046596 
L 226.268134 30.270322 
L 226.497784 33.031514 
L 226.727435 32.307114 
L 226.957085 28.899378 
L 227.186736 29.833541 
L 227.416387 29.979739 
L 227.646037 33.158184 
L 227.875688 31.327179 
L 228.105339 34.14605 
L 228.334989 33.897092 
L 228.56464 36.120361 
L 228.79429 31.805678 
L 229.023941 32.70884 
L 229.253592 32.470567 
L 229.712893 36.21218 
L 230.401845 31.586545 
L 230.631496 30.750896 
L 230.861146 31.272419 
L 231.550098 36.934984 
L 231.779749 34.569052 
L 232.009399 33.792303 
L 232.23905 31.774066 
L 232.468701 28.556729 
L 232.698351 33.760415 
L 232.928002 33.049314 
L 233.157652 33.234647 
L 233.616954 35.55421 
L 234.076255 33.353524 
L 234.305906 32.921889 
L 234.535556 33.031455 
L 234.765207 32.161218 
L 234.994857 32.59271 
L 235.224508 28.688609 
L 235.454159 29.513738 
L 235.91346 35.756923 
L 236.143111 34.347192 
L 236.372761 33.839277 
L 236.602412 33.623377 
L 236.832063 33.787362 
L 237.061713 32.447333 
L 237.291364 29.41385 
L 237.750665 35.910828 
L 237.980316 37.014982 
L 238.209966 35.677627 
L 238.439617 35.717577 
L 238.669268 37.317037 
L 238.898918 34.965035 
L 239.128569 34.514002 
L 239.358219 33.337525 
L 239.58787 35.779342 
L 239.817521 35.602117 
L 240.047171 40.887825 
L 240.276822 40.823945 
L 240.965774 28.48133 
L 241.195425 29.267324 
L 241.654726 32.037742 
L 241.884376 33.153026 
L 242.114027 32.687637 
L 242.343678 36.04217 
L 242.573328 34.286663 
L 242.802979 38.836446 
L 243.03263 37.191162 
L 243.26228 32.691723 
L 243.491931 33.721819 
L 243.721581 33.111394 
L 243.951232 38.131022 
L 244.180883 38.265498 
L 244.410533 36.527666 
L 244.640184 37.001045 
L 244.869835 36.717467 
L 245.329136 40.180358 
L 245.558787 37.884851 
L 246.018088 37.517805 
L 246.477389 39.268417 
L 246.70704 34.208327 
L 246.93669 31.886418 
L 247.395992 35.17811 
L 248.084943 43.228887 
L 248.314594 43.722721 
L 248.773895 42.082287 
L 249.003546 39.978217 
L 249.233197 40.801506 
L 249.462847 39.463613 
L 249.922149 47.471384 
L 250.38145 43.140551 
L 250.6111 37.750598 
L 250.840751 35.641745 
L 251.070402 35.600113 
L 251.300052 38.809552 
L 251.529703 40.153648 
L 251.759354 43.885451 
L 251.989004 40.612362 
L 252.218655 40.473411 
L 252.448305 40.840996 
L 252.677956 39.957362 
L 252.907607 41.422181 
L 253.137257 43.701735 
L 253.366908 41.634993 
L 253.596559 41.699787 
L 253.826209 40.333475 
L 254.05586 37.575706 
L 254.515161 42.779727 
L 255.204113 50.296279 
L 255.433764 50.201645 
L 255.663414 49.203923 
L 255.893065 57.887919 
L 256.122716 56.698759 
L 256.582017 47.042838 
L 256.811667 46.958259 
L 257.041318 51.874772 
L 257.270969 51.702462 
L 257.500619 52.886131 
L 257.73027 50.814359 
L 257.959921 59.485355 
L 258.189571 58.399494 
L 258.419222 54.82273 
L 258.648872 58.782201 
L 258.878523 55.592327 
L 259.108174 55.743233 
L 259.337824 58.989057 
L 260.026776 54.711839 
L 260.256427 51.596851 
L 260.486078 63.487434 
L 260.715728 65.697693 
L 260.945379 63.998697 
L 261.175029 58.50474 
L 261.40468 59.352348 
L 261.634331 60.991851 
L 262.093632 58.547831 
L 262.323283 59.796833 
L 262.552933 58.874494 
L 262.782584 60.681423 
L 263.012234 67.07893 
L 263.471536 85.41078 
L 263.930837 66.739631 
L 264.160488 61.22508 
L 264.619789 64.035362 
L 264.84944 71.1495 
L 265.07909 73.144698 
L 265.308741 68.920105 
L 265.538391 74.58661 
L 265.768042 83.688825 
L 265.997693 82.65748 
L 266.227343 71.351527 
L 266.456994 69.272427 
L 266.686645 72.193432 
L 266.916295 90.033556 
L 267.375596 67.467366 
L 267.605247 69.481919 
L 268.064548 92.609601 
L 268.294199 90.741258 
L 268.52385 86.622973 
L 268.7535 79.534672 
L 269.212802 91.959726 
L 269.442452 97.221836 
L 269.672103 97.988221 
L 269.901753 100.592875 
L 270.131404 100.250176 
L 270.361055 102.31516 
L 270.590705 103.290016 
L 271.050007 81.99819 
L 271.279657 72.764255 
L 271.738958 64.025268 
L 271.968609 78.273345 
L 272.19826 101.053898 
L 272.42791 100.899777 
L 272.657561 106.487641 
L 272.657561 106.487641 
" style="fill:none;stroke:#bf00bf;stroke-dasharray:5.55,2.4;stroke-dashoffset:0;stroke-width:1.5;"/>
   </g>
   <g id="line2d_25">
    <path clip-path="url(#pf9514a9d6c)" d="M 52.652256 56.105756 
L 52.881907 55.880314 
L 53.111558 57.002847 
L 53.341208 55.339394 
L 53.570859 56.367847 
L 53.80051 53.691998 
L 54.03016 60.346631 
L 54.259811 73.928527 
L 54.489461 63.28177 
L 54.719112 81.243381 
L 54.948763 73.186787 
L 55.178413 71.94755 
L 55.408064 109.301869 
L 55.637715 76.385271 
L 55.867365 62.479213 
L 56.097016 69.486266 
L 56.326667 55.708457 
L 56.556317 61.981208 
L 56.785968 56.479259 
L 57.015618 55.725383 
L 57.245269 57.206 
L 57.47492 54.95488 
L 57.70457 56.6229 
L 58.163872 54.82342 
L 58.393522 55.346579 
L 58.623173 53.399904 
L 58.852823 52.769001 
L 59.771426 46.127789 
L 60.001077 57.730607 
L 60.230727 55.600829 
L 60.690029 48.652835 
L 60.919679 49.590116 
L 61.14933 47.917643 
L 61.37898 44.796946 
L 61.608631 45.167605 
L 62.067932 52.60771 
L 62.297583 51.576958 
L 62.527234 51.834937 
L 62.756884 57.734326 
L 62.986535 56.729048 
L 63.216185 54.71022 
L 63.675487 44.976963 
L 63.905137 48.840563 
L 64.134788 48.940967 
L 64.364439 50.620011 
L 64.594089 48.843783 
L 64.82374 49.384538 
L 65.053391 47.443067 
L 65.283041 49.431775 
L 65.512692 47.204472 
L 65.742342 49.485438 
L 65.971993 45.594793 
L 66.201644 45.368899 
L 66.660945 41.766841 
L 66.890596 44.692458 
L 67.120246 44.080135 
L 67.579547 44.725588 
L 67.809198 43.977481 
L 68.268499 41.495168 
L 68.49815 43.344229 
L 68.727801 43.161551 
L 69.187102 45.150384 
L 69.416753 44.177355 
L 69.646403 44.305891 
L 69.876054 42.893565 
L 70.335355 46.055241 
L 70.565006 46.318319 
L 70.794656 45.32709 
L 71.024307 43.838727 
L 71.253958 41.126835 
L 71.483608 42.479992 
L 71.713259 42.173646 
L 71.942909 43.200292 
L 72.17256 42.461567 
L 72.402211 43.639832 
L 72.631861 42.325055 
L 72.861512 40.064043 
L 73.091163 41.097161 
L 73.550464 45.084683 
L 73.780114 48.847955 
L 74.009765 45.061121 
L 74.239416 44.700448 
L 74.469066 43.5576 
L 74.698717 43.382392 
L 74.928368 42.356154 
L 75.158018 42.462809 
L 75.387669 43.155039 
L 75.61732 41.479471 
L 75.84697 40.803484 
L 76.076621 41.0388 
L 76.306271 39.60324 
L 76.535922 41.65759 
L 76.765573 41.197029 
L 76.995223 41.916896 
L 77.684175 39.014939 
L 77.913826 43.479855 
L 78.143476 43.925165 
L 78.373127 40.922887 
L 78.602778 40.278406 
L 78.832428 40.267689 
L 79.062079 40.86354 
L 79.29173 41.787381 
L 79.52138 41.396444 
L 79.751031 43.014702 
L 79.980682 41.803433 
L 80.210332 41.675804 
L 80.439983 40.152065 
L 80.669633 40.304058 
L 80.899284 39.344394 
L 81.128935 39.769282 
L 81.358585 39.233389 
L 81.588236 37.736202 
L 81.817887 37.374445 
L 82.277188 38.924139 
L 82.506838 41.427365 
L 82.736489 40.317245 
L 82.96614 40.036782 
L 83.19579 40.454251 
L 83.425441 40.05238 
L 83.655092 40.220485 
L 83.884742 39.58912 
L 84.114393 38.608101 
L 84.344044 38.452513 
L 84.573694 38.496609 
L 84.803345 39.953991 
L 85.032995 39.243343 
L 85.262646 38.967249 
L 85.721947 40.869276 
L 85.951598 41.039201 
L 86.181249 41.68405 
L 86.64055 37.108582 
L 86.8702 38.031666 
L 87.099851 37.492547 
L 87.329502 37.928119 
L 87.559152 36.724412 
L 87.788803 36.801257 
L 88.248104 40.453739 
L 88.477755 39.51558 
L 88.707406 39.510541 
L 89.166707 38.228807 
L 89.396357 39.550615 
L 89.626008 41.54433 
L 90.085309 38.749654 
L 90.31496 38.376556 
L 90.544611 36.868902 
L 90.774261 37.021145 
L 91.003912 37.623738 
L 91.233562 38.858826 
L 91.463213 39.378962 
L 91.692864 39.344742 
L 92.152165 43.003519 
L 92.381816 42.698343 
L 92.841117 39.143436 
L 93.300418 40.169457 
L 93.759719 37.628317 
L 93.98937 39.193458 
L 94.219021 39.965476 
L 94.448671 39.896031 
L 94.678322 41.899595 
L 95.367274 37.752458 
L 95.826575 37.33395 
L 96.056226 35.311041 
L 96.515527 39.645142 
L 96.974828 37.870014 
L 97.204479 39.858361 
L 97.434129 40.831843 
L 97.66378 38.867644 
L 98.123081 40.001799 
L 98.352732 39.476656 
L 98.812033 42.367587 
L 99.041684 41.087634 
L 99.500985 42.860048 
L 99.730636 40.996367 
L 100.189937 39.167944 
L 100.878889 41.87213 
L 101.10854 44.038726 
L 101.567841 40.53766 
L 101.797491 38.309877 
L 102.256793 40.759887 
L 102.486443 41.344496 
L 102.716094 41.607337 
L 102.945745 43.161518 
L 103.175395 41.953961 
L 103.405046 43.782903 
L 103.634697 43.581064 
L 103.864347 43.764169 
L 104.093998 43.484527 
L 104.323648 42.605466 
L 104.553299 42.452848 
L 104.78295 42.68662 
L 105.0126 42.220055 
L 105.242251 42.253592 
L 105.471902 40.987989 
L 105.701552 42.286195 
L 105.931203 40.928721 
L 106.160853 42.154341 
L 106.390504 41.951898 
L 106.620155 42.804059 
L 106.849805 41.476514 
L 107.079456 42.176504 
L 107.538757 45.501857 
L 107.998059 43.824626 
L 108.227709 43.939206 
L 108.45736 44.284116 
L 108.68701 43.147746 
L 108.916661 45.079308 
L 109.146312 44.658205 
L 109.375962 45.097818 
L 109.605613 44.997207 
L 109.835264 46.726662 
L 110.064914 44.38972 
L 110.294565 50.041346 
L 110.524215 51.517155 
L 110.753866 49.913779 
L 110.983517 46.96736 
L 111.442818 44.809384 
L 111.672469 44.31074 
L 111.902119 44.994921 
L 112.361421 43.959083 
L 112.591071 45.685193 
L 113.050372 53.3696 
L 113.280023 47.018763 
L 113.509674 46.680588 
L 113.739324 46.669911 
L 114.198626 51.213946 
L 114.428276 50.857706 
L 114.657927 47.126193 
L 114.887577 46.161647 
L 115.117228 48.15635 
L 115.346879 48.018657 
L 115.576529 49.722867 
L 115.80618 49.912662 
L 116.495132 45.200439 
L 116.724783 47.85481 
L 116.954433 53.835604 
L 117.184084 55.867261 
L 117.413734 55.120163 
L 117.643385 50.737784 
L 117.873036 48.51236 
L 118.332337 51.615952 
L 118.561988 49.549457 
L 119.021289 47.823701 
L 119.250939 50.536625 
L 119.48059 49.688729 
L 119.939891 51.66358 
L 120.169542 62.588896 
L 120.399193 97.814367 
L 120.628843 100.496213 
L 120.858494 96.530972 
L 121.088144 73.85265 
L 121.317795 72.870763 
L 121.547446 74.690994 
L 122.006747 60.496322 
L 122.236398 61.129116 
L 122.466048 56.029229 
L 122.695699 55.855532 
L 122.92535 58.413907 
L 123.155 57.81914 
L 123.384651 70.885484 
L 123.614301 100.859573 
L 124.073603 106.686135 
L 124.303253 113.744284 
L 124.532904 110.245267 
L 124.762555 109.483023 
L 124.992205 66.858749 
L 125.221856 102.533479 
L 125.681157 111.903495 
L 125.910808 111.591775 
L 126.140458 110.531559 
L 126.370109 110.201717 
L 126.59976 70.291985 
L 126.82941 59.245153 
L 127.059061 68.422328 
L 127.288712 62.019678 
L 127.518362 64.854718 
L 127.748013 72.596322 
L 127.977663 96.498651 
L 128.207314 108.675037 
L 128.666615 112.108639 
L 128.896266 115.261984 
L 129.355567 112.810383 
L 129.814868 114.908329 
L 130.50382 112.231097 
L 130.733471 113.676415 
L 130.963122 110.899597 
L 131.422423 117.174347 
L 131.652074 115.658382 
L 131.881724 115.568126 
L 132.111375 112.53333 
L 132.341025 114.480248 
L 132.570676 114.442434 
L 132.800327 116.040573 
L 133.029977 118.483993 
L 133.718929 115.688902 
L 133.94858 117.562433 
L 134.17823 117.643706 
L 134.407881 116.565467 
L 134.637532 117.102983 
L 134.867182 113.78631 
L 135.096833 114.362685 
L 135.326484 116.288788 
L 135.556134 116.896302 
L 135.785785 117.044353 
L 136.245086 120.417212 
L 136.474737 123.747052 
L 136.704387 117.522378 
L 137.163689 118.47714 
L 137.393339 116.46527 
L 137.62299 118.140365 
L 137.852641 116.491691 
L 138.311942 121.23096 
L 138.541592 121.425473 
L 138.771243 121.817244 
L 139.000894 121.616963 
L 139.230544 118.463992 
L 139.919496 118.561357 
L 140.149147 118.987118 
L 140.608448 123.42014 
L 140.838099 122.037494 
L 141.2974 121.472052 
L 141.756701 118.66432 
L 142.216003 123.914986 
L 142.445653 120.993449 
L 142.675304 120.66519 
L 142.904954 121.452012 
L 143.134605 122.80528 
L 143.364256 122.849797 
L 143.593906 122.769963 
L 143.823557 123.936959 
L 144.053208 123.208498 
L 144.282858 120.443409 
L 144.512509 122.047672 
L 144.742159 121.116413 
L 144.97181 120.751516 
L 145.201461 122.16584 
L 145.431111 122.193929 
L 145.660762 122.869581 
L 145.890413 122.620243 
L 146.120063 122.541342 
L 146.349714 123.278824 
L 146.579365 120.334756 
L 146.809015 120.898936 
L 147.038666 122.518975 
L 147.268316 123.328919 
L 147.497967 124.609004 
L 147.727618 125.129607 
L 147.957268 123.348303 
L 148.186919 124.340288 
L 148.41657 123.889834 
L 148.64622 124.40089 
L 148.875871 122.663137 
L 149.105521 122.471863 
L 149.335172 121.687998 
L 149.564823 123.991975 
L 149.794473 125.153005 
L 150.253775 124.249849 
L 150.483425 124.795408 
L 150.713076 120.012877 
L 150.942727 121.927803 
L 151.402028 122.771139 
L 151.631678 124.573141 
L 151.861329 125.101497 
L 152.09098 125.191601 
L 152.32063 124.164384 
L 152.550281 123.735764 
L 152.779932 124.461649 
L 153.009582 124.637001 
L 153.239233 123.951263 
L 153.468883 124.143568 
L 153.698534 124.16832 
L 153.928185 124.58303 
L 154.157835 122.678328 
L 154.387486 121.70202 
L 154.617137 121.989331 
L 154.846787 123.612642 
L 155.076438 123.076742 
L 155.306089 123.060657 
L 155.76539 125.123384 
L 155.99504 124.790204 
L 156.224691 123.124314 
L 156.454342 123.228026 
L 156.683992 123.003749 
L 156.913643 124.48033 
L 157.143294 124.389904 
L 157.372944 125.294702 
L 157.602595 122.915583 
L 158.061896 124.401488 
L 158.291547 125.142505 
L 158.521197 126.408705 
L 158.750848 124.748053 
L 159.210149 126.715012 
L 159.4398 126.59258 
L 159.669451 126.772138 
L 159.899101 126.381286 
L 160.128752 124.597807 
L 160.358402 124.951797 
L 160.817704 127.08165 
L 161.047354 126.033624 
L 161.277005 125.669081 
L 161.506656 126.108503 
L 161.736306 125.443883 
L 161.965957 123.909198 
L 162.654909 125.160969 
L 162.884559 124.181225 
L 163.11421 124.997496 
L 163.343861 123.543926 
L 163.803162 126.155582 
L 164.032813 126.386431 
L 164.262463 126.120291 
L 164.492114 123.504935 
L 165.181066 126.125213 
L 165.410716 125.516615 
L 165.640367 125.417923 
L 165.870018 125.788898 
L 166.099668 123.943668 
L 166.558969 124.571459 
L 166.78862 124.558199 
L 167.018271 125.218896 
L 167.247921 123.614153 
L 167.477572 123.337764 
L 167.707223 124.211575 
L 167.936873 125.929616 
L 168.166524 123.125188 
L 168.396174 123.873125 
L 168.625825 122.25097 
L 169.085126 123.944397 
L 169.314777 122.990693 
L 169.544428 123.987672 
L 169.774078 123.751849 
L 170.003729 124.979006 
L 170.23338 125.423692 
L 170.46303 124.551129 
L 170.692681 125.119836 
L 170.922331 124.555853 
L 171.151982 124.976555 
L 171.381633 124.576196 
L 171.611283 125.983864 
L 171.840934 125.166928 
L 172.070585 126.054729 
L 172.300235 122.378868 
L 172.529886 124.880242 
L 172.759536 124.551839 
L 172.989187 121.285569 
L 173.218838 120.636371 
L 173.448488 120.892319 
L 173.90779 125.068052 
L 174.13744 122.335324 
L 174.367091 122.780653 
L 174.596742 122.498481 
L 174.826392 124.46136 
L 175.056043 123.543486 
L 175.285693 123.654721 
L 175.515344 124.16355 
L 175.744995 122.257882 
L 176.204296 120.973934 
L 176.663597 119.539149 
L 176.893248 121.671907 
L 177.352549 123.511394 
L 178.041501 121.724269 
L 178.271152 120.589285 
L 178.500802 121.298218 
L 178.730453 122.564944 
L 178.960104 122.504651 
L 179.189754 120.755807 
L 179.419405 121.455599 
L 179.649055 119.811071 
L 179.878706 120.237083 
L 180.108357 120.350539 
L 180.338007 118.040517 
L 180.567658 118.951328 
L 180.797309 120.457444 
L 181.026959 118.846781 
L 181.48626 119.507906 
L 181.715911 122.578972 
L 181.945562 123.720474 
L 182.175212 118.412787 
L 182.404863 118.701253 
L 182.634514 115.255197 
L 182.864164 114.137593 
L 183.323466 121.225204 
L 183.553116 120.338087 
L 183.782767 120.941416 
L 184.012417 119.375519 
L 184.471719 115.092342 
L 184.701369 115.766338 
L 184.93102 118.667894 
L 185.160671 119.612051 
L 185.619972 120.236511 
L 186.079273 118.491753 
L 186.308924 117.936687 
L 186.538574 117.032486 
L 186.768225 115.423177 
L 186.997876 117.203042 
L 187.227526 116.746877 
L 187.457177 115.215943 
L 187.686827 115.607314 
L 187.916478 112.941416 
L 188.146129 114.485157 
L 188.375779 114.193043 
L 188.60543 114.244439 
L 188.835081 115.940481 
L 189.064731 116.194623 
L 189.294382 116.006254 
L 189.524033 113.660612 
L 189.753683 114.356483 
L 189.983334 107.685605 
L 190.212984 107.610482 
L 190.442635 84.402876 
L 190.672286 72.735445 
L 190.901936 110.349998 
L 191.361238 108.115329 
L 191.590888 105.055596 
L 192.050189 113.991598 
L 192.509491 109.781356 
L 192.739141 115.037759 
L 192.968792 114.297195 
L 193.198443 112.572748 
L 193.428093 109.696489 
L 193.657744 94.356681 
L 193.887395 107.941773 
L 194.117045 109.744994 
L 194.346696 109.395791 
L 194.576346 104.858751 
L 194.805997 68.485517 
L 195.035648 67.241659 
L 195.265298 84.843388 
L 195.494949 90.115905 
L 195.7246 64.509114 
L 195.95425 57.290386 
L 196.183901 56.493457 
L 196.413551 61.114971 
L 196.643202 104.159517 
L 196.872853 113.658418 
L 197.102503 106.051862 
L 197.332154 107.255539 
L 197.561805 70.484417 
L 197.791455 61.151742 
L 198.021106 66.766543 
L 198.250757 106.853169 
L 198.480407 111.387367 
L 198.710058 112.929399 
L 198.939708 105.428418 
L 199.39901 61.0153 
L 199.62866 59.365356 
L 199.858311 56.041283 
L 200.087962 70.380674 
L 200.317612 69.20037 
L 200.776913 56.543684 
L 201.006564 57.37626 
L 201.236215 59.96922 
L 201.465865 58.655049 
L 201.695516 58.832985 
L 201.925167 57.125555 
L 202.154817 57.753226 
L 202.384468 58.898983 
L 202.843769 52.240402 
L 203.07342 51.305871 
L 203.30307 52.863846 
L 203.762372 53.319061 
L 203.992022 49.24772 
L 204.221673 51.556451 
L 204.451324 51.338777 
L 204.680974 52.752019 
L 204.910625 51.585277 
L 205.140275 54.12773 
L 205.369926 51.818339 
L 205.599577 52.083566 
L 205.829227 51.645832 
L 206.058878 52.41213 
L 206.518179 50.449268 
L 206.74783 52.918261 
L 207.207131 49.040109 
L 207.436782 47.12049 
L 207.666432 51.303269 
L 207.896083 52.158705 
L 208.125734 49.265596 
L 208.355384 48.578212 
L 208.585035 45.056639 
L 208.814686 44.14462 
L 209.044336 42.35252 
L 209.733288 45.601784 
L 210.192589 43.896543 
L 210.42224 44.418559 
L 210.651891 44.642974 
L 210.881541 43.913272 
L 211.340842 47.298167 
L 211.570493 44.332397 
L 211.800144 43.213308 
L 212.029794 44.519432 
L 212.489096 43.691603 
L 212.718746 42.39155 
L 212.948397 42.528148 
L 213.178048 42.942221 
L 213.407698 48.922099 
L 213.637349 51.886244 
L 214.09665 43.501604 
L 214.555951 41.697132 
L 214.785602 41.402903 
L 215.244903 46.314646 
L 215.704204 43.972684 
L 215.933855 43.227921 
L 216.163506 41.650171 
L 216.393156 42.004713 
L 216.622807 41.259011 
L 216.852458 41.889838 
L 217.082108 43.631198 
L 217.311759 42.832464 
L 217.54141 42.565424 
L 217.77106 42.590452 
L 218.000711 41.46677 
L 218.230361 41.541702 
L 218.460012 41.361685 
L 218.689663 42.159098 
L 218.919313 42.376227 
L 219.148964 42.882184 
L 219.378615 43.023474 
L 219.608265 42.352763 
L 219.837916 42.796502 
L 220.067566 42.738549 
L 220.297217 43.385073 
L 220.526868 43.415364 
L 220.756518 41.055753 
L 220.986169 41.262454 
L 221.21582 40.546129 
L 221.44547 40.376053 
L 221.675121 39.656601 
L 222.593723 43.42177 
L 222.823374 43.862303 
L 223.053025 43.573212 
L 223.512326 39.465124 
L 223.741977 38.628904 
L 223.971627 39.811466 
L 224.201278 40.210123 
L 224.660579 43.055224 
L 224.89023 42.534634 
L 225.11988 40.905599 
L 225.349531 40.480501 
L 225.579182 40.497986 
L 226.038483 38.767158 
L 226.268134 39.877238 
L 226.497784 37.071694 
L 226.727435 38.112841 
L 226.957085 37.841011 
L 227.186736 36.661866 
L 227.416387 37.899109 
L 227.646037 37.496516 
L 227.875688 38.820676 
L 228.105339 38.816451 
L 228.334989 40.102995 
L 228.56464 39.59343 
L 228.79429 37.868069 
L 229.023941 38.737517 
L 229.253592 38.825939 
L 229.483242 40.122976 
L 229.712893 39.056775 
L 229.942544 40.543304 
L 230.172194 40.364055 
L 230.401845 41.331466 
L 230.631496 39.105549 
L 230.861146 39.818424 
L 231.090797 39.857461 
L 231.550098 41.336414 
L 232.009399 39.498799 
L 232.23905 39.366209 
L 232.468701 38.978583 
L 232.698351 39.21551 
L 232.928002 40.066665 
L 233.157652 40.427607 
L 233.387303 41.744178 
L 233.616954 40.387434 
L 233.846604 40.139495 
L 234.076255 39.388037 
L 234.305906 37.830051 
L 234.535556 40.53925 
L 234.765207 39.948577 
L 234.994857 39.899901 
L 235.454159 41.152204 
L 235.683809 40.270955 
L 235.91346 39.977244 
L 236.372761 39.962796 
L 236.602412 39.470578 
L 236.832063 39.808594 
L 237.061713 37.867143 
L 237.291364 38.497851 
L 237.750665 41.279807 
L 237.980316 40.232529 
L 238.209966 40.21996 
L 238.439617 40.321779 
L 238.669268 40.251322 
L 238.898918 39.541758 
L 239.128569 38.221507 
L 239.58787 41.46951 
L 239.817521 41.536761 
L 240.047171 40.862456 
L 240.276822 41.158203 
L 240.506473 41.933375 
L 240.736123 40.510825 
L 240.965774 40.473773 
L 241.195425 40.136571 
L 241.425075 41.27869 
L 241.654726 40.981195 
L 241.884376 43.420377 
L 242.114027 43.215266 
L 242.343678 40.797084 
L 242.573328 39.967678 
L 242.802979 37.864094 
L 243.721581 40.002489 
L 243.951232 39.78444 
L 244.180883 41.441808 
L 244.410533 40.312423 
L 244.640184 42.471877 
L 244.869835 41.620196 
L 245.099485 39.410206 
L 245.329136 40.348594 
L 245.558787 40.083236 
L 245.788437 42.275019 
L 246.018088 42.114076 
L 246.247738 41.208403 
L 246.477389 41.689346 
L 246.70704 41.557485 
L 246.93669 42.112302 
L 247.166341 43.105733 
L 247.395992 41.797053 
L 247.625642 41.802263 
L 247.855293 41.950347 
L 248.084943 42.377364 
L 248.314594 42.553873 
L 248.544245 40.07777 
L 248.773895 39.3148 
L 249.003546 40.505568 
L 249.233197 40.964749 
L 249.922149 44.421989 
L 250.151799 44.386855 
L 250.38145 43.890058 
L 250.6111 43.748709 
L 250.840751 42.742642 
L 251.070402 43.220562 
L 251.300052 42.584269 
L 251.529703 44.244954 
L 251.759354 46.973333 
L 252.448305 41.692769 
L 252.677956 40.968632 
L 252.907607 41.126657 
L 253.137257 42.605709 
L 253.366908 42.985778 
L 253.596559 44.608537 
L 253.826209 42.917324 
L 254.05586 42.972413 
L 254.285511 43.386768 
L 254.515161 42.782066 
L 254.744812 43.462693 
L 254.974462 44.635346 
L 255.204113 43.398372 
L 255.433764 43.464276 
L 255.663414 43.016897 
L 255.893065 41.65529 
L 256.352366 44.280107 
L 256.811667 46.012026 
L 257.041318 49.029914 
L 257.500619 47.896018 
L 257.73027 54.955294 
L 257.959921 53.037829 
L 258.419222 46.014405 
L 258.648872 46.479663 
L 258.878523 50.292439 
L 259.108174 49.493162 
L 259.337824 50.798031 
L 259.567475 48.613276 
L 259.797126 56.452773 
L 260.256427 51.751574 
L 260.486078 55.302007 
L 260.715728 52.249045 
L 260.945379 52.699769 
L 261.175029 55.185058 
L 261.863981 51.716888 
L 262.093632 49.38855 
L 262.323283 60.325214 
L 262.552933 60.322936 
L 262.782584 58.028744 
L 263.012234 53.895029 
L 263.241885 55.914104 
L 263.471536 56.290232 
L 263.930837 54.347133 
L 264.160488 55.997046 
L 264.390138 54.657657 
L 264.619789 56.737795 
L 264.84944 63.67442 
L 265.07909 96.360515 
L 265.308741 103.334707 
L 265.538391 71.804394 
L 265.768042 60.252236 
L 265.997693 56.398819 
L 266.227343 58.266461 
L 266.456994 58.963418 
L 266.686645 71.032503 
L 266.916295 71.104834 
L 267.145946 62.595066 
L 267.605247 101.897903 
L 267.834898 99.34325 
L 268.064548 66.24877 
L 268.294199 65.902164 
L 268.52385 71.614011 
L 268.7535 108.052371 
L 268.983151 94.03361 
L 269.212802 60.073311 
L 269.442452 68.261727 
L 269.672103 96.853158 
L 269.901753 109.312786 
L 270.131404 107.740155 
L 270.361055 104.877524 
L 270.590705 95.157693 
L 270.820356 105.408433 
L 271.279657 111.54716 
L 271.509308 111.747901 
L 271.738958 113.086708 
L 271.968609 112.859867 
L 272.19826 113.898787 
L 272.42791 114.347428 
L 272.887212 98.46916 
L 273.116862 71.56343 
L 273.346513 62.471103 
L 273.576164 57.864642 
L 273.805814 98.775741 
L 274.035465 113.406964 
L 274.265115 113.026402 
L 274.494766 115.94995 
L 274.494766 115.94995 
" style="fill:none;stroke:#008000;stroke-dasharray:9.6,2.4,1.5,2.4;stroke-dashoffset:0;stroke-width:1.5;"/>
   </g>
   <g id="line2d_26">
    <path clip-path="url(#pf9514a9d6c)" d="M 56.326667 50.546955 
L 56.556317 50.420685 
L 56.785968 51.025518 
L 57.015618 50.127668 
L 57.245269 50.694191 
L 57.47492 49.250217 
L 57.70457 52.81887 
L 57.934221 71.60615 
L 58.163872 54.269753 
L 58.393522 112.201989 
L 58.623173 69.139223 
L 58.852823 65.350915 
L 59.082474 120.902228 
L 59.312125 104.708016 
L 59.541775 53.887716 
L 59.771426 59.984664 
L 60.001077 50.306552 
L 60.230727 53.715071 
L 60.460378 50.713515 
L 60.690029 50.354131 
L 60.919679 51.119801 
L 61.14933 49.934023 
L 61.37898 50.827014 
L 61.838282 49.867837 
L 62.067932 50.143155 
L 62.297583 49.104498 
L 62.527234 48.782505 
L 63.445836 45.263505 
L 63.675487 51.423742 
L 63.905137 50.259674 
L 64.364439 46.597285 
L 64.594089 47.109872 
L 65.053391 44.918326 
L 65.283041 44.982423 
L 65.742342 48.69836 
L 65.971993 48.143642 
L 66.201644 48.291808 
L 66.431294 51.41252 
L 66.660945 50.866294 
L 66.890596 49.800086 
L 67.349897 44.949544 
L 67.579547 46.719277 
L 67.809198 46.749449 
L 68.038849 47.657344 
L 68.268499 46.690852 
L 68.49815 47.00298 
L 68.727801 45.952857 
L 68.957451 47.03105 
L 69.187102 45.824768 
L 69.416753 47.0614 
L 69.646403 45.062001 
L 69.876054 45.018391 
L 70.335355 44.402644 
L 70.565006 44.901814 
L 70.794656 44.793746 
L 71.253958 44.90688 
L 71.713259 44.575566 
L 71.942909 44.356084 
L 72.17256 44.671202 
L 72.402211 44.638191 
L 72.861512 44.979046 
L 73.091163 44.811244 
L 73.320813 44.835345 
L 73.550464 44.593182 
L 74.009765 45.233602 
L 74.239416 45.374905 
L 74.928368 44.291922 
L 75.158018 44.524814 
L 75.387669 44.470198 
L 75.61732 44.646056 
L 75.84697 44.519557 
L 76.076621 44.72158 
L 76.306271 44.49558 
L 76.535922 44.111753 
L 76.995223 44.587945 
L 77.224874 44.967718 
L 77.454525 46.718284 
L 77.684175 44.961062 
L 77.913826 44.903069 
L 78.143476 44.70698 
L 78.373127 44.677188 
L 78.602778 44.501626 
L 79.062079 44.638342 
L 79.52138 44.238843 
L 79.751031 44.278084 
L 79.980682 44.031413 
L 80.210332 44.384247 
L 80.439983 44.303637 
L 80.669633 44.42758 
L 81.358585 43.93305 
L 81.588236 44.694784 
L 81.817887 44.767483 
L 82.047537 44.255796 
L 82.506838 44.145967 
L 83.425441 44.614885 
L 83.655092 44.406482 
L 83.884742 44.387236 
L 84.114393 44.126025 
L 84.344044 44.153109 
L 84.573694 43.988033 
L 84.803345 44.061671 
L 85.032995 43.969221 
L 85.262646 43.71416 
L 85.492297 43.653834 
L 85.951598 43.916275 
L 86.181249 44.343902 
L 86.410899 44.152721 
L 86.64055 44.10785 
L 86.8702 44.178426 
L 88.248104 43.843984 
L 88.477755 44.09275 
L 88.937056 43.924968 
L 89.396357 44.247635 
L 89.855659 44.388123 
L 90.31496 43.60828 
L 90.544611 43.766824 
L 90.774261 43.671122 
L 91.003912 43.747322 
L 91.233562 43.541732 
L 91.463213 43.55578 
L 91.922514 44.176323 
L 92.152165 44.016655 
L 92.381816 44.018396 
L 92.841117 43.798291 
L 93.300418 44.363214 
L 93.759719 43.888875 
L 93.98937 43.824469 
L 94.219021 43.565412 
L 94.678322 43.6954 
L 95.137623 43.993848 
L 95.367274 43.988625 
L 95.826575 44.611501 
L 96.056226 44.559343 
L 96.515527 43.955081 
L 96.974828 44.128324 
L 97.434129 43.696892 
L 97.893431 44.092941 
L 98.123081 44.081961 
L 98.352732 44.42534 
L 99.041684 43.717596 
L 99.500985 43.645483 
L 99.730636 43.300225 
L 100.189937 44.039055 
L 100.649238 43.738314 
L 101.10854 44.240519 
L 101.33819 43.90561 
L 101.797491 44.100386 
L 102.027142 44.009736 
L 102.486443 44.503597 
L 102.716094 44.284208 
L 103.175395 44.588096 
L 103.405046 44.268057 
L 103.864347 43.95882 
L 104.553299 44.418933 
L 104.78295 44.789304 
L 105.242251 44.193059 
L 105.471902 43.812891 
L 105.931203 44.228711 
L 106.620155 44.639637 
L 106.849805 44.431832 
L 107.079456 44.746384 
L 108.916661 44.485107 
L 109.146312 44.268477 
L 109.375962 44.491073 
L 109.605613 44.257524 
L 109.835264 44.468687 
L 110.064914 44.432843 
L 110.294565 44.578582 
L 110.524215 44.351097 
L 110.753866 44.472662 
L 111.213167 45.046895 
L 111.902119 44.772608 
L 112.13177 44.830443 
L 112.361421 44.635977 
L 112.591071 44.967639 
L 112.820722 44.893837 
L 113.280023 44.952533 
L 113.509674 45.595476 
L 113.739324 44.847238 
L 113.968975 47.363443 
L 114.198626 48.107832 
L 114.428276 47.273701 
L 114.657927 45.70041 
L 114.887577 45.099638 
L 115.346879 44.835535 
L 115.576529 44.952428 
L 116.035831 44.77586 
L 116.265481 45.097982 
L 116.724783 49.108329 
L 116.954433 45.722987 
L 117.184084 45.569614 
L 117.413734 45.554889 
L 117.873036 47.96027 
L 118.102686 47.767545 
L 118.332337 45.785646 
L 118.561988 45.293224 
L 118.791638 46.347611 
L 119.021289 46.267712 
L 119.250939 47.17958 
L 119.48059 47.265934 
L 120.169542 44.986944 
L 120.399193 46.195092 
L 120.628843 49.351968 
L 120.858494 50.415202 
L 121.088144 50.019777 
L 121.317795 47.685122 
L 121.547446 46.534811 
L 122.006747 48.173424 
L 122.236398 47.069042 
L 122.695699 46.162666 
L 122.92535 47.61382 
L 123.155 47.140918 
L 123.614301 48.193655 
L 123.843952 53.981749 
L 124.073603 118.340943 
L 124.303253 118.940105 
L 124.532904 118.096394 
L 124.762555 71.630065 
L 124.992205 68.249512 
L 125.221856 74.433339 
L 125.451506 58.551085 
L 125.681157 52.849614 
L 125.910808 53.214281 
L 126.140458 50.484464 
L 126.370109 50.421093 
L 126.59976 51.759906 
L 126.82941 51.450088 
L 127.059061 62.635311 
L 127.288712 119.022488 
L 127.748013 120.319755 
L 127.977663 121.889739 
L 128.207314 121.112103 
L 128.436965 120.943131 
L 128.666615 56.918923 
L 128.896266 119.399062 
L 129.355567 121.480548 
L 129.585218 121.41126 
L 129.814868 121.175766 
L 130.044519 121.102372 
L 130.27417 61.217104 
L 130.50382 52.191443 
L 130.733471 58.507001 
L 130.963122 53.610242 
L 131.192772 55.397988 
L 131.422423 67.316726 
L 131.652074 118.085342 
L 131.881724 120.763067 
L 132.341025 121.526195 
L 132.570676 122.22719 
L 133.029977 121.682341 
L 133.489279 122.148578 
L 134.17823 121.553463 
L 134.407881 121.874738 
L 134.637532 121.257493 
L 135.096833 122.652275 
L 135.326484 122.315382 
L 135.556134 122.295342 
L 135.785785 121.620642 
L 136.015436 122.053441 
L 136.245086 122.045024 
L 136.704387 122.943489 
L 137.393339 122.322157 
L 137.62299 122.738647 
L 137.852641 122.756697 
L 138.082291 122.517024 
L 138.311942 122.636525 
L 138.541592 121.899227 
L 138.771243 122.027362 
L 139.000894 122.45545 
L 139.460195 122.623495 
L 140.149147 123.981653 
L 140.378798 122.729882 
L 140.838099 122.941951 
L 141.067749 122.494762 
L 141.2974 122.86719 
L 141.527051 122.500597 
L 141.986352 123.546048 
L 142.675304 123.623412 
L 142.904954 122.939119 
L 143.823557 123.055381 
L 144.282858 123.934147 
L 144.512509 123.704067 
L 144.97181 123.594783 
L 145.431111 122.983636 
L 145.890413 124.005997 
L 146.120063 123.497142 
L 146.349714 123.428124 
L 147.038666 123.84696 
L 147.268316 123.833786 
L 147.497967 124.009217 
L 147.727618 123.903323 
L 147.957268 123.379166 
L 148.186919 123.705992 
L 148.64622 123.446266 
L 148.875871 123.727919 
L 149.105521 123.733037 
L 149.335172 123.850186 
L 149.794473 123.794973 
L 150.024124 123.913804 
L 150.253775 123.355012 
L 150.483425 123.477365 
L 150.942727 123.92111 
L 151.402028 124.182263 
L 151.631678 123.923969 
L 151.861329 124.067742 
L 152.09098 124.002364 
L 152.32063 124.076527 
L 152.550281 123.815881 
L 152.779932 123.782817 
L 153.009582 123.637335 
L 153.468883 124.185634 
L 153.928185 124.054614 
L 154.157835 124.133771 
L 154.387486 123.283522 
L 154.617137 123.683507 
L 155.076438 123.83397 
L 155.306089 124.101522 
L 155.76539 124.191265 
L 156.224691 123.980023 
L 156.683992 124.110787 
L 156.913643 124.011287 
L 157.602595 124.102955 
L 158.061896 123.640101 
L 158.291547 123.695124 
L 158.521197 123.962151 
L 158.980499 123.880747 
L 159.4398 124.181356 
L 159.669451 124.133015 
L 159.899101 123.89057 
L 160.358402 123.871732 
L 160.588053 124.088059 
L 160.817704 124.07493 
L 161.047354 124.20622 
L 161.277005 123.857697 
L 162.195607 124.367865 
L 162.425258 124.126918 
L 162.884559 124.41227 
L 163.573511 124.363884 
L 163.803162 124.105116 
L 164.262463 124.302999 
L 164.492114 124.4655 
L 164.951415 124.260546 
L 165.181066 124.324302 
L 165.410716 124.227864 
L 165.640367 124.005196 
L 166.329319 124.18681 
L 166.558969 124.044659 
L 166.78862 124.163096 
L 167.018271 123.952203 
L 167.477572 124.331102 
L 167.936873 124.326017 
L 168.166524 123.946559 
L 168.855476 124.326726 
L 169.314777 124.224099 
L 169.544428 124.277926 
L 169.774078 124.010202 
L 170.692681 124.19522 
L 170.922331 123.962381 
L 171.151982 123.922431 
L 171.611283 124.298328 
L 171.840934 123.890734 
L 172.070585 123.999959 
L 172.300235 123.743353 
L 172.759536 124.010294 
L 172.989187 123.869675 
L 173.218838 124.016576 
L 173.448488 123.982349 
L 173.90779 124.224926 
L 174.13744 124.098335 
L 174.367091 124.180857 
L 174.596742 124.099012 
L 174.826392 124.16006 
L 175.056043 124.101962 
L 175.285693 124.306219 
L 175.515344 124.187684 
L 175.744995 124.316502 
L 175.974645 123.766502 
L 176.204296 124.146085 
L 176.433947 124.098408 
L 176.663597 123.55731 
L 176.893248 123.422052 
L 177.122898 123.475913 
L 177.5822 124.173327 
L 177.81185 123.758683 
L 178.041501 123.835606 
L 178.271152 123.787469 
L 178.500802 124.085306 
L 178.730453 123.952131 
L 179.189754 124.04209 
L 179.649055 123.585229 
L 180.108357 123.370512 
L 180.338007 123.178102 
L 180.567658 123.634201 
L 181.026959 123.947465 
L 181.715911 123.644451 
L 181.945562 123.411566 
L 182.634514 123.788566 
L 182.864164 123.447166 
L 183.093815 123.591485 
L 183.323466 123.238533 
L 183.782767 123.358474 
L 184.012417 122.844941 
L 184.471719 123.382214 
L 184.701369 123.024177 
L 185.160671 123.171144 
L 185.390321 123.801432 
L 185.619972 123.977796 
L 185.849622 122.927817 
L 186.079273 122.991908 
L 186.308924 122.225764 
L 186.538574 121.977352 
L 186.997876 123.544859 
L 187.227526 123.355715 
L 187.457177 123.486307 
L 187.916478 122.604559 
L 188.146129 122.189553 
L 188.375779 122.339378 
L 188.60543 122.984345 
L 189.064731 123.278102 
L 189.294382 123.333138 
L 189.753683 122.945263 
L 190.212984 122.620847 
L 190.442635 122.263079 
L 190.672286 122.658774 
L 190.901936 122.557315 
L 191.131587 122.217012 
L 191.361238 122.304028 
L 191.590888 121.711357 
L 191.820539 122.054558 
L 192.27984 122.00106 
L 192.509491 122.378067 
L 192.968792 122.3927 
L 193.198443 121.871288 
L 193.428093 122.025962 
L 193.657744 120.543192 
L 193.887395 120.526509 
L 194.117045 114.112558 
L 194.346696 67.910277 
L 194.576346 121.134943 
L 195.035648 120.63915 
L 195.265298 119.957946 
L 195.7246 121.944755 
L 196.183901 121.009225 
L 196.413551 122.177187 
L 196.643202 122.012762 
L 196.872853 121.629565 
L 197.102503 120.990262 
L 197.332154 117.616319 
L 197.561805 120.599805 
L 197.791455 121.000736 
L 198.021106 120.923432 
L 198.250757 119.914737 
L 198.480407 58.595981 
L 198.710058 57.311026 
L 198.939708 114.311605 
L 199.169359 116.450703 
L 199.39901 55.092947 
L 199.62866 51.154945 
L 199.858311 50.754589 
L 200.087962 53.200467 
L 200.317612 119.759038 
L 200.547263 121.870651 
L 200.776913 120.179444 
L 201.006564 120.447398 
L 201.236215 61.668252 
L 201.465865 53.212645 
L 201.695516 56.887454 
L 201.925167 120.356117 
L 202.154817 121.365719 
L 202.384468 121.708736 
L 202.614119 120.040921 
L 202.843769 107.837779 
L 203.07342 53.132226 
L 203.30307 52.27247 
L 203.532721 50.493127 
L 203.762372 61.421353 
L 203.992022 59.35005 
L 204.221673 53.063566 
L 204.451324 50.7648 
L 204.680974 51.222209 
L 204.910625 52.585248 
L 205.140275 51.882249 
L 205.369926 51.989092 
L 205.599577 51.076172 
L 205.829227 51.419025 
L 206.058878 52.018207 
L 206.518179 48.49755 
L 206.74783 48.004895 
L 206.977481 48.839111 
L 207.436782 49.075578 
L 207.666432 46.899366 
L 207.896083 48.158935 
L 208.125734 48.011203 
L 208.355384 48.786667 
L 208.585035 48.139148 
L 208.814686 49.51773 
L 209.044336 48.257292 
L 209.273987 48.432086 
L 209.503637 48.175076 
L 209.733288 48.603831 
L 210.192589 47.557417 
L 210.42224 48.868604 
L 210.651891 47.503728 
L 211.111192 45.787354 
L 211.340842 48.02421 
L 211.570493 48.449206 
L 211.800144 46.92287 
L 212.029794 46.564773 
L 212.259445 44.961949 
L 212.489096 44.807814 
L 212.718746 44.50083 
L 213.407698 45.072889 
L 213.866999 44.765295 
L 214.326301 44.891629 
L 214.555951 44.766911 
L 214.785602 45.17572 
L 215.015253 45.889358 
L 215.244903 44.836679 
L 215.474554 44.650314 
L 215.704204 44.87174 
L 216.622807 44.532225 
L 216.852458 44.601816 
L 217.311759 48.307617 
L 217.54141 45.376863 
L 217.77106 44.700396 
L 218.460012 44.340137 
L 218.689663 44.67753 
L 218.919313 45.377855 
L 219.148964 44.945726 
L 219.837916 44.380895 
L 220.067566 44.443337 
L 220.297217 44.314643 
L 220.526868 44.423092 
L 220.756518 44.71949 
L 221.21582 44.538862 
L 221.44547 44.542436 
L 221.675121 44.349619 
L 222.593723 44.505062 
L 223.053025 44.615752 
L 223.282675 44.501238 
L 223.971627 44.677668 
L 224.201278 44.682405 
L 224.430928 44.279056 
L 224.660579 44.3176 
L 225.349531 44.041893 
L 226.497784 44.758691 
L 226.727435 44.709503 
L 227.186736 44.010282 
L 227.416387 43.867467 
L 228.334989 44.620949 
L 228.56464 44.531456 
L 228.79429 44.254915 
L 229.712893 43.891037 
L 229.942544 44.080299 
L 230.172194 43.598883 
L 230.401845 43.780997 
L 230.631496 43.73175 
L 230.861146 43.530285 
L 231.090797 43.743781 
L 231.320447 43.67241 
L 231.550098 43.89971 
L 231.779749 43.897942 
L 232.009399 44.118383 
L 232.23905 44.030105 
L 232.468701 43.736756 
L 232.698351 43.886963 
L 232.928002 43.899145 
L 233.157652 44.12132 
L 233.387303 43.9387 
L 233.616954 44.194248 
L 233.846604 44.161592 
L 234.076255 44.327666 
L 234.305906 43.946513 
L 235.224508 44.327975 
L 235.91346 43.992928 
L 236.372761 43.966843 
L 237.061713 44.398045 
L 237.291364 44.165271 
L 237.750665 43.996076 
L 237.980316 43.729976 
L 238.209966 44.193709 
L 238.669268 44.083703 
L 239.128569 44.296179 
L 239.58787 44.097468 
L 240.506473 44.06838 
L 240.736123 43.735712 
L 240.965774 43.845837 
L 241.425075 44.317376 
L 241.654726 44.139192 
L 242.343678 44.142635 
L 242.802979 43.797417 
L 243.26228 44.34979 
L 243.491931 44.361321 
L 243.721581 44.247891 
L 244.180883 44.429689 
L 244.410533 44.186192 
L 244.869835 44.123607 
L 245.099485 44.318494 
L 245.329136 44.266789 
L 245.558787 44.684048 
L 245.788437 44.647613 
L 246.018088 44.235335 
L 246.247738 44.096864 
L 246.477389 43.735626 
L 247.395992 44.101023 
L 247.625642 44.063485 
L 247.855293 44.346754 
L 248.084943 44.152228 
L 248.314594 44.522842 
L 248.544245 44.375731 
L 248.773895 43.999663 
L 249.003546 44.161802 
L 249.233197 44.113514 
L 249.462847 44.488451 
L 249.692498 44.46002 
L 249.922149 44.306443 
L 250.840751 44.630102 
L 251.070402 44.405411 
L 251.759354 44.505299 
L 251.989004 44.535695 
L 252.218655 44.112463 
L 252.448305 43.985438 
L 253.596559 44.853894 
L 254.285511 44.740037 
L 254.515161 44.567503 
L 254.744812 44.650202 
L 254.974462 44.540649 
L 255.204113 44.824641 
L 255.433764 45.723132 
L 255.663414 44.950076 
L 255.893065 44.77703 
L 256.122716 44.388866 
L 256.352366 44.266526 
L 256.582017 44.292612 
L 256.811667 44.544598 
L 257.041318 44.608597 
L 257.270969 44.886511 
L 257.500619 44.596106 
L 258.419222 44.691473 
L 258.648872 44.890894 
L 258.878523 44.67797 
L 259.337824 44.614964 
L 259.567475 44.382058 
L 260.026776 44.829832 
L 260.486078 45.215887 
L 260.715728 46.814979 
L 261.175029 46.208595 
L 261.40468 49.952789 
L 261.634331 48.906628 
L 262.093632 45.213377 
L 262.323283 45.462433 
L 262.552933 47.483086 
L 262.782584 47.039486 
L 263.012234 47.750885 
L 263.241885 46.568577 
L 263.471536 50.753912 
L 263.930837 48.244045 
L 264.160488 50.133316 
L 264.390138 48.491449 
L 264.619789 48.7534 
L 264.84944 50.058876 
L 265.538391 48.220309 
L 265.768042 46.985876 
L 265.997693 52.805817 
L 266.227343 52.749575 
L 266.456994 51.552301 
L 266.686645 49.352759 
L 266.916295 50.461664 
L 267.145946 50.627153 
L 267.605247 49.604102 
L 267.834898 50.497737 
L 268.064548 49.766079 
L 268.294199 50.895586 
L 268.52385 54.575238 
L 268.7535 118.056405 
L 268.983151 119.579277 
L 269.212802 65.076787 
L 269.442452 52.717405 
L 269.672103 50.693383 
L 269.901753 51.690496 
L 270.131404 52.047102 
L 270.361055 62.966961 
L 270.590705 63.031183 
L 270.820356 53.938215 
L 271.050007 114.777106 
L 271.279657 119.256497 
L 271.509308 118.672172 
L 271.738958 56.416675 
L 271.968609 56.148183 
L 272.19826 64.368892 
L 272.42791 120.624248 
L 272.657561 117.538134 
L 272.887212 52.606679 
L 273.116862 58.363303 
L 273.346513 118.151306 
L 273.576164 120.904672 
L 273.805814 120.555295 
L 274.035465 119.918982 
L 274.265115 117.801311 
L 274.494766 120.035927 
L 274.954067 121.401312 
L 275.183718 121.445993 
L 275.413369 121.743665 
L 275.643019 121.693222 
L 276.10232 122.023919 
L 276.561622 118.477639 
L 276.791272 64.405076 
L 277.020923 53.867265 
L 277.250574 51.455666 
L 277.480224 118.533944 
L 277.709875 121.814629 
L 277.939526 121.730281 
L 278.169176 122.380235 
L 278.169176 122.380235 
" style="fill:none;stroke:#ff0000;stroke-dasharray:1.5,2.475;stroke-dashoffset:0;stroke-width:1.5;"/>
   </g>
   <g id="patch_3">
    <path d="M 38.482813 143.1 
L 38.482813 7.2 
" style="fill:none;stroke:#000000;stroke-linecap:square;stroke-linejoin:miter;stroke-width:0.8;"/>
   </g>
   <g id="patch_4">
    <path d="M 289.582813 143.1 
L 289.582813 7.2 
" style="fill:none;stroke:#000000;stroke-linecap:square;stroke-linejoin:miter;stroke-width:0.8;"/>
   </g>
   <g id="patch_5">
    <path d="M 38.482813 143.1 
L 289.582813 143.1 
" style="fill:none;stroke:#000000;stroke-linecap:square;stroke-linejoin:miter;stroke-width:0.8;"/>
   </g>
   <g id="patch_6">
    <path d="M 38.482813 7.2 
L 289.582813 7.2 
" style="fill:none;stroke:#000000;stroke-linecap:square;stroke-linejoin:miter;stroke-width:0.8;"/>
   </g>
   <g id="legend_1">
    <g id="patch_7">
     <path d="M 45.482813 138.1 
L 115.017188 138.1 
Q 117.017188 138.1 117.017188 136.1 
L 117.017188 78.3875 
Q 117.017188 76.3875 115.017188 76.3875 
L 45.482813 76.3875 
Q 43.482813 76.3875 43.482813 78.3875 
L 43.482813 136.1 
Q 43.482813 138.1 45.482813 138.1 
z
" style="fill:#ffffff;opacity:0.8;stroke:#cccccc;stroke-linejoin:miter;"/>
    </g>
    <g id="line2d_27">
     <path d="M 47.482813 84.485938 
L 67.482812 84.485938 
" style="fill:none;stroke:#1f77b4;stroke-linecap:square;stroke-width:1.5;"/>
    </g>
    <g id="line2d_28"/>
    <g id="text_12">
     <!-- step 4 -->
     <g transform="translate(75.482812 87.985938)scale(0.1 -0.1)">
      <defs>
       <path d="M 44.28125 53.078125 
L 44.28125 44.578125 
Q 40.484375 46.53125 36.375 47.5 
Q 32.28125 48.484375 27.875 48.484375 
Q 21.1875 48.484375 17.84375 46.4375 
Q 14.5 44.390625 14.5 40.28125 
Q 14.5 37.15625 16.890625 35.375 
Q 19.28125 33.59375 26.515625 31.984375 
L 29.59375 31.296875 
Q 39.15625 29.25 43.1875 25.515625 
Q 47.21875 21.78125 47.21875 15.09375 
Q 47.21875 7.46875 41.1875 3.015625 
Q 35.15625 -1.421875 24.609375 -1.421875 
Q 20.21875 -1.421875 15.453125 -0.5625 
Q 10.6875 0.296875 5.421875 2 
L 5.421875 11.28125 
Q 10.40625 8.6875 15.234375 7.390625 
Q 20.0625 6.109375 24.8125 6.109375 
Q 31.15625 6.109375 34.5625 8.28125 
Q 37.984375 10.453125 37.984375 14.40625 
Q 37.984375 18.0625 35.515625 20.015625 
Q 33.0625 21.96875 24.703125 23.78125 
L 21.578125 24.515625 
Q 13.234375 26.265625 9.515625 29.90625 
Q 5.8125 33.546875 5.8125 39.890625 
Q 5.8125 47.609375 11.28125 51.796875 
Q 16.75 56 26.8125 56 
Q 31.78125 56 36.171875 55.265625 
Q 40.578125 54.546875 44.28125 53.078125 
z
" id="DejaVuSans-115"/>
       <path d="M 18.3125 70.21875 
L 18.3125 54.6875 
L 36.8125 54.6875 
L 36.8125 47.703125 
L 18.3125 47.703125 
L 18.3125 18.015625 
Q 18.3125 11.328125 20.140625 9.421875 
Q 21.96875 7.515625 27.59375 7.515625 
L 36.8125 7.515625 
L 36.8125 0 
L 27.59375 0 
Q 17.1875 0 13.234375 3.875 
Q 9.28125 7.765625 9.28125 18.015625 
L 9.28125 47.703125 
L 2.6875 47.703125 
L 2.6875 54.6875 
L 9.28125 54.6875 
L 9.28125 70.21875 
z
" id="DejaVuSans-116"/>
       <path d="M 56.203125 29.59375 
L 56.203125 25.203125 
L 14.890625 25.203125 
Q 15.484375 15.921875 20.484375 11.0625 
Q 25.484375 6.203125 34.421875 6.203125 
Q 39.59375 6.203125 44.453125 7.46875 
Q 49.3125 8.734375 54.109375 11.28125 
L 54.109375 2.78125 
Q 49.265625 0.734375 44.1875 -0.34375 
Q 39.109375 -1.421875 33.890625 -1.421875 
Q 20.796875 -1.421875 13.15625 6.1875 
Q 5.515625 13.8125 5.515625 26.8125 
Q 5.515625 40.234375 12.765625 48.109375 
Q 20.015625 56 32.328125 56 
Q 43.359375 56 49.78125 48.890625 
Q 56.203125 41.796875 56.203125 29.59375 
z
M 47.21875 32.234375 
Q 47.125 39.59375 43.09375 43.984375 
Q 39.0625 48.390625 32.421875 48.390625 
Q 24.90625 48.390625 20.390625 44.140625 
Q 15.875 39.890625 15.1875 32.171875 
z
" id="DejaVuSans-101"/>
       <path d="M 18.109375 8.203125 
L 18.109375 -20.796875 
L 9.078125 -20.796875 
L 9.078125 54.6875 
L 18.109375 54.6875 
L 18.109375 46.390625 
Q 20.953125 51.265625 25.265625 53.625 
Q 29.59375 56 35.59375 56 
Q 45.5625 56 51.78125 48.09375 
Q 58.015625 40.1875 58.015625 27.296875 
Q 58.015625 14.40625 51.78125 6.484375 
Q 45.5625 -1.421875 35.59375 -1.421875 
Q 29.59375 -1.421875 25.265625 0.953125 
Q 20.953125 3.328125 18.109375 8.203125 
z
M 48.6875 27.296875 
Q 48.6875 37.203125 44.609375 42.84375 
Q 40.53125 48.484375 33.40625 48.484375 
Q 26.265625 48.484375 22.1875 42.84375 
Q 18.109375 37.203125 18.109375 27.296875 
Q 18.109375 17.390625 22.1875 11.75 
Q 26.265625 6.109375 33.40625 6.109375 
Q 40.53125 6.109375 44.609375 11.75 
Q 48.6875 17.390625 48.6875 27.296875 
z
" id="DejaVuSans-112"/>
       <path id="DejaVuSans-32"/>
      </defs>
      <use xlink:href="#DejaVuSans-115"/>
      <use x="52.099609" xlink:href="#DejaVuSans-116"/>
      <use x="91.308594" xlink:href="#DejaVuSans-101"/>
      <use x="152.832031" xlink:href="#DejaVuSans-112"/>
      <use x="216.308594" xlink:href="#DejaVuSans-32"/>
      <use x="248.095703" xlink:href="#DejaVuSans-52"/>
     </g>
    </g>
    <g id="line2d_29">
     <path d="M 47.482813 99.164062 
L 67.482812 99.164062 
" style="fill:none;stroke:#bf00bf;stroke-dasharray:5.55,2.4;stroke-dashoffset:0;stroke-width:1.5;"/>
    </g>
    <g id="line2d_30"/>
    <g id="text_13">
     <!-- step 8 -->
     <g transform="translate(75.482812 102.664062)scale(0.1 -0.1)">
      <use xlink:href="#DejaVuSans-115"/>
      <use x="52.099609" xlink:href="#DejaVuSans-116"/>
      <use x="91.308594" xlink:href="#DejaVuSans-101"/>
      <use x="152.832031" xlink:href="#DejaVuSans-112"/>
      <use x="216.308594" xlink:href="#DejaVuSans-32"/>
      <use x="248.095703" xlink:href="#DejaVuSans-56"/>
     </g>
    </g>
    <g id="line2d_31">
     <path d="M 47.482813 113.842188 
L 67.482812 113.842188 
" style="fill:none;stroke:#008000;stroke-dasharray:9.6,2.4,1.5,2.4;stroke-dashoffset:0;stroke-width:1.5;"/>
    </g>
    <g id="line2d_32"/>
    <g id="text_14">
     <!-- step 16 -->
     <g transform="translate(75.482812 117.342188)scale(0.1 -0.1)">
      <use xlink:href="#DejaVuSans-115"/>
      <use x="52.099609" xlink:href="#DejaVuSans-116"/>
      <use x="91.308594" xlink:href="#DejaVuSans-101"/>
      <use x="152.832031" xlink:href="#DejaVuSans-112"/>
      <use x="216.308594" xlink:href="#DejaVuSans-32"/>
      <use x="248.095703" xlink:href="#DejaVuSans-49"/>
      <use x="311.71875" xlink:href="#DejaVuSans-54"/>
     </g>
    </g>
    <g id="line2d_33">
     <path d="M 47.482813 128.520313 
L 67.482812 128.520313 
" style="fill:none;stroke:#ff0000;stroke-dasharray:1.5,2.475;stroke-dashoffset:0;stroke-width:1.5;"/>
    </g>
    <g id="line2d_34"/>
    <g id="text_15">
     <!-- step 32 -->
     <g transform="translate(75.482812 132.020313)scale(0.1 -0.1)">
      <defs>
       <path d="M 40.578125 39.3125 
Q 47.65625 37.796875 51.625 33 
Q 55.609375 28.21875 55.609375 21.1875 
Q 55.609375 10.40625 48.1875 4.484375 
Q 40.765625 -1.421875 27.09375 -1.421875 
Q 22.515625 -1.421875 17.65625 -0.515625 
Q 12.796875 0.390625 7.625 2.203125 
L 7.625 11.71875 
Q 11.71875 9.328125 16.59375 8.109375 
Q 21.484375 6.890625 26.8125 6.890625 
Q 36.078125 6.890625 40.9375 10.546875 
Q 45.796875 14.203125 45.796875 21.1875 
Q 45.796875 27.640625 41.28125 31.265625 
Q 36.765625 34.90625 28.71875 34.90625 
L 20.21875 34.90625 
L 20.21875 43.015625 
L 29.109375 43.015625 
Q 36.375 43.015625 40.234375 45.921875 
Q 44.09375 48.828125 44.09375 54.296875 
Q 44.09375 59.90625 40.109375 62.90625 
Q 36.140625 65.921875 28.71875 65.921875 
Q 24.65625 65.921875 20.015625 65.03125 
Q 15.375 64.15625 9.8125 62.3125 
L 9.8125 71.09375 
Q 15.4375 72.65625 20.34375 73.4375 
Q 25.25 74.21875 29.59375 74.21875 
Q 40.828125 74.21875 47.359375 69.109375 
Q 53.90625 64.015625 53.90625 55.328125 
Q 53.90625 49.265625 50.4375 45.09375 
Q 46.96875 40.921875 40.578125 39.3125 
z
" id="DejaVuSans-51"/>
      </defs>
      <use xlink:href="#DejaVuSans-115"/>
      <use x="52.099609" xlink:href="#DejaVuSans-116"/>
      <use x="91.308594" xlink:href="#DejaVuSans-101"/>
      <use x="152.832031" xlink:href="#DejaVuSans-112"/>
      <use x="216.308594" xlink:href="#DejaVuSans-32"/>
      <use x="248.095703" xlink:href="#DejaVuSans-51"/>
      <use x="311.71875" xlink:href="#DejaVuSans-50"/>
     </g>
    </g>
   </g>
  </g>
 </g>
 <defs>
  <clipPath id="pf9514a9d6c">
   <rect height="135.9" width="251.1" x="38.482813" y="7.2"/>
  </clipPath>
 </defs>
</svg>
