<?xml version="1.0" encoding="utf-8" standalone="no"?>
<!DOCTYPE svg PUBLIC "-//W3C//DTD SVG 1.1//EN"
  "http://www.w3.org/Graphics/SVG/1.1/DTD/svg11.dtd">
<!-- Created with matplotlib (https://matplotlib.org/) -->
<svg height="166.978125pt" version="1.1" viewBox="0 0 235.467638 166.978125" width="235.467638pt" xmlns="http://www.w3.org/2000/svg" xmlns:xlink="http://www.w3.org/1999/xlink">
 <metadata>
  <rdf:RDF xmlns:cc="http://creativecommons.org/ns#" xmlns:dc="http://purl.org/dc/elements/1.1/" xmlns:rdf="http://www.w3.org/1999/02/22-rdf-syntax-ns#">
   <cc:Work>
    <dc:type rdf:resource="http://purl.org/dc/dcmitype/StillImage"/>
    <dc:date>2020-08-13T04:28:35.446146</dc:date>
    <dc:format>image/svg+xml</dc:format>
    <dc:creator>
     <cc:Agent>
      <dc:title>Matplotlib v3.3.0, https://matplotlib.org/</dc:title>
     </cc:Agent>
    </dc:creator>
   </cc:Work>
  </rdf:RDF>
 </metadata>
 <defs>
  <style type="text/css">*{stroke-linecap:butt;stroke-linejoin:round;}</style>
 </defs>
 <g id="figure_1">
  <g id="patch_1">
   <path d="M 0 166.978125 
L 235.467638 166.978125 
L 235.467638 0 
L 0 0 
z
" style="fill:none;"/>
  </g>
  <g id="axes_1">
   <g id="patch_2">
    <path d="M 28.942188 143.1 
L 224.242188 143.1 
L 224.242188 7.2 
L 28.942188 7.2 
z
" style="fill:#ffffff;"/>
   </g>
   <g id="matplotlib.axis_1">
    <g id="xtick_1">
     <g id="line2d_1">
      <path clip-path="url(#p2861582b2e)" d="M 37.81946 143.1 
L 37.81946 7.2 
" style="fill:none;stroke:#b0b0b0;stroke-linecap:square;stroke-width:0.8;"/>
     </g>
     <g id="line2d_2">
      <defs>
       <path d="M 0 0 
L 0 3.5 
" id="m609660fc87" style="stroke:#000000;stroke-width:0.8;"/>
      </defs>
      <g>
       <use style="stroke:#000000;stroke-width:0.8;" x="37.81946" xlink:href="#m609660fc87" y="143.1"/>
      </g>
     </g>
     <g id="text_1">
      <!-- 0 -->
      <g transform="translate(34.63821 157.698438)scale(0.1 -0.1)">
       <defs>
        <path d="M 31.78125 66.40625 
Q 24.171875 66.40625 20.328125 58.90625 
Q 16.5 51.421875 16.5 36.375 
Q 16.5 21.390625 20.328125 13.890625 
Q 24.171875 6.390625 31.78125 6.390625 
Q 39.453125 6.390625 43.28125 13.890625 
Q 47.125 21.390625 47.125 36.375 
Q 47.125 51.421875 43.28125 58.90625 
Q 39.453125 66.40625 31.78125 66.40625 
z
M 31.78125 74.21875 
Q 44.046875 74.21875 50.515625 64.515625 
Q 56.984375 54.828125 56.984375 36.375 
Q 56.984375 17.96875 50.515625 8.265625 
Q 44.046875 -1.421875 31.78125 -1.421875 
Q 19.53125 -1.421875 13.0625 8.265625 
Q 6.59375 17.96875 6.59375 36.375 
Q 6.59375 54.828125 13.0625 64.515625 
Q 19.53125 74.21875 31.78125 74.21875 
z
" id="DejaVuSans-48"/>
       </defs>
       <use xlink:href="#DejaVuSans-48"/>
      </g>
     </g>
    </g>
    <g id="xtick_2">
     <g id="line2d_3">
      <path clip-path="url(#p2861582b2e)" d="M 73.364096 143.1 
L 73.364096 7.2 
" style="fill:none;stroke:#b0b0b0;stroke-linecap:square;stroke-width:0.8;"/>
     </g>
     <g id="line2d_4">
      <g>
       <use style="stroke:#000000;stroke-width:0.8;" x="73.364096" xlink:href="#m609660fc87" y="143.1"/>
      </g>
     </g>
     <g id="text_2">
      <!-- 200 -->
      <g transform="translate(63.820346 157.698438)scale(0.1 -0.1)">
       <defs>
        <path d="M 19.1875 8.296875 
L 53.609375 8.296875 
L 53.609375 0 
L 7.328125 0 
L 7.328125 8.296875 
Q 12.9375 14.109375 22.625 23.890625 
Q 32.328125 33.6875 34.8125 36.53125 
Q 39.546875 41.84375 41.421875 45.53125 
Q 43.3125 49.21875 43.3125 52.78125 
Q 43.3125 58.59375 39.234375 62.25 
Q 35.15625 65.921875 28.609375 65.921875 
Q 23.96875 65.921875 18.8125 64.3125 
Q 13.671875 62.703125 7.8125 59.421875 
L 7.8125 69.390625 
Q 13.765625 71.78125 18.9375 73 
Q 24.125 74.21875 28.421875 74.21875 
Q 39.75 74.21875 46.484375 68.546875 
Q 53.21875 62.890625 53.21875 53.421875 
Q 53.21875 48.921875 51.53125 44.890625 
Q 49.859375 40.875 45.40625 35.40625 
Q 44.1875 33.984375 37.640625 27.21875 
Q 31.109375 20.453125 19.1875 8.296875 
z
" id="DejaVuSans-50"/>
       </defs>
       <use xlink:href="#DejaVuSans-50"/>
       <use x="63.623047" xlink:href="#DejaVuSans-48"/>
       <use x="127.246094" xlink:href="#DejaVuSans-48"/>
      </g>
     </g>
    </g>
    <g id="xtick_3">
     <g id="line2d_5">
      <path clip-path="url(#p2861582b2e)" d="M 108.908731 143.1 
L 108.908731 7.2 
" style="fill:none;stroke:#b0b0b0;stroke-linecap:square;stroke-width:0.8;"/>
     </g>
     <g id="line2d_6">
      <g>
       <use style="stroke:#000000;stroke-width:0.8;" x="108.908731" xlink:href="#m609660fc87" y="143.1"/>
      </g>
     </g>
     <g id="text_3">
      <!-- 400 -->
      <g transform="translate(99.364981 157.698438)scale(0.1 -0.1)">
       <defs>
        <path d="M 37.796875 64.3125 
L 12.890625 25.390625 
L 37.796875 25.390625 
z
M 35.203125 72.90625 
L 47.609375 72.90625 
L 47.609375 25.390625 
L 58.015625 25.390625 
L 58.015625 17.1875 
L 47.609375 17.1875 
L 47.609375 0 
L 37.796875 0 
L 37.796875 17.1875 
L 4.890625 17.1875 
L 4.890625 26.703125 
z
" id="DejaVuSans-52"/>
       </defs>
       <use xlink:href="#DejaVuSans-52"/>
       <use x="63.623047" xlink:href="#DejaVuSans-48"/>
       <use x="127.246094" xlink:href="#DejaVuSans-48"/>
      </g>
     </g>
    </g>
    <g id="xtick_4">
     <g id="line2d_7">
      <path clip-path="url(#p2861582b2e)" d="M 144.453367 143.1 
L 144.453367 7.2 
" style="fill:none;stroke:#b0b0b0;stroke-linecap:square;stroke-width:0.8;"/>
     </g>
     <g id="line2d_8">
      <g>
       <use style="stroke:#000000;stroke-width:0.8;" x="144.453367" xlink:href="#m609660fc87" y="143.1"/>
      </g>
     </g>
     <g id="text_4">
      <!-- 600 -->
      <g transform="translate(134.909617 157.698438)scale(0.1 -0.1)">
       <defs>
        <path d="M 33.015625 40.375 
Q 26.375 40.375 22.484375 35.828125 
Q 18.609375 31.296875 18.609375 23.390625 
Q 18.609375 15.53125 22.484375 10.953125 
Q 26.375 6.390625 33.015625 6.390625 
Q 39.65625 6.390625 43.53125 10.953125 
Q 47.40625 15.53125 47.40625 23.390625 
Q 47.40625 31.296875 43.53125 35.828125 
Q 39.65625 40.375 33.015625 40.375 
z
M 52.59375 71.296875 
L 52.59375 62.3125 
Q 48.875 64.0625 45.09375 64.984375 
Q 41.3125 65.921875 37.59375 65.921875 
Q 27.828125 65.921875 22.671875 59.328125 
Q 17.53125 52.734375 16.796875 39.40625 
Q 19.671875 43.65625 24.015625 45.921875 
Q 28.375 48.1875 33.59375 48.1875 
Q 44.578125 48.1875 50.953125 41.515625 
Q 57.328125 34.859375 57.328125 23.390625 
Q 57.328125 12.15625 50.6875 5.359375 
Q 44.046875 -1.421875 33.015625 -1.421875 
Q 20.359375 -1.421875 13.671875 8.265625 
Q 6.984375 17.96875 6.984375 36.375 
Q 6.984375 53.65625 15.1875 63.9375 
Q 23.390625 74.21875 37.203125 74.21875 
Q 40.921875 74.21875 44.703125 73.484375 
Q 48.484375 72.75 52.59375 71.296875 
z
" id="DejaVuSans-54"/>
       </defs>
       <use xlink:href="#DejaVuSans-54"/>
       <use x="63.623047" xlink:href="#DejaVuSans-48"/>
       <use x="127.246094" xlink:href="#DejaVuSans-48"/>
      </g>
     </g>
    </g>
    <g id="xtick_5">
     <g id="line2d_9">
      <path clip-path="url(#p2861582b2e)" d="M 179.998002 143.1 
L 179.998002 7.2 
" style="fill:none;stroke:#b0b0b0;stroke-linecap:square;stroke-width:0.8;"/>
     </g>
     <g id="line2d_10">
      <g>
       <use style="stroke:#000000;stroke-width:0.8;" x="179.998002" xlink:href="#m609660fc87" y="143.1"/>
      </g>
     </g>
     <g id="text_5">
      <!-- 800 -->
      <g transform="translate(170.454252 157.698438)scale(0.1 -0.1)">
       <defs>
        <path d="M 31.78125 34.625 
Q 24.75 34.625 20.71875 30.859375 
Q 16.703125 27.09375 16.703125 20.515625 
Q 16.703125 13.921875 20.71875 10.15625 
Q 24.75 6.390625 31.78125 6.390625 
Q 38.8125 6.390625 42.859375 10.171875 
Q 46.921875 13.96875 46.921875 20.515625 
Q 46.921875 27.09375 42.890625 30.859375 
Q 38.875 34.625 31.78125 34.625 
z
M 21.921875 38.8125 
Q 15.578125 40.375 12.03125 44.71875 
Q 8.5 49.078125 8.5 55.328125 
Q 8.5 64.0625 14.71875 69.140625 
Q 20.953125 74.21875 31.78125 74.21875 
Q 42.671875 74.21875 48.875 69.140625 
Q 55.078125 64.0625 55.078125 55.328125 
Q 55.078125 49.078125 51.53125 44.71875 
Q 48 40.375 41.703125 38.8125 
Q 48.828125 37.15625 52.796875 32.3125 
Q 56.78125 27.484375 56.78125 20.515625 
Q 56.78125 9.90625 50.3125 4.234375 
Q 43.84375 -1.421875 31.78125 -1.421875 
Q 19.734375 -1.421875 13.25 4.234375 
Q 6.78125 9.90625 6.78125 20.515625 
Q 6.78125 27.484375 10.78125 32.3125 
Q 14.796875 37.15625 21.921875 38.8125 
z
M 18.3125 54.390625 
Q 18.3125 48.734375 21.84375 45.5625 
Q 25.390625 42.390625 31.78125 42.390625 
Q 38.140625 42.390625 41.71875 45.5625 
Q 45.3125 48.734375 45.3125 54.390625 
Q 45.3125 60.0625 41.71875 63.234375 
Q 38.140625 66.40625 31.78125 66.40625 
Q 25.390625 66.40625 21.84375 63.234375 
Q 18.3125 60.0625 18.3125 54.390625 
z
" id="DejaVuSans-56"/>
       </defs>
       <use xlink:href="#DejaVuSans-56"/>
       <use x="63.623047" xlink:href="#DejaVuSans-48"/>
       <use x="127.246094" xlink:href="#DejaVuSans-48"/>
      </g>
     </g>
    </g>
    <g id="xtick_6">
     <g id="line2d_11">
      <path clip-path="url(#p2861582b2e)" d="M 215.542638 143.1 
L 215.542638 7.2 
" style="fill:none;stroke:#b0b0b0;stroke-linecap:square;stroke-width:0.8;"/>
     </g>
     <g id="line2d_12">
      <g>
       <use style="stroke:#000000;stroke-width:0.8;" x="215.542638" xlink:href="#m609660fc87" y="143.1"/>
      </g>
     </g>
     <g id="text_6">
      <!-- 1000 -->
      <g transform="translate(202.817638 157.698438)scale(0.1 -0.1)">
       <defs>
        <path d="M 12.40625 8.296875 
L 28.515625 8.296875 
L 28.515625 63.921875 
L 10.984375 60.40625 
L 10.984375 69.390625 
L 28.421875 72.90625 
L 38.28125 72.90625 
L 38.28125 8.296875 
L 54.390625 8.296875 
L 54.390625 0 
L 12.40625 0 
z
" id="DejaVuSans-49"/>
       </defs>
       <use xlink:href="#DejaVuSans-49"/>
       <use x="63.623047" xlink:href="#DejaVuSans-48"/>
       <use x="127.246094" xlink:href="#DejaVuSans-48"/>
       <use x="190.869141" xlink:href="#DejaVuSans-48"/>
      </g>
     </g>
    </g>
   </g>
   <g id="matplotlib.axis_2">
    <g id="ytick_1">
     <g id="line2d_13">
      <path clip-path="url(#p2861582b2e)" d="M 28.942188 120.878362 
L 224.242188 120.878362 
" style="fill:none;stroke:#b0b0b0;stroke-linecap:square;stroke-width:0.8;"/>
     </g>
     <g id="line2d_14">
      <defs>
       <path d="M 0 0 
L -3.5 0 
" id="m0992b94420" style="stroke:#000000;stroke-width:0.8;"/>
      </defs>
      <g>
       <use style="stroke:#000000;stroke-width:0.8;" x="28.942188" xlink:href="#m0992b94420" y="120.878362"/>
      </g>
     </g>
     <g id="text_7">
      <!-- −1 -->
      <g transform="translate(7.2 124.677581)scale(0.1 -0.1)">
       <defs>
        <path d="M 10.59375 35.5 
L 73.1875 35.5 
L 73.1875 27.203125 
L 10.59375 27.203125 
z
" id="DejaVuSans-8722"/>
       </defs>
       <use xlink:href="#DejaVuSans-8722"/>
       <use x="83.789062" xlink:href="#DejaVuSans-49"/>
      </g>
     </g>
    </g>
    <g id="ytick_2">
     <g id="line2d_15">
      <path clip-path="url(#p2861582b2e)" d="M 28.942188 79.495756 
L 224.242188 79.495756 
" style="fill:none;stroke:#b0b0b0;stroke-linecap:square;stroke-width:0.8;"/>
     </g>
     <g id="line2d_16">
      <g>
       <use style="stroke:#000000;stroke-width:0.8;" x="28.942188" xlink:href="#m0992b94420" y="79.495756"/>
      </g>
     </g>
     <g id="text_8">
      <!-- 0 -->
      <g transform="translate(15.579688 83.294975)scale(0.1 -0.1)">
       <use xlink:href="#DejaVuSans-48"/>
      </g>
     </g>
    </g>
    <g id="ytick_3">
     <g id="line2d_17">
      <path clip-path="url(#p2861582b2e)" d="M 28.942188 38.113151 
L 224.242188 38.113151 
" style="fill:none;stroke:#b0b0b0;stroke-linecap:square;stroke-width:0.8;"/>
     </g>
     <g id="line2d_18">
      <g>
       <use style="stroke:#000000;stroke-width:0.8;" x="28.942188" xlink:href="#m0992b94420" y="38.113151"/>
      </g>
     </g>
     <g id="text_9">
      <!-- 1 -->
      <g transform="translate(15.579688 41.91237)scale(0.1 -0.1)">
       <use xlink:href="#DejaVuSans-49"/>
      </g>
     </g>
    </g>
   </g>
   <g id="line2d_19">
    <path clip-path="url(#p2861582b2e)" d="M 37.81946 61.186383 
L 37.997183 69.455692 
L 38.35263 74.250246 
L 38.530353 69.204836 
L 38.708076 74.948145 
L 38.885799 67.215505 
L 39.063522 75.334821 
L 39.241246 60.531889 
L 39.418969 85.450069 
L 39.596692 85.583753 
L 39.774415 62.057434 
L 39.952138 89.199713 
L 40.129862 78.64968 
L 40.307585 77.456992 
L 40.485308 92.808037 
L 40.663031 68.107474 
L 40.840754 68.013309 
L 41.018477 87.448948 
L 41.196201 49.511565 
L 41.373924 87.635989 
L 41.551647 60.485135 
L 41.72937 72.186522 
L 41.907093 74.603392 
L 42.084816 67.636041 
L 42.26254 74.894379 
L 42.440263 69.164654 
L 42.617986 69.57766 
L 42.795709 72.096312 
L 42.973432 64.540147 
L 43.151156 67.453554 
L 43.506602 61.722367 
L 43.684325 61.357899 
L 43.862048 53.560768 
L 44.039771 88.132088 
L 44.217495 59.237635 
L 44.395218 55.623313 
L 44.750664 68.845451 
L 45.106111 47.847901 
L 45.461557 71.736126 
L 45.63928 69.906686 
L 45.817003 61.050159 
L 45.994726 67.544097 
L 46.17245 81.507359 
L 46.350173 66.909831 
L 46.527896 64.916834 
L 46.705619 53.516581 
L 46.883342 52.187449 
L 47.061065 71.128553 
L 47.238789 60.462035 
L 47.416512 67.100946 
L 47.594235 56.199411 
L 47.771958 66.142018 
L 47.949681 54.267141 
L 48.127405 67.807366 
L 48.305128 52.035442 
L 48.482851 68.336971 
L 48.660574 43.213296 
L 48.838297 59.78908 
L 49.01602 39.356187 
L 49.193744 44.302061 
L 49.371467 67.474203 
L 49.54919 46.715368 
L 49.904636 58.453773 
L 50.260083 42.870957 
L 50.437806 41.669042 
L 50.615529 60.247017 
L 50.793252 47.730979 
L 51.148699 61.132234 
L 51.326422 47.909945 
L 51.504145 55.241723 
L 51.681868 42.695 
L 51.859591 63.27468 
L 52.037314 61.583669 
L 52.215038 58.694863 
L 52.570484 48.306705 
L 52.748207 32.054339 
L 52.92593 56.008328 
L 53.103654 45.764619 
L 53.281377 54.037755 
L 53.4591 42.961918 
L 53.636823 57.337256 
L 53.992269 31.810249 
L 54.347716 58.92565 
L 54.525439 61.71199 
L 54.703162 66.651982 
L 54.880885 40.176081 
L 55.058608 56.573966 
L 55.236332 48.891885 
L 55.414055 52.823463 
L 55.591778 41.982731 
L 55.947224 54.994723 
L 56.124948 34.815303 
L 56.480394 47.557957 
L 56.658117 31.3661 
L 56.83584 52.91113 
L 57.013563 40.998922 
L 57.191287 49.361357 
L 57.36901 38.650985 
L 57.546733 34.714833 
L 57.724456 34.228539 
L 57.902179 68.187654 
L 58.257626 23.568407 
L 58.435349 42.119913 
L 58.613072 45.850368 
L 58.790795 43.870742 
L 58.968518 48.20462 
L 59.146242 42.385055 
L 59.323965 56.349964 
L 59.501688 37.68236 
L 59.679411 46.456933 
L 59.857134 34.19743 
L 60.034857 43.170873 
L 60.212581 33.650502 
L 60.390304 41.292457 
L 60.74575 24.857287 
L 61.27892 38.858006 
L 61.456643 53.68872 
L 61.634366 32.186159 
L 61.989812 45.653533 
L 62.167536 37.737814 
L 62.345259 40.261358 
L 62.700705 30.965741 
L 62.878428 34.857343 
L 63.056151 35.624376 
L 63.233875 45.923996 
L 63.411598 32.016496 
L 63.589321 34.327435 
L 63.767044 46.728725 
L 63.944767 45.808006 
L 64.122491 41.524475 
L 64.300214 48.296505 
L 64.477937 27.319793 
L 64.65566 20.34206 
L 64.833383 41.74965 
L 65.011106 29.094543 
L 65.18883 32.212083 
L 65.366553 22.999708 
L 65.544276 30.45634 
L 65.721999 46.759397 
L 65.899722 45.604749 
L 66.077445 29.792786 
L 66.255169 38.748921 
L 66.610615 31.355464 
L 66.966061 53.759738 
L 67.143785 26.846936 
L 67.499231 36.612602 
L 67.676954 22.536003 
L 68.0324 35.698502 
L 68.210124 40.465104 
L 68.56557 36.163307 
L 68.743293 54.594138 
L 68.921016 55.314061 
L 69.276463 36.025331 
L 69.454186 30.674777 
L 69.631909 45.430585 
L 69.809632 42.124565 
L 69.987355 28.867695 
L 70.165079 25.880973 
L 70.342802 47.465633 
L 70.698248 35.510794 
L 70.875971 54.214993 
L 71.053694 33.693229 
L 71.231418 33.671809 
L 71.409141 26.266487 
L 71.586864 32.958815 
L 71.764587 30.064531 
L 71.94231 13.377273 
L 72.297757 50.813873 
L 72.47548 27.476989 
L 72.653203 25.533292 
L 72.830926 51.413081 
L 73.008649 46.221968 
L 73.186373 21.832925 
L 73.364096 42.064652 
L 73.541819 45.227964 
L 73.719542 33.31581 
L 73.897265 50.575733 
L 74.074988 53.086742 
L 74.252712 34.84061 
L 74.608158 55.558619 
L 74.785881 31.821053 
L 74.963604 38.099999 
L 75.141328 35.461403 
L 75.319051 45.549162 
L 75.496774 48.765213 
L 75.674497 46.676342 
L 75.85222 60.490412 
L 76.029943 37.263576 
L 76.207667 34.835539 
L 76.38539 27.337217 
L 76.563113 49.463116 
L 76.740836 45.173815 
L 76.918559 44.217575 
L 77.096283 45.688554 
L 77.274006 57.495599 
L 77.451729 37.467406 
L 77.629452 59.012792 
L 77.807175 50.243207 
L 77.984898 53.945547 
L 78.340345 45.563246 
L 78.695791 51.149836 
L 78.873514 44.80369 
L 79.051237 47.812998 
L 79.228961 38.055013 
L 79.406684 53.574474 
L 79.584407 35.132951 
L 79.76213 52.226986 
L 79.939853 45.296274 
L 80.117577 53.090669 
L 80.2953 36.246441 
L 80.650746 62.220057 
L 80.828469 61.40075 
L 81.006192 49.265628 
L 81.183916 50.265374 
L 81.361639 56.501337 
L 81.539362 56.488621 
L 81.717085 43.114617 
L 81.894808 63.127453 
L 82.072531 52.660973 
L 82.250255 58.336637 
L 82.427978 55.779465 
L 82.605701 63.17512 
L 82.783424 43.616357 
L 82.961147 74.668273 
L 83.494317 49.374999 
L 83.67204 60.828289 
L 83.849763 53.355951 
L 84.027486 53.952732 
L 84.20521 59.846017 
L 84.382933 51.302397 
L 84.560656 52.268405 
L 84.916102 68.28424 
L 85.093826 73.206721 
L 85.271549 34.771555 
L 85.449272 62.368436 
L 85.804718 66.168459 
L 85.982441 66.264589 
L 86.160165 64.041664 
L 86.337888 51.044934 
L 86.693334 66.334734 
L 86.871057 60.214801 
L 87.04878 65.817362 
L 87.58195 59.329757 
L 87.759673 52.692933 
L 88.11512 77.272253 
L 88.470566 66.449107 
L 88.648289 53.761756 
L 89.003735 69.744738 
L 89.181459 67.418809 
L 89.359182 56.668964 
L 89.536905 61.771694 
L 89.714628 61.199602 
L 89.892351 69.904682 
L 90.070074 58.848061 
L 90.247798 67.184793 
L 90.425521 67.57938 
L 90.603244 87.832621 
L 90.780967 83.805639 
L 90.95869 77.127781 
L 91.136414 79.014395 
L 91.314137 79.667611 
L 91.49186 79.045241 
L 91.669583 79.985133 
L 92.025029 70.390402 
L 92.202753 78.86933 
L 92.380476 62.798355 
L 92.735922 77.44471 
L 92.913645 71.817575 
L 93.091368 87.183126 
L 93.269092 81.329586 
L 93.446815 80.631515 
L 93.624538 83.713631 
L 93.802261 102.943352 
L 93.979984 74.27243 
L 94.157708 83.627571 
L 94.335431 69.151579 
L 94.513154 93.896924 
L 94.690877 80.473664 
L 94.8686 93.163627 
L 95.046323 82.077654 
L 95.40177 85.540139 
L 95.579493 67.389718 
L 95.757216 68.33027 
L 95.934939 88.992795 
L 96.112663 66.109895 
L 96.290386 79.089534 
L 96.468109 83.494496 
L 96.645832 81.759103 
L 96.823555 86.975879 
L 97.001278 85.055962 
L 97.179002 89.549044 
L 97.356725 100.263955 
L 97.534448 82.868593 
L 97.712171 86.621343 
L 97.889894 94.520314 
L 98.067617 93.096403 
L 98.245341 86.156008 
L 98.423064 87.819541 
L 98.600787 85.590959 
L 98.77851 93.614806 
L 98.956233 78.826949 
L 99.133957 102.317199 
L 99.31168 106.744947 
L 99.489403 85.642345 
L 99.667126 92.603754 
L 99.844849 83.036047 
L 100.022572 97.181076 
L 100.200296 88.122012 
L 100.555742 108.698935 
L 100.733465 93.437618 
L 100.911188 94.296782 
L 101.088911 91.641561 
L 101.266635 104.845314 
L 101.622081 92.371448 
L 101.799804 99.250642 
L 101.977527 81.880766 
L 102.332974 104.235487 
L 102.510697 94.441921 
L 102.68842 96.7047 
L 102.866143 106.941217 
L 103.043866 109.525526 
L 103.22159 123.579768 
L 103.399313 86.338044 
L 103.577036 105.380447 
L 103.754759 105.115586 
L 103.932482 88.732698 
L 104.110206 106.839709 
L 104.287929 90.562693 
L 104.465652 113.682736 
L 104.643375 115.703788 
L 104.821098 105.383554 
L 104.998821 111.079942 
L 105.176545 109.397813 
L 105.354268 94.158022 
L 105.531991 102.134903 
L 105.709714 102.135376 
L 105.887437 100.882331 
L 106.06516 103.24159 
L 106.420607 121.530264 
L 106.59833 105.890775 
L 106.776053 108.829924 
L 106.953776 109.329483 
L 107.1315 99.789627 
L 107.309223 99.593875 
L 107.664669 128.027237 
L 107.842392 99.297926 
L 108.197839 113.990725 
L 108.375562 114.585293 
L 108.553285 112.01883 
L 108.731008 112.399147 
L 108.908731 119.673423 
L 109.264178 100.287613 
L 109.441901 118.803055 
L 109.619624 105.474764 
L 109.797347 105.256194 
L 109.97507 115.425694 
L 110.152794 110.77036 
L 110.330517 114.021059 
L 110.50824 111.482076 
L 110.685963 111.897791 
L 110.863686 116.035143 
L 111.041409 99.894135 
L 111.396856 118.847047 
L 111.574579 113.656133 
L 111.752302 123.257009 
L 111.930025 123.26285 
L 112.107749 108.776875 
L 112.285472 124.678384 
L 112.463195 115.253834 
L 112.640918 118.458652 
L 112.818641 108.012795 
L 112.996364 112.100284 
L 113.174088 108.236954 
L 113.351811 125.230877 
L 113.529534 127.017353 
L 113.707257 114.098438 
L 113.88498 116.896076 
L 114.062703 123.35363 
L 114.240427 95.478504 
L 114.41815 121.491094 
L 114.773596 110.002077 
L 114.951319 127.468607 
L 115.484489 113.955921 
L 115.662212 114.933818 
L 115.839935 121.352027 
L 116.017658 118.968573 
L 116.195382 113.593803 
L 116.373105 118.154215 
L 116.550828 117.257676 
L 116.728551 119.900157 
L 116.906274 107.625384 
L 117.083997 107.747786 
L 117.261721 112.275467 
L 117.439444 119.810215 
L 117.617167 110.951874 
L 117.79489 113.318661 
L 117.972613 124.016414 
L 118.150337 123.101337 
L 118.505783 109.318475 
L 118.683506 115.613051 
L 118.861229 112.922033 
L 119.038952 123.612105 
L 119.216676 117.165282 
L 119.394399 124.773348 
L 119.572122 107.063313 
L 119.749845 121.8178 
L 119.927568 122.193033 
L 120.105292 120.745834 
L 120.283015 131.906313 
L 120.460738 114.060004 
L 120.638461 130.795595 
L 120.816184 135.485028 
L 120.993907 122.6171 
L 121.171631 129.77368 
L 121.349354 125.478173 
L 121.527077 113.543864 
L 121.882523 131.20362 
L 122.060246 129.550606 
L 122.23797 120.589859 
L 122.415693 122.477051 
L 122.593416 127.858961 
L 122.948862 111.781864 
L 123.126586 121.039613 
L 123.304309 119.713828 
L 123.482032 122.150001 
L 123.659755 113.661104 
L 123.837478 125.804015 
L 124.015201 110.239938 
L 124.192925 128.720814 
L 124.370648 134.13284 
L 124.548371 122.249878 
L 124.726094 124.352414 
L 124.903817 108.59078 
L 125.08154 123.969603 
L 125.259264 123.215017 
L 125.436987 126.687787 
L 125.61471 119.64797 
L 125.970156 125.777494 
L 126.14788 110.981732 
L 126.325603 120.672461 
L 126.503326 121.430416 
L 126.681049 116.982133 
L 126.858772 124.14001 
L 127.036495 110.459875 
L 127.214219 114.110905 
L 127.569665 131.343051 
L 127.747388 105.799847 
L 127.925111 122.232301 
L 128.102835 107.776369 
L 128.458281 120.562633 
L 128.636004 109.440751 
L 128.813727 121.49066 
L 128.99145 115.069382 
L 129.169174 124.778247 
L 129.346897 124.16105 
L 129.52462 114.700608 
L 129.702343 125.041842 
L 129.880066 116.733665 
L 130.057789 121.876815 
L 130.235513 117.020469 
L 130.413236 131.728807 
L 130.590959 118.086573 
L 130.768682 129.369538 
L 130.946405 102.981261 
L 131.124129 136.922727 
L 131.479575 99.179735 
L 131.657298 107.67702 
L 131.835021 110.441311 
L 132.190468 127.786211 
L 132.368191 104.126059 
L 132.545914 116.666475 
L 132.723637 112.667189 
L 132.90136 123.84023 
L 133.079083 111.12919 
L 133.43453 120.088987 
L 133.612253 106.300464 
L 133.967699 107.683218 
L 134.323146 101.788198 
L 134.500869 116.602238 
L 134.678592 114.762148 
L 134.856315 115.091468 
L 135.034038 111.099307 
L 135.211762 110.28538 
L 135.389485 108.803879 
L 135.567208 104.198703 
L 135.922654 115.93785 
L 136.278101 102.560358 
L 136.455824 112.547036 
L 136.633547 100.337502 
L 136.81127 107.188089 
L 136.988993 106.618078 
L 137.166717 94.111153 
L 137.522163 111.994099 
L 137.699886 96.443226 
L 137.877609 104.225014 
L 138.055332 105.280606 
L 138.233056 120.080132 
L 138.410779 118.490387 
L 138.588502 89.83841 
L 138.766225 106.030338 
L 138.943948 84.605145 
L 139.121672 88.615231 
L 139.299395 118.79715 
L 139.654841 100.9359 
L 139.832564 110.403427 
L 140.188011 91.0267 
L 140.365734 88.713451 
L 140.543457 96.888154 
L 140.72118 113.620686 
L 140.898903 101.856355 
L 141.25435 106.717119 
L 141.432073 100.269185 
L 141.787519 98.730499 
L 141.965242 95.090497 
L 142.142966 88.947159 
L 142.320689 103.060189 
L 142.676135 87.760844 
L 142.853858 95.339569 
L 143.031581 82.600066 
L 143.209305 95.407738 
L 143.387028 88.275608 
L 143.564751 89.971996 
L 143.742474 99.397006 
L 143.920197 93.924027 
L 144.097921 93.168367 
L 144.275644 84.232812 
L 144.453367 93.319137 
L 144.63109 74.620802 
L 144.808813 84.594842 
L 144.986536 75.755906 
L 145.16426 79.495247 
L 145.341983 96.997589 
L 145.519706 77.401648 
L 145.697429 81.634161 
L 145.875152 81.416267 
L 146.052875 93.70253 
L 146.230599 92.338843 
L 146.408322 78.425702 
L 146.586045 84.092971 
L 146.763768 111.774834 
L 146.941491 80.885242 
L 147.119215 84.085506 
L 147.296938 83.082146 
L 147.474661 74.897531 
L 147.652384 91.323235 
L 147.830107 84.150347 
L 148.185554 78.409045 
L 148.363277 73.250778 
L 148.718723 84.330448 
L 149.251893 68.601754 
L 149.962785 96.067144 
L 150.140509 70.697456 
L 150.318232 85.269484 
L 150.495955 73.33733 
L 150.673678 71.245129 
L 151.029124 92.601991 
L 151.206848 85.591138 
L 151.384571 88.450624 
L 151.562294 74.481043 
L 151.740017 77.171881 
L 151.91774 70.668933 
L 152.095464 76.342801 
L 152.273187 65.906179 
L 152.45091 92.023721 
L 152.628633 70.505827 
L 152.806356 67.735374 
L 152.984079 69.523823 
L 153.161803 77.891536 
L 153.339526 76.138449 
L 153.517249 70.762256 
L 153.694972 74.829783 
L 153.872695 71.49889 
L 154.050418 75.214502 
L 154.228142 74.919778 
L 154.405865 59.13101 
L 154.761311 67.186864 
L 154.939034 71.286306 
L 155.116758 66.524291 
L 155.294481 69.140389 
L 155.472204 50.115777 
L 155.649927 72.892522 
L 155.82765 64.40276 
L 156.005373 70.838122 
L 156.183097 60.894884 
L 156.36082 75.621345 
L 156.538543 56.683764 
L 156.716266 69.328891 
L 156.893989 65.37778 
L 157.071712 70.221155 
L 157.249436 62.035984 
L 157.427159 64.189032 
L 157.604882 72.623174 
L 157.782605 55.591074 
L 157.960328 61.086491 
L 158.138052 57.935156 
L 158.315775 73.654925 
L 158.671221 56.300864 
L 158.848944 61.482311 
L 159.026667 48.855497 
L 159.204391 53.6948 
L 159.382114 39.012965 
L 159.559837 58.564133 
L 159.73756 58.461289 
L 159.915283 60.142492 
L 160.093007 50.991399 
L 160.27073 50.973632 
L 160.448453 58.646007 
L 160.626176 56.743021 
L 160.803899 48.422149 
L 160.981622 63.664601 
L 161.159346 63.562733 
L 161.337069 41.182279 
L 161.514792 47.825408 
L 161.692515 64.161723 
L 161.870238 48.36522 
L 162.047961 50.844854 
L 162.225685 42.606888 
L 162.403408 51.522921 
L 162.581131 52.384224 
L 162.758854 74.097753 
L 162.936577 68.327605 
L 163.114301 37.713829 
L 163.292024 43.476913 
L 163.469747 54.819762 
L 163.64747 41.410185 
L 163.825193 42.250638 
L 164.002916 60.39754 
L 164.18064 66.876876 
L 164.358363 46.424147 
L 164.713809 51.928528 
L 164.891532 39.044932 
L 165.069255 49.106856 
L 165.246979 41.523527 
L 165.602425 59.585957 
L 165.780148 42.301359 
L 166.135595 50.990484 
L 166.313318 39.637532 
L 166.491041 45.769957 
L 166.668764 45.029243 
L 166.846487 50.86078 
L 167.02421 48.009808 
L 167.201934 51.433238 
L 167.379657 50.689544 
L 167.55738 44.51722 
L 167.735103 52.153429 
L 167.912826 49.396834 
L 168.090549 54.041024 
L 168.268273 51.183438 
L 168.445996 30.487192 
L 168.623719 47.680271 
L 168.801442 40.106007 
L 168.979165 40.186648 
L 169.156889 35.243602 
L 169.334612 47.685095 
L 169.512335 45.459649 
L 169.690058 54.191264 
L 169.867781 53.550669 
L 170.045504 53.941585 
L 170.223228 50.272968 
L 170.400951 34.507412 
L 170.578674 31.766936 
L 170.756397 34.964191 
L 170.93412 46.155616 
L 171.111844 40.550123 
L 171.46729 55.361999 
L 171.822736 34.520392 
L 172.000459 42.855514 
L 172.178183 43.521766 
L 172.355906 31.451256 
L 172.533629 33.124994 
L 172.711352 46.732333 
L 172.889075 14.912561 
L 173.066798 38.280095 
L 173.244522 32.926927 
L 173.422245 21.709536 
L 173.599968 38.56713 
L 173.777691 29.81211 
L 173.955414 40.328146 
L 174.133138 34.622948 
L 174.310861 45.385883 
L 174.666307 23.765892 
L 174.84403 41.960349 
L 175.021753 37.038756 
L 175.199477 43.980851 
L 175.3772 30.065962 
L 175.554923 48.359912 
L 175.732646 39.762146 
L 175.910369 47.971978 
L 176.088092 24.122157 
L 176.265816 44.133183 
L 176.443539 40.782158 
L 176.621262 46.05844 
L 176.798985 45.127724 
L 176.976708 36.30527 
L 177.154432 34.479885 
L 177.332155 39.039621 
L 177.509878 34.946881 
L 177.687601 37.808837 
L 177.865324 44.047686 
L 178.043047 41.932538 
L 178.220771 50.72215 
L 178.398494 33.375309 
L 178.576217 39.693624 
L 178.75394 36.154057 
L 178.931663 25.50497 
L 179.109387 53.197483 
L 179.28711 34.903498 
L 179.464833 38.014571 
L 179.642556 46.183415 
L 179.820279 46.283731 
L 179.998002 34.610783 
L 180.353449 41.551432 
L 180.531172 39.346898 
L 180.708895 34.947063 
L 180.886618 41.421218 
L 181.064341 23.521467 
L 181.419788 48.396676 
L 181.597511 47.136969 
L 181.775234 32.546953 
L 181.952957 41.652397 
L 182.130681 43.378407 
L 182.486127 34.150906 
L 182.66385 28.656702 
L 182.841573 50.230462 
L 183.019296 50.11998 
L 183.19702 41.795677 
L 183.374743 38.784674 
L 183.552466 47.301091 
L 183.730189 50.464897 
L 183.907912 32.805812 
L 184.085635 42.118182 
L 184.263359 40.90606 
L 184.441082 49.324188 
L 184.618805 40.213237 
L 184.796528 59.666504 
L 185.151975 30.069854 
L 185.329698 39.433034 
L 185.507421 25.972588 
L 185.685144 37.992524 
L 185.862867 41.466174 
L 186.04059 37.959112 
L 186.218314 40.449821 
L 186.396037 38.092658 
L 186.57376 52.175683 
L 186.751483 33.552929 
L 186.929206 55.479517 
L 187.284653 28.332522 
L 187.462376 47.551386 
L 187.640099 39.81194 
L 187.817822 54.653709 
L 188.173269 39.474862 
L 188.350992 49.383771 
L 188.528715 45.272047 
L 188.706438 48.59997 
L 188.884161 54.865577 
L 189.061884 37.870675 
L 189.239608 47.107029 
L 189.417331 49.069188 
L 189.595054 49.476769 
L 189.772777 48.274742 
L 189.9505 27.126934 
L 190.305947 50.325374 
L 190.48367 43.42439 
L 191.016839 58.870053 
L 191.194563 52.45832 
L 191.372286 50.749453 
L 191.550009 53.723015 
L 191.727732 45.112022 
L 191.905455 53.364291 
L 192.083178 45.957494 
L 192.438625 65.988044 
L 192.616348 47.260873 
L 192.794071 49.56917 
L 192.971794 37.428449 
L 193.504964 55.079586 
L 193.682687 49.80267 
L 193.86041 59.891125 
L 194.038133 37.780225 
L 194.215857 52.246679 
L 194.39358 54.979933 
L 194.571303 46.237283 
L 194.926749 61.167403 
L 195.104473 42.045447 
L 195.282196 52.611377 
L 195.459919 49.672404 
L 195.637642 39.872386 
L 195.815365 57.205397 
L 195.993088 59.34064 
L 196.170812 59.325328 
L 196.348535 58.685941 
L 196.526258 67.402969 
L 196.703981 58.490022 
L 196.881704 60.781169 
L 197.059427 80.520448 
L 197.237151 57.977079 
L 197.414874 53.769311 
L 197.592597 57.055134 
L 197.948043 70.116118 
L 198.125767 58.084625 
L 198.30349 67.839793 
L 198.481213 55.511736 
L 198.658936 83.725033 
L 198.836659 57.552656 
L 199.014382 62.834192 
L 199.192106 78.228103 
L 199.369829 57.096566 
L 199.725275 75.122943 
L 199.902998 66.78984 
L 200.080721 64.375531 
L 200.258445 65.318657 
L 200.436168 60.474079 
L 200.613891 88.396829 
L 200.791614 68.62111 
L 200.969337 68.802008 
L 201.147061 63.202157 
L 201.324784 78.837217 
L 201.502507 69.740873 
L 201.68023 69.210446 
L 201.857953 67.105062 
L 202.035676 76.305647 
L 202.2134 65.460927 
L 202.391123 77.102387 
L 202.746569 85.192667 
L 203.279739 69.808707 
L 203.457462 70.495731 
L 203.635185 77.878582 
L 203.812908 73.711147 
L 203.990631 86.069917 
L 204.346078 69.588035 
L 204.523801 90.473413 
L 204.701524 80.682304 
L 205.05697 71.912611 
L 205.234694 80.928819 
L 205.412417 81.276483 
L 205.59014 90.537687 
L 205.767863 70.333317 
L 205.945586 64.042479 
L 206.12331 89.413893 
L 206.301033 83.527469 
L 206.478756 87.529499 
L 206.656479 78.048088 
L 206.834202 80.839578 
L 207.011925 79.204161 
L 207.189649 86.662563 
L 207.367372 84.884087 
L 207.545095 89.074014 
L 207.722818 84.838719 
L 207.900541 91.376439 
L 208.078264 86.235541 
L 208.255988 92.228789 
L 208.433711 90.341115 
L 208.611434 73.764792 
L 208.96688 79.942737 
L 209.322327 67.826077 
L 209.50005 98.04684 
L 209.677773 99.248879 
L 209.855496 79.991422 
L 210.033219 104.437877 
L 210.210943 73.01645 
L 210.388666 94.629453 
L 210.566389 87.345763 
L 210.744112 100.250949 
L 210.921835 102.345404 
L 211.099559 101.050407 
L 211.277282 101.589082 
L 211.455005 88.396202 
L 211.632728 107.004453 
L 211.810451 86.901353 
L 211.988174 115.165441 
L 212.343621 88.277292 
L 212.521344 107.418451 
L 212.699067 92.776485 
L 212.87679 98.852229 
L 213.054513 119.721366 
L 213.232237 92.412392 
L 213.40996 92.454921 
L 213.587683 99.675501 
L 213.765406 79.547835 
L 213.943129 107.712766 
L 214.120853 105.703437 
L 214.298576 115.110238 
L 214.476299 99.231737 
L 214.654022 96.926827 
L 215.009468 108.451762 
L 215.187192 99.025759 
L 215.364915 107.525474 
L 215.364915 107.525474 
" style="fill:none;stroke:#1f77b4;stroke-linecap:square;stroke-width:1.5;"/>
   </g>
   <g id="line2d_20">
    <path clip-path="url(#p2861582b2e)" d="M 38.530353 68.431142 
L 38.708076 70.414565 
L 38.885799 70.962809 
L 39.063522 70.858816 
L 39.241246 69.620866 
L 39.418969 69.678329 
L 39.596692 69.920945 
L 39.774415 75.447993 
L 39.952138 75.660531 
L 40.129862 80.573565 
L 40.485308 77.39754 
L 40.663031 84.214153 
L 40.840754 80.461575 
L 41.018477 80.271738 
L 41.373924 70.87907 
L 41.551647 76.389964 
L 41.907093 70.217156 
L 42.084816 72.629814 
L 42.26254 68.385547 
L 42.440263 70.608916 
L 42.617986 71.023571 
L 42.795709 69.074213 
L 42.973432 69.866638 
L 43.328879 67.163288 
L 43.506602 66.2686 
L 43.684325 63.347001 
L 43.862048 62.642041 
L 44.039771 60.027536 
L 44.395218 69.284458 
L 44.572941 69.070026 
L 44.928387 60.891747 
L 45.106111 61.253286 
L 45.461557 57.732096 
L 45.63928 59.405261 
L 45.994726 65.644821 
L 46.17245 66.117179 
L 46.527896 70.233164 
L 46.705619 70.99148 
L 46.883342 68.162162 
L 47.061065 59.951168 
L 47.238789 59.48361 
L 47.771958 64.02882 
L 47.949681 62.096366 
L 48.127405 61.850177 
L 48.305128 61.330888 
L 48.482851 61.579663 
L 48.660574 61.334047 
L 48.838297 60.217881 
L 49.193744 55.151075 
L 49.371467 50.868414 
L 49.54919 53.05555 
L 49.726913 53.430748 
L 49.904636 56.347572 
L 50.082359 57.105941 
L 50.260083 53.933539 
L 50.437806 53.346105 
L 50.615529 50.400817 
L 50.970975 51.27194 
L 51.326422 56.768397 
L 51.504145 54.859731 
L 51.681868 56.503125 
L 51.859591 53.265501 
L 52.037314 54.685437 
L 52.215038 57.589774 
L 52.392761 57.734025 
L 52.570484 58.971707 
L 52.748207 55.847721 
L 52.92593 49.924809 
L 53.103654 50.615421 
L 53.281377 49.040554 
L 53.4591 51.280824 
L 53.636823 51.477067 
L 53.814546 52.848775 
L 53.992269 51.171771 
L 54.169993 47.503455 
L 54.525439 47.54264 
L 54.880885 59.456393 
L 55.058608 58.65665 
L 55.236332 59.219445 
L 55.591778 52.616994 
L 55.769501 51.440936 
L 55.947224 51.376962 
L 56.124948 51.057765 
L 56.302671 48.227189 
L 56.480394 49.207202 
L 56.83584 42.849656 
L 57.013563 47.896211 
L 57.191287 46.786293 
L 57.36901 48.620729 
L 57.546733 47.616894 
L 57.902179 43.175069 
L 58.257626 51.861091 
L 58.435349 49.059724 
L 58.613072 50.193786 
L 58.790795 43.063815 
L 58.968518 44.101019 
L 59.146242 48.297941 
L 59.323965 47.631329 
L 59.501688 50.696019 
L 59.679411 49.260026 
L 59.857134 50.034172 
L 60.034857 45.967269 
L 60.212581 45.504255 
L 60.390304 42.552525 
L 60.568027 43.649207 
L 61.27892 37.590839 
L 61.456643 38.982601 
L 61.634366 45.022588 
L 61.812089 44.617474 
L 61.989812 46.460021 
L 62.345259 43.003329 
L 62.522982 45.291408 
L 63.056151 40.83682 
L 63.233875 39.526288 
L 63.411598 42.144017 
L 63.589321 41.359107 
L 63.767044 42.929667 
L 63.944767 43.435502 
L 64.122491 43.601311 
L 64.477937 48.632811 
L 64.833383 40.848808 
L 65.011106 39.564007 
L 65.18883 34.935742 
L 65.366553 38.824507 
L 65.544276 36.802239 
L 65.721999 36.23397 
L 66.432892 45.017581 
L 66.610615 40.675835 
L 66.788338 39.768187 
L 67.143785 44.455108 
L 67.321508 43.379939 
L 67.499231 44.973286 
L 67.854677 35.731406 
L 68.0324 37.582414 
L 68.210124 36.669186 
L 68.743293 42.564744 
L 69.09874 48.599936 
L 69.276463 50.617152 
L 69.454186 50.163851 
L 69.631909 45.027872 
L 69.987355 42.208454 
L 70.165079 42.311948 
L 70.342802 41.058039 
L 70.520525 41.068034 
L 70.698248 40.293779 
L 71.053694 48.223484 
L 71.231418 45.509775 
L 71.409141 45.283095 
L 71.764587 38.234409 
L 71.94231 36.479613 
L 72.120034 33.414474 
L 72.297757 36.823881 
L 72.47548 37.667743 
L 72.653203 39.190348 
L 72.830926 42.391515 
L 73.008649 42.672228 
L 73.186373 42.099875 
L 73.364096 42.318997 
L 73.541819 45.466121 
L 73.719542 41.811367 
L 73.897265 41.501809 
L 74.074988 47.207 
L 74.252712 47.879522 
L 74.430435 46.808152 
L 74.608158 50.60439 
L 74.785881 49.916659 
L 74.963604 46.517478 
L 75.141328 48.322074 
L 75.319051 42.865299 
L 75.496774 43.055444 
L 75.85222 47.623016 
L 76.029943 52.522696 
L 76.207667 51.480362 
L 76.38539 49.282088 
L 76.563113 42.913022 
L 76.740836 42.64814 
L 76.918559 42.995747 
L 77.274006 48.651547 
L 77.451729 50.459848 
L 77.629452 49.311544 
L 77.807175 53.407893 
L 77.984898 53.678099 
L 78.162622 53.32728 
L 78.340345 53.980543 
L 78.518068 51.910068 
L 78.873514 50.563489 
L 79.051237 49.81949 
L 79.228961 50.713364 
L 79.406684 47.665935 
L 79.584407 49.559205 
L 79.76213 47.046444 
L 79.939853 49.535979 
L 80.117577 49.117245 
L 80.2953 50.295706 
L 80.473023 49.073211 
L 80.828469 51.846987 
L 81.183916 56.81399 
L 81.361639 56.523085 
L 81.539362 54.506727 
L 81.717085 54.067179 
L 81.894808 52.980175 
L 82.072531 56.247561 
L 82.250255 56.270634 
L 82.427978 56.486397 
L 82.605701 57.869165 
L 82.783424 57.922458 
L 82.961147 56.967106 
L 83.316594 63.88427 
L 83.494317 61.994005 
L 83.67204 63.96955 
L 83.849763 58.94844 
L 84.20521 55.898316 
L 84.382933 56.745369 
L 84.560656 55.789416 
L 84.738379 55.637375 
L 84.916102 56.618798 
L 85.271549 64.066798 
L 85.449272 63.097305 
L 85.626995 64.762324 
L 85.804718 58.71094 
L 85.982441 58.744816 
L 86.160165 64.33729 
L 86.337888 64.703895 
L 86.693334 60.158687 
L 87.04878 60.167015 
L 87.404227 63.803006 
L 87.58195 61.800609 
L 87.759673 61.141347 
L 87.937396 58.79033 
L 88.11512 59.42431 
L 88.470566 67.566737 
L 88.648289 69.925912 
L 88.826012 68.856318 
L 89.003735 63.34245 
L 89.181459 62.891199 
L 89.359182 63.747239 
L 89.536905 63.904449 
L 89.714628 63.363098 
L 89.892351 61.601996 
L 90.070074 61.556724 
L 90.247798 63.699318 
L 90.425521 63.54241 
L 90.780967 68.439917 
L 91.136414 81.050654 
L 91.314137 83.157798 
L 91.669583 78.435836 
L 91.847306 79.307338 
L 92.025029 78.961073 
L 92.735922 71.001212 
L 92.913645 71.903791 
L 93.091368 70.764237 
L 93.802261 85.314645 
L 93.979984 86.352453 
L 94.335431 91.599501 
L 94.513154 81.187536 
L 94.690877 78.05454 
L 95.046323 86.747558 
L 95.224047 91.000711 
L 95.579493 88.782564 
L 95.757216 80.706717 
L 96.290386 74.301966 
L 96.468109 77.516091 
L 96.645832 77.895827 
L 96.823555 77.622175 
L 97.179002 87.523033 
L 97.356725 89.355172 
L 97.534448 93.113992 
L 97.712171 93.994183 
L 97.889894 93.744961 
L 98.067617 93.021747 
L 98.423064 94.583586 
L 98.600787 93.867811 
L 98.77851 92.053327 
L 98.956233 91.543926 
L 99.133957 90.533157 
L 99.31168 92.363293 
L 99.667126 98.413136 
L 99.844849 98.524367 
L 100.022572 93.044428 
L 100.200296 93.050244 
L 100.378019 94.400335 
L 100.911188 101.596048 
L 101.088911 101.020031 
L 101.266635 98.024182 
L 101.622081 101.13736 
L 101.799804 100.033155 
L 101.977527 100.764771 
L 102.155251 94.791384 
L 102.332974 95.789316 
L 102.510697 94.986753 
L 102.68842 99.377491 
L 102.866143 100.829911 
L 103.22159 106.697811 
L 103.399313 114.311683 
L 103.577036 105.653869 
L 103.754759 106.116054 
L 103.932482 101.104154 
L 104.110206 100.205021 
L 104.287929 104.061403 
L 104.465652 99.319834 
L 104.643375 105.862883 
L 104.821098 105.753879 
L 104.998821 110.217421 
L 105.176545 111.681533 
L 105.354268 110.68082 
L 105.531991 105.397279 
L 105.709714 104.804832 
L 105.887437 103.608222 
L 106.06516 103.67059 
L 106.242884 104.742452 
L 106.59833 112.425033 
L 106.776053 112.349773 
L 106.953776 111.906688 
L 107.1315 110.638528 
L 107.486946 105.039442 
L 107.842392 112.376594 
L 108.197839 111.011107 
L 108.375562 108.776894 
L 108.553285 112.45077 
L 108.731008 113.463672 
L 108.908731 113.565365 
L 109.086454 115.733498 
L 109.264178 114.369653 
L 109.441901 110.065399 
L 109.619624 112.667352 
L 109.797347 108.653875 
L 109.97507 109.506651 
L 110.152794 111.591053 
L 110.330517 111.423837 
L 110.50824 113.428573 
L 110.863686 112.949713 
L 111.041409 114.216635 
L 111.219133 109.436122 
L 111.396856 110.241904 
L 111.574579 110.267399 
L 111.930025 118.147777 
L 112.107749 118.407184 
L 112.285472 116.439023 
L 112.463195 118.766601 
L 112.640918 114.850368 
L 112.818641 117.723858 
L 112.996364 114.316296 
L 113.174088 113.180606 
L 113.351811 111.186901 
L 113.529534 116.279622 
L 113.707257 116.871837 
L 113.88498 119.142239 
L 114.062703 118.141413 
L 114.240427 117.867537 
L 114.41815 110.656864 
L 114.595873 114.121444 
L 114.773596 108.65353 
L 115.129043 118.461666 
L 115.306766 117.229192 
L 115.484489 120.374683 
L 115.839935 116.074376 
L 116.195382 117.987586 
L 116.373105 116.799442 
L 116.550828 116.981097 
L 116.728551 116.769137 
L 116.906274 117.932058 
L 117.261721 111.951945 
L 117.439444 111.641954 
L 117.617167 114.081979 
L 117.79489 113.948674 
L 117.972613 114.365011 
L 118.505783 119.214984 
L 118.683506 115.574822 
L 119.038952 113.737188 
L 119.216676 117.498796 
L 119.394399 116.959869 
L 119.572122 120.365616 
L 119.749845 115.687989 
L 119.927568 117.302489 
L 120.105292 115.127021 
L 120.460738 123.243127 
L 120.638461 120.299452 
L 120.816184 123.335506 
L 120.993907 121.527452 
L 121.171631 125.30561 
L 121.349354 126.170685 
L 121.7048 120.092993 
L 121.882523 120.449347 
L 122.060246 119.883436 
L 122.23797 124.956153 
L 122.771139 121.956496 
L 122.948862 121.288345 
L 123.126586 117.62551 
L 123.304309 117.864064 
L 123.482032 116.692964 
L 123.659755 119.645716 
L 123.837478 117.664201 
L 124.015201 119.981454 
L 124.192925 116.192995 
L 124.370648 120.379197 
L 124.548371 119.4442 
L 124.726094 124.327343 
L 124.903817 123.937903 
L 125.08154 117.578906 
L 125.259264 118.60018 
L 125.436987 116.20329 
L 125.61471 122.329663 
L 125.970156 121.091589 
L 126.14788 121.193529 
L 126.325603 117.946394 
L 126.503326 118.291047 
L 126.681049 116.629119 
L 127.036495 120.172403 
L 127.214219 116.548012 
L 127.391942 115.433417 
L 127.569665 115.857918 
L 127.747388 120.019962 
L 127.925111 117.017006 
L 128.102835 118.416192 
L 128.280558 111.885954 
L 128.458281 114.584212 
L 128.636004 114.609105 
L 128.813727 114.330316 
L 128.99145 117.06433 
L 129.169174 114.813211 
L 129.346897 119.340894 
L 129.52462 119.352215 
L 129.702343 118.984717 
L 129.880066 120.558499 
L 130.057789 117.812803 
L 130.235513 119.602175 
L 130.413236 118.434425 
L 130.590959 122.597668 
L 130.768682 119.727745 
L 130.946405 123.618848 
L 131.124129 116.009747 
L 131.301852 122.14933 
L 131.479575 114.245563 
L 131.657298 113.939745 
L 132.012744 108.062583 
L 132.368191 117.349779 
L 132.545914 114.671283 
L 132.723637 115.379314 
L 132.90136 111.538283 
L 133.079083 117.422297 
L 133.256807 115.578507 
L 133.43453 115.97441 
L 133.612253 116.006402 
L 134.145423 109.65665 
L 134.500869 106.56794 
L 134.678592 110.530264 
L 134.856315 110.867087 
L 135.034038 114.684765 
L 135.211762 114.006935 
L 135.567208 111.339845 
L 135.744931 108.986974 
L 135.922654 109.989793 
L 136.278101 112.470261 
L 136.455824 109.875087 
L 136.633547 110.798777 
L 136.81127 106.979318 
L 136.988993 107.996148 
L 137.166717 107.677612 
L 137.34444 103.686172 
L 137.522163 105.411427 
L 137.699886 105.933428 
L 137.877609 105.077746 
L 138.055332 106.212197 
L 138.233056 105.538397 
L 138.410779 111.65995 
L 138.588502 113.455829 
L 138.766225 107.625527 
L 138.943948 106.948466 
L 139.121672 98.166812 
L 139.299395 95.939116 
L 139.477118 96.55351 
L 139.654841 106.378328 
L 140.010287 110.031602 
L 140.543457 97.550224 
L 140.72118 97.536673 
L 140.898903 99.510324 
L 141.25435 107.409961 
L 141.432073 107.589012 
L 141.787519 104.34771 
L 142.142966 100.792954 
L 142.320689 97.652163 
L 142.498412 100.407469 
L 142.676135 99.24056 
L 142.853858 97.243719 
L 143.031581 97.688724 
L 143.209305 93.09467 
L 143.387028 94.297119 
L 143.564751 94.157111 
L 143.742474 94.717157 
L 144.097921 97.940573 
L 144.275644 98.355415 
L 144.453367 94.668097 
L 144.63109 95.054932 
L 144.808813 87.588346 
L 144.986536 87.668049 
L 145.341983 78.963323 
L 145.875152 88.971066 
L 146.230599 83.417724 
L 146.408322 90.560502 
L 146.586045 91.223905 
L 146.763768 90.646799 
L 146.941491 87.739338 
L 147.119215 94.75846 
L 147.296938 94.461859 
L 147.474661 90.590556 
L 147.652384 82.103244 
L 147.830107 83.434052 
L 148.185554 88.231895 
L 148.363277 86.24401 
L 148.718723 77.86646 
L 148.896446 77.655804 
L 149.251893 79.488356 
L 149.607339 70.681632 
L 149.785062 71.931634 
L 149.962785 77.902151 
L 150.140509 87.771258 
L 150.318232 86.059389 
L 150.495955 89.110325 
L 150.851401 76.259155 
L 151.029124 76.47963 
L 151.206848 79.396942 
L 151.562294 92.161463 
L 152.095464 77.796468 
L 152.273187 73.516463 
L 152.628633 71.557611 
L 152.806356 77.707918 
L 152.984079 77.412101 
L 153.161803 74.957247 
L 153.339526 69.748518 
L 153.694972 73.243637 
L 153.872695 74.10606 
L 154.228142 71.347528 
L 154.405865 72.793629 
L 154.761311 69.128995 
L 154.939034 65.697885 
L 155.116758 64.886909 
L 155.294481 67.093955 
L 155.472204 66.92269 
L 155.82765 64.382675 
L 156.005373 65.66418 
L 156.183097 64.41701 
L 156.36082 67.207829 
L 156.538543 66.283325 
L 156.716266 67.274709 
L 156.893989 65.944598 
L 157.071712 66.855379 
L 157.249436 64.263147 
L 157.427159 66.586276 
L 157.604882 64.133411 
L 157.782605 65.919987 
L 157.960328 64.630771 
L 158.138052 64.268726 
L 158.315775 61.690007 
L 158.493498 61.567733 
L 158.671221 65.73733 
L 158.848944 63.079447 
L 159.026667 63.716024 
L 159.559837 52.252579 
L 159.73756 52.913725 
L 160.27073 57.606596 
L 160.626176 55.350441 
L 160.803899 55.372669 
L 160.981622 54.813897 
L 161.337069 59.259643 
L 161.514792 55.796312 
L 161.692515 57.17176 
L 161.870238 53.859364 
L 162.047961 53.407553 
L 162.225685 55.284479 
L 162.581131 51.06667 
L 162.758854 50.671753 
L 163.114301 63.478431 
L 163.292024 60.210814 
L 163.469747 61.718962 
L 163.64747 51.033489 
L 163.825193 47.334563 
L 164.713809 58.36391 
L 165.069255 48.973369 
L 165.246979 50.498751 
L 165.424702 47.535378 
L 165.602425 48.741316 
L 165.780148 51.220787 
L 165.957871 50.968465 
L 166.135595 52.844379 
L 166.491041 48.046585 
L 166.668764 49.443048 
L 166.846487 47.40858 
L 167.55738 51.63596 
L 167.735103 50.791304 
L 167.912826 51.837002 
L 168.090549 50.628395 
L 168.268273 52.325255 
L 168.445996 52.683483 
L 168.623719 48.831352 
L 168.801442 49.527238 
L 168.979165 45.313814 
L 169.156889 45.00509 
L 169.334612 44.284588 
L 169.512335 45.199038 
L 169.690058 45.043367 
L 170.045504 51.637593 
L 170.223228 53.55063 
L 170.400951 53.871692 
L 170.93412 41.921569 
L 171.111844 41.745617 
L 171.289567 42.564996 
L 171.645013 49.885634 
L 171.822736 50.225077 
L 172.000459 49.340812 
L 172.533629 42.864416 
L 172.711352 42.945843 
L 172.889075 42.786452 
L 173.066798 36.76489 
L 173.244522 41.35036 
L 173.599968 35.427961 
L 173.777691 39.232487 
L 173.955414 35.816869 
L 174.133138 39.932724 
L 174.310861 40.073231 
L 174.488584 43.243763 
L 174.666307 42.373154 
L 174.84403 40.815183 
L 175.021753 41.744828 
L 175.199477 38.621077 
L 175.3772 42.918755 
L 175.554923 42.067888 
L 175.732646 45.268 
L 175.910369 43.940123 
L 176.088092 46.717317 
L 176.265816 43.383229 
L 176.443539 45.067574 
L 176.621262 42.495018 
L 176.976708 46.830099 
L 177.332155 44.764188 
L 177.687601 40.940032 
L 178.220771 43.798131 
L 178.398494 47.470995 
L 178.576217 45.475455 
L 178.75394 46.431606 
L 179.109387 39.607227 
L 179.28711 43.885951 
L 179.464833 42.550808 
L 179.820279 45.618695 
L 179.998002 45.044408 
L 180.175726 45.295931 
L 180.353449 45.817646 
L 180.531172 43.738113 
L 180.708895 43.20228 
L 180.886618 43.300993 
L 181.064341 43.818036 
L 181.242065 39.4176 
L 181.419788 41.365101 
L 181.597511 41.395464 
L 181.952957 45.67406 
L 182.130681 46.642076 
L 182.308404 44.026093 
L 182.486127 43.920025 
L 182.66385 44.024914 
L 182.841573 41.330252 
L 183.552466 48.351841 
L 183.730189 47.425402 
L 183.907912 47.238257 
L 184.085635 45.890687 
L 184.263359 47.538155 
L 184.441082 44.104403 
L 184.618805 45.8151 
L 184.796528 45.991334 
L 184.974251 50.996781 
L 185.151975 52.129131 
L 185.329698 48.515929 
L 185.507421 47.493066 
L 185.685144 39.445344 
L 185.862867 40.331582 
L 186.04059 40.257121 
L 186.218314 41.425784 
L 186.396037 44.105597 
L 186.57376 43.461559 
L 186.751483 46.29322 
L 186.929206 44.71863 
L 187.10693 49.626054 
L 187.284653 48.803504 
L 187.462376 45.047866 
L 187.640099 46.260829 
L 187.817822 42.504534 
L 187.995545 47.821503 
L 188.173269 49.242395 
L 188.350992 48.598061 
L 188.528715 49.204484 
L 188.706438 46.932725 
L 189.061884 51.173034 
L 189.239608 49.066547 
L 189.417331 50.65015 
L 189.595054 48.572927 
L 189.772777 49.013367 
L 189.9505 50.639653 
L 190.128224 46.437792 
L 190.305947 45.470334 
L 190.48367 43.564628 
L 190.661393 43.720058 
L 191.016839 51.247762 
L 191.372286 55.156019 
L 191.550009 55.591851 
L 191.727732 54.517225 
L 191.905455 51.75228 
L 192.083178 52.909986 
L 192.260902 51.186369 
L 192.616348 57.295805 
L 192.794071 56.726357 
L 192.971794 57.929207 
L 193.327241 48.170516 
L 193.504964 46.495935 
L 193.86041 50.492051 
L 194.038133 54.619712 
L 194.215857 53.135911 
L 194.39358 53.264603 
L 194.571303 52.561476 
L 194.749026 50.526426 
L 194.926749 53.689006 
L 195.104473 54.455836 
L 195.282196 53.113643 
L 195.459919 54.805871 
L 195.815365 49.179132 
L 196.170812 53.358522 
L 196.881704 61.82174 
L 197.059427 61.116309 
L 197.414874 66.728772 
L 197.592597 66.460718 
L 197.948043 57.796869 
L 198.30349 62.949986 
L 198.481213 63.904997 
L 198.658936 63.611889 
L 198.836659 65.644338 
L 199.014382 68.996551 
L 199.192106 67.873485 
L 199.369829 68.555855 
L 199.547552 65.83637 
L 199.902998 68.884246 
L 200.080721 67.166035 
L 200.258445 68.275951 
L 200.436168 66.859289 
L 200.613891 63.813252 
L 201.147061 73.730319 
L 201.324784 72.851625 
L 201.502507 67.34331 
L 201.68023 70.711049 
L 201.857953 69.271785 
L 202.035676 70.822888 
L 202.2134 68.632896 
L 202.391123 69.683633 
L 202.568846 69.457792 
L 203.102016 82.113537 
L 203.279739 81.2303 
L 203.812908 71.074612 
L 203.990631 72.368092 
L 204.523801 78.005614 
L 204.701524 77.128366 
L 205.05697 81.919988 
L 205.234694 80.70258 
L 205.412417 76.539542 
L 205.59014 76.573391 
L 205.767863 81.034058 
L 205.945586 81.782814 
L 206.301033 75.226649 
L 206.478756 77.08085 
L 206.834202 87.758817 
L 207.011925 85.48322 
L 207.189649 81.758866 
L 207.367372 81.683941 
L 207.900541 90.463163 
L 208.433711 92.902749 
L 208.611434 94.253236 
L 208.789157 87.682291 
L 208.96688 85.598209 
L 209.322327 75.887489 
L 209.50005 75.321628 
L 209.677773 73.817539 
L 210.210943 98.610127 
L 210.388666 89.0925 
L 210.566389 94.338362 
L 210.744112 90.108276 
L 210.921835 92.360125 
L 211.099559 100.160175 
L 211.455005 104.119602 
L 211.632728 99.544794 
L 211.810451 103.086579 
L 211.988174 97.784511 
L 212.165898 104.601577 
L 212.343621 101.252076 
L 212.521344 100.74818 
L 212.699067 103.800908 
L 212.87679 99.777707 
L 213.054513 101.484422 
L 213.232237 105.441532 
L 213.765406 100.946638 
L 213.943129 93.7484 
L 214.120853 97.870153 
L 214.298576 97.693257 
L 214.476299 109.933215 
L 215.009468 104.288751 
L 215.187192 105.975698 
L 215.364915 104.893432 
L 215.364915 104.893432 
" style="fill:none;stroke:#bf00bf;stroke-dasharray:5.55,2.4;stroke-dashoffset:0;stroke-width:1.5;"/>
   </g>
   <g id="patch_3">
    <path d="M 28.942188 143.1 
L 28.942188 7.2 
" style="fill:none;stroke:#000000;stroke-linecap:square;stroke-linejoin:miter;stroke-width:0.8;"/>
   </g>
   <g id="patch_4">
    <path d="M 224.242188 143.1 
L 224.242188 7.2 
" style="fill:none;stroke:#000000;stroke-linecap:square;stroke-linejoin:miter;stroke-width:0.8;"/>
   </g>
   <g id="patch_5">
    <path d="M 28.942188 143.1 
L 224.242188 143.1 
" style="fill:none;stroke:#000000;stroke-linecap:square;stroke-linejoin:miter;stroke-width:0.8;"/>
   </g>
   <g id="patch_6">
    <path d="M 28.942188 7.2 
L 224.242188 7.2 
" style="fill:none;stroke:#000000;stroke-linecap:square;stroke-linejoin:miter;stroke-width:0.8;"/>
   </g>
   <g id="legend_1">
    <g id="patch_7">
     <path d="M 88.590625 44.55625 
L 164.59375 44.55625 
Q 166.59375 44.55625 166.59375 42.55625 
L 166.59375 14.2 
Q 166.59375 12.2 164.59375 12.2 
L 88.590625 12.2 
Q 86.590625 12.2 86.590625 14.2 
L 86.590625 42.55625 
Q 86.590625 44.55625 88.590625 44.55625 
z
" style="fill:#ffffff;opacity:0.8;stroke:#cccccc;stroke-linejoin:miter;"/>
    </g>
    <g id="line2d_21">
     <path d="M 90.590625 20.298438 
L 110.590625 20.298438 
" style="fill:none;stroke:#1f77b4;stroke-linecap:square;stroke-width:1.5;"/>
    </g>
    <g id="line2d_22"/>
    <g id="text_10">
     <!-- data -->
     <g transform="translate(118.590625 23.798438)scale(0.1 -0.1)">
      <defs>
       <path d="M 45.40625 46.390625 
L 45.40625 75.984375 
L 54.390625 75.984375 
L 54.390625 0 
L 45.40625 0 
L 45.40625 8.203125 
Q 42.578125 3.328125 38.25 0.953125 
Q 33.9375 -1.421875 27.875 -1.421875 
Q 17.96875 -1.421875 11.734375 6.484375 
Q 5.515625 14.40625 5.515625 27.296875 
Q 5.515625 40.1875 11.734375 48.09375 
Q 17.96875 56 27.875 56 
Q 33.9375 56 38.25 53.625 
Q 42.578125 51.265625 45.40625 46.390625 
z
M 14.796875 27.296875 
Q 14.796875 17.390625 18.875 11.75 
Q 22.953125 6.109375 30.078125 6.109375 
Q 37.203125 6.109375 41.296875 11.75 
Q 45.40625 17.390625 45.40625 27.296875 
Q 45.40625 37.203125 41.296875 42.84375 
Q 37.203125 48.484375 30.078125 48.484375 
Q 22.953125 48.484375 18.875 42.84375 
Q 14.796875 37.203125 14.796875 27.296875 
z
" id="DejaVuSans-100"/>
       <path d="M 34.28125 27.484375 
Q 23.390625 27.484375 19.1875 25 
Q 14.984375 22.515625 14.984375 16.5 
Q 14.984375 11.71875 18.140625 8.90625 
Q 21.296875 6.109375 26.703125 6.109375 
Q 34.1875 6.109375 38.703125 11.40625 
Q 43.21875 16.703125 43.21875 25.484375 
L 43.21875 27.484375 
z
M 52.203125 31.203125 
L 52.203125 0 
L 43.21875 0 
L 43.21875 8.296875 
Q 40.140625 3.328125 35.546875 0.953125 
Q 30.953125 -1.421875 24.3125 -1.421875 
Q 15.921875 -1.421875 10.953125 3.296875 
Q 6 8.015625 6 15.921875 
Q 6 25.140625 12.171875 29.828125 
Q 18.359375 34.515625 30.609375 34.515625 
L 43.21875 34.515625 
L 43.21875 35.40625 
Q 43.21875 41.609375 39.140625 45 
Q 35.0625 48.390625 27.6875 48.390625 
Q 23 48.390625 18.546875 47.265625 
Q 14.109375 46.140625 10.015625 43.890625 
L 10.015625 52.203125 
Q 14.9375 54.109375 19.578125 55.046875 
Q 24.21875 56 28.609375 56 
Q 40.484375 56 46.34375 49.84375 
Q 52.203125 43.703125 52.203125 31.203125 
z
" id="DejaVuSans-97"/>
       <path d="M 18.3125 70.21875 
L 18.3125 54.6875 
L 36.8125 54.6875 
L 36.8125 47.703125 
L 18.3125 47.703125 
L 18.3125 18.015625 
Q 18.3125 11.328125 20.140625 9.421875 
Q 21.96875 7.515625 27.59375 7.515625 
L 36.8125 7.515625 
L 36.8125 0 
L 27.59375 0 
Q 17.1875 0 13.234375 3.875 
Q 9.28125 7.765625 9.28125 18.015625 
L 9.28125 47.703125 
L 2.6875 47.703125 
L 2.6875 54.6875 
L 9.28125 54.6875 
L 9.28125 70.21875 
z
" id="DejaVuSans-116"/>
      </defs>
      <use xlink:href="#DejaVuSans-100"/>
      <use x="63.476562" xlink:href="#DejaVuSans-97"/>
      <use x="124.755859" xlink:href="#DejaVuSans-116"/>
      <use x="163.964844" xlink:href="#DejaVuSans-97"/>
     </g>
    </g>
    <g id="line2d_23">
     <path d="M 90.590625 34.976562 
L 110.590625 34.976562 
" style="fill:none;stroke:#bf00bf;stroke-dasharray:5.55,2.4;stroke-dashoffset:0;stroke-width:1.5;"/>
    </g>
    <g id="line2d_24"/>
    <g id="text_11">
     <!-- estimate -->
     <g transform="translate(118.590625 38.476562)scale(0.1 -0.1)">
      <defs>
       <path d="M 56.203125 29.59375 
L 56.203125 25.203125 
L 14.890625 25.203125 
Q 15.484375 15.921875 20.484375 11.0625 
Q 25.484375 6.203125 34.421875 6.203125 
Q 39.59375 6.203125 44.453125 7.46875 
Q 49.3125 8.734375 54.109375 11.28125 
L 54.109375 2.78125 
Q 49.265625 0.734375 44.1875 -0.34375 
Q 39.109375 -1.421875 33.890625 -1.421875 
Q 20.796875 -1.421875 13.15625 6.1875 
Q 5.515625 13.8125 5.515625 26.8125 
Q 5.515625 40.234375 12.765625 48.109375 
Q 20.015625 56 32.328125 56 
Q 43.359375 56 49.78125 48.890625 
Q 56.203125 41.796875 56.203125 29.59375 
z
M 47.21875 32.234375 
Q 47.125 39.59375 43.09375 43.984375 
Q 39.0625 48.390625 32.421875 48.390625 
Q 24.90625 48.390625 20.390625 44.140625 
Q 15.875 39.890625 15.1875 32.171875 
z
" id="DejaVuSans-101"/>
       <path d="M 44.28125 53.078125 
L 44.28125 44.578125 
Q 40.484375 46.53125 36.375 47.5 
Q 32.28125 48.484375 27.875 48.484375 
Q 21.1875 48.484375 17.84375 46.4375 
Q 14.5 44.390625 14.5 40.28125 
Q 14.5 37.15625 16.890625 35.375 
Q 19.28125 33.59375 26.515625 31.984375 
L 29.59375 31.296875 
Q 39.15625 29.25 43.1875 25.515625 
Q 47.21875 21.78125 47.21875 15.09375 
Q 47.21875 7.46875 41.1875 3.015625 
Q 35.15625 -1.421875 24.609375 -1.421875 
Q 20.21875 -1.421875 15.453125 -0.5625 
Q 10.6875 0.296875 5.421875 2 
L 5.421875 11.28125 
Q 10.40625 8.6875 15.234375 7.390625 
Q 20.0625 6.109375 24.8125 6.109375 
Q 31.15625 6.109375 34.5625 8.28125 
Q 37.984375 10.453125 37.984375 14.40625 
Q 37.984375 18.0625 35.515625 20.015625 
Q 33.0625 21.96875 24.703125 23.78125 
L 21.578125 24.515625 
Q 13.234375 26.265625 9.515625 29.90625 
Q 5.8125 33.546875 5.8125 39.890625 
Q 5.8125 47.609375 11.28125 51.796875 
Q 16.75 56 26.8125 56 
Q 31.78125 56 36.171875 55.265625 
Q 40.578125 54.546875 44.28125 53.078125 
z
" id="DejaVuSans-115"/>
       <path d="M 9.421875 54.6875 
L 18.40625 54.6875 
L 18.40625 0 
L 9.421875 0 
z
M 9.421875 75.984375 
L 18.40625 75.984375 
L 18.40625 64.59375 
L 9.421875 64.59375 
z
" id="DejaVuSans-105"/>
       <path d="M 52 44.1875 
Q 55.375 50.25 60.0625 53.125 
Q 64.75 56 71.09375 56 
Q 79.640625 56 84.28125 50.015625 
Q 88.921875 44.046875 88.921875 33.015625 
L 88.921875 0 
L 79.890625 0 
L 79.890625 32.71875 
Q 79.890625 40.578125 77.09375 44.375 
Q 74.3125 48.1875 68.609375 48.1875 
Q 61.625 48.1875 57.5625 43.546875 
Q 53.515625 38.921875 53.515625 30.90625 
L 53.515625 0 
L 44.484375 0 
L 44.484375 32.71875 
Q 44.484375 40.625 41.703125 44.40625 
Q 38.921875 48.1875 33.109375 48.1875 
Q 26.21875 48.1875 22.15625 43.53125 
Q 18.109375 38.875 18.109375 30.90625 
L 18.109375 0 
L 9.078125 0 
L 9.078125 54.6875 
L 18.109375 54.6875 
L 18.109375 46.1875 
Q 21.1875 51.21875 25.484375 53.609375 
Q 29.78125 56 35.6875 56 
Q 41.65625 56 45.828125 52.96875 
Q 50 49.953125 52 44.1875 
z
" id="DejaVuSans-109"/>
      </defs>
      <use xlink:href="#DejaVuSans-101"/>
      <use x="61.523438" xlink:href="#DejaVuSans-115"/>
      <use x="113.623047" xlink:href="#DejaVuSans-116"/>
      <use x="152.832031" xlink:href="#DejaVuSans-105"/>
      <use x="180.615234" xlink:href="#DejaVuSans-109"/>
      <use x="278.027344" xlink:href="#DejaVuSans-97"/>
      <use x="339.306641" xlink:href="#DejaVuSans-116"/>
      <use x="378.515625" xlink:href="#DejaVuSans-101"/>
     </g>
    </g>
   </g>
  </g>
 </g>
 <defs>
  <clipPath id="p2861582b2e">
   <rect height="135.9" width="195.3" x="28.942188" y="7.2"/>
  </clipPath>
 </defs>
</svg>
