<?xml version="1.0" encoding="utf-8" standalone="no"?>
<!DOCTYPE svg PUBLIC "-//W3C//DTD SVG 1.1//EN"
  "http://www.w3.org/Graphics/SVG/1.1/DTD/svg11.dtd">
<!-- Created with matplotlib (https://matplotlib.org/) -->
<svg height="302.878125pt" version="1.1" viewBox="0 0 341.114062 302.878125" width="341.114062pt" xmlns="http://www.w3.org/2000/svg" xmlns:xlink="http://www.w3.org/1999/xlink">
 <defs>
  <style type="text/css">
*{stroke-linecap:butt;stroke-linejoin:round;}
  </style>
 </defs>
 <g id="figure_1">
  <g id="patch_1">
   <path d="M 0 302.878125 
L 341.114062 302.878125 
L 341.114062 0 
L 0 0 
z
" style="fill:none;"/>
  </g>
  <g id="axes_1">
   <g id="patch_2">
    <path d="M 43.78125 125.373913 
L 322.78125 125.373913 
L 322.78125 7.2 
L 43.78125 7.2 
z
" style="fill:#ffffff;"/>
   </g>
   <g id="matplotlib.axis_1">
    <g id="xtick_1">
     <g id="line2d_1">
      <path clip-path="url(#p4fa7389236)" d="M 65.807566 125.373913 
L 65.807566 7.2 
" style="fill:none;stroke:#b0b0b0;stroke-linecap:square;stroke-width:0.8;"/>
     </g>
     <g id="line2d_2">
      <defs>
       <path d="M 0 0 
L 0 3.5 
" id="mb8981334cd" style="stroke:#000000;stroke-width:0.8;"/>
      </defs>
      <g>
       <use style="stroke:#000000;stroke-width:0.8;" x="65.807566" xlink:href="#mb8981334cd" y="125.373913"/>
      </g>
     </g>
     <g id="text_1">
      <!-- 2.5 -->
      <defs>
       <path d="M 19.1875 8.296875 
L 53.609375 8.296875 
L 53.609375 0 
L 7.328125 0 
L 7.328125 8.296875 
Q 12.9375 14.109375 22.625 23.890625 
Q 32.328125 33.6875 34.8125 36.53125 
Q 39.546875 41.84375 41.421875 45.53125 
Q 43.3125 49.21875 43.3125 52.78125 
Q 43.3125 58.59375 39.234375 62.25 
Q 35.15625 65.921875 28.609375 65.921875 
Q 23.96875 65.921875 18.8125 64.3125 
Q 13.671875 62.703125 7.8125 59.421875 
L 7.8125 69.390625 
Q 13.765625 71.78125 18.9375 73 
Q 24.125 74.21875 28.421875 74.21875 
Q 39.75 74.21875 46.484375 68.546875 
Q 53.21875 62.890625 53.21875 53.421875 
Q 53.21875 48.921875 51.53125 44.890625 
Q 49.859375 40.875 45.40625 35.40625 
Q 44.1875 33.984375 37.640625 27.21875 
Q 31.109375 20.453125 19.1875 8.296875 
z
" id="DejaVuSans-50"/>
       <path d="M 10.6875 12.40625 
L 21 12.40625 
L 21 0 
L 10.6875 0 
z
" id="DejaVuSans-46"/>
       <path d="M 10.796875 72.90625 
L 49.515625 72.90625 
L 49.515625 64.59375 
L 19.828125 64.59375 
L 19.828125 46.734375 
Q 21.96875 47.46875 24.109375 47.828125 
Q 26.265625 48.1875 28.421875 48.1875 
Q 40.625 48.1875 47.75 41.5 
Q 54.890625 34.8125 54.890625 23.390625 
Q 54.890625 11.625 47.5625 5.09375 
Q 40.234375 -1.421875 26.90625 -1.421875 
Q 22.3125 -1.421875 17.546875 -0.640625 
Q 12.796875 0.140625 7.71875 1.703125 
L 7.71875 11.625 
Q 12.109375 9.234375 16.796875 8.0625 
Q 21.484375 6.890625 26.703125 6.890625 
Q 35.15625 6.890625 40.078125 11.328125 
Q 45.015625 15.765625 45.015625 23.390625 
Q 45.015625 31 40.078125 35.4375 
Q 35.15625 39.890625 26.703125 39.890625 
Q 22.75 39.890625 18.8125 39.015625 
Q 14.890625 38.140625 10.796875 36.28125 
z
" id="DejaVuSans-53"/>
      </defs>
      <g transform="translate(57.856003 139.972351)scale(0.1 -0.1)">
       <use xlink:href="#DejaVuSans-50"/>
       <use x="63.623047" xlink:href="#DejaVuSans-46"/>
       <use x="95.410156" xlink:href="#DejaVuSans-53"/>
      </g>
     </g>
    </g>
    <g id="xtick_2">
     <g id="line2d_3">
      <path clip-path="url(#p4fa7389236)" d="M 102.518092 125.373913 
L 102.518092 7.2 
" style="fill:none;stroke:#b0b0b0;stroke-linecap:square;stroke-width:0.8;"/>
     </g>
     <g id="line2d_4">
      <g>
       <use style="stroke:#000000;stroke-width:0.8;" x="102.518092" xlink:href="#mb8981334cd" y="125.373913"/>
      </g>
     </g>
     <g id="text_2">
      <!-- 5.0 -->
      <defs>
       <path d="M 31.78125 66.40625 
Q 24.171875 66.40625 20.328125 58.90625 
Q 16.5 51.421875 16.5 36.375 
Q 16.5 21.390625 20.328125 13.890625 
Q 24.171875 6.390625 31.78125 6.390625 
Q 39.453125 6.390625 43.28125 13.890625 
Q 47.125 21.390625 47.125 36.375 
Q 47.125 51.421875 43.28125 58.90625 
Q 39.453125 66.40625 31.78125 66.40625 
z
M 31.78125 74.21875 
Q 44.046875 74.21875 50.515625 64.515625 
Q 56.984375 54.828125 56.984375 36.375 
Q 56.984375 17.96875 50.515625 8.265625 
Q 44.046875 -1.421875 31.78125 -1.421875 
Q 19.53125 -1.421875 13.0625 8.265625 
Q 6.59375 17.96875 6.59375 36.375 
Q 6.59375 54.828125 13.0625 64.515625 
Q 19.53125 74.21875 31.78125 74.21875 
z
" id="DejaVuSans-48"/>
      </defs>
      <g transform="translate(94.56653 139.972351)scale(0.1 -0.1)">
       <use xlink:href="#DejaVuSans-53"/>
       <use x="63.623047" xlink:href="#DejaVuSans-46"/>
       <use x="95.410156" xlink:href="#DejaVuSans-48"/>
      </g>
     </g>
    </g>
    <g id="xtick_3">
     <g id="line2d_5">
      <path clip-path="url(#p4fa7389236)" d="M 139.228618 125.373913 
L 139.228618 7.2 
" style="fill:none;stroke:#b0b0b0;stroke-linecap:square;stroke-width:0.8;"/>
     </g>
     <g id="line2d_6">
      <g>
       <use style="stroke:#000000;stroke-width:0.8;" x="139.228618" xlink:href="#mb8981334cd" y="125.373913"/>
      </g>
     </g>
     <g id="text_3">
      <!-- 7.5 -->
      <defs>
       <path d="M 8.203125 72.90625 
L 55.078125 72.90625 
L 55.078125 68.703125 
L 28.609375 0 
L 18.3125 0 
L 43.21875 64.59375 
L 8.203125 64.59375 
z
" id="DejaVuSans-55"/>
      </defs>
      <g transform="translate(131.277056 139.972351)scale(0.1 -0.1)">
       <use xlink:href="#DejaVuSans-55"/>
       <use x="63.623047" xlink:href="#DejaVuSans-46"/>
       <use x="95.410156" xlink:href="#DejaVuSans-53"/>
      </g>
     </g>
    </g>
    <g id="xtick_4">
     <g id="line2d_7">
      <path clip-path="url(#p4fa7389236)" d="M 175.939145 125.373913 
L 175.939145 7.2 
" style="fill:none;stroke:#b0b0b0;stroke-linecap:square;stroke-width:0.8;"/>
     </g>
     <g id="line2d_8">
      <g>
       <use style="stroke:#000000;stroke-width:0.8;" x="175.939145" xlink:href="#mb8981334cd" y="125.373913"/>
      </g>
     </g>
     <g id="text_4">
      <!-- 10.0 -->
      <defs>
       <path d="M 12.40625 8.296875 
L 28.515625 8.296875 
L 28.515625 63.921875 
L 10.984375 60.40625 
L 10.984375 69.390625 
L 28.421875 72.90625 
L 38.28125 72.90625 
L 38.28125 8.296875 
L 54.390625 8.296875 
L 54.390625 0 
L 12.40625 0 
z
" id="DejaVuSans-49"/>
      </defs>
      <g transform="translate(164.806332 139.972351)scale(0.1 -0.1)">
       <use xlink:href="#DejaVuSans-49"/>
       <use x="63.623047" xlink:href="#DejaVuSans-48"/>
       <use x="127.246094" xlink:href="#DejaVuSans-46"/>
       <use x="159.033203" xlink:href="#DejaVuSans-48"/>
      </g>
     </g>
    </g>
    <g id="xtick_5">
     <g id="line2d_9">
      <path clip-path="url(#p4fa7389236)" d="M 212.649671 125.373913 
L 212.649671 7.2 
" style="fill:none;stroke:#b0b0b0;stroke-linecap:square;stroke-width:0.8;"/>
     </g>
     <g id="line2d_10">
      <g>
       <use style="stroke:#000000;stroke-width:0.8;" x="212.649671" xlink:href="#mb8981334cd" y="125.373913"/>
      </g>
     </g>
     <g id="text_5">
      <!-- 12.5 -->
      <g transform="translate(201.516859 139.972351)scale(0.1 -0.1)">
       <use xlink:href="#DejaVuSans-49"/>
       <use x="63.623047" xlink:href="#DejaVuSans-50"/>
       <use x="127.246094" xlink:href="#DejaVuSans-46"/>
       <use x="159.033203" xlink:href="#DejaVuSans-53"/>
      </g>
     </g>
    </g>
    <g id="xtick_6">
     <g id="line2d_11">
      <path clip-path="url(#p4fa7389236)" d="M 249.360197 125.373913 
L 249.360197 7.2 
" style="fill:none;stroke:#b0b0b0;stroke-linecap:square;stroke-width:0.8;"/>
     </g>
     <g id="line2d_12">
      <g>
       <use style="stroke:#000000;stroke-width:0.8;" x="249.360197" xlink:href="#mb8981334cd" y="125.373913"/>
      </g>
     </g>
     <g id="text_6">
      <!-- 15.0 -->
      <g transform="translate(238.227385 139.972351)scale(0.1 -0.1)">
       <use xlink:href="#DejaVuSans-49"/>
       <use x="63.623047" xlink:href="#DejaVuSans-53"/>
       <use x="127.246094" xlink:href="#DejaVuSans-46"/>
       <use x="159.033203" xlink:href="#DejaVuSans-48"/>
      </g>
     </g>
    </g>
    <g id="xtick_7">
     <g id="line2d_13">
      <path clip-path="url(#p4fa7389236)" d="M 286.070724 125.373913 
L 286.070724 7.2 
" style="fill:none;stroke:#b0b0b0;stroke-linecap:square;stroke-width:0.8;"/>
     </g>
     <g id="line2d_14">
      <g>
       <use style="stroke:#000000;stroke-width:0.8;" x="286.070724" xlink:href="#mb8981334cd" y="125.373913"/>
      </g>
     </g>
     <g id="text_7">
      <!-- 17.5 -->
      <g transform="translate(274.937911 139.972351)scale(0.1 -0.1)">
       <use xlink:href="#DejaVuSans-49"/>
       <use x="63.623047" xlink:href="#DejaVuSans-55"/>
       <use x="127.246094" xlink:href="#DejaVuSans-46"/>
       <use x="159.033203" xlink:href="#DejaVuSans-53"/>
      </g>
     </g>
    </g>
    <g id="xtick_8">
     <g id="line2d_15">
      <path clip-path="url(#p4fa7389236)" d="M 322.78125 125.373913 
L 322.78125 7.2 
" style="fill:none;stroke:#b0b0b0;stroke-linecap:square;stroke-width:0.8;"/>
     </g>
     <g id="line2d_16">
      <g>
       <use style="stroke:#000000;stroke-width:0.8;" x="322.78125" xlink:href="#mb8981334cd" y="125.373913"/>
      </g>
     </g>
     <g id="text_8">
      <!-- 20.0 -->
      <g transform="translate(311.648438 139.972351)scale(0.1 -0.1)">
       <use xlink:href="#DejaVuSans-50"/>
       <use x="63.623047" xlink:href="#DejaVuSans-48"/>
       <use x="127.246094" xlink:href="#DejaVuSans-46"/>
       <use x="159.033203" xlink:href="#DejaVuSans-48"/>
      </g>
     </g>
    </g>
    <g id="text_9">
     <!-- epoch -->
     <defs>
      <path d="M 56.203125 29.59375 
L 56.203125 25.203125 
L 14.890625 25.203125 
Q 15.484375 15.921875 20.484375 11.0625 
Q 25.484375 6.203125 34.421875 6.203125 
Q 39.59375 6.203125 44.453125 7.46875 
Q 49.3125 8.734375 54.109375 11.28125 
L 54.109375 2.78125 
Q 49.265625 0.734375 44.1875 -0.34375 
Q 39.109375 -1.421875 33.890625 -1.421875 
Q 20.796875 -1.421875 13.15625 6.1875 
Q 5.515625 13.8125 5.515625 26.8125 
Q 5.515625 40.234375 12.765625 48.109375 
Q 20.015625 56 32.328125 56 
Q 43.359375 56 49.78125 48.890625 
Q 56.203125 41.796875 56.203125 29.59375 
z
M 47.21875 32.234375 
Q 47.125 39.59375 43.09375 43.984375 
Q 39.0625 48.390625 32.421875 48.390625 
Q 24.90625 48.390625 20.390625 44.140625 
Q 15.875 39.890625 15.1875 32.171875 
z
" id="DejaVuSans-101"/>
      <path d="M 18.109375 8.203125 
L 18.109375 -20.796875 
L 9.078125 -20.796875 
L 9.078125 54.6875 
L 18.109375 54.6875 
L 18.109375 46.390625 
Q 20.953125 51.265625 25.265625 53.625 
Q 29.59375 56 35.59375 56 
Q 45.5625 56 51.78125 48.09375 
Q 58.015625 40.1875 58.015625 27.296875 
Q 58.015625 14.40625 51.78125 6.484375 
Q 45.5625 -1.421875 35.59375 -1.421875 
Q 29.59375 -1.421875 25.265625 0.953125 
Q 20.953125 3.328125 18.109375 8.203125 
z
M 48.6875 27.296875 
Q 48.6875 37.203125 44.609375 42.84375 
Q 40.53125 48.484375 33.40625 48.484375 
Q 26.265625 48.484375 22.1875 42.84375 
Q 18.109375 37.203125 18.109375 27.296875 
Q 18.109375 17.390625 22.1875 11.75 
Q 26.265625 6.109375 33.40625 6.109375 
Q 40.53125 6.109375 44.609375 11.75 
Q 48.6875 17.390625 48.6875 27.296875 
z
" id="DejaVuSans-112"/>
      <path d="M 30.609375 48.390625 
Q 23.390625 48.390625 19.1875 42.75 
Q 14.984375 37.109375 14.984375 27.296875 
Q 14.984375 17.484375 19.15625 11.84375 
Q 23.34375 6.203125 30.609375 6.203125 
Q 37.796875 6.203125 41.984375 11.859375 
Q 46.1875 17.53125 46.1875 27.296875 
Q 46.1875 37.015625 41.984375 42.703125 
Q 37.796875 48.390625 30.609375 48.390625 
z
M 30.609375 56 
Q 42.328125 56 49.015625 48.375 
Q 55.71875 40.765625 55.71875 27.296875 
Q 55.71875 13.875 49.015625 6.21875 
Q 42.328125 -1.421875 30.609375 -1.421875 
Q 18.84375 -1.421875 12.171875 6.21875 
Q 5.515625 13.875 5.515625 27.296875 
Q 5.515625 40.765625 12.171875 48.375 
Q 18.84375 56 30.609375 56 
z
" id="DejaVuSans-111"/>
      <path d="M 48.78125 52.59375 
L 48.78125 44.1875 
Q 44.96875 46.296875 41.140625 47.34375 
Q 37.3125 48.390625 33.40625 48.390625 
Q 24.65625 48.390625 19.8125 42.84375 
Q 14.984375 37.3125 14.984375 27.296875 
Q 14.984375 17.28125 19.8125 11.734375 
Q 24.65625 6.203125 33.40625 6.203125 
Q 37.3125 6.203125 41.140625 7.25 
Q 44.96875 8.296875 48.78125 10.40625 
L 48.78125 2.09375 
Q 45.015625 0.34375 40.984375 -0.53125 
Q 36.96875 -1.421875 32.421875 -1.421875 
Q 20.0625 -1.421875 12.78125 6.34375 
Q 5.515625 14.109375 5.515625 27.296875 
Q 5.515625 40.671875 12.859375 48.328125 
Q 20.21875 56 33.015625 56 
Q 37.15625 56 41.109375 55.140625 
Q 45.0625 54.296875 48.78125 52.59375 
z
" id="DejaVuSans-99"/>
      <path d="M 54.890625 33.015625 
L 54.890625 0 
L 45.90625 0 
L 45.90625 32.71875 
Q 45.90625 40.484375 42.875 44.328125 
Q 39.84375 48.1875 33.796875 48.1875 
Q 26.515625 48.1875 22.3125 43.546875 
Q 18.109375 38.921875 18.109375 30.90625 
L 18.109375 0 
L 9.078125 0 
L 9.078125 75.984375 
L 18.109375 75.984375 
L 18.109375 46.1875 
Q 21.34375 51.125 25.703125 53.5625 
Q 30.078125 56 35.796875 56 
Q 45.21875 56 50.046875 50.171875 
Q 54.890625 44.34375 54.890625 33.015625 
z
" id="DejaVuSans-104"/>
     </defs>
     <g transform="translate(168.053125 153.650476)scale(0.1 -0.1)">
      <use xlink:href="#DejaVuSans-101"/>
      <use x="61.523438" xlink:href="#DejaVuSans-112"/>
      <use x="125" xlink:href="#DejaVuSans-111"/>
      <use x="186.181641" xlink:href="#DejaVuSans-99"/>
      <use x="241.162109" xlink:href="#DejaVuSans-104"/>
     </g>
    </g>
   </g>
   <g id="matplotlib.axis_2">
    <g id="ytick_1">
     <g id="line2d_17">
      <path clip-path="url(#p4fa7389236)" d="M 43.78125 109.468733 
L 322.78125 109.468733 
" style="fill:none;stroke:#b0b0b0;stroke-linecap:square;stroke-width:0.8;"/>
     </g>
     <g id="line2d_18">
      <defs>
       <path d="M 0 0 
L -3.5 0 
" id="mced2d5449f" style="stroke:#000000;stroke-width:0.8;"/>
      </defs>
      <g>
       <use style="stroke:#000000;stroke-width:0.8;" x="43.78125" xlink:href="#mced2d5449f" y="109.468733"/>
      </g>
     </g>
     <g id="text_10">
      <!-- 0.5 -->
      <g transform="translate(20.878125 113.267951)scale(0.1 -0.1)">
       <use xlink:href="#DejaVuSans-48"/>
       <use x="63.623047" xlink:href="#DejaVuSans-46"/>
       <use x="95.410156" xlink:href="#DejaVuSans-53"/>
      </g>
     </g>
    </g>
    <g id="ytick_2">
     <g id="line2d_19">
      <path clip-path="url(#p4fa7389236)" d="M 43.78125 63.294844 
L 322.78125 63.294844 
" style="fill:none;stroke:#b0b0b0;stroke-linecap:square;stroke-width:0.8;"/>
     </g>
     <g id="line2d_20">
      <g>
       <use style="stroke:#000000;stroke-width:0.8;" x="43.78125" xlink:href="#mced2d5449f" y="63.294844"/>
      </g>
     </g>
     <g id="text_11">
      <!-- 1.0 -->
      <g transform="translate(20.878125 67.094063)scale(0.1 -0.1)">
       <use xlink:href="#DejaVuSans-49"/>
       <use x="63.623047" xlink:href="#DejaVuSans-46"/>
       <use x="95.410156" xlink:href="#DejaVuSans-48"/>
      </g>
     </g>
    </g>
    <g id="ytick_3">
     <g id="line2d_21">
      <path clip-path="url(#p4fa7389236)" d="M 43.78125 17.120955 
L 322.78125 17.120955 
" style="fill:none;stroke:#b0b0b0;stroke-linecap:square;stroke-width:0.8;"/>
     </g>
     <g id="line2d_22">
      <g>
       <use style="stroke:#000000;stroke-width:0.8;" x="43.78125" xlink:href="#mced2d5449f" y="17.120955"/>
      </g>
     </g>
     <g id="text_12">
      <!-- 1.5 -->
      <g transform="translate(20.878125 20.920174)scale(0.1 -0.1)">
       <use xlink:href="#DejaVuSans-49"/>
       <use x="63.623047" xlink:href="#DejaVuSans-46"/>
       <use x="95.410156" xlink:href="#DejaVuSans-53"/>
      </g>
     </g>
    </g>
    <g id="text_13">
     <!-- loss -->
     <defs>
      <path d="M 9.421875 75.984375 
L 18.40625 75.984375 
L 18.40625 0 
L 9.421875 0 
z
" id="DejaVuSans-108"/>
      <path d="M 44.28125 53.078125 
L 44.28125 44.578125 
Q 40.484375 46.53125 36.375 47.5 
Q 32.28125 48.484375 27.875 48.484375 
Q 21.1875 48.484375 17.84375 46.4375 
Q 14.5 44.390625 14.5 40.28125 
Q 14.5 37.15625 16.890625 35.375 
Q 19.28125 33.59375 26.515625 31.984375 
L 29.59375 31.296875 
Q 39.15625 29.25 43.1875 25.515625 
Q 47.21875 21.78125 47.21875 15.09375 
Q 47.21875 7.46875 41.1875 3.015625 
Q 35.15625 -1.421875 24.609375 -1.421875 
Q 20.21875 -1.421875 15.453125 -0.5625 
Q 10.6875 0.296875 5.421875 2 
L 5.421875 11.28125 
Q 10.40625 8.6875 15.234375 7.390625 
Q 20.0625 6.109375 24.8125 6.109375 
Q 31.15625 6.109375 34.5625 8.28125 
Q 37.984375 10.453125 37.984375 14.40625 
Q 37.984375 18.0625 35.515625 20.015625 
Q 33.0625 21.96875 24.703125 23.78125 
L 21.578125 24.515625 
Q 13.234375 26.265625 9.515625 29.90625 
Q 5.8125 33.546875 5.8125 39.890625 
Q 5.8125 47.609375 11.28125 51.796875 
Q 16.75 56 26.8125 56 
Q 31.78125 56 36.171875 55.265625 
Q 40.578125 54.546875 44.28125 53.078125 
z
" id="DejaVuSans-115"/>
     </defs>
     <g transform="translate(14.798438 75.944769)rotate(-90)scale(0.1 -0.1)">
      <use xlink:href="#DejaVuSans-108"/>
      <use x="27.783203" xlink:href="#DejaVuSans-111"/>
      <use x="88.964844" xlink:href="#DejaVuSans-115"/>
      <use x="141.064453" xlink:href="#DejaVuSans-115"/>
     </g>
    </g>
   </g>
   <g id="line2d_23">
    <path clip-path="url(#p4fa7389236)" d="M 43.78125 120.002372 
L 58.465461 116.61056 
L 73.149671 108.201376 
L 87.833882 102.077939 
L 102.518092 98.772529 
L 117.202303 95.890113 
L 131.886513 94.099707 
L 146.570724 93.241735 
L 161.254934 92.457787 
L 175.939145 92.08919 
L 190.623355 91.678658 
L 205.307566 91.632768 
L 219.991776 91.664434 
L 234.675987 91.634432 
L 249.360197 91.680433 
L 264.044408 91.592882 
L 278.728618 91.528249 
L 293.412829 91.636877 
L 308.097039 91.61106 
L 322.78125 91.589566 
" style="fill:none;stroke:#1f77b4;stroke-linecap:square;stroke-width:1.5;"/>
   </g>
   <g id="line2d_24">
    <path clip-path="url(#p4fa7389236)" d="M 43.78125 12.571542 
L 58.465461 33.806982 
L 73.149671 53.730224 
L 87.833882 68.019311 
L 102.518092 73.133671 
L 117.202303 77.974109 
L 131.886513 84.393048 
L 146.570724 86.721829 
L 161.254934 88.930034 
L 175.939145 90.086585 
L 190.623355 91.320059 
L 205.307566 91.61012 
L 219.991776 91.448182 
L 234.675987 91.601668 
L 249.360197 91.504308 
L 264.044408 91.459138 
L 278.728618 91.48985 
L 293.412829 91.561333 
L 308.097039 91.529692 
L 322.78125 91.692047 
" style="fill:none;stroke:#bf00bf;stroke-dasharray:5.55,2.4;stroke-dashoffset:0;stroke-width:1.5;"/>
   </g>
   <g id="patch_3">
    <path d="M 43.78125 125.373913 
L 43.78125 7.2 
" style="fill:none;stroke:#000000;stroke-linecap:square;stroke-linejoin:miter;stroke-width:0.8;"/>
   </g>
   <g id="patch_4">
    <path d="M 322.78125 125.373913 
L 322.78125 7.2 
" style="fill:none;stroke:#000000;stroke-linecap:square;stroke-linejoin:miter;stroke-width:0.8;"/>
   </g>
   <g id="patch_5">
    <path d="M 43.78125 125.373913 
L 322.78125 125.373913 
" style="fill:none;stroke:#000000;stroke-linecap:square;stroke-linejoin:miter;stroke-width:0.8;"/>
   </g>
   <g id="patch_6">
    <path d="M 43.78125 7.2 
L 322.78125 7.2 
" style="fill:none;stroke:#000000;stroke-linecap:square;stroke-linejoin:miter;stroke-width:0.8;"/>
   </g>
   <g id="legend_1">
    <g id="patch_7">
     <path d="M 217.923437 44.55625 
L 315.78125 44.55625 
Q 317.78125 44.55625 317.78125 42.55625 
L 317.78125 14.2 
Q 317.78125 12.2 315.78125 12.2 
L 217.923437 12.2 
Q 215.923437 12.2 215.923437 14.2 
L 215.923437 42.55625 
Q 215.923437 44.55625 217.923437 44.55625 
z
" style="fill:#ffffff;opacity:0.8;stroke:#cccccc;stroke-linejoin:miter;"/>
    </g>
    <g id="line2d_25">
     <path d="M 219.923437 20.298437 
L 239.923437 20.298437 
" style="fill:none;stroke:#1f77b4;stroke-linecap:square;stroke-width:1.5;"/>
    </g>
    <g id="line2d_26"/>
    <g id="text_14">
     <!-- discriminator -->
     <defs>
      <path d="M 45.40625 46.390625 
L 45.40625 75.984375 
L 54.390625 75.984375 
L 54.390625 0 
L 45.40625 0 
L 45.40625 8.203125 
Q 42.578125 3.328125 38.25 0.953125 
Q 33.9375 -1.421875 27.875 -1.421875 
Q 17.96875 -1.421875 11.734375 6.484375 
Q 5.515625 14.40625 5.515625 27.296875 
Q 5.515625 40.1875 11.734375 48.09375 
Q 17.96875 56 27.875 56 
Q 33.9375 56 38.25 53.625 
Q 42.578125 51.265625 45.40625 46.390625 
z
M 14.796875 27.296875 
Q 14.796875 17.390625 18.875 11.75 
Q 22.953125 6.109375 30.078125 6.109375 
Q 37.203125 6.109375 41.296875 11.75 
Q 45.40625 17.390625 45.40625 27.296875 
Q 45.40625 37.203125 41.296875 42.84375 
Q 37.203125 48.484375 30.078125 48.484375 
Q 22.953125 48.484375 18.875 42.84375 
Q 14.796875 37.203125 14.796875 27.296875 
z
" id="DejaVuSans-100"/>
      <path d="M 9.421875 54.6875 
L 18.40625 54.6875 
L 18.40625 0 
L 9.421875 0 
z
M 9.421875 75.984375 
L 18.40625 75.984375 
L 18.40625 64.59375 
L 9.421875 64.59375 
z
" id="DejaVuSans-105"/>
      <path d="M 41.109375 46.296875 
Q 39.59375 47.171875 37.8125 47.578125 
Q 36.03125 48 33.890625 48 
Q 26.265625 48 22.1875 43.046875 
Q 18.109375 38.09375 18.109375 28.8125 
L 18.109375 0 
L 9.078125 0 
L 9.078125 54.6875 
L 18.109375 54.6875 
L 18.109375 46.1875 
Q 20.953125 51.171875 25.484375 53.578125 
Q 30.03125 56 36.53125 56 
Q 37.453125 56 38.578125 55.875 
Q 39.703125 55.765625 41.0625 55.515625 
z
" id="DejaVuSans-114"/>
      <path d="M 52 44.1875 
Q 55.375 50.25 60.0625 53.125 
Q 64.75 56 71.09375 56 
Q 79.640625 56 84.28125 50.015625 
Q 88.921875 44.046875 88.921875 33.015625 
L 88.921875 0 
L 79.890625 0 
L 79.890625 32.71875 
Q 79.890625 40.578125 77.09375 44.375 
Q 74.3125 48.1875 68.609375 48.1875 
Q 61.625 48.1875 57.5625 43.546875 
Q 53.515625 38.921875 53.515625 30.90625 
L 53.515625 0 
L 44.484375 0 
L 44.484375 32.71875 
Q 44.484375 40.625 41.703125 44.40625 
Q 38.921875 48.1875 33.109375 48.1875 
Q 26.21875 48.1875 22.15625 43.53125 
Q 18.109375 38.875 18.109375 30.90625 
L 18.109375 0 
L 9.078125 0 
L 9.078125 54.6875 
L 18.109375 54.6875 
L 18.109375 46.1875 
Q 21.1875 51.21875 25.484375 53.609375 
Q 29.78125 56 35.6875 56 
Q 41.65625 56 45.828125 52.96875 
Q 50 49.953125 52 44.1875 
z
" id="DejaVuSans-109"/>
      <path d="M 54.890625 33.015625 
L 54.890625 0 
L 45.90625 0 
L 45.90625 32.71875 
Q 45.90625 40.484375 42.875 44.328125 
Q 39.84375 48.1875 33.796875 48.1875 
Q 26.515625 48.1875 22.3125 43.546875 
Q 18.109375 38.921875 18.109375 30.90625 
L 18.109375 0 
L 9.078125 0 
L 9.078125 54.6875 
L 18.109375 54.6875 
L 18.109375 46.1875 
Q 21.34375 51.125 25.703125 53.5625 
Q 30.078125 56 35.796875 56 
Q 45.21875 56 50.046875 50.171875 
Q 54.890625 44.34375 54.890625 33.015625 
z
" id="DejaVuSans-110"/>
      <path d="M 34.28125 27.484375 
Q 23.390625 27.484375 19.1875 25 
Q 14.984375 22.515625 14.984375 16.5 
Q 14.984375 11.71875 18.140625 8.90625 
Q 21.296875 6.109375 26.703125 6.109375 
Q 34.1875 6.109375 38.703125 11.40625 
Q 43.21875 16.703125 43.21875 25.484375 
L 43.21875 27.484375 
z
M 52.203125 31.203125 
L 52.203125 0 
L 43.21875 0 
L 43.21875 8.296875 
Q 40.140625 3.328125 35.546875 0.953125 
Q 30.953125 -1.421875 24.3125 -1.421875 
Q 15.921875 -1.421875 10.953125 3.296875 
Q 6 8.015625 6 15.921875 
Q 6 25.140625 12.171875 29.828125 
Q 18.359375 34.515625 30.609375 34.515625 
L 43.21875 34.515625 
L 43.21875 35.40625 
Q 43.21875 41.609375 39.140625 45 
Q 35.0625 48.390625 27.6875 48.390625 
Q 23 48.390625 18.546875 47.265625 
Q 14.109375 46.140625 10.015625 43.890625 
L 10.015625 52.203125 
Q 14.9375 54.109375 19.578125 55.046875 
Q 24.21875 56 28.609375 56 
Q 40.484375 56 46.34375 49.84375 
Q 52.203125 43.703125 52.203125 31.203125 
z
" id="DejaVuSans-97"/>
      <path d="M 18.3125 70.21875 
L 18.3125 54.6875 
L 36.8125 54.6875 
L 36.8125 47.703125 
L 18.3125 47.703125 
L 18.3125 18.015625 
Q 18.3125 11.328125 20.140625 9.421875 
Q 21.96875 7.515625 27.59375 7.515625 
L 36.8125 7.515625 
L 36.8125 0 
L 27.59375 0 
Q 17.1875 0 13.234375 3.875 
Q 9.28125 7.765625 9.28125 18.015625 
L 9.28125 47.703125 
L 2.6875 47.703125 
L 2.6875 54.6875 
L 9.28125 54.6875 
L 9.28125 70.21875 
z
" id="DejaVuSans-116"/>
     </defs>
     <g transform="translate(247.923437 23.798437)scale(0.1 -0.1)">
      <use xlink:href="#DejaVuSans-100"/>
      <use x="63.476562" xlink:href="#DejaVuSans-105"/>
      <use x="91.259766" xlink:href="#DejaVuSans-115"/>
      <use x="143.359375" xlink:href="#DejaVuSans-99"/>
      <use x="198.339844" xlink:href="#DejaVuSans-114"/>
      <use x="239.453125" xlink:href="#DejaVuSans-105"/>
      <use x="267.236328" xlink:href="#DejaVuSans-109"/>
      <use x="364.648438" xlink:href="#DejaVuSans-105"/>
      <use x="392.431641" xlink:href="#DejaVuSans-110"/>
      <use x="455.810547" xlink:href="#DejaVuSans-97"/>
      <use x="517.089844" xlink:href="#DejaVuSans-116"/>
      <use x="556.298828" xlink:href="#DejaVuSans-111"/>
      <use x="617.480469" xlink:href="#DejaVuSans-114"/>
     </g>
    </g>
    <g id="line2d_27">
     <path d="M 219.923437 34.976562 
L 239.923437 34.976562 
" style="fill:none;stroke:#bf00bf;stroke-dasharray:5.55,2.4;stroke-dashoffset:0;stroke-width:1.5;"/>
    </g>
    <g id="line2d_28"/>
    <g id="text_15">
     <!-- generator -->
     <defs>
      <path d="M 45.40625 27.984375 
Q 45.40625 37.75 41.375 43.109375 
Q 37.359375 48.484375 30.078125 48.484375 
Q 22.859375 48.484375 18.828125 43.109375 
Q 14.796875 37.75 14.796875 27.984375 
Q 14.796875 18.265625 18.828125 12.890625 
Q 22.859375 7.515625 30.078125 7.515625 
Q 37.359375 7.515625 41.375 12.890625 
Q 45.40625 18.265625 45.40625 27.984375 
z
M 54.390625 6.78125 
Q 54.390625 -7.171875 48.1875 -13.984375 
Q 42 -20.796875 29.203125 -20.796875 
Q 24.46875 -20.796875 20.265625 -20.09375 
Q 16.0625 -19.390625 12.109375 -17.921875 
L 12.109375 -9.1875 
Q 16.0625 -11.328125 19.921875 -12.34375 
Q 23.78125 -13.375 27.78125 -13.375 
Q 36.625 -13.375 41.015625 -8.765625 
Q 45.40625 -4.15625 45.40625 5.171875 
L 45.40625 9.625 
Q 42.625 4.78125 38.28125 2.390625 
Q 33.9375 0 27.875 0 
Q 17.828125 0 11.671875 7.65625 
Q 5.515625 15.328125 5.515625 27.984375 
Q 5.515625 40.671875 11.671875 48.328125 
Q 17.828125 56 27.875 56 
Q 33.9375 56 38.28125 53.609375 
Q 42.625 51.21875 45.40625 46.390625 
L 45.40625 54.6875 
L 54.390625 54.6875 
z
" id="DejaVuSans-103"/>
     </defs>
     <g transform="translate(247.923437 38.476562)scale(0.1 -0.1)">
      <use xlink:href="#DejaVuSans-103"/>
      <use x="63.476562" xlink:href="#DejaVuSans-101"/>
      <use x="125" xlink:href="#DejaVuSans-110"/>
      <use x="188.378906" xlink:href="#DejaVuSans-101"/>
      <use x="249.902344" xlink:href="#DejaVuSans-114"/>
      <use x="291.015625" xlink:href="#DejaVuSans-97"/>
      <use x="352.294922" xlink:href="#DejaVuSans-116"/>
      <use x="391.503906" xlink:href="#DejaVuSans-111"/>
      <use x="452.685547" xlink:href="#DejaVuSans-114"/>
     </g>
    </g>
   </g>
  </g>
  <g id="axes_2">
   <g id="patch_8">
    <path d="M 43.78125 279 
L 322.78125 279 
L 322.78125 160.826087 
L 43.78125 160.826087 
z
" style="fill:#ffffff;"/>
   </g>
   <g id="PathCollection_1">
    <defs>
     <path d="M 0 3 
C 0.795609 3 1.55874 2.683901 2.12132 2.12132 
C 2.683901 1.55874 3 0.795609 3 0 
C 3 -0.795609 2.683901 -1.55874 2.12132 -2.12132 
C 1.55874 -2.683901 0.795609 -3 0 -3 
C -0.795609 -3 -1.55874 -2.683901 -2.12132 -2.12132 
C -2.683901 -1.55874 -3 -0.795609 -3 0 
C -3 0.795609 -2.683901 1.55874 -2.12132 2.12132 
C -1.55874 2.683901 -0.795609 3 0 3 
z
" id="ma1b851f794" style="stroke:#1f77b4;"/>
    </defs>
    <g clip-path="url(#pc4fc500f43)">
     <use style="fill:#1f77b4;stroke:#1f77b4;" x="254.620922" xlink:href="#ma1b851f794" y="181.28434"/>
     <use style="fill:#1f77b4;stroke:#1f77b4;" x="190.274563" xlink:href="#ma1b851f794" y="210.85911"/>
     <use style="fill:#1f77b4;stroke:#1f77b4;" x="203.79213" xlink:href="#ma1b851f794" y="206.750767"/>
     <use style="fill:#1f77b4;stroke:#1f77b4;" x="211.077257" xlink:href="#ma1b851f794" y="204.840743"/>
     <use style="fill:#1f77b4;stroke:#1f77b4;" x="250.521165" xlink:href="#ma1b851f794" y="197.900952"/>
     <use style="fill:#1f77b4;stroke:#1f77b4;" x="90.901841" xlink:href="#ma1b851f794" y="242.864525"/>
     <use style="fill:#1f77b4;stroke:#1f77b4;" x="75.598658" xlink:href="#ma1b851f794" y="262.402221"/>
     <use style="fill:#1f77b4;stroke:#1f77b4;" x="146.065519" xlink:href="#ma1b851f794" y="246.452226"/>
     <use style="fill:#1f77b4;stroke:#1f77b4;" x="180.864792" xlink:href="#ma1b851f794" y="214.173561"/>
     <use style="fill:#1f77b4;stroke:#1f77b4;" x="56.463068" xlink:href="#ma1b851f794" y="249.140466"/>
     <use style="fill:#1f77b4;stroke:#1f77b4;" x="57.476884" xlink:href="#ma1b851f794" y="257.909156"/>
     <use style="fill:#1f77b4;stroke:#1f77b4;" x="149.008878" xlink:href="#ma1b851f794" y="233.668309"/>
     <use style="fill:#1f77b4;stroke:#1f77b4;" x="170.876146" xlink:href="#ma1b851f794" y="225.955273"/>
     <use style="fill:#1f77b4;stroke:#1f77b4;" x="155.090629" xlink:href="#ma1b851f794" y="228.624789"/>
     <use style="fill:#1f77b4;stroke:#1f77b4;" x="131.524679" xlink:href="#ma1b851f794" y="234.555346"/>
     <use style="fill:#1f77b4;stroke:#1f77b4;" x="153.212061" xlink:href="#ma1b851f794" y="225.849184"/>
     <use style="fill:#1f77b4;stroke:#1f77b4;" x="180.50076" xlink:href="#ma1b851f794" y="214.124131"/>
     <use style="fill:#1f77b4;stroke:#1f77b4;" x="237.998662" xlink:href="#ma1b851f794" y="213.035243"/>
     <use style="fill:#1f77b4;stroke:#1f77b4;" x="183.373464" xlink:href="#ma1b851f794" y="209.74813"/>
     <use style="fill:#1f77b4;stroke:#1f77b4;" x="175.752625" xlink:href="#ma1b851f794" y="223.614478"/>
     <use style="fill:#1f77b4;stroke:#1f77b4;" x="197.997851" xlink:href="#ma1b851f794" y="199.163508"/>
     <use style="fill:#1f77b4;stroke:#1f77b4;" x="167.228724" xlink:href="#ma1b851f794" y="230.381917"/>
     <use style="fill:#1f77b4;stroke:#1f77b4;" x="110.345313" xlink:href="#ma1b851f794" y="244.932287"/>
     <use style="fill:#1f77b4;stroke:#1f77b4;" x="131.549307" xlink:href="#ma1b851f794" y="253.115196"/>
     <use style="fill:#1f77b4;stroke:#1f77b4;" x="121.964845" xlink:href="#ma1b851f794" y="244.536478"/>
     <use style="fill:#1f77b4;stroke:#1f77b4;" x="187.00102" xlink:href="#ma1b851f794" y="209.728568"/>
     <use style="fill:#1f77b4;stroke:#1f77b4;" x="88.079568" xlink:href="#ma1b851f794" y="255.466848"/>
     <use style="fill:#1f77b4;stroke:#1f77b4;" x="104.863809" xlink:href="#ma1b851f794" y="246.129853"/>
     <use style="fill:#1f77b4;stroke:#1f77b4;" x="105.602756" xlink:href="#ma1b851f794" y="244.882965"/>
     <use style="fill:#1f77b4;stroke:#1f77b4;" x="91.327216" xlink:href="#ma1b851f794" y="249.276873"/>
     <use style="fill:#1f77b4;stroke:#1f77b4;" x="79.802586" xlink:href="#ma1b851f794" y="247.460351"/>
     <use style="fill:#1f77b4;stroke:#1f77b4;" x="122.645834" xlink:href="#ma1b851f794" y="228.204171"/>
     <use style="fill:#1f77b4;stroke:#1f77b4;" x="223.050649" xlink:href="#ma1b851f794" y="211.264841"/>
     <use style="fill:#1f77b4;stroke:#1f77b4;" x="198.889078" xlink:href="#ma1b851f794" y="211.501183"/>
     <use style="fill:#1f77b4;stroke:#1f77b4;" x="126.556845" xlink:href="#ma1b851f794" y="237.019458"/>
     <use style="fill:#1f77b4;stroke:#1f77b4;" x="206.583944" xlink:href="#ma1b851f794" y="199.145231"/>
     <use style="fill:#1f77b4;stroke:#1f77b4;" x="108.228212" xlink:href="#ma1b851f794" y="242.866328"/>
     <use style="fill:#1f77b4;stroke:#1f77b4;" x="134.429323" xlink:href="#ma1b851f794" y="243.502726"/>
     <use style="fill:#1f77b4;stroke:#1f77b4;" x="176.238871" xlink:href="#ma1b851f794" y="223.012575"/>
     <use style="fill:#1f77b4;stroke:#1f77b4;" x="207.34741" xlink:href="#ma1b851f794" y="217.533882"/>
     <use style="fill:#1f77b4;stroke:#1f77b4;" x="94.601839" xlink:href="#ma1b851f794" y="258.578682"/>
     <use style="fill:#1f77b4;stroke:#1f77b4;" x="131.523792" xlink:href="#ma1b851f794" y="236.47727"/>
     <use style="fill:#1f77b4;stroke:#1f77b4;" x="254.845868" xlink:href="#ma1b851f794" y="194.596205"/>
     <use style="fill:#1f77b4;stroke:#1f77b4;" x="173.146678" xlink:href="#ma1b851f794" y="225.482153"/>
     <use style="fill:#1f77b4;stroke:#1f77b4;" x="188.191702" xlink:href="#ma1b851f794" y="222.56595"/>
     <use style="fill:#1f77b4;stroke:#1f77b4;" x="193.220483" xlink:href="#ma1b851f794" y="201.142415"/>
     <use style="fill:#1f77b4;stroke:#1f77b4;" x="138.531385" xlink:href="#ma1b851f794" y="244.041606"/>
     <use style="fill:#1f77b4;stroke:#1f77b4;" x="79.302244" xlink:href="#ma1b851f794" y="273.628458"/>
     <use style="fill:#1f77b4;stroke:#1f77b4;" x="193.310968" xlink:href="#ma1b851f794" y="221.506196"/>
     <use style="fill:#1f77b4;stroke:#1f77b4;" x="139.339" xlink:href="#ma1b851f794" y="240.086602"/>
     <use style="fill:#1f77b4;stroke:#1f77b4;" x="174.870707" xlink:href="#ma1b851f794" y="224.67264"/>
     <use style="fill:#1f77b4;stroke:#1f77b4;" x="89.921254" xlink:href="#ma1b851f794" y="246.120272"/>
     <use style="fill:#1f77b4;stroke:#1f77b4;" x="175.723857" xlink:href="#ma1b851f794" y="222.751185"/>
     <use style="fill:#1f77b4;stroke:#1f77b4;" x="229.963974" xlink:href="#ma1b851f794" y="205.985518"/>
     <use style="fill:#1f77b4;stroke:#1f77b4;" x="171.262699" xlink:href="#ma1b851f794" y="226.519178"/>
     <use style="fill:#1f77b4;stroke:#1f77b4;" x="174.315466" xlink:href="#ma1b851f794" y="214.22391"/>
     <use style="fill:#1f77b4;stroke:#1f77b4;" x="216.51534" xlink:href="#ma1b851f794" y="224.010281"/>
     <use style="fill:#1f77b4;stroke:#1f77b4;" x="97.916119" xlink:href="#ma1b851f794" y="236.026706"/>
     <use style="fill:#1f77b4;stroke:#1f77b4;" x="155.530195" xlink:href="#ma1b851f794" y="231.048602"/>
     <use style="fill:#1f77b4;stroke:#1f77b4;" x="145.279026" xlink:href="#ma1b851f794" y="237.139879"/>
     <use style="fill:#1f77b4;stroke:#1f77b4;" x="156.754761" xlink:href="#ma1b851f794" y="239.213687"/>
     <use style="fill:#1f77b4;stroke:#1f77b4;" x="176.327189" xlink:href="#ma1b851f794" y="224.074605"/>
     <use style="fill:#1f77b4;stroke:#1f77b4;" x="192.818312" xlink:href="#ma1b851f794" y="215.268915"/>
     <use style="fill:#1f77b4;stroke:#1f77b4;" x="193.518611" xlink:href="#ma1b851f794" y="213.730518"/>
     <use style="fill:#1f77b4;stroke:#1f77b4;" x="176.347275" xlink:href="#ma1b851f794" y="207.857729"/>
     <use style="fill:#1f77b4;stroke:#1f77b4;" x="205.721977" xlink:href="#ma1b851f794" y="206.6619"/>
     <use style="fill:#1f77b4;stroke:#1f77b4;" x="167.479348" xlink:href="#ma1b851f794" y="234.087074"/>
     <use style="fill:#1f77b4;stroke:#1f77b4;" x="195.831681" xlink:href="#ma1b851f794" y="211.492155"/>
     <use style="fill:#1f77b4;stroke:#1f77b4;" x="117.930693" xlink:href="#ma1b851f794" y="241.369329"/>
     <use style="fill:#1f77b4;stroke:#1f77b4;" x="146.741467" xlink:href="#ma1b851f794" y="228.92495"/>
     <use style="fill:#1f77b4;stroke:#1f77b4;" x="198.018843" xlink:href="#ma1b851f794" y="207.992849"/>
     <use style="fill:#1f77b4;stroke:#1f77b4;" x="177.184655" xlink:href="#ma1b851f794" y="224.856832"/>
     <use style="fill:#1f77b4;stroke:#1f77b4;" x="190.477477" xlink:href="#ma1b851f794" y="210.715036"/>
     <use style="fill:#1f77b4;stroke:#1f77b4;" x="113.004161" xlink:href="#ma1b851f794" y="250.058922"/>
     <use style="fill:#1f77b4;stroke:#1f77b4;" x="143.513611" xlink:href="#ma1b851f794" y="240.103316"/>
     <use style="fill:#1f77b4;stroke:#1f77b4;" x="207.900731" xlink:href="#ma1b851f794" y="193.188685"/>
     <use style="fill:#1f77b4;stroke:#1f77b4;" x="130.734111" xlink:href="#ma1b851f794" y="230.252136"/>
     <use style="fill:#1f77b4;stroke:#1f77b4;" x="181.212568" xlink:href="#ma1b851f794" y="205.761006"/>
     <use style="fill:#1f77b4;stroke:#1f77b4;" x="204.562179" xlink:href="#ma1b851f794" y="215.102278"/>
     <use style="fill:#1f77b4;stroke:#1f77b4;" x="108.979811" xlink:href="#ma1b851f794" y="239.336427"/>
     <use style="fill:#1f77b4;stroke:#1f77b4;" x="150.263418" xlink:href="#ma1b851f794" y="226.313635"/>
     <use style="fill:#1f77b4;stroke:#1f77b4;" x="198.614892" xlink:href="#ma1b851f794" y="215.901245"/>
     <use style="fill:#1f77b4;stroke:#1f77b4;" x="61.522016" xlink:href="#ma1b851f794" y="255.537771"/>
     <use style="fill:#1f77b4;stroke:#1f77b4;" x="196.833372" xlink:href="#ma1b851f794" y="210.079287"/>
     <use style="fill:#1f77b4;stroke:#1f77b4;" x="241.309941" xlink:href="#ma1b851f794" y="187.583894"/>
     <use style="fill:#1f77b4;stroke:#1f77b4;" x="172.964633" xlink:href="#ma1b851f794" y="222.271065"/>
     <use style="fill:#1f77b4;stroke:#1f77b4;" x="160.377497" xlink:href="#ma1b851f794" y="223.759505"/>
     <use style="fill:#1f77b4;stroke:#1f77b4;" x="75.427977" xlink:href="#ma1b851f794" y="271.817589"/>
     <use style="fill:#1f77b4;stroke:#1f77b4;" x="122.826747" xlink:href="#ma1b851f794" y="238.129994"/>
     <use style="fill:#1f77b4;stroke:#1f77b4;" x="207.11269" xlink:href="#ma1b851f794" y="212.299657"/>
     <use style="fill:#1f77b4;stroke:#1f77b4;" x="133.666819" xlink:href="#ma1b851f794" y="228.037414"/>
     <use style="fill:#1f77b4;stroke:#1f77b4;" x="237.377249" xlink:href="#ma1b851f794" y="201.723911"/>
     <use style="fill:#1f77b4;stroke:#1f77b4;" x="138.1515" xlink:href="#ma1b851f794" y="231.117747"/>
     <use style="fill:#1f77b4;stroke:#1f77b4;" x="71.042565" xlink:href="#ma1b851f794" y="255.804669"/>
     <use style="fill:#1f77b4;stroke:#1f77b4;" x="184.626457" xlink:href="#ma1b851f794" y="205.345808"/>
     <use style="fill:#1f77b4;stroke:#1f77b4;" x="192.148477" xlink:href="#ma1b851f794" y="205.145597"/>
     <use style="fill:#1f77b4;stroke:#1f77b4;" x="310.099432" xlink:href="#ma1b851f794" y="166.197628"/>
     <use style="fill:#1f77b4;stroke:#1f77b4;" x="92.258709" xlink:href="#ma1b851f794" y="241.803753"/>
     <use style="fill:#1f77b4;stroke:#1f77b4;" x="250.834604" xlink:href="#ma1b851f794" y="198.067784"/>
     <use style="fill:#1f77b4;stroke:#1f77b4;" x="118.308093" xlink:href="#ma1b851f794" y="226.711006"/>
    </g>
   </g>
   <g id="PathCollection_2">
    <defs>
     <path d="M 0 3 
C 0.795609 3 1.55874 2.683901 2.12132 2.12132 
C 2.683901 1.55874 3 0.795609 3 0 
C 3 -0.795609 2.683901 -1.55874 2.12132 -2.12132 
C 1.55874 -2.683901 0.795609 -3 0 -3 
C -0.795609 -3 -1.55874 -2.683901 -2.12132 -2.12132 
C -2.683901 -1.55874 -3 -0.795609 -3 0 
C -3 0.795609 -2.683901 1.55874 -2.12132 2.12132 
C -1.55874 2.683901 -0.795609 3 0 3 
z
" id="mf99ff177d4" style="stroke:#ff7f0e;"/>
    </defs>
    <g clip-path="url(#pc4fc500f43)">
     <use style="fill:#ff7f0e;stroke:#ff7f0e;" x="184.171235" xlink:href="#mf99ff177d4" y="218.006355"/>
     <use style="fill:#ff7f0e;stroke:#ff7f0e;" x="165.616272" xlink:href="#mf99ff177d4" y="220.981673"/>
     <use style="fill:#ff7f0e;stroke:#ff7f0e;" x="182.170008" xlink:href="#mf99ff177d4" y="213.704967"/>
     <use style="fill:#ff7f0e;stroke:#ff7f0e;" x="98.679316" xlink:href="#mf99ff177d4" y="245.590443"/>
     <use style="fill:#ff7f0e;stroke:#ff7f0e;" x="82.196495" xlink:href="#mf99ff177d4" y="248.201681"/>
     <use style="fill:#ff7f0e;stroke:#ff7f0e;" x="160.704538" xlink:href="#mf99ff177d4" y="233.859158"/>
     <use style="fill:#ff7f0e;stroke:#ff7f0e;" x="176.408852" xlink:href="#mf99ff177d4" y="235.358809"/>
     <use style="fill:#ff7f0e;stroke:#ff7f0e;" x="150.576241" xlink:href="#mf99ff177d4" y="230.05505"/>
     <use style="fill:#ff7f0e;stroke:#ff7f0e;" x="116.466984" xlink:href="#mf99ff177d4" y="248.458576"/>
     <use style="fill:#ff7f0e;stroke:#ff7f0e;" x="138.329827" xlink:href="#mf99ff177d4" y="229.606461"/>
     <use style="fill:#ff7f0e;stroke:#ff7f0e;" x="129.148322" xlink:href="#mf99ff177d4" y="241.729636"/>
     <use style="fill:#ff7f0e;stroke:#ff7f0e;" x="128.021129" xlink:href="#mf99ff177d4" y="238.16232"/>
     <use style="fill:#ff7f0e;stroke:#ff7f0e;" x="100.246212" xlink:href="#mf99ff177d4" y="252.666663"/>
     <use style="fill:#ff7f0e;stroke:#ff7f0e;" x="125.159796" xlink:href="#mf99ff177d4" y="250.686458"/>
     <use style="fill:#ff7f0e;stroke:#ff7f0e;" x="168.689214" xlink:href="#mf99ff177d4" y="228.071334"/>
     <use style="fill:#ff7f0e;stroke:#ff7f0e;" x="178.249855" xlink:href="#mf99ff177d4" y="218.322356"/>
     <use style="fill:#ff7f0e;stroke:#ff7f0e;" x="57.150481" xlink:href="#mf99ff177d4" y="267.378827"/>
     <use style="fill:#ff7f0e;stroke:#ff7f0e;" x="235.716862" xlink:href="#mf99ff177d4" y="192.437135"/>
     <use style="fill:#ff7f0e;stroke:#ff7f0e;" x="255.339369" xlink:href="#mf99ff177d4" y="186.082957"/>
     <use style="fill:#ff7f0e;stroke:#ff7f0e;" x="99.283734" xlink:href="#mf99ff177d4" y="249.642522"/>
     <use style="fill:#ff7f0e;stroke:#ff7f0e;" x="83.284288" xlink:href="#mf99ff177d4" y="272.240614"/>
     <use style="fill:#ff7f0e;stroke:#ff7f0e;" x="99.394999" xlink:href="#mf99ff177d4" y="252.144946"/>
     <use style="fill:#ff7f0e;stroke:#ff7f0e;" x="138.28183" xlink:href="#mf99ff177d4" y="229.725955"/>
     <use style="fill:#ff7f0e;stroke:#ff7f0e;" x="155.696825" xlink:href="#mf99ff177d4" y="223.023737"/>
     <use style="fill:#ff7f0e;stroke:#ff7f0e;" x="218.299284" xlink:href="#mf99ff177d4" y="197.018611"/>
     <use style="fill:#ff7f0e;stroke:#ff7f0e;" x="164.102305" xlink:href="#mf99ff177d4" y="216.37212"/>
     <use style="fill:#ff7f0e;stroke:#ff7f0e;" x="223.361479" xlink:href="#mf99ff177d4" y="205.469232"/>
     <use style="fill:#ff7f0e;stroke:#ff7f0e;" x="85.525161" xlink:href="#mf99ff177d4" y="251.401428"/>
     <use style="fill:#ff7f0e;stroke:#ff7f0e;" x="190.018655" xlink:href="#mf99ff177d4" y="223.496763"/>
     <use style="fill:#ff7f0e;stroke:#ff7f0e;" x="215.818825" xlink:href="#mf99ff177d4" y="193.449448"/>
     <use style="fill:#ff7f0e;stroke:#ff7f0e;" x="131.256438" xlink:href="#mf99ff177d4" y="236.013853"/>
     <use style="fill:#ff7f0e;stroke:#ff7f0e;" x="142.451902" xlink:href="#mf99ff177d4" y="229.637295"/>
     <use style="fill:#ff7f0e;stroke:#ff7f0e;" x="208.352505" xlink:href="#mf99ff177d4" y="197.216339"/>
     <use style="fill:#ff7f0e;stroke:#ff7f0e;" x="164.883404" xlink:href="#mf99ff177d4" y="225.516621"/>
     <use style="fill:#ff7f0e;stroke:#ff7f0e;" x="194.085098" xlink:href="#mf99ff177d4" y="220.548853"/>
     <use style="fill:#ff7f0e;stroke:#ff7f0e;" x="181.93939" xlink:href="#mf99ff177d4" y="210.248555"/>
     <use style="fill:#ff7f0e;stroke:#ff7f0e;" x="192.561972" xlink:href="#mf99ff177d4" y="211.608671"/>
     <use style="fill:#ff7f0e;stroke:#ff7f0e;" x="202.504973" xlink:href="#mf99ff177d4" y="216.629337"/>
     <use style="fill:#ff7f0e;stroke:#ff7f0e;" x="117.701038" xlink:href="#mf99ff177d4" y="239.64004"/>
     <use style="fill:#ff7f0e;stroke:#ff7f0e;" x="113.08008" xlink:href="#mf99ff177d4" y="236.939996"/>
     <use style="fill:#ff7f0e;stroke:#ff7f0e;" x="161.351859" xlink:href="#mf99ff177d4" y="222.883382"/>
     <use style="fill:#ff7f0e;stroke:#ff7f0e;" x="197.210621" xlink:href="#mf99ff177d4" y="211.779048"/>
     <use style="fill:#ff7f0e;stroke:#ff7f0e;" x="113.303288" xlink:href="#mf99ff177d4" y="247.086174"/>
     <use style="fill:#ff7f0e;stroke:#ff7f0e;" x="82.674708" xlink:href="#mf99ff177d4" y="257.543596"/>
     <use style="fill:#ff7f0e;stroke:#ff7f0e;" x="82.863016" xlink:href="#mf99ff177d4" y="256.347111"/>
     <use style="fill:#ff7f0e;stroke:#ff7f0e;" x="117.691057" xlink:href="#mf99ff177d4" y="252.754415"/>
     <use style="fill:#ff7f0e;stroke:#ff7f0e;" x="179.315401" xlink:href="#mf99ff177d4" y="211.972021"/>
     <use style="fill:#ff7f0e;stroke:#ff7f0e;" x="184.526238" xlink:href="#mf99ff177d4" y="217.378594"/>
     <use style="fill:#ff7f0e;stroke:#ff7f0e;" x="152.471768" xlink:href="#mf99ff177d4" y="221.245845"/>
     <use style="fill:#ff7f0e;stroke:#ff7f0e;" x="144.291181" xlink:href="#mf99ff177d4" y="237.822394"/>
     <use style="fill:#ff7f0e;stroke:#ff7f0e;" x="112.459539" xlink:href="#mf99ff177d4" y="248.031813"/>
     <use style="fill:#ff7f0e;stroke:#ff7f0e;" x="266.734396" xlink:href="#mf99ff177d4" y="185.022501"/>
     <use style="fill:#ff7f0e;stroke:#ff7f0e;" x="71.16133" xlink:href="#mf99ff177d4" y="261.517341"/>
     <use style="fill:#ff7f0e;stroke:#ff7f0e;" x="123.383194" xlink:href="#mf99ff177d4" y="234.198558"/>
     <use style="fill:#ff7f0e;stroke:#ff7f0e;" x="147.909464" xlink:href="#mf99ff177d4" y="231.955277"/>
     <use style="fill:#ff7f0e;stroke:#ff7f0e;" x="166.162214" xlink:href="#mf99ff177d4" y="217.060497"/>
     <use style="fill:#ff7f0e;stroke:#ff7f0e;" x="158.148535" xlink:href="#mf99ff177d4" y="217.739409"/>
     <use style="fill:#ff7f0e;stroke:#ff7f0e;" x="221.953906" xlink:href="#mf99ff177d4" y="212.427646"/>
     <use style="fill:#ff7f0e;stroke:#ff7f0e;" x="209.987387" xlink:href="#mf99ff177d4" y="208.983912"/>
     <use style="fill:#ff7f0e;stroke:#ff7f0e;" x="174.707628" xlink:href="#mf99ff177d4" y="217.818091"/>
     <use style="fill:#ff7f0e;stroke:#ff7f0e;" x="169.456375" xlink:href="#mf99ff177d4" y="225.966001"/>
     <use style="fill:#ff7f0e;stroke:#ff7f0e;" x="165.277912" xlink:href="#mf99ff177d4" y="233.273714"/>
     <use style="fill:#ff7f0e;stroke:#ff7f0e;" x="124.05442" xlink:href="#mf99ff177d4" y="253.052622"/>
     <use style="fill:#ff7f0e;stroke:#ff7f0e;" x="72.435499" xlink:href="#mf99ff177d4" y="261.107613"/>
     <use style="fill:#ff7f0e;stroke:#ff7f0e;" x="107.339857" xlink:href="#mf99ff177d4" y="245.134703"/>
     <use style="fill:#ff7f0e;stroke:#ff7f0e;" x="185.266181" xlink:href="#mf99ff177d4" y="218.884408"/>
     <use style="fill:#ff7f0e;stroke:#ff7f0e;" x="104.440741" xlink:href="#mf99ff177d4" y="259.375781"/>
     <use style="fill:#ff7f0e;stroke:#ff7f0e;" x="158.352641" xlink:href="#mf99ff177d4" y="229.193358"/>
     <use style="fill:#ff7f0e;stroke:#ff7f0e;" x="155.131455" xlink:href="#mf99ff177d4" y="230.006114"/>
     <use style="fill:#ff7f0e;stroke:#ff7f0e;" x="182.254139" xlink:href="#mf99ff177d4" y="209.181531"/>
     <use style="fill:#ff7f0e;stroke:#ff7f0e;" x="105.327468" xlink:href="#mf99ff177d4" y="245.254791"/>
     <use style="fill:#ff7f0e;stroke:#ff7f0e;" x="237.991866" xlink:href="#mf99ff177d4" y="204.406242"/>
     <use style="fill:#ff7f0e;stroke:#ff7f0e;" x="170.06423" xlink:href="#mf99ff177d4" y="228.579047"/>
     <use style="fill:#ff7f0e;stroke:#ff7f0e;" x="86.505149" xlink:href="#mf99ff177d4" y="245.550332"/>
     <use style="fill:#ff7f0e;stroke:#ff7f0e;" x="214.388849" xlink:href="#mf99ff177d4" y="208.88471"/>
     <use style="fill:#ff7f0e;stroke:#ff7f0e;" x="190.81736" xlink:href="#mf99ff177d4" y="197.491349"/>
     <use style="fill:#ff7f0e;stroke:#ff7f0e;" x="192.435269" xlink:href="#mf99ff177d4" y="211.834711"/>
     <use style="fill:#ff7f0e;stroke:#ff7f0e;" x="183.568166" xlink:href="#mf99ff177d4" y="219.039527"/>
     <use style="fill:#ff7f0e;stroke:#ff7f0e;" x="151.361911" xlink:href="#mf99ff177d4" y="236.437573"/>
     <use style="fill:#ff7f0e;stroke:#ff7f0e;" x="202.969415" xlink:href="#mf99ff177d4" y="207.972691"/>
     <use style="fill:#ff7f0e;stroke:#ff7f0e;" x="132.458705" xlink:href="#mf99ff177d4" y="240.180633"/>
     <use style="fill:#ff7f0e;stroke:#ff7f0e;" x="118.067271" xlink:href="#mf99ff177d4" y="253.617958"/>
     <use style="fill:#ff7f0e;stroke:#ff7f0e;" x="162.349788" xlink:href="#mf99ff177d4" y="222.293178"/>
     <use style="fill:#ff7f0e;stroke:#ff7f0e;" x="215.280194" xlink:href="#mf99ff177d4" y="203.449027"/>
     <use style="fill:#ff7f0e;stroke:#ff7f0e;" x="236.389127" xlink:href="#mf99ff177d4" y="193.29927"/>
     <use style="fill:#ff7f0e;stroke:#ff7f0e;" x="75.701144" xlink:href="#mf99ff177d4" y="255.790025"/>
     <use style="fill:#ff7f0e;stroke:#ff7f0e;" x="181.260744" xlink:href="#mf99ff177d4" y="212.94334"/>
     <use style="fill:#ff7f0e;stroke:#ff7f0e;" x="115.911522" xlink:href="#mf99ff177d4" y="238.240409"/>
     <use style="fill:#ff7f0e;stroke:#ff7f0e;" x="186.134479" xlink:href="#mf99ff177d4" y="219.125633"/>
     <use style="fill:#ff7f0e;stroke:#ff7f0e;" x="133.575764" xlink:href="#mf99ff177d4" y="232.977615"/>
     <use style="fill:#ff7f0e;stroke:#ff7f0e;" x="136.970499" xlink:href="#mf99ff177d4" y="237.304113"/>
     <use style="fill:#ff7f0e;stroke:#ff7f0e;" x="187.364498" xlink:href="#mf99ff177d4" y="214.808266"/>
     <use style="fill:#ff7f0e;stroke:#ff7f0e;" x="226.807634" xlink:href="#mf99ff177d4" y="182.53696"/>
     <use style="fill:#ff7f0e;stroke:#ff7f0e;" x="117.860456" xlink:href="#mf99ff177d4" y="240.624917"/>
     <use style="fill:#ff7f0e;stroke:#ff7f0e;" x="129.763427" xlink:href="#mf99ff177d4" y="237.694959"/>
     <use style="fill:#ff7f0e;stroke:#ff7f0e;" x="162.228307" xlink:href="#mf99ff177d4" y="218.396407"/>
     <use style="fill:#ff7f0e;stroke:#ff7f0e;" x="106.021531" xlink:href="#mf99ff177d4" y="242.116153"/>
     <use style="fill:#ff7f0e;stroke:#ff7f0e;" x="112.954054" xlink:href="#mf99ff177d4" y="243.486625"/>
     <use style="fill:#ff7f0e;stroke:#ff7f0e;" x="148.840786" xlink:href="#mf99ff177d4" y="235.856253"/>
     <use style="fill:#ff7f0e;stroke:#ff7f0e;" x="158.655791" xlink:href="#mf99ff177d4" y="217.069236"/>
    </g>
   </g>
   <g id="matplotlib.axis_3">
    <g id="xtick_9">
     <g id="line2d_29">
      <g>
       <use style="stroke:#000000;stroke-width:0.8;" x="62.282784" xlink:href="#mb8981334cd" y="279"/>
      </g>
     </g>
     <g id="text_16">
      <!-- −1 -->
      <defs>
       <path d="M 10.59375 35.5 
L 73.1875 35.5 
L 73.1875 27.203125 
L 10.59375 27.203125 
z
" id="DejaVuSans-8722"/>
      </defs>
      <g transform="translate(54.91169 293.598437)scale(0.1 -0.1)">
       <use xlink:href="#DejaVuSans-8722"/>
       <use x="83.789062" xlink:href="#DejaVuSans-49"/>
      </g>
     </g>
    </g>
    <g id="xtick_10">
     <g id="line2d_30">
      <g>
       <use style="stroke:#000000;stroke-width:0.8;" x="109.241502" xlink:href="#mb8981334cd" y="279"/>
      </g>
     </g>
     <g id="text_17">
      <!-- 0 -->
      <g transform="translate(106.060252 293.598437)scale(0.1 -0.1)">
       <use xlink:href="#DejaVuSans-48"/>
      </g>
     </g>
    </g>
    <g id="xtick_11">
     <g id="line2d_31">
      <g>
       <use style="stroke:#000000;stroke-width:0.8;" x="156.20022" xlink:href="#mb8981334cd" y="279"/>
      </g>
     </g>
     <g id="text_18">
      <!-- 1 -->
      <g transform="translate(153.01897 293.598437)scale(0.1 -0.1)">
       <use xlink:href="#DejaVuSans-49"/>
      </g>
     </g>
    </g>
    <g id="xtick_12">
     <g id="line2d_32">
      <g>
       <use style="stroke:#000000;stroke-width:0.8;" x="203.158938" xlink:href="#mb8981334cd" y="279"/>
      </g>
     </g>
     <g id="text_19">
      <!-- 2 -->
      <g transform="translate(199.977688 293.598437)scale(0.1 -0.1)">
       <use xlink:href="#DejaVuSans-50"/>
      </g>
     </g>
    </g>
    <g id="xtick_13">
     <g id="line2d_33">
      <g>
       <use style="stroke:#000000;stroke-width:0.8;" x="250.117656" xlink:href="#mb8981334cd" y="279"/>
      </g>
     </g>
     <g id="text_20">
      <!-- 3 -->
      <defs>
       <path d="M 40.578125 39.3125 
Q 47.65625 37.796875 51.625 33 
Q 55.609375 28.21875 55.609375 21.1875 
Q 55.609375 10.40625 48.1875 4.484375 
Q 40.765625 -1.421875 27.09375 -1.421875 
Q 22.515625 -1.421875 17.65625 -0.515625 
Q 12.796875 0.390625 7.625 2.203125 
L 7.625 11.71875 
Q 11.71875 9.328125 16.59375 8.109375 
Q 21.484375 6.890625 26.8125 6.890625 
Q 36.078125 6.890625 40.9375 10.546875 
Q 45.796875 14.203125 45.796875 21.1875 
Q 45.796875 27.640625 41.28125 31.265625 
Q 36.765625 34.90625 28.71875 34.90625 
L 20.21875 34.90625 
L 20.21875 43.015625 
L 29.109375 43.015625 
Q 36.375 43.015625 40.234375 45.921875 
Q 44.09375 48.828125 44.09375 54.296875 
Q 44.09375 59.90625 40.109375 62.90625 
Q 36.140625 65.921875 28.71875 65.921875 
Q 24.65625 65.921875 20.015625 65.03125 
Q 15.375 64.15625 9.8125 62.3125 
L 9.8125 71.09375 
Q 15.4375 72.65625 20.34375 73.4375 
Q 25.25 74.21875 29.59375 74.21875 
Q 40.828125 74.21875 47.359375 69.109375 
Q 53.90625 64.015625 53.90625 55.328125 
Q 53.90625 49.265625 50.4375 45.09375 
Q 46.96875 40.921875 40.578125 39.3125 
z
" id="DejaVuSans-51"/>
      </defs>
      <g transform="translate(246.936406 293.598437)scale(0.1 -0.1)">
       <use xlink:href="#DejaVuSans-51"/>
      </g>
     </g>
    </g>
    <g id="xtick_14">
     <g id="line2d_34">
      <g>
       <use style="stroke:#000000;stroke-width:0.8;" x="297.076374" xlink:href="#mb8981334cd" y="279"/>
      </g>
     </g>
     <g id="text_21">
      <!-- 4 -->
      <defs>
       <path d="M 37.796875 64.3125 
L 12.890625 25.390625 
L 37.796875 25.390625 
z
M 35.203125 72.90625 
L 47.609375 72.90625 
L 47.609375 25.390625 
L 58.015625 25.390625 
L 58.015625 17.1875 
L 47.609375 17.1875 
L 47.609375 0 
L 37.796875 0 
L 37.796875 17.1875 
L 4.890625 17.1875 
L 4.890625 26.703125 
z
" id="DejaVuSans-52"/>
      </defs>
      <g transform="translate(293.895124 293.598437)scale(0.1 -0.1)">
       <use xlink:href="#DejaVuSans-52"/>
      </g>
     </g>
    </g>
   </g>
   <g id="matplotlib.axis_4">
    <g id="ytick_4">
     <g id="line2d_35">
      <g>
       <use style="stroke:#000000;stroke-width:0.8;" x="43.78125" xlink:href="#mced2d5449f" y="245.711176"/>
      </g>
     </g>
     <g id="text_22">
      <!-- 0 -->
      <g transform="translate(30.41875 249.510394)scale(0.1 -0.1)">
       <use xlink:href="#DejaVuSans-48"/>
      </g>
     </g>
    </g>
    <g id="ytick_5">
     <g id="line2d_36">
      <g>
       <use style="stroke:#000000;stroke-width:0.8;" x="43.78125" xlink:href="#mced2d5449f" y="199.731103"/>
      </g>
     </g>
     <g id="text_23">
      <!-- 5 -->
      <g transform="translate(30.41875 203.530322)scale(0.1 -0.1)">
       <use xlink:href="#DejaVuSans-53"/>
      </g>
     </g>
    </g>
   </g>
   <g id="patch_9">
    <path d="M 43.78125 279 
L 43.78125 160.826087 
" style="fill:none;stroke:#000000;stroke-linecap:square;stroke-linejoin:miter;stroke-width:0.8;"/>
   </g>
   <g id="patch_10">
    <path d="M 322.78125 279 
L 322.78125 160.826087 
" style="fill:none;stroke:#000000;stroke-linecap:square;stroke-linejoin:miter;stroke-width:0.8;"/>
   </g>
   <g id="patch_11">
    <path d="M 43.78125 279 
L 322.78125 279 
" style="fill:none;stroke:#000000;stroke-linecap:square;stroke-linejoin:miter;stroke-width:0.8;"/>
   </g>
   <g id="patch_12">
    <path d="M 43.78125 160.826087 
L 322.78125 160.826087 
" style="fill:none;stroke:#000000;stroke-linecap:square;stroke-linejoin:miter;stroke-width:0.8;"/>
   </g>
   <g id="legend_2">
    <g id="patch_13">
     <path d="M 50.78125 198.182337 
L 134.434375 198.182337 
Q 136.434375 198.182337 136.434375 196.182337 
L 136.434375 167.826087 
Q 136.434375 165.826087 134.434375 165.826087 
L 50.78125 165.826087 
Q 48.78125 165.826087 48.78125 167.826087 
L 48.78125 196.182337 
Q 48.78125 198.182337 50.78125 198.182337 
z
" style="fill:#ffffff;opacity:0.8;stroke:#cccccc;stroke-linejoin:miter;"/>
    </g>
    <g id="PathCollection_3">
     <g>
      <use style="fill:#1f77b4;stroke:#1f77b4;" x="62.78125" xlink:href="#ma1b851f794" y="174.799524"/>
     </g>
    </g>
    <g id="text_24">
     <!-- real -->
     <g transform="translate(80.78125 177.424524)scale(0.1 -0.1)">
      <use xlink:href="#DejaVuSans-114"/>
      <use x="38.863281" xlink:href="#DejaVuSans-101"/>
      <use x="100.386719" xlink:href="#DejaVuSans-97"/>
      <use x="161.666016" xlink:href="#DejaVuSans-108"/>
     </g>
    </g>
    <g id="PathCollection_4">
     <g>
      <use style="fill:#ff7f0e;stroke:#ff7f0e;" x="62.78125" xlink:href="#mf99ff177d4" y="189.477649"/>
     </g>
    </g>
    <g id="text_25">
     <!-- generated -->
     <g transform="translate(80.78125 192.102649)scale(0.1 -0.1)">
      <use xlink:href="#DejaVuSans-103"/>
      <use x="63.476562" xlink:href="#DejaVuSans-101"/>
      <use x="125" xlink:href="#DejaVuSans-110"/>
      <use x="188.378906" xlink:href="#DejaVuSans-101"/>
      <use x="249.902344" xlink:href="#DejaVuSans-114"/>
      <use x="291.015625" xlink:href="#DejaVuSans-97"/>
      <use x="352.294922" xlink:href="#DejaVuSans-116"/>
      <use x="391.503906" xlink:href="#DejaVuSans-101"/>
      <use x="453.027344" xlink:href="#DejaVuSans-100"/>
     </g>
    </g>
   </g>
  </g>
 </g>
 <defs>
  <clipPath id="p4fa7389236">
   <rect height="118.173913" width="279" x="43.78125" y="7.2"/>
  </clipPath>
  <clipPath id="pc4fc500f43">
   <rect height="118.173913" width="279" x="43.78125" y="160.826087"/>
  </clipPath>
 </defs>
</svg>
