<?xml version="1.0" encoding="utf-8" standalone="no"?>
<!DOCTYPE svg PUBLIC "-//W3C//DTD SVG 1.1//EN"
  "http://www.w3.org/Graphics/SVG/1.1/DTD/svg11.dtd">
<!-- Created with matplotlib (https://matplotlib.org/) -->
<svg height="166.978125pt" version="1.1" viewBox="0 0 288.782052 166.978125" width="288.782052pt" xmlns="http://www.w3.org/2000/svg" xmlns:xlink="http://www.w3.org/1999/xlink">
 <metadata>
  <rdf:RDF xmlns:cc="http://creativecommons.org/ns#" xmlns:dc="http://purl.org/dc/elements/1.1/" xmlns:rdf="http://www.w3.org/1999/02/22-rdf-syntax-ns#">
   <cc:Work>
    <dc:type rdf:resource="http://purl.org/dc/dcmitype/StillImage"/>
    <dc:date>2020-08-13T04:28:36.123257</dc:date>
    <dc:format>image/svg+xml</dc:format>
    <dc:creator>
     <cc:Agent>
      <dc:title>Matplotlib v3.3.0, https://matplotlib.org/</dc:title>
     </cc:Agent>
    </dc:creator>
   </cc:Work>
  </rdf:RDF>
 </metadata>
 <defs>
  <style type="text/css">*{stroke-linecap:butt;stroke-linejoin:round;}</style>
 </defs>
 <g id="figure_1">
  <g id="patch_1">
   <path d="M 0 166.978125 
L 288.782052 166.978125 
L 288.782052 0 
L 0 0 
z
" style="fill:none;"/>
  </g>
  <g id="axes_1">
   <g id="patch_2">
    <path d="M 28.942188 143.1 
L 280.042188 143.1 
L 280.042188 7.2 
L 28.942188 7.2 
z
" style="fill:#ffffff;"/>
   </g>
   <g id="matplotlib.axis_1">
    <g id="xtick_1">
     <g id="line2d_1">
      <path clip-path="url(#pff1a441fcb)" d="M 40.355824 143.1 
L 40.355824 7.2 
" style="fill:none;stroke:#b0b0b0;stroke-linecap:square;stroke-width:0.8;"/>
     </g>
     <g id="line2d_2">
      <defs>
       <path d="M 0 0 
L 0 3.5 
" id="m98be503fcd" style="stroke:#000000;stroke-width:0.8;"/>
      </defs>
      <g>
       <use style="stroke:#000000;stroke-width:0.8;" x="40.355824" xlink:href="#m98be503fcd" y="143.1"/>
      </g>
     </g>
     <g id="text_1">
      <!-- 0 -->
      <g transform="translate(37.174574 157.698438)scale(0.1 -0.1)">
       <defs>
        <path d="M 31.78125 66.40625 
Q 24.171875 66.40625 20.328125 58.90625 
Q 16.5 51.421875 16.5 36.375 
Q 16.5 21.390625 20.328125 13.890625 
Q 24.171875 6.390625 31.78125 6.390625 
Q 39.453125 6.390625 43.28125 13.890625 
Q 47.125 21.390625 47.125 36.375 
Q 47.125 51.421875 43.28125 58.90625 
Q 39.453125 66.40625 31.78125 66.40625 
z
M 31.78125 74.21875 
Q 44.046875 74.21875 50.515625 64.515625 
Q 56.984375 54.828125 56.984375 36.375 
Q 56.984375 17.96875 50.515625 8.265625 
Q 44.046875 -1.421875 31.78125 -1.421875 
Q 19.53125 -1.421875 13.0625 8.265625 
Q 6.59375 17.96875 6.59375 36.375 
Q 6.59375 54.828125 13.0625 64.515625 
Q 19.53125 74.21875 31.78125 74.21875 
z
" id="DejaVuSans-48"/>
       </defs>
       <use xlink:href="#DejaVuSans-48"/>
      </g>
     </g>
    </g>
    <g id="xtick_2">
     <g id="line2d_3">
      <path clip-path="url(#pff1a441fcb)" d="M 86.05607 143.1 
L 86.05607 7.2 
" style="fill:none;stroke:#b0b0b0;stroke-linecap:square;stroke-width:0.8;"/>
     </g>
     <g id="line2d_4">
      <g>
       <use style="stroke:#000000;stroke-width:0.8;" x="86.05607" xlink:href="#m98be503fcd" y="143.1"/>
      </g>
     </g>
     <g id="text_2">
      <!-- 200 -->
      <g transform="translate(76.51232 157.698438)scale(0.1 -0.1)">
       <defs>
        <path d="M 19.1875 8.296875 
L 53.609375 8.296875 
L 53.609375 0 
L 7.328125 0 
L 7.328125 8.296875 
Q 12.9375 14.109375 22.625 23.890625 
Q 32.328125 33.6875 34.8125 36.53125 
Q 39.546875 41.84375 41.421875 45.53125 
Q 43.3125 49.21875 43.3125 52.78125 
Q 43.3125 58.59375 39.234375 62.25 
Q 35.15625 65.921875 28.609375 65.921875 
Q 23.96875 65.921875 18.8125 64.3125 
Q 13.671875 62.703125 7.8125 59.421875 
L 7.8125 69.390625 
Q 13.765625 71.78125 18.9375 73 
Q 24.125 74.21875 28.421875 74.21875 
Q 39.75 74.21875 46.484375 68.546875 
Q 53.21875 62.890625 53.21875 53.421875 
Q 53.21875 48.921875 51.53125 44.890625 
Q 49.859375 40.875 45.40625 35.40625 
Q 44.1875 33.984375 37.640625 27.21875 
Q 31.109375 20.453125 19.1875 8.296875 
z
" id="DejaVuSans-50"/>
       </defs>
       <use xlink:href="#DejaVuSans-50"/>
       <use x="63.623047" xlink:href="#DejaVuSans-48"/>
       <use x="127.246094" xlink:href="#DejaVuSans-48"/>
      </g>
     </g>
    </g>
    <g id="xtick_3">
     <g id="line2d_5">
      <path clip-path="url(#pff1a441fcb)" d="M 131.756315 143.1 
L 131.756315 7.2 
" style="fill:none;stroke:#b0b0b0;stroke-linecap:square;stroke-width:0.8;"/>
     </g>
     <g id="line2d_6">
      <g>
       <use style="stroke:#000000;stroke-width:0.8;" x="131.756315" xlink:href="#m98be503fcd" y="143.1"/>
      </g>
     </g>
     <g id="text_3">
      <!-- 400 -->
      <g transform="translate(122.212565 157.698438)scale(0.1 -0.1)">
       <defs>
        <path d="M 37.796875 64.3125 
L 12.890625 25.390625 
L 37.796875 25.390625 
z
M 35.203125 72.90625 
L 47.609375 72.90625 
L 47.609375 25.390625 
L 58.015625 25.390625 
L 58.015625 17.1875 
L 47.609375 17.1875 
L 47.609375 0 
L 37.796875 0 
L 37.796875 17.1875 
L 4.890625 17.1875 
L 4.890625 26.703125 
z
" id="DejaVuSans-52"/>
       </defs>
       <use xlink:href="#DejaVuSans-52"/>
       <use x="63.623047" xlink:href="#DejaVuSans-48"/>
       <use x="127.246094" xlink:href="#DejaVuSans-48"/>
      </g>
     </g>
    </g>
    <g id="xtick_4">
     <g id="line2d_7">
      <path clip-path="url(#pff1a441fcb)" d="M 177.456561 143.1 
L 177.456561 7.2 
" style="fill:none;stroke:#b0b0b0;stroke-linecap:square;stroke-width:0.8;"/>
     </g>
     <g id="line2d_8">
      <g>
       <use style="stroke:#000000;stroke-width:0.8;" x="177.456561" xlink:href="#m98be503fcd" y="143.1"/>
      </g>
     </g>
     <g id="text_4">
      <!-- 600 -->
      <g transform="translate(167.912811 157.698438)scale(0.1 -0.1)">
       <defs>
        <path d="M 33.015625 40.375 
Q 26.375 40.375 22.484375 35.828125 
Q 18.609375 31.296875 18.609375 23.390625 
Q 18.609375 15.53125 22.484375 10.953125 
Q 26.375 6.390625 33.015625 6.390625 
Q 39.65625 6.390625 43.53125 10.953125 
Q 47.40625 15.53125 47.40625 23.390625 
Q 47.40625 31.296875 43.53125 35.828125 
Q 39.65625 40.375 33.015625 40.375 
z
M 52.59375 71.296875 
L 52.59375 62.3125 
Q 48.875 64.0625 45.09375 64.984375 
Q 41.3125 65.921875 37.59375 65.921875 
Q 27.828125 65.921875 22.671875 59.328125 
Q 17.53125 52.734375 16.796875 39.40625 
Q 19.671875 43.65625 24.015625 45.921875 
Q 28.375 48.1875 33.59375 48.1875 
Q 44.578125 48.1875 50.953125 41.515625 
Q 57.328125 34.859375 57.328125 23.390625 
Q 57.328125 12.15625 50.6875 5.359375 
Q 44.046875 -1.421875 33.015625 -1.421875 
Q 20.359375 -1.421875 13.671875 8.265625 
Q 6.984375 17.96875 6.984375 36.375 
Q 6.984375 53.65625 15.1875 63.9375 
Q 23.390625 74.21875 37.203125 74.21875 
Q 40.921875 74.21875 44.703125 73.484375 
Q 48.484375 72.75 52.59375 71.296875 
z
" id="DejaVuSans-54"/>
       </defs>
       <use xlink:href="#DejaVuSans-54"/>
       <use x="63.623047" xlink:href="#DejaVuSans-48"/>
       <use x="127.246094" xlink:href="#DejaVuSans-48"/>
      </g>
     </g>
    </g>
    <g id="xtick_5">
     <g id="line2d_9">
      <path clip-path="url(#pff1a441fcb)" d="M 223.156807 143.1 
L 223.156807 7.2 
" style="fill:none;stroke:#b0b0b0;stroke-linecap:square;stroke-width:0.8;"/>
     </g>
     <g id="line2d_10">
      <g>
       <use style="stroke:#000000;stroke-width:0.8;" x="223.156807" xlink:href="#m98be503fcd" y="143.1"/>
      </g>
     </g>
     <g id="text_5">
      <!-- 800 -->
      <g transform="translate(213.613057 157.698438)scale(0.1 -0.1)">
       <defs>
        <path d="M 31.78125 34.625 
Q 24.75 34.625 20.71875 30.859375 
Q 16.703125 27.09375 16.703125 20.515625 
Q 16.703125 13.921875 20.71875 10.15625 
Q 24.75 6.390625 31.78125 6.390625 
Q 38.8125 6.390625 42.859375 10.171875 
Q 46.921875 13.96875 46.921875 20.515625 
Q 46.921875 27.09375 42.890625 30.859375 
Q 38.875 34.625 31.78125 34.625 
z
M 21.921875 38.8125 
Q 15.578125 40.375 12.03125 44.71875 
Q 8.5 49.078125 8.5 55.328125 
Q 8.5 64.0625 14.71875 69.140625 
Q 20.953125 74.21875 31.78125 74.21875 
Q 42.671875 74.21875 48.875 69.140625 
Q 55.078125 64.0625 55.078125 55.328125 
Q 55.078125 49.078125 51.53125 44.71875 
Q 48 40.375 41.703125 38.8125 
Q 48.828125 37.15625 52.796875 32.3125 
Q 56.78125 27.484375 56.78125 20.515625 
Q 56.78125 9.90625 50.3125 4.234375 
Q 43.84375 -1.421875 31.78125 -1.421875 
Q 19.734375 -1.421875 13.25 4.234375 
Q 6.78125 9.90625 6.78125 20.515625 
Q 6.78125 27.484375 10.78125 32.3125 
Q 14.796875 37.15625 21.921875 38.8125 
z
M 18.3125 54.390625 
Q 18.3125 48.734375 21.84375 45.5625 
Q 25.390625 42.390625 31.78125 42.390625 
Q 38.140625 42.390625 41.71875 45.5625 
Q 45.3125 48.734375 45.3125 54.390625 
Q 45.3125 60.0625 41.71875 63.234375 
Q 38.140625 66.40625 31.78125 66.40625 
Q 25.390625 66.40625 21.84375 63.234375 
Q 18.3125 60.0625 18.3125 54.390625 
z
" id="DejaVuSans-56"/>
       </defs>
       <use xlink:href="#DejaVuSans-56"/>
       <use x="63.623047" xlink:href="#DejaVuSans-48"/>
       <use x="127.246094" xlink:href="#DejaVuSans-48"/>
      </g>
     </g>
    </g>
    <g id="xtick_6">
     <g id="line2d_11">
      <path clip-path="url(#pff1a441fcb)" d="M 268.857052 143.1 
L 268.857052 7.2 
" style="fill:none;stroke:#b0b0b0;stroke-linecap:square;stroke-width:0.8;"/>
     </g>
     <g id="line2d_12">
      <g>
       <use style="stroke:#000000;stroke-width:0.8;" x="268.857052" xlink:href="#m98be503fcd" y="143.1"/>
      </g>
     </g>
     <g id="text_6">
      <!-- 1000 -->
      <g transform="translate(256.132052 157.698438)scale(0.1 -0.1)">
       <defs>
        <path d="M 12.40625 8.296875 
L 28.515625 8.296875 
L 28.515625 63.921875 
L 10.984375 60.40625 
L 10.984375 69.390625 
L 28.421875 72.90625 
L 38.28125 72.90625 
L 38.28125 8.296875 
L 54.390625 8.296875 
L 54.390625 0 
L 12.40625 0 
z
" id="DejaVuSans-49"/>
       </defs>
       <use xlink:href="#DejaVuSans-49"/>
       <use x="63.623047" xlink:href="#DejaVuSans-48"/>
       <use x="127.246094" xlink:href="#DejaVuSans-48"/>
       <use x="190.869141" xlink:href="#DejaVuSans-48"/>
      </g>
     </g>
    </g>
   </g>
   <g id="matplotlib.axis_2">
    <g id="ytick_1">
     <g id="line2d_13">
      <path clip-path="url(#pff1a441fcb)" d="M 28.942188 120.878362 
L 280.042188 120.878362 
" style="fill:none;stroke:#b0b0b0;stroke-linecap:square;stroke-width:0.8;"/>
     </g>
     <g id="line2d_14">
      <defs>
       <path d="M 0 0 
L -3.5 0 
" id="mbc24238111" style="stroke:#000000;stroke-width:0.8;"/>
      </defs>
      <g>
       <use style="stroke:#000000;stroke-width:0.8;" x="28.942188" xlink:href="#mbc24238111" y="120.878362"/>
      </g>
     </g>
     <g id="text_7">
      <!-- −1 -->
      <g transform="translate(7.2 124.677581)scale(0.1 -0.1)">
       <defs>
        <path d="M 10.59375 35.5 
L 73.1875 35.5 
L 73.1875 27.203125 
L 10.59375 27.203125 
z
" id="DejaVuSans-8722"/>
       </defs>
       <use xlink:href="#DejaVuSans-8722"/>
       <use x="83.789062" xlink:href="#DejaVuSans-49"/>
      </g>
     </g>
    </g>
    <g id="ytick_2">
     <g id="line2d_15">
      <path clip-path="url(#pff1a441fcb)" d="M 28.942188 79.495756 
L 280.042188 79.495756 
" style="fill:none;stroke:#b0b0b0;stroke-linecap:square;stroke-width:0.8;"/>
     </g>
     <g id="line2d_16">
      <g>
       <use style="stroke:#000000;stroke-width:0.8;" x="28.942188" xlink:href="#mbc24238111" y="79.495756"/>
      </g>
     </g>
     <g id="text_8">
      <!-- 0 -->
      <g transform="translate(15.579688 83.294975)scale(0.1 -0.1)">
       <use xlink:href="#DejaVuSans-48"/>
      </g>
     </g>
    </g>
    <g id="ytick_3">
     <g id="line2d_17">
      <path clip-path="url(#pff1a441fcb)" d="M 28.942188 38.113151 
L 280.042188 38.113151 
" style="fill:none;stroke:#b0b0b0;stroke-linecap:square;stroke-width:0.8;"/>
     </g>
     <g id="line2d_18">
      <g>
       <use style="stroke:#000000;stroke-width:0.8;" x="28.942188" xlink:href="#mbc24238111" y="38.113151"/>
      </g>
     </g>
     <g id="text_9">
      <!-- 1 -->
      <g transform="translate(15.579688 41.91237)scale(0.1 -0.1)">
       <use xlink:href="#DejaVuSans-49"/>
      </g>
     </g>
    </g>
   </g>
   <g id="line2d_19">
    <path clip-path="url(#pff1a441fcb)" d="M 40.355824 61.186383 
L 40.584325 69.455692 
L 41.041328 74.250246 
L 41.269829 69.204836 
L 41.49833 74.948145 
L 41.726831 67.215505 
L 41.955332 75.334821 
L 42.183834 60.531889 
L 42.412335 85.450069 
L 42.640836 85.583753 
L 42.869337 62.057434 
L 43.097839 89.199713 
L 43.32634 78.64968 
L 43.554841 77.456992 
L 43.783342 92.808037 
L 44.011844 68.107474 
L 44.240345 68.013309 
L 44.468846 87.448948 
L 44.697347 49.511565 
L 44.925848 87.635989 
L 45.15435 60.485135 
L 45.382851 72.186522 
L 45.611352 74.603392 
L 45.839853 67.636041 
L 46.068355 74.894379 
L 46.296856 69.164654 
L 46.525357 69.57766 
L 46.753858 72.096312 
L 46.982359 64.540147 
L 47.210861 67.453554 
L 47.439362 63.476901 
L 47.667863 61.722367 
L 47.896364 61.357899 
L 48.124866 53.560768 
L 48.353367 88.132088 
L 48.581868 59.237635 
L 48.810369 55.623313 
L 49.267372 68.845451 
L 49.495873 54.498501 
L 49.724374 47.847901 
L 50.181377 71.736126 
L 50.409878 69.906686 
L 50.638379 61.050159 
L 50.86688 67.544097 
L 51.095382 81.507359 
L 51.323883 66.909831 
L 51.552384 64.916834 
L 51.780885 53.516581 
L 52.009387 52.187449 
L 52.237888 71.128553 
L 52.466389 60.462035 
L 52.69489 67.100946 
L 52.923391 56.199411 
L 53.151893 66.142018 
L 53.380394 54.267141 
L 53.608895 67.807366 
L 53.837396 52.035442 
L 54.065898 68.336971 
L 54.294399 43.213296 
L 54.5229 59.78908 
L 54.751401 39.356187 
L 54.979902 44.302061 
L 55.208404 67.474203 
L 55.436905 46.715368 
L 55.665406 54.957105 
L 55.893907 58.453773 
L 56.35091 42.870957 
L 56.579411 41.669042 
L 56.807912 60.247017 
L 57.036414 47.730979 
L 57.493416 61.132234 
L 57.721917 47.909945 
L 57.950418 55.241723 
L 58.17892 42.695 
L 58.407421 63.27468 
L 58.635922 61.583669 
L 58.864423 58.694863 
L 59.321426 48.306705 
L 59.549927 32.054339 
L 59.778428 56.008328 
L 60.00693 45.764619 
L 60.235431 54.037755 
L 60.463932 42.961918 
L 60.692433 57.337256 
L 60.920934 39.05341 
L 61.149436 31.810249 
L 61.377937 50.946139 
L 61.606438 58.92565 
L 61.834939 61.71199 
L 62.063441 66.651982 
L 62.291942 40.176081 
L 62.520443 56.573966 
L 62.748944 48.891885 
L 62.977445 52.823463 
L 63.205947 41.982731 
L 63.662949 54.994723 
L 63.89145 34.815303 
L 64.348453 47.557957 
L 64.576954 31.3661 
L 64.805455 52.91113 
L 65.033957 40.998922 
L 65.262458 49.361357 
L 65.490959 38.650985 
L 65.71946 34.714833 
L 65.947961 34.228539 
L 66.176463 68.187654 
L 66.404964 50.351288 
L 66.633465 23.568407 
L 66.861966 42.119913 
L 67.090468 45.850368 
L 67.318969 43.870742 
L 67.54747 48.20462 
L 67.775971 42.385055 
L 68.004473 56.349964 
L 68.232974 37.68236 
L 68.461475 46.456933 
L 68.689976 34.19743 
L 68.918477 43.170873 
L 69.146979 33.650502 
L 69.37548 41.292457 
L 69.603981 34.811963 
L 69.832482 24.857287 
L 70.289485 37.890728 
L 70.517986 38.858006 
L 70.746487 53.68872 
L 70.974988 32.186159 
L 71.431991 45.653533 
L 71.660492 37.737814 
L 71.888993 40.261358 
L 72.345996 30.965741 
L 72.574497 34.857343 
L 72.802998 35.624376 
L 73.0315 45.923996 
L 73.260001 32.016496 
L 73.488502 34.327435 
L 73.717003 46.728725 
L 73.945504 45.808006 
L 74.174006 41.524475 
L 74.402507 48.296505 
L 74.631008 27.319793 
L 74.859509 20.34206 
L 75.088011 41.74965 
L 75.316512 29.094543 
L 75.545013 32.212083 
L 75.773514 22.999708 
L 76.002016 30.45634 
L 76.230517 46.759397 
L 76.459018 45.604749 
L 76.687519 29.792786 
L 76.91602 38.748921 
L 77.144522 33.862511 
L 77.373023 31.355464 
L 77.830025 53.759738 
L 78.058527 26.846936 
L 78.515529 36.612602 
L 78.74403 22.536003 
L 79.201033 35.698502 
L 79.429534 40.465104 
L 79.658035 37.589355 
L 79.886536 36.163307 
L 80.115038 54.594138 
L 80.343539 55.314061 
L 80.800541 36.025331 
L 81.029043 30.674777 
L 81.257544 45.430585 
L 81.486045 42.124565 
L 81.714546 28.867695 
L 81.943047 25.880973 
L 82.171549 47.465633 
L 82.628551 35.510794 
L 82.857052 54.214993 
L 83.085554 33.693229 
L 83.314055 33.671809 
L 83.542556 26.266487 
L 83.771057 32.958815 
L 83.999559 30.064531 
L 84.22806 13.377273 
L 84.456561 39.668162 
L 84.685062 50.813873 
L 84.913563 27.476989 
L 85.142065 25.533292 
L 85.370566 51.413081 
L 85.599067 46.221968 
L 85.827568 21.832925 
L 86.05607 42.064652 
L 86.284571 45.227964 
L 86.513072 33.31581 
L 86.741573 50.575733 
L 86.970074 53.086742 
L 87.198576 34.84061 
L 87.427077 49.84824 
L 87.655578 55.558619 
L 87.884079 31.821053 
L 88.112581 38.099999 
L 88.341082 35.461403 
L 88.569583 45.549162 
L 88.798084 48.765213 
L 89.026586 46.676342 
L 89.255087 60.490412 
L 89.483588 37.263576 
L 89.712089 34.835539 
L 89.94059 27.337217 
L 90.169092 49.463116 
L 90.397593 45.173815 
L 90.626094 44.217575 
L 90.854595 45.688554 
L 91.083097 57.495599 
L 91.311598 37.467406 
L 91.540099 59.012792 
L 91.7686 50.243207 
L 91.997102 53.945547 
L 92.454104 45.563246 
L 92.911106 51.149836 
L 93.139608 44.80369 
L 93.368109 47.812998 
L 93.59661 38.055013 
L 93.825111 53.574474 
L 94.053613 35.132951 
L 94.282114 52.226986 
L 94.510615 45.296274 
L 94.739116 53.090669 
L 94.967617 36.246441 
L 95.42462 62.220057 
L 95.653121 61.40075 
L 95.881622 49.265628 
L 96.110124 50.265374 
L 96.338625 56.501337 
L 96.567126 56.488621 
L 96.795627 43.114617 
L 97.024129 63.127453 
L 97.25263 52.660973 
L 97.481131 58.336637 
L 97.709632 55.779465 
L 97.938133 63.17512 
L 98.166635 43.616357 
L 98.395136 74.668273 
L 99.08064 49.374999 
L 99.309141 60.828289 
L 99.537642 53.355951 
L 99.766143 53.952732 
L 99.994645 59.846017 
L 100.223146 51.302397 
L 100.451647 52.268405 
L 100.680148 63.668269 
L 101.137151 73.206721 
L 101.365652 34.771555 
L 101.594153 62.368436 
L 101.822654 65.044153 
L 102.051156 66.168459 
L 102.279657 66.264589 
L 102.508158 64.041664 
L 102.736659 51.044934 
L 103.193662 66.334734 
L 103.422163 60.214801 
L 103.650664 65.817362 
L 103.879165 63.425295 
L 104.107667 59.585943 
L 104.336168 59.329757 
L 104.564669 52.692933 
L 105.021672 77.272253 
L 105.478674 66.449107 
L 105.707175 53.761756 
L 106.164178 69.744738 
L 106.392679 67.418809 
L 106.62118 56.668964 
L 106.849681 61.771694 
L 107.078183 61.199602 
L 107.306684 69.904682 
L 107.535185 58.848061 
L 107.763686 67.184793 
L 107.992188 67.57938 
L 108.220689 87.832621 
L 108.44919 83.805639 
L 108.677691 77.127781 
L 108.906192 79.014395 
L 109.134694 79.667611 
L 109.363195 79.045241 
L 109.591696 79.985133 
L 110.048699 70.390402 
L 110.2772 78.86933 
L 110.505701 62.798355 
L 110.734202 72.855477 
L 110.962703 77.44471 
L 111.191205 71.817575 
L 111.419706 87.183126 
L 111.648207 81.329586 
L 111.876708 80.631515 
L 112.10521 83.713631 
L 112.333711 102.943352 
L 112.562212 74.27243 
L 112.790713 83.627571 
L 113.019215 69.151579 
L 113.247716 93.896924 
L 113.476217 80.473664 
L 113.704718 93.163627 
L 113.933219 82.077654 
L 114.390222 85.540139 
L 114.618723 67.389718 
L 114.847224 68.33027 
L 115.075726 88.992795 
L 115.304227 66.109895 
L 115.532728 79.089534 
L 115.761229 83.494496 
L 115.98973 81.759103 
L 116.218232 86.975879 
L 116.446733 85.055962 
L 116.675234 89.549044 
L 116.903735 100.263955 
L 117.132237 82.868593 
L 117.360738 86.621343 
L 117.589239 94.520314 
L 117.81774 93.096403 
L 118.046242 86.156008 
L 118.274743 87.819541 
L 118.503244 85.590959 
L 118.731745 93.614806 
L 118.960246 78.826949 
L 119.188748 102.317199 
L 119.417249 106.744947 
L 119.64575 85.642345 
L 119.874251 92.603754 
L 120.102753 83.036047 
L 120.331254 97.181076 
L 120.559755 88.122012 
L 121.016758 108.698935 
L 121.245259 93.437618 
L 121.47376 94.296782 
L 121.702261 91.641561 
L 121.930762 104.845314 
L 122.387765 92.371448 
L 122.616266 99.250642 
L 122.844767 81.880766 
L 123.30177 104.235487 
L 123.530271 94.441921 
L 123.758772 96.7047 
L 123.987273 106.941217 
L 124.215775 109.525526 
L 124.444276 123.579768 
L 124.672777 86.338044 
L 124.901278 105.380447 
L 125.12978 105.115586 
L 125.358281 88.732698 
L 125.586782 106.839709 
L 125.815283 90.562693 
L 126.043785 113.682736 
L 126.272286 115.703788 
L 126.500787 105.383554 
L 126.729288 111.079942 
L 126.957789 109.397813 
L 127.186291 94.158022 
L 127.414792 102.134903 
L 127.643293 102.135376 
L 127.871794 100.882331 
L 128.100296 103.24159 
L 128.557298 121.530264 
L 128.785799 105.890775 
L 129.014301 108.829924 
L 129.242802 109.329483 
L 129.471303 99.789627 
L 129.699804 99.593875 
L 130.156807 128.027237 
L 130.385308 99.297926 
L 130.84231 113.990725 
L 131.070812 114.585293 
L 131.299313 112.01883 
L 131.527814 112.399147 
L 131.756315 119.673423 
L 132.213318 100.287613 
L 132.441819 118.803055 
L 132.67032 105.474764 
L 132.898821 105.256194 
L 133.127323 115.425694 
L 133.355824 110.77036 
L 133.584325 114.021059 
L 133.812826 111.482076 
L 134.041328 111.897791 
L 134.269829 116.035143 
L 134.49833 99.894135 
L 134.955332 118.847047 
L 135.183834 113.656133 
L 135.412335 123.257009 
L 135.640836 123.26285 
L 135.869337 108.776875 
L 136.097839 124.678384 
L 136.32634 115.253834 
L 136.554841 118.458652 
L 136.783342 108.012795 
L 137.011844 112.100284 
L 137.240345 108.236954 
L 137.468846 125.230877 
L 137.697347 127.017353 
L 137.925848 114.098438 
L 138.15435 116.896076 
L 138.382851 123.35363 
L 138.611352 95.478504 
L 138.839853 121.491094 
L 139.296856 110.002077 
L 139.525357 127.468607 
L 139.982359 118.774494 
L 140.210861 113.955921 
L 140.439362 114.933818 
L 140.667863 121.352027 
L 140.896364 118.968573 
L 141.124866 113.593803 
L 141.353367 118.154215 
L 141.581868 117.257676 
L 141.810369 119.900157 
L 142.038871 107.625384 
L 142.267372 107.747786 
L 142.495873 112.275467 
L 142.724374 119.810215 
L 142.952875 110.951874 
L 143.181377 113.318661 
L 143.409878 124.016414 
L 143.638379 123.101337 
L 144.095382 109.318475 
L 144.323883 115.613051 
L 144.552384 112.922033 
L 144.780885 123.612105 
L 145.009387 117.165282 
L 145.237888 124.773348 
L 145.466389 107.063313 
L 145.69489 121.8178 
L 145.923391 122.193033 
L 146.151893 120.745834 
L 146.380394 131.906313 
L 146.608895 114.060004 
L 146.837396 130.795595 
L 147.065898 135.485028 
L 147.294399 122.6171 
L 147.5229 129.77368 
L 147.751401 125.478173 
L 147.979902 113.543864 
L 148.436905 131.20362 
L 148.665406 129.550606 
L 148.893907 120.589859 
L 149.122409 122.477051 
L 149.35091 127.858961 
L 149.807912 111.781864 
L 150.036414 121.039613 
L 150.264915 119.713828 
L 150.493416 122.150001 
L 150.721917 113.661104 
L 150.950418 125.804015 
L 151.17892 110.239938 
L 151.407421 128.720814 
L 151.635922 134.13284 
L 151.864423 122.249878 
L 152.092925 124.352414 
L 152.321426 108.59078 
L 152.549927 123.969603 
L 152.778428 123.215017 
L 153.00693 126.687787 
L 153.235431 119.64797 
L 153.463932 122.096209 
L 153.692433 125.777494 
L 153.920934 110.981732 
L 154.149436 120.672461 
L 154.377937 121.430416 
L 154.606438 116.982133 
L 154.834939 124.14001 
L 155.063441 110.459875 
L 155.291942 114.110905 
L 155.748944 131.343051 
L 155.977445 105.799847 
L 156.205947 122.232301 
L 156.434448 107.776369 
L 156.89145 120.562633 
L 157.119952 109.440751 
L 157.348453 121.49066 
L 157.576954 115.069382 
L 157.805455 124.778247 
L 158.033957 124.16105 
L 158.262458 114.700608 
L 158.490959 125.041842 
L 158.71946 116.733665 
L 158.947961 121.876815 
L 159.176463 117.020469 
L 159.404964 131.728807 
L 159.633465 118.086573 
L 159.861966 129.369538 
L 160.090468 102.981261 
L 160.318969 136.922727 
L 160.775971 99.179735 
L 161.004473 107.67702 
L 161.232974 110.441311 
L 161.689976 127.786211 
L 161.918477 104.126059 
L 162.146979 116.666475 
L 162.37548 112.667189 
L 162.603981 123.84023 
L 162.832482 111.12919 
L 163.289485 120.088987 
L 163.517986 106.300464 
L 163.974988 107.683218 
L 164.431991 101.788198 
L 164.660492 116.602238 
L 164.888993 114.762148 
L 165.117495 115.091468 
L 165.345996 111.099307 
L 165.574497 110.28538 
L 165.802998 108.803879 
L 166.0315 104.198703 
L 166.488502 115.93785 
L 166.717003 110.561513 
L 166.945504 102.560358 
L 167.174006 112.547036 
L 167.402507 100.337502 
L 167.631008 107.188089 
L 167.859509 106.618078 
L 168.088011 94.111153 
L 168.316512 106.102084 
L 168.545013 111.994099 
L 168.773514 96.443226 
L 169.002016 104.225014 
L 169.230517 105.280606 
L 169.459018 120.080132 
L 169.687519 118.490387 
L 169.91602 89.83841 
L 170.144522 106.030338 
L 170.373023 84.605145 
L 170.601524 88.615231 
L 170.830025 118.79715 
L 171.058527 111.853489 
L 171.287028 100.9359 
L 171.515529 110.403427 
L 171.972531 91.0267 
L 172.201033 88.713451 
L 172.429534 96.888154 
L 172.658035 113.620686 
L 172.886536 101.856355 
L 173.343539 106.717119 
L 173.57204 100.269185 
L 174.029043 98.730499 
L 174.257544 95.090497 
L 174.486045 88.947159 
L 174.714546 103.060189 
L 175.171549 87.760844 
L 175.40005 95.339569 
L 175.628551 82.600066 
L 175.857052 95.407738 
L 176.085554 88.275608 
L 176.314055 89.971996 
L 176.542556 99.397006 
L 176.771057 93.924027 
L 176.999559 93.168367 
L 177.22806 84.232812 
L 177.456561 93.319137 
L 177.685062 74.620802 
L 177.913563 84.594842 
L 178.142065 75.755906 
L 178.370566 79.495247 
L 178.599067 96.997589 
L 178.827568 77.401648 
L 179.05607 81.634161 
L 179.284571 81.416267 
L 179.513072 93.70253 
L 179.741573 92.338843 
L 179.970074 78.425702 
L 180.198576 84.092971 
L 180.427077 111.774834 
L 180.655578 80.885242 
L 180.884079 84.085506 
L 181.112581 83.082146 
L 181.341082 74.897531 
L 181.569583 91.323235 
L 181.798084 84.150347 
L 182.255087 78.409045 
L 182.483588 73.250778 
L 182.94059 84.330448 
L 183.169092 78.012993 
L 183.397593 68.597562 
L 183.626094 68.601754 
L 184.083097 80.258919 
L 184.311598 91.047262 
L 184.540099 96.067144 
L 184.7686 70.697456 
L 184.997102 85.269484 
L 185.225603 73.33733 
L 185.454104 71.245129 
L 185.911106 92.601991 
L 186.139608 85.591138 
L 186.368109 88.450624 
L 186.59661 74.481043 
L 186.825111 77.171881 
L 187.053613 70.668933 
L 187.282114 76.342801 
L 187.510615 65.906179 
L 187.739116 92.023721 
L 187.967617 70.505827 
L 188.196119 67.735374 
L 188.42462 69.523823 
L 188.653121 77.891536 
L 188.881622 76.138449 
L 189.110124 70.762256 
L 189.338625 74.829783 
L 189.567126 71.49889 
L 189.795627 75.214502 
L 190.024129 74.919778 
L 190.25263 59.13101 
L 190.481131 64.735797 
L 190.709632 67.186864 
L 190.938133 71.286306 
L 191.166635 66.524291 
L 191.395136 69.140389 
L 191.623637 50.115777 
L 191.852138 72.892522 
L 192.08064 64.40276 
L 192.309141 70.838122 
L 192.537642 60.894884 
L 192.766143 75.621345 
L 192.994645 56.683764 
L 193.223146 69.328891 
L 193.451647 65.37778 
L 193.680148 70.221155 
L 193.908649 62.035984 
L 194.137151 64.189032 
L 194.365652 72.623174 
L 194.594153 55.591074 
L 194.822654 61.086491 
L 195.051156 57.935156 
L 195.279657 73.654925 
L 195.736659 56.300864 
L 195.96516 61.482311 
L 196.193662 48.855497 
L 196.422163 53.6948 
L 196.650664 39.012965 
L 196.879165 58.564133 
L 197.107667 58.461289 
L 197.336168 60.142492 
L 197.564669 50.991399 
L 197.79317 50.973632 
L 198.021672 58.646007 
L 198.250173 56.743021 
L 198.478674 48.422149 
L 198.707175 63.664601 
L 198.935676 63.562733 
L 199.164178 41.182279 
L 199.392679 47.825408 
L 199.62118 64.161723 
L 199.849681 48.36522 
L 200.078183 50.844854 
L 200.306684 42.606888 
L 200.535185 51.522921 
L 200.763686 52.384224 
L 200.992188 74.097753 
L 201.220689 68.327605 
L 201.44919 37.713829 
L 201.677691 43.476913 
L 201.906192 54.819762 
L 202.134694 41.410185 
L 202.363195 42.250638 
L 202.591696 60.39754 
L 202.820197 66.876876 
L 203.048699 46.424147 
L 203.505701 51.928528 
L 203.734202 39.044932 
L 203.962703 49.106856 
L 204.191205 41.523527 
L 204.648207 59.585957 
L 204.876708 42.301359 
L 205.333711 50.990484 
L 205.562212 39.637532 
L 205.790713 45.769957 
L 206.019215 45.029243 
L 206.247716 50.86078 
L 206.476217 48.009808 
L 206.704718 51.433238 
L 206.933219 50.689544 
L 207.161721 44.51722 
L 207.390222 52.153429 
L 207.618723 49.396834 
L 207.847224 54.041024 
L 208.075726 51.183438 
L 208.304227 30.487192 
L 208.532728 47.680271 
L 208.761229 40.106007 
L 208.98973 40.186648 
L 209.218232 35.243602 
L 209.446733 47.685095 
L 209.675234 45.459649 
L 209.903735 54.191264 
L 210.132237 53.550669 
L 210.360738 53.941585 
L 210.589239 50.272968 
L 210.81774 34.507412 
L 211.046242 31.766936 
L 211.274743 34.964191 
L 211.503244 46.155616 
L 211.731745 40.550123 
L 211.960246 51.277919 
L 212.188748 55.361999 
L 212.64575 34.520392 
L 212.874251 42.855514 
L 213.102753 43.521766 
L 213.331254 31.451256 
L 213.559755 33.124994 
L 213.788256 46.732333 
L 214.016758 14.912561 
L 214.245259 38.280095 
L 214.47376 32.926927 
L 214.702261 21.709536 
L 214.930762 38.56713 
L 215.159264 29.81211 
L 215.387765 40.328146 
L 215.616266 34.622948 
L 215.844767 45.385883 
L 216.30177 23.765892 
L 216.530271 41.960349 
L 216.758772 37.038756 
L 216.987273 43.980851 
L 217.215775 30.065962 
L 217.444276 48.359912 
L 217.672777 39.762146 
L 217.901278 47.971978 
L 218.12978 24.122157 
L 218.358281 44.133183 
L 218.586782 40.782158 
L 218.815283 46.05844 
L 219.043785 45.127724 
L 219.272286 36.30527 
L 219.500787 34.479885 
L 219.729288 39.039621 
L 219.957789 34.946881 
L 220.186291 37.808837 
L 220.414792 44.047686 
L 220.643293 41.932538 
L 220.871794 50.72215 
L 221.100296 33.375309 
L 221.328797 39.693624 
L 221.557298 36.154057 
L 221.785799 25.50497 
L 222.014301 53.197483 
L 222.242802 34.903498 
L 222.471303 38.014571 
L 222.699804 46.183415 
L 222.928305 46.283731 
L 223.156807 34.610783 
L 223.613809 41.551432 
L 223.84231 39.346898 
L 224.070812 34.947063 
L 224.299313 41.421218 
L 224.527814 23.521467 
L 224.984816 48.396676 
L 225.213318 47.136969 
L 225.441819 32.546953 
L 225.67032 41.652397 
L 225.898821 43.378407 
L 226.355824 34.150906 
L 226.584325 28.656702 
L 226.812826 50.230462 
L 227.041328 50.11998 
L 227.269829 41.795677 
L 227.49833 38.784674 
L 227.726831 47.301091 
L 227.955332 50.464897 
L 228.183834 32.805812 
L 228.412335 42.118182 
L 228.640836 40.90606 
L 228.869337 49.324188 
L 229.097839 40.213237 
L 229.32634 59.666504 
L 229.783342 30.069854 
L 230.011844 39.433034 
L 230.240345 25.972588 
L 230.468846 37.992524 
L 230.697347 41.466174 
L 230.925848 37.959112 
L 231.15435 40.449821 
L 231.382851 38.092658 
L 231.611352 52.175683 
L 231.839853 33.552929 
L 232.068355 55.479517 
L 232.525357 28.332522 
L 232.753858 47.551386 
L 232.982359 39.81194 
L 233.210861 54.653709 
L 233.439362 44.051867 
L 233.667863 39.474862 
L 233.896364 49.383771 
L 234.124866 45.272047 
L 234.353367 48.59997 
L 234.581868 54.865577 
L 234.810369 37.870675 
L 235.038871 47.107029 
L 235.267372 49.069188 
L 235.495873 49.476769 
L 235.724374 48.274742 
L 235.952875 27.126934 
L 236.409878 50.325374 
L 236.638379 43.42439 
L 237.323883 58.870053 
L 237.552384 52.45832 
L 237.780885 50.749453 
L 238.009387 53.723015 
L 238.237888 45.112022 
L 238.466389 53.364291 
L 238.69489 45.957494 
L 238.923391 60.09746 
L 239.151893 65.988044 
L 239.380394 47.260873 
L 239.608895 49.56917 
L 239.837396 37.428449 
L 240.065898 43.397856 
L 240.294399 46.030259 
L 240.5229 55.079586 
L 240.751401 49.80267 
L 240.979902 59.891125 
L 241.208404 37.780225 
L 241.436905 52.246679 
L 241.665406 54.979933 
L 241.893907 46.237283 
L 242.35091 61.167403 
L 242.579411 42.045447 
L 242.807912 52.611377 
L 243.036414 49.672404 
L 243.264915 39.872386 
L 243.493416 57.205397 
L 243.721917 59.34064 
L 243.950418 59.325328 
L 244.17892 58.685941 
L 244.407421 67.402969 
L 244.635922 58.490022 
L 244.864423 60.781169 
L 245.092925 80.520448 
L 245.321426 57.977079 
L 245.549927 53.769311 
L 245.778428 57.055134 
L 246.235431 70.116118 
L 246.463932 58.084625 
L 246.692433 67.839793 
L 246.920934 55.511736 
L 247.149436 83.725033 
L 247.377937 57.552656 
L 247.606438 62.834192 
L 247.834939 78.228103 
L 248.063441 57.096566 
L 248.520443 75.122943 
L 248.748944 66.78984 
L 248.977445 64.375531 
L 249.205947 65.318657 
L 249.434448 60.474079 
L 249.662949 88.396829 
L 249.89145 68.62111 
L 250.119952 68.802008 
L 250.348453 63.202157 
L 250.576954 78.837217 
L 250.805455 69.740873 
L 251.033957 69.210446 
L 251.262458 67.105062 
L 251.490959 76.305647 
L 251.71946 65.460927 
L 251.947961 77.102387 
L 252.404964 85.192667 
L 252.861966 73.658502 
L 253.090468 69.808707 
L 253.318969 70.495731 
L 253.54747 77.878582 
L 253.775971 73.711147 
L 254.004473 86.069917 
L 254.232974 74.879522 
L 254.461475 69.588035 
L 254.689976 90.473413 
L 254.918477 80.682304 
L 255.37548 71.912611 
L 255.603981 80.928819 
L 255.832482 81.276483 
L 256.060984 90.537687 
L 256.289485 70.333317 
L 256.517986 64.042479 
L 256.746487 89.413893 
L 256.974988 83.527469 
L 257.20349 87.529499 
L 257.431991 78.048088 
L 257.660492 80.839578 
L 257.888993 79.204161 
L 258.117495 86.662563 
L 258.345996 84.884087 
L 258.574497 89.074014 
L 258.802998 84.838719 
L 259.0315 91.376439 
L 259.260001 86.235541 
L 259.488502 92.228789 
L 259.717003 90.341115 
L 259.945504 73.764792 
L 260.402507 79.942737 
L 260.631008 71.709672 
L 260.859509 67.826077 
L 261.088011 98.04684 
L 261.316512 99.248879 
L 261.545013 79.991422 
L 261.773514 104.437877 
L 262.002016 73.01645 
L 262.230517 94.629453 
L 262.459018 87.345763 
L 262.687519 100.250949 
L 262.91602 102.345404 
L 263.144522 101.050407 
L 263.373023 101.589082 
L 263.601524 88.396202 
L 263.830025 107.004453 
L 264.058527 86.901353 
L 264.287028 115.165441 
L 264.74403 88.277292 
L 264.972531 107.418451 
L 265.201033 92.776485 
L 265.429534 98.852229 
L 265.658035 119.721366 
L 265.886536 92.412392 
L 266.115038 92.454921 
L 266.343539 99.675501 
L 266.57204 79.547835 
L 266.800541 107.712766 
L 267.029043 105.703437 
L 267.257544 115.110238 
L 267.486045 99.231737 
L 267.714546 96.926827 
L 268.171549 108.451762 
L 268.40005 99.025759 
L 268.628551 107.525474 
L 268.628551 107.525474 
" style="fill:none;stroke:#1f77b4;stroke-linecap:square;stroke-width:1.5;"/>
   </g>
   <g id="line2d_20">
    <path clip-path="url(#pff1a441fcb)" d="M 41.269829 68.431142 
L 41.49833 70.414565 
L 41.726831 70.962809 
L 41.955332 70.858816 
L 42.183834 69.620866 
L 42.412335 69.678329 
L 42.640836 69.920945 
L 42.869337 75.447993 
L 43.097839 75.660531 
L 43.32634 80.573565 
L 43.554841 78.301566 
L 43.783342 77.39754 
L 44.011844 84.214153 
L 44.240345 80.461575 
L 44.468846 80.271738 
L 44.697347 76.652054 
L 44.925848 70.87907 
L 45.15435 76.389964 
L 45.611352 70.217156 
L 45.839853 72.629814 
L 46.068355 68.385547 
L 46.296856 70.608916 
L 46.525357 71.023571 
L 46.753858 69.074213 
L 46.982359 69.866638 
L 47.439362 67.163288 
L 47.667863 66.2686 
L 47.896364 63.347001 
L 48.124866 62.642041 
L 48.353367 60.027536 
L 48.810369 69.284458 
L 49.038871 69.070026 
L 49.495873 60.891747 
L 49.724374 61.253286 
L 50.181377 57.732096 
L 50.409878 59.405261 
L 50.638379 63.573279 
L 50.86688 65.644821 
L 51.095382 66.117179 
L 51.552384 70.233164 
L 51.780885 70.99148 
L 52.009387 68.162162 
L 52.237888 59.951168 
L 52.466389 59.48361 
L 52.923391 62.825038 
L 53.151893 64.02882 
L 53.380394 62.096366 
L 53.608895 61.850177 
L 53.837396 61.330888 
L 54.065898 61.579663 
L 54.294399 61.334047 
L 54.5229 60.217881 
L 54.751401 58.203685 
L 55.208404 50.868414 
L 55.436905 53.05555 
L 55.665406 53.430748 
L 55.893907 56.347572 
L 56.122409 57.105941 
L 56.35091 53.933539 
L 56.579411 53.346105 
L 56.807912 50.400817 
L 57.264915 51.27194 
L 57.721917 56.768397 
L 57.950418 54.859731 
L 58.17892 56.503125 
L 58.407421 53.265501 
L 58.635922 54.685437 
L 58.864423 57.589774 
L 59.092925 57.734025 
L 59.321426 58.971707 
L 59.549927 55.847721 
L 59.778428 49.924809 
L 60.00693 50.615421 
L 60.235431 49.040554 
L 60.463932 51.280824 
L 60.692433 51.477067 
L 60.920934 52.848775 
L 61.149436 51.171771 
L 61.377937 47.503455 
L 61.834939 47.54264 
L 62.291942 59.456393 
L 62.520443 58.65665 
L 62.748944 59.219445 
L 62.977445 54.849579 
L 63.434448 51.440936 
L 63.662949 51.376962 
L 63.89145 51.057765 
L 64.119952 48.227189 
L 64.348453 49.207202 
L 64.805455 42.849656 
L 65.033957 47.896211 
L 65.262458 46.786293 
L 65.490959 48.620729 
L 65.71946 47.616894 
L 66.176463 43.175069 
L 66.633465 51.861091 
L 66.861966 49.059724 
L 67.090468 50.193786 
L 67.318969 43.063815 
L 67.54747 44.101019 
L 67.775971 48.297941 
L 68.004473 47.631329 
L 68.232974 50.696019 
L 68.461475 49.260026 
L 68.689976 50.034172 
L 68.918477 45.967269 
L 69.146979 45.504255 
L 69.37548 42.552525 
L 69.603981 43.649207 
L 70.517986 37.590839 
L 70.746487 38.982601 
L 70.974988 45.022588 
L 71.20349 44.617474 
L 71.431991 46.460021 
L 71.888993 43.003329 
L 72.117495 45.291408 
L 72.802998 40.83682 
L 73.0315 39.526288 
L 73.260001 42.144017 
L 73.488502 41.359107 
L 73.717003 42.929667 
L 73.945504 43.435502 
L 74.174006 43.601311 
L 74.631008 48.632811 
L 75.088011 40.848808 
L 75.316512 39.564007 
L 75.545013 34.935742 
L 75.773514 38.824507 
L 76.002016 36.802239 
L 76.230517 36.23397 
L 77.144522 45.017581 
L 77.373023 40.675835 
L 77.601524 39.768187 
L 78.058527 44.455108 
L 78.287028 43.379939 
L 78.515529 44.973286 
L 78.972531 35.731406 
L 79.201033 37.582414 
L 79.429534 36.669186 
L 80.115038 42.564744 
L 80.57204 48.599936 
L 80.800541 50.617152 
L 81.029043 50.163851 
L 81.257544 45.027872 
L 81.714546 42.208454 
L 81.943047 42.311948 
L 82.171549 41.058039 
L 82.40005 41.068034 
L 82.628551 40.293779 
L 83.085554 48.223484 
L 83.314055 45.509775 
L 83.542556 45.283095 
L 83.999559 38.234409 
L 84.22806 36.479613 
L 84.456561 33.414474 
L 84.685062 36.823881 
L 84.913563 37.667743 
L 85.142065 39.190348 
L 85.370566 42.391515 
L 85.599067 42.672228 
L 85.827568 42.099875 
L 86.05607 42.318997 
L 86.284571 45.466121 
L 86.513072 41.811367 
L 86.741573 41.501809 
L 86.970074 47.207 
L 87.198576 47.879522 
L 87.427077 46.808152 
L 87.655578 50.60439 
L 87.884079 49.916659 
L 88.112581 46.517478 
L 88.341082 48.322074 
L 88.569583 42.865299 
L 88.798084 43.055444 
L 89.255087 47.623016 
L 89.483588 52.522696 
L 89.712089 51.480362 
L 89.94059 49.282088 
L 90.169092 42.913022 
L 90.397593 42.64814 
L 90.626094 42.995747 
L 91.083097 48.651547 
L 91.311598 50.459848 
L 91.540099 49.311544 
L 91.7686 53.407893 
L 91.997102 53.678099 
L 92.225603 53.32728 
L 92.454104 53.980543 
L 92.682605 51.910068 
L 92.911106 51.391357 
L 93.368109 49.81949 
L 93.59661 50.713364 
L 93.825111 47.665935 
L 94.053613 49.559205 
L 94.282114 47.046444 
L 94.510615 49.535979 
L 94.739116 49.117245 
L 94.967617 50.295706 
L 95.196119 49.073211 
L 95.653121 51.846987 
L 96.110124 56.81399 
L 96.338625 56.523085 
L 96.567126 54.506727 
L 96.795627 54.067179 
L 97.024129 52.980175 
L 97.25263 56.247561 
L 97.481131 56.270634 
L 97.709632 56.486397 
L 97.938133 57.869165 
L 98.166635 57.922458 
L 98.395136 56.967106 
L 98.852138 63.88427 
L 99.08064 61.994005 
L 99.309141 63.96955 
L 99.537642 58.94844 
L 99.994645 55.898316 
L 100.223146 56.745369 
L 100.451647 55.789416 
L 100.680148 55.637375 
L 100.908649 56.618798 
L 101.137151 59.545208 
L 101.365652 64.066798 
L 101.594153 63.097305 
L 101.822654 64.762324 
L 102.051156 58.71094 
L 102.279657 58.744816 
L 102.508158 64.33729 
L 102.736659 64.703895 
L 103.193662 60.158687 
L 103.650664 60.167015 
L 104.107667 63.803006 
L 104.336168 61.800609 
L 104.564669 61.141347 
L 104.79317 58.79033 
L 105.021672 59.42431 
L 105.478674 67.566737 
L 105.707175 69.925912 
L 105.935676 68.856318 
L 106.164178 63.34245 
L 106.392679 62.891199 
L 106.62118 63.747239 
L 106.849681 63.904449 
L 107.078183 63.363098 
L 107.306684 61.601996 
L 107.535185 61.556724 
L 107.763686 63.699318 
L 107.992188 63.54241 
L 108.44919 68.439917 
L 108.677691 76.987324 
L 109.134694 83.157798 
L 109.363195 79.768892 
L 109.591696 78.435836 
L 109.820197 79.307338 
L 110.048699 78.961073 
L 110.505701 74.44378 
L 110.734202 71.93518 
L 110.962703 71.001212 
L 111.191205 71.903791 
L 111.419706 70.764237 
L 112.333711 85.314645 
L 112.562212 86.352453 
L 113.019215 91.599501 
L 113.247716 81.187536 
L 113.476217 78.05454 
L 113.704718 83.881323 
L 114.161721 91.000711 
L 114.618723 88.782564 
L 114.847224 80.706717 
L 115.304227 74.300891 
L 115.532728 74.301966 
L 115.761229 77.516091 
L 115.98973 77.895827 
L 116.218232 77.622175 
L 116.446733 84.743233 
L 117.132237 93.113992 
L 117.360738 93.994183 
L 117.589239 93.744961 
L 117.81774 93.021747 
L 118.274743 94.583586 
L 118.503244 93.867811 
L 118.731745 92.053327 
L 118.960246 91.543926 
L 119.188748 90.533157 
L 119.417249 92.363293 
L 119.874251 98.413136 
L 120.102753 98.524367 
L 120.331254 93.044428 
L 120.559755 93.050244 
L 120.788256 94.400335 
L 121.016758 96.941987 
L 121.245259 100.764045 
L 121.47376 101.596048 
L 121.702261 101.020031 
L 121.930762 98.024182 
L 122.159264 100.264572 
L 122.387765 101.13736 
L 122.616266 100.033155 
L 122.844767 100.764771 
L 123.073269 94.791384 
L 123.30177 95.789316 
L 123.530271 94.986753 
L 123.758772 99.377491 
L 123.987273 100.829911 
L 124.444276 106.697811 
L 124.672777 114.311683 
L 124.901278 105.653869 
L 125.12978 106.116054 
L 125.358281 101.104154 
L 125.586782 100.205021 
L 125.815283 104.061403 
L 126.043785 99.319834 
L 126.272286 105.862883 
L 126.500787 105.753879 
L 126.729288 110.217421 
L 126.957789 111.681533 
L 127.186291 110.68082 
L 127.414792 105.397279 
L 127.643293 104.804832 
L 127.871794 103.608222 
L 128.100296 103.67059 
L 128.328797 104.742452 
L 128.785799 112.425033 
L 129.014301 112.349773 
L 129.242802 111.906688 
L 129.471303 110.638528 
L 129.928305 105.039442 
L 130.385308 112.376594 
L 130.84231 111.011107 
L 131.070812 108.776894 
L 131.299313 112.45077 
L 131.527814 113.463672 
L 131.756315 113.565365 
L 131.984816 115.733498 
L 132.213318 114.369653 
L 132.441819 110.065399 
L 132.67032 112.667352 
L 132.898821 108.653875 
L 133.127323 109.506651 
L 133.355824 111.591053 
L 133.584325 111.423837 
L 133.812826 113.428573 
L 134.041328 113.065712 
L 134.269829 112.949713 
L 134.49833 114.216635 
L 134.726831 109.436122 
L 134.955332 110.241904 
L 135.183834 110.267399 
L 135.640836 118.147777 
L 135.869337 118.407184 
L 136.097839 116.439023 
L 136.32634 118.766601 
L 136.554841 114.850368 
L 136.783342 117.723858 
L 137.011844 114.316296 
L 137.240345 113.180606 
L 137.468846 111.186901 
L 137.697347 116.279622 
L 137.925848 116.871837 
L 138.15435 119.142239 
L 138.382851 118.141413 
L 138.611352 117.867537 
L 138.839853 110.656864 
L 139.068355 114.121444 
L 139.296856 108.65353 
L 139.753858 118.461666 
L 139.982359 117.229192 
L 140.210861 120.374683 
L 140.667863 116.074376 
L 141.124866 117.987586 
L 141.353367 116.799442 
L 141.581868 116.981097 
L 141.810369 116.769137 
L 142.038871 117.932058 
L 142.495873 111.951945 
L 142.724374 111.641954 
L 142.952875 114.081979 
L 143.181377 113.948674 
L 143.409878 114.365011 
L 143.86688 118.291466 
L 144.095382 119.214984 
L 144.323883 115.574822 
L 144.780885 113.737188 
L 145.009387 117.498796 
L 145.237888 116.959869 
L 145.466389 120.365616 
L 145.69489 115.687989 
L 145.923391 117.302489 
L 146.151893 115.127021 
L 146.608895 123.243127 
L 146.837396 120.299452 
L 147.065898 123.335506 
L 147.294399 121.527452 
L 147.5229 125.30561 
L 147.751401 126.170685 
L 148.208404 120.092993 
L 148.436905 120.449347 
L 148.665406 119.883436 
L 148.893907 124.956153 
L 149.579411 121.956496 
L 149.807912 121.288345 
L 150.036414 117.62551 
L 150.264915 117.864064 
L 150.493416 116.692964 
L 150.721917 119.645716 
L 150.950418 117.664201 
L 151.17892 119.981454 
L 151.407421 116.192995 
L 151.635922 120.379197 
L 151.864423 119.4442 
L 152.092925 124.327343 
L 152.321426 123.937903 
L 152.549927 117.578906 
L 152.778428 118.60018 
L 153.00693 116.20329 
L 153.235431 122.329663 
L 153.463932 121.488297 
L 153.692433 121.091589 
L 153.920934 121.193529 
L 154.149436 117.946394 
L 154.377937 118.291047 
L 154.606438 116.629119 
L 155.063441 120.172403 
L 155.291942 116.548012 
L 155.520443 115.433417 
L 155.748944 115.857918 
L 155.977445 120.019962 
L 156.205947 117.017006 
L 156.434448 118.416192 
L 156.662949 111.885954 
L 156.89145 114.584212 
L 157.119952 114.609105 
L 157.348453 114.330316 
L 157.576954 117.06433 
L 157.805455 114.813211 
L 158.033957 119.340894 
L 158.262458 119.352215 
L 158.490959 118.984717 
L 158.71946 120.558499 
L 158.947961 117.812803 
L 159.176463 119.602175 
L 159.404964 118.434425 
L 159.633465 122.597668 
L 159.861966 119.727745 
L 160.090468 123.618848 
L 160.318969 116.009747 
L 160.54747 122.14933 
L 160.775971 114.245563 
L 161.004473 113.939745 
L 161.461475 108.062583 
L 161.918477 117.349779 
L 162.146979 114.671283 
L 162.37548 115.379314 
L 162.603981 111.538283 
L 162.832482 117.422297 
L 163.060984 115.578507 
L 163.289485 115.97441 
L 163.517986 116.006402 
L 163.974988 111.368867 
L 164.660492 106.56794 
L 164.888993 110.530264 
L 165.117495 110.867087 
L 165.345996 114.684765 
L 165.574497 114.006935 
L 166.0315 111.339845 
L 166.260001 108.986974 
L 166.488502 109.989793 
L 166.717003 111.646615 
L 166.945504 112.470261 
L 167.174006 109.875087 
L 167.402507 110.798777 
L 167.631008 106.979318 
L 167.859509 107.996148 
L 168.088011 107.677612 
L 168.316512 103.686172 
L 168.545013 105.411427 
L 168.773514 105.933428 
L 169.002016 105.077746 
L 169.230517 106.212197 
L 169.459018 105.538397 
L 169.687519 111.65995 
L 169.91602 113.455829 
L 170.144522 107.625527 
L 170.373023 106.948466 
L 170.601524 98.166812 
L 170.830025 95.939116 
L 171.058527 96.55351 
L 171.287028 106.378328 
L 171.74403 110.031602 
L 172.429534 97.550224 
L 172.658035 97.536673 
L 172.886536 99.510324 
L 173.115038 105.217437 
L 173.343539 107.409961 
L 173.57204 107.589012 
L 174.029043 104.34771 
L 174.486045 100.792954 
L 174.714546 97.652163 
L 174.943047 100.407469 
L 175.171549 99.24056 
L 175.40005 97.243719 
L 175.628551 97.688724 
L 175.857052 93.09467 
L 176.085554 94.297119 
L 176.314055 94.157111 
L 176.542556 94.717157 
L 176.999559 97.940573 
L 177.22806 98.355415 
L 177.456561 94.668097 
L 177.685062 95.054932 
L 177.913563 87.588346 
L 178.142065 87.668049 
L 178.370566 81.719171 
L 178.599067 78.963323 
L 179.284571 88.971066 
L 179.741573 83.417724 
L 179.970074 90.560502 
L 180.198576 91.223905 
L 180.427077 90.646799 
L 180.655578 87.739338 
L 180.884079 94.75846 
L 181.112581 94.461859 
L 181.341082 90.590556 
L 181.569583 82.103244 
L 181.798084 83.434052 
L 182.255087 88.231895 
L 182.483588 86.24401 
L 182.712089 80.418493 
L 182.94059 77.86646 
L 183.169092 77.655804 
L 183.397593 78.87729 
L 183.626094 79.488356 
L 184.083097 70.681632 
L 184.311598 71.931634 
L 184.540099 77.902151 
L 184.7686 87.771258 
L 184.997102 86.059389 
L 185.225603 89.110325 
L 185.454104 80.577576 
L 185.682605 76.259155 
L 185.911106 76.47963 
L 186.139608 79.396942 
L 186.59661 92.161463 
L 187.053613 82.876902 
L 187.510615 73.516463 
L 187.967617 71.557611 
L 188.196119 77.707918 
L 188.42462 77.412101 
L 188.653121 74.957247 
L 188.881622 69.748518 
L 189.110124 72.226669 
L 189.567126 74.10606 
L 190.024129 71.347528 
L 190.25263 72.793629 
L 190.709632 69.128995 
L 190.938133 65.697885 
L 191.166635 64.886909 
L 191.395136 67.093955 
L 191.623637 66.92269 
L 192.08064 64.382675 
L 192.309141 65.66418 
L 192.537642 64.41701 
L 192.766143 67.207829 
L 192.994645 66.283325 
L 193.223146 67.274709 
L 193.451647 65.944598 
L 193.680148 66.855379 
L 193.908649 64.263147 
L 194.137151 66.586276 
L 194.365652 64.133411 
L 194.594153 65.919987 
L 194.822654 64.630771 
L 195.051156 64.268726 
L 195.279657 61.690007 
L 195.508158 61.567733 
L 195.736659 65.73733 
L 195.96516 63.079447 
L 196.193662 63.716024 
L 196.650664 56.386228 
L 196.879165 52.252579 
L 197.107667 52.913725 
L 197.79317 57.606596 
L 198.021672 56.032908 
L 198.250173 55.350441 
L 198.478674 55.372669 
L 198.707175 54.813897 
L 199.164178 59.259643 
L 199.392679 55.796312 
L 199.62118 57.17176 
L 199.849681 53.859364 
L 200.078183 53.407553 
L 200.306684 55.284479 
L 200.535185 52.321318 
L 200.763686 51.06667 
L 200.992188 50.671753 
L 201.44919 63.478431 
L 201.677691 60.210814 
L 201.906192 61.718962 
L 202.134694 51.033489 
L 202.363195 47.334563 
L 202.820197 51.175787 
L 203.048699 54.561224 
L 203.505701 58.36391 
L 203.962703 48.973369 
L 204.191205 50.498751 
L 204.419706 47.535378 
L 204.648207 48.741316 
L 204.876708 51.220787 
L 205.10521 50.968465 
L 205.333711 52.844379 
L 205.790713 48.046585 
L 206.019215 49.443048 
L 206.247716 47.40858 
L 206.933219 51.309619 
L 207.161721 51.63596 
L 207.390222 50.791304 
L 207.618723 51.837002 
L 207.847224 50.628395 
L 208.075726 52.325255 
L 208.304227 52.683483 
L 208.532728 48.831352 
L 208.761229 49.527238 
L 208.98973 45.313814 
L 209.218232 45.00509 
L 209.446733 44.284588 
L 209.675234 45.199038 
L 209.903735 45.043367 
L 210.360738 51.637593 
L 210.589239 53.55063 
L 210.81774 53.871692 
L 211.503244 41.921569 
L 211.731745 41.745617 
L 211.960246 42.564996 
L 212.188748 47.588025 
L 212.417249 49.885634 
L 212.64575 50.225077 
L 212.874251 49.340812 
L 213.559755 42.864416 
L 213.788256 42.945843 
L 214.016758 42.786452 
L 214.245259 36.76489 
L 214.47376 41.35036 
L 214.702261 37.287887 
L 214.930762 35.427961 
L 215.159264 39.232487 
L 215.387765 35.816869 
L 215.616266 39.932724 
L 215.844767 40.073231 
L 216.073269 43.243763 
L 216.30177 42.373154 
L 216.530271 40.815183 
L 216.758772 41.744828 
L 216.987273 38.621077 
L 217.215775 42.918755 
L 217.444276 42.067888 
L 217.672777 45.268 
L 217.901278 43.940123 
L 218.12978 46.717317 
L 218.358281 43.383229 
L 218.586782 45.067574 
L 218.815283 42.495018 
L 219.272286 46.830099 
L 219.729288 44.764188 
L 220.186291 40.940032 
L 220.871794 43.798131 
L 221.100296 47.470995 
L 221.328797 45.475455 
L 221.557298 46.431606 
L 222.014301 39.607227 
L 222.242802 43.885951 
L 222.471303 42.550808 
L 222.699804 44.683199 
L 222.928305 45.618695 
L 223.156807 45.044408 
L 223.385308 45.295931 
L 223.613809 45.817646 
L 223.84231 43.738113 
L 224.070812 43.20228 
L 224.299313 43.300993 
L 224.527814 43.818036 
L 224.756315 39.4176 
L 224.984816 41.365101 
L 225.213318 41.395464 
L 225.67032 45.67406 
L 225.898821 46.642076 
L 226.127323 44.026093 
L 226.355824 43.920025 
L 226.584325 44.024914 
L 226.812826 41.330252 
L 227.726831 48.351841 
L 227.955332 47.425402 
L 228.183834 47.238257 
L 228.412335 45.890687 
L 228.640836 47.538155 
L 228.869337 44.104403 
L 229.097839 45.8151 
L 229.32634 45.991334 
L 229.554841 50.996781 
L 229.783342 52.129131 
L 230.011844 48.515929 
L 230.240345 47.493066 
L 230.468846 39.445344 
L 230.697347 40.331582 
L 230.925848 40.257121 
L 231.15435 41.425784 
L 231.382851 44.105597 
L 231.611352 43.461559 
L 231.839853 46.29322 
L 232.068355 44.71863 
L 232.296856 49.626054 
L 232.525357 48.803504 
L 232.753858 45.047866 
L 232.982359 46.260829 
L 233.210861 42.504534 
L 233.439362 47.821503 
L 233.667863 49.242395 
L 233.896364 48.598061 
L 234.124866 49.204484 
L 234.353367 46.932725 
L 234.810369 51.173034 
L 235.038871 49.066547 
L 235.267372 50.65015 
L 235.495873 48.572927 
L 235.724374 49.013367 
L 235.952875 50.639653 
L 236.181377 46.437792 
L 236.409878 45.470334 
L 236.638379 43.564628 
L 236.86688 43.720058 
L 237.095382 48.978351 
L 237.780885 55.156019 
L 238.009387 55.591851 
L 238.237888 54.517225 
L 238.466389 51.75228 
L 238.69489 52.909986 
L 238.923391 51.186369 
L 239.151893 53.550058 
L 239.380394 57.295805 
L 239.608895 56.726357 
L 239.837396 57.929207 
L 240.065898 51.142231 
L 240.5229 46.495935 
L 240.979902 50.492051 
L 241.208404 54.619712 
L 241.436905 53.135911 
L 241.665406 53.264603 
L 241.893907 52.561476 
L 242.122409 50.526426 
L 242.35091 53.689006 
L 242.579411 54.455836 
L 242.807912 53.113643 
L 243.036414 54.805871 
L 243.264915 52.659035 
L 243.493416 49.179132 
L 243.721917 52.158355 
L 243.950418 53.358522 
L 244.864423 61.82174 
L 245.092925 61.116309 
L 245.321426 64.943032 
L 245.549927 66.728772 
L 245.778428 66.460718 
L 246.235431 57.796869 
L 246.692433 62.949986 
L 246.920934 63.904997 
L 247.149436 63.611889 
L 247.377937 65.644338 
L 247.606438 68.996551 
L 247.834939 67.873485 
L 248.063441 68.555855 
L 248.291942 65.83637 
L 248.748944 68.884246 
L 248.977445 67.166035 
L 249.205947 68.275951 
L 249.434448 66.859289 
L 249.662949 63.813252 
L 249.89145 67.378701 
L 250.119952 72.91608 
L 250.348453 73.730319 
L 250.576954 72.851625 
L 250.805455 67.34331 
L 251.033957 70.711049 
L 251.262458 69.271785 
L 251.490959 70.822888 
L 251.71946 68.632896 
L 251.947961 69.683633 
L 252.176463 69.457792 
L 252.861966 82.113537 
L 253.090468 81.2303 
L 253.775971 71.074612 
L 254.004473 72.368092 
L 254.461475 77.993945 
L 254.689976 78.005614 
L 254.918477 77.128366 
L 255.37548 81.919988 
L 255.603981 80.70258 
L 255.832482 76.539542 
L 256.060984 76.573391 
L 256.289485 81.034058 
L 256.517986 81.782814 
L 256.974988 75.226649 
L 257.20349 77.08085 
L 257.660492 87.758817 
L 257.888993 85.48322 
L 258.117495 81.758866 
L 258.345996 81.683941 
L 258.802998 88.134933 
L 259.0315 90.463163 
L 259.717003 92.902749 
L 259.945504 94.253236 
L 260.174006 87.682291 
L 260.402507 85.598209 
L 260.859509 75.887489 
L 261.088011 75.321628 
L 261.316512 73.817539 
L 261.773514 93.231079 
L 262.002016 98.610127 
L 262.230517 89.0925 
L 262.459018 94.338362 
L 262.687519 90.108276 
L 262.91602 92.360125 
L 263.144522 100.160175 
L 263.373023 102.96523 
L 263.601524 104.119602 
L 263.830025 99.544794 
L 264.058527 103.086579 
L 264.287028 97.784511 
L 264.515529 104.601577 
L 264.74403 101.252076 
L 264.972531 100.74818 
L 265.201033 103.800908 
L 265.429534 99.777707 
L 265.658035 101.484422 
L 265.886536 105.441532 
L 266.57204 100.946638 
L 266.800541 93.7484 
L 267.029043 97.870153 
L 267.257544 97.693257 
L 267.486045 109.933215 
L 267.943047 104.875184 
L 268.171549 104.288751 
L 268.40005 105.975698 
L 268.628551 104.893432 
L 268.628551 104.893432 
" style="fill:none;stroke:#bf00bf;stroke-dasharray:5.55,2.4;stroke-dashoffset:0;stroke-width:1.5;"/>
   </g>
   <g id="line2d_21">
    <path clip-path="url(#pff1a441fcb)" d="M 177.456561 94.668097 
L 177.685062 95.258399 
L 177.913563 95.507782 
L 178.370566 99.983168 
L 179.513072 106.120825 
L 180.198576 108.705812 
L 181.112581 111.189669 
L 182.026586 112.895112 
L 182.94059 114.066163 
L 183.854595 114.870273 
L 184.997102 115.530956 
L 186.368109 116.005682 
L 187.967617 116.278862 
L 190.481131 116.43004 
L 196.422163 116.482238 
L 268.628551 116.484601 
L 268.628551 116.484601 
" style="fill:none;stroke:#008000;stroke-dasharray:9.6,2.4,1.5,2.4;stroke-dashoffset:0;stroke-width:1.5;"/>
   </g>
   <g id="patch_3">
    <path d="M 28.942188 143.1 
L 28.942188 7.2 
" style="fill:none;stroke:#000000;stroke-linecap:square;stroke-linejoin:miter;stroke-width:0.8;"/>
   </g>
   <g id="patch_4">
    <path d="M 280.042188 143.1 
L 280.042188 7.2 
" style="fill:none;stroke:#000000;stroke-linecap:square;stroke-linejoin:miter;stroke-width:0.8;"/>
   </g>
   <g id="patch_5">
    <path d="M 28.942188 143.1 
L 280.042188 143.1 
" style="fill:none;stroke:#000000;stroke-linecap:square;stroke-linejoin:miter;stroke-width:0.8;"/>
   </g>
   <g id="patch_6">
    <path d="M 28.942188 7.2 
L 280.042188 7.2 
" style="fill:none;stroke:#000000;stroke-linecap:square;stroke-linejoin:miter;stroke-width:0.8;"/>
   </g>
   <g id="legend_1">
    <g id="patch_7">
     <path d="M 114.899219 59.234375 
L 194.085156 59.234375 
Q 196.085156 59.234375 196.085156 57.234375 
L 196.085156 14.2 
Q 196.085156 12.2 194.085156 12.2 
L 114.899219 12.2 
Q 112.899219 12.2 112.899219 14.2 
L 112.899219 57.234375 
Q 112.899219 59.234375 114.899219 59.234375 
z
" style="fill:#ffffff;opacity:0.8;stroke:#cccccc;stroke-linejoin:miter;"/>
    </g>
    <g id="line2d_22">
     <path d="M 116.899219 20.298438 
L 136.899219 20.298438 
" style="fill:none;stroke:#1f77b4;stroke-linecap:square;stroke-width:1.5;"/>
    </g>
    <g id="line2d_23"/>
    <g id="text_10">
     <!-- data -->
     <g transform="translate(144.899219 23.798438)scale(0.1 -0.1)">
      <defs>
       <path d="M 45.40625 46.390625 
L 45.40625 75.984375 
L 54.390625 75.984375 
L 54.390625 0 
L 45.40625 0 
L 45.40625 8.203125 
Q 42.578125 3.328125 38.25 0.953125 
Q 33.9375 -1.421875 27.875 -1.421875 
Q 17.96875 -1.421875 11.734375 6.484375 
Q 5.515625 14.40625 5.515625 27.296875 
Q 5.515625 40.1875 11.734375 48.09375 
Q 17.96875 56 27.875 56 
Q 33.9375 56 38.25 53.625 
Q 42.578125 51.265625 45.40625 46.390625 
z
M 14.796875 27.296875 
Q 14.796875 17.390625 18.875 11.75 
Q 22.953125 6.109375 30.078125 6.109375 
Q 37.203125 6.109375 41.296875 11.75 
Q 45.40625 17.390625 45.40625 27.296875 
Q 45.40625 37.203125 41.296875 42.84375 
Q 37.203125 48.484375 30.078125 48.484375 
Q 22.953125 48.484375 18.875 42.84375 
Q 14.796875 37.203125 14.796875 27.296875 
z
" id="DejaVuSans-100"/>
       <path d="M 34.28125 27.484375 
Q 23.390625 27.484375 19.1875 25 
Q 14.984375 22.515625 14.984375 16.5 
Q 14.984375 11.71875 18.140625 8.90625 
Q 21.296875 6.109375 26.703125 6.109375 
Q 34.1875 6.109375 38.703125 11.40625 
Q 43.21875 16.703125 43.21875 25.484375 
L 43.21875 27.484375 
z
M 52.203125 31.203125 
L 52.203125 0 
L 43.21875 0 
L 43.21875 8.296875 
Q 40.140625 3.328125 35.546875 0.953125 
Q 30.953125 -1.421875 24.3125 -1.421875 
Q 15.921875 -1.421875 10.953125 3.296875 
Q 6 8.015625 6 15.921875 
Q 6 25.140625 12.171875 29.828125 
Q 18.359375 34.515625 30.609375 34.515625 
L 43.21875 34.515625 
L 43.21875 35.40625 
Q 43.21875 41.609375 39.140625 45 
Q 35.0625 48.390625 27.6875 48.390625 
Q 23 48.390625 18.546875 47.265625 
Q 14.109375 46.140625 10.015625 43.890625 
L 10.015625 52.203125 
Q 14.9375 54.109375 19.578125 55.046875 
Q 24.21875 56 28.609375 56 
Q 40.484375 56 46.34375 49.84375 
Q 52.203125 43.703125 52.203125 31.203125 
z
" id="DejaVuSans-97"/>
       <path d="M 18.3125 70.21875 
L 18.3125 54.6875 
L 36.8125 54.6875 
L 36.8125 47.703125 
L 18.3125 47.703125 
L 18.3125 18.015625 
Q 18.3125 11.328125 20.140625 9.421875 
Q 21.96875 7.515625 27.59375 7.515625 
L 36.8125 7.515625 
L 36.8125 0 
L 27.59375 0 
Q 17.1875 0 13.234375 3.875 
Q 9.28125 7.765625 9.28125 18.015625 
L 9.28125 47.703125 
L 2.6875 47.703125 
L 2.6875 54.6875 
L 9.28125 54.6875 
L 9.28125 70.21875 
z
" id="DejaVuSans-116"/>
      </defs>
      <use xlink:href="#DejaVuSans-100"/>
      <use x="63.476562" xlink:href="#DejaVuSans-97"/>
      <use x="124.755859" xlink:href="#DejaVuSans-116"/>
      <use x="163.964844" xlink:href="#DejaVuSans-97"/>
     </g>
    </g>
    <g id="line2d_24">
     <path d="M 116.899219 34.976562 
L 136.899219 34.976562 
" style="fill:none;stroke:#bf00bf;stroke-dasharray:5.55,2.4;stroke-dashoffset:0;stroke-width:1.5;"/>
    </g>
    <g id="line2d_25"/>
    <g id="text_11">
     <!-- estimate -->
     <g transform="translate(144.899219 38.476562)scale(0.1 -0.1)">
      <defs>
       <path d="M 56.203125 29.59375 
L 56.203125 25.203125 
L 14.890625 25.203125 
Q 15.484375 15.921875 20.484375 11.0625 
Q 25.484375 6.203125 34.421875 6.203125 
Q 39.59375 6.203125 44.453125 7.46875 
Q 49.3125 8.734375 54.109375 11.28125 
L 54.109375 2.78125 
Q 49.265625 0.734375 44.1875 -0.34375 
Q 39.109375 -1.421875 33.890625 -1.421875 
Q 20.796875 -1.421875 13.15625 6.1875 
Q 5.515625 13.8125 5.515625 26.8125 
Q 5.515625 40.234375 12.765625 48.109375 
Q 20.015625 56 32.328125 56 
Q 43.359375 56 49.78125 48.890625 
Q 56.203125 41.796875 56.203125 29.59375 
z
M 47.21875 32.234375 
Q 47.125 39.59375 43.09375 43.984375 
Q 39.0625 48.390625 32.421875 48.390625 
Q 24.90625 48.390625 20.390625 44.140625 
Q 15.875 39.890625 15.1875 32.171875 
z
" id="DejaVuSans-101"/>
       <path d="M 44.28125 53.078125 
L 44.28125 44.578125 
Q 40.484375 46.53125 36.375 47.5 
Q 32.28125 48.484375 27.875 48.484375 
Q 21.1875 48.484375 17.84375 46.4375 
Q 14.5 44.390625 14.5 40.28125 
Q 14.5 37.15625 16.890625 35.375 
Q 19.28125 33.59375 26.515625 31.984375 
L 29.59375 31.296875 
Q 39.15625 29.25 43.1875 25.515625 
Q 47.21875 21.78125 47.21875 15.09375 
Q 47.21875 7.46875 41.1875 3.015625 
Q 35.15625 -1.421875 24.609375 -1.421875 
Q 20.21875 -1.421875 15.453125 -0.5625 
Q 10.6875 0.296875 5.421875 2 
L 5.421875 11.28125 
Q 10.40625 8.6875 15.234375 7.390625 
Q 20.0625 6.109375 24.8125 6.109375 
Q 31.15625 6.109375 34.5625 8.28125 
Q 37.984375 10.453125 37.984375 14.40625 
Q 37.984375 18.0625 35.515625 20.015625 
Q 33.0625 21.96875 24.703125 23.78125 
L 21.578125 24.515625 
Q 13.234375 26.265625 9.515625 29.90625 
Q 5.8125 33.546875 5.8125 39.890625 
Q 5.8125 47.609375 11.28125 51.796875 
Q 16.75 56 26.8125 56 
Q 31.78125 56 36.171875 55.265625 
Q 40.578125 54.546875 44.28125 53.078125 
z
" id="DejaVuSans-115"/>
       <path d="M 9.421875 54.6875 
L 18.40625 54.6875 
L 18.40625 0 
L 9.421875 0 
z
M 9.421875 75.984375 
L 18.40625 75.984375 
L 18.40625 64.59375 
L 9.421875 64.59375 
z
" id="DejaVuSans-105"/>
       <path d="M 52 44.1875 
Q 55.375 50.25 60.0625 53.125 
Q 64.75 56 71.09375 56 
Q 79.640625 56 84.28125 50.015625 
Q 88.921875 44.046875 88.921875 33.015625 
L 88.921875 0 
L 79.890625 0 
L 79.890625 32.71875 
Q 79.890625 40.578125 77.09375 44.375 
Q 74.3125 48.1875 68.609375 48.1875 
Q 61.625 48.1875 57.5625 43.546875 
Q 53.515625 38.921875 53.515625 30.90625 
L 53.515625 0 
L 44.484375 0 
L 44.484375 32.71875 
Q 44.484375 40.625 41.703125 44.40625 
Q 38.921875 48.1875 33.109375 48.1875 
Q 26.21875 48.1875 22.15625 43.53125 
Q 18.109375 38.875 18.109375 30.90625 
L 18.109375 0 
L 9.078125 0 
L 9.078125 54.6875 
L 18.109375 54.6875 
L 18.109375 46.1875 
Q 21.1875 51.21875 25.484375 53.609375 
Q 29.78125 56 35.6875 56 
Q 41.65625 56 45.828125 52.96875 
Q 50 49.953125 52 44.1875 
z
" id="DejaVuSans-109"/>
      </defs>
      <use xlink:href="#DejaVuSans-101"/>
      <use x="61.523438" xlink:href="#DejaVuSans-115"/>
      <use x="113.623047" xlink:href="#DejaVuSans-116"/>
      <use x="152.832031" xlink:href="#DejaVuSans-105"/>
      <use x="180.615234" xlink:href="#DejaVuSans-109"/>
      <use x="278.027344" xlink:href="#DejaVuSans-97"/>
      <use x="339.306641" xlink:href="#DejaVuSans-116"/>
      <use x="378.515625" xlink:href="#DejaVuSans-101"/>
     </g>
    </g>
    <g id="line2d_26">
     <path d="M 116.899219 49.654688 
L 136.899219 49.654688 
" style="fill:none;stroke:#008000;stroke-dasharray:9.6,2.4,1.5,2.4;stroke-dashoffset:0;stroke-width:1.5;"/>
    </g>
    <g id="line2d_27"/>
    <g id="text_12">
     <!-- multistep -->
     <g transform="translate(144.899219 53.154688)scale(0.1 -0.1)">
      <defs>
       <path d="M 8.5 21.578125 
L 8.5 54.6875 
L 17.484375 54.6875 
L 17.484375 21.921875 
Q 17.484375 14.15625 20.5 10.265625 
Q 23.53125 6.390625 29.59375 6.390625 
Q 36.859375 6.390625 41.078125 11.03125 
Q 45.3125 15.671875 45.3125 23.6875 
L 45.3125 54.6875 
L 54.296875 54.6875 
L 54.296875 0 
L 45.3125 0 
L 45.3125 8.40625 
Q 42.046875 3.421875 37.71875 1 
Q 33.40625 -1.421875 27.6875 -1.421875 
Q 18.265625 -1.421875 13.375 4.4375 
Q 8.5 10.296875 8.5 21.578125 
z
M 31.109375 56 
z
" id="DejaVuSans-117"/>
       <path d="M 9.421875 75.984375 
L 18.40625 75.984375 
L 18.40625 0 
L 9.421875 0 
z
" id="DejaVuSans-108"/>
       <path d="M 18.109375 8.203125 
L 18.109375 -20.796875 
L 9.078125 -20.796875 
L 9.078125 54.6875 
L 18.109375 54.6875 
L 18.109375 46.390625 
Q 20.953125 51.265625 25.265625 53.625 
Q 29.59375 56 35.59375 56 
Q 45.5625 56 51.78125 48.09375 
Q 58.015625 40.1875 58.015625 27.296875 
Q 58.015625 14.40625 51.78125 6.484375 
Q 45.5625 -1.421875 35.59375 -1.421875 
Q 29.59375 -1.421875 25.265625 0.953125 
Q 20.953125 3.328125 18.109375 8.203125 
z
M 48.6875 27.296875 
Q 48.6875 37.203125 44.609375 42.84375 
Q 40.53125 48.484375 33.40625 48.484375 
Q 26.265625 48.484375 22.1875 42.84375 
Q 18.109375 37.203125 18.109375 27.296875 
Q 18.109375 17.390625 22.1875 11.75 
Q 26.265625 6.109375 33.40625 6.109375 
Q 40.53125 6.109375 44.609375 11.75 
Q 48.6875 17.390625 48.6875 27.296875 
z
" id="DejaVuSans-112"/>
      </defs>
      <use xlink:href="#DejaVuSans-109"/>
      <use x="97.412109" xlink:href="#DejaVuSans-117"/>
      <use x="160.791016" xlink:href="#DejaVuSans-108"/>
      <use x="188.574219" xlink:href="#DejaVuSans-116"/>
      <use x="227.783203" xlink:href="#DejaVuSans-105"/>
      <use x="255.566406" xlink:href="#DejaVuSans-115"/>
      <use x="307.666016" xlink:href="#DejaVuSans-116"/>
      <use x="346.875" xlink:href="#DejaVuSans-101"/>
      <use x="408.398438" xlink:href="#DejaVuSans-112"/>
     </g>
    </g>
   </g>
  </g>
 </g>
 <defs>
  <clipPath id="pff1a441fcb">
   <rect height="135.9" width="251.1" x="28.942188" y="7.2"/>
  </clipPath>
 </defs>
</svg>
