<?xml version="1.0" encoding="utf-8" standalone="no"?>
<!DOCTYPE svg PUBLIC "-//W3C//DTD SVG 1.1//EN"
  "http://www.w3.org/Graphics/SVG/1.1/DTD/svg11.dtd">
<!-- Created with matplotlib (https://matplotlib.org/) -->
<svg height="180.65625pt" version="1.1" viewBox="0 0 245.120313 180.65625" width="245.120313pt" xmlns="http://www.w3.org/2000/svg" xmlns:xlink="http://www.w3.org/1999/xlink">
 <metadata>
  <rdf:RDF xmlns:cc="http://creativecommons.org/ns#" xmlns:dc="http://purl.org/dc/elements/1.1/" xmlns:rdf="http://www.w3.org/1999/02/22-rdf-syntax-ns#">
   <cc:Work>
    <dc:type rdf:resource="http://purl.org/dc/dcmitype/StillImage"/>
    <dc:date>2020-08-13T03:28:51.324903</dc:date>
    <dc:format>image/svg+xml</dc:format>
    <dc:creator>
     <cc:Agent>
      <dc:title>Matplotlib v3.3.0, https://matplotlib.org/</dc:title>
     </cc:Agent>
    </dc:creator>
   </cc:Work>
  </rdf:RDF>
 </metadata>
 <defs>
  <style type="text/css">*{stroke-linecap:butt;stroke-linejoin:round;}</style>
 </defs>
 <g id="figure_1">
  <g id="patch_1">
   <path d="M 0 180.65625 
L 245.120313 180.65625 
L 245.120313 0 
L 0 0 
z
" style="fill:none;"/>
  </g>
  <g id="axes_1">
   <g id="patch_2">
    <path d="M 42.620312 143.1 
L 237.920313 143.1 
L 237.920313 7.2 
L 42.620312 7.2 
z
" style="fill:#ffffff;"/>
   </g>
   <g id="matplotlib.axis_1">
    <g id="xtick_1">
     <g id="line2d_1">
      <path clip-path="url(#p27d6349e42)" d="M 51.497585 143.1 
L 51.497585 7.2 
" style="fill:none;stroke:#b0b0b0;stroke-linecap:square;stroke-width:0.8;"/>
     </g>
     <g id="line2d_2">
      <defs>
       <path d="M 0 0 
L 0 3.5 
" id="mfb2f4bdad4" style="stroke:#000000;stroke-width:0.8;"/>
      </defs>
      <g>
       <use style="stroke:#000000;stroke-width:0.8;" x="51.497585" xlink:href="#mfb2f4bdad4" y="143.1"/>
      </g>
     </g>
     <g id="text_1">
      <!-- −10 -->
      <g transform="translate(40.945241 157.698438)scale(0.1 -0.1)">
       <defs>
        <path d="M 10.59375 35.5 
L 73.1875 35.5 
L 73.1875 27.203125 
L 10.59375 27.203125 
z
" id="DejaVuSans-8722"/>
        <path d="M 12.40625 8.296875 
L 28.515625 8.296875 
L 28.515625 63.921875 
L 10.984375 60.40625 
L 10.984375 69.390625 
L 28.421875 72.90625 
L 38.28125 72.90625 
L 38.28125 8.296875 
L 54.390625 8.296875 
L 54.390625 0 
L 12.40625 0 
z
" id="DejaVuSans-49"/>
        <path d="M 31.78125 66.40625 
Q 24.171875 66.40625 20.328125 58.90625 
Q 16.5 51.421875 16.5 36.375 
Q 16.5 21.390625 20.328125 13.890625 
Q 24.171875 6.390625 31.78125 6.390625 
Q 39.453125 6.390625 43.28125 13.890625 
Q 47.125 21.390625 47.125 36.375 
Q 47.125 51.421875 43.28125 58.90625 
Q 39.453125 66.40625 31.78125 66.40625 
z
M 31.78125 74.21875 
Q 44.046875 74.21875 50.515625 64.515625 
Q 56.984375 54.828125 56.984375 36.375 
Q 56.984375 17.96875 50.515625 8.265625 
Q 44.046875 -1.421875 31.78125 -1.421875 
Q 19.53125 -1.421875 13.0625 8.265625 
Q 6.59375 17.96875 6.59375 36.375 
Q 6.59375 54.828125 13.0625 64.515625 
Q 19.53125 74.21875 31.78125 74.21875 
z
" id="DejaVuSans-48"/>
       </defs>
       <use xlink:href="#DejaVuSans-8722"/>
       <use x="83.789062" xlink:href="#DejaVuSans-49"/>
       <use x="147.412109" xlink:href="#DejaVuSans-48"/>
      </g>
     </g>
    </g>
    <g id="xtick_2">
     <g id="line2d_3">
      <path clip-path="url(#p27d6349e42)" d="M 95.883949 143.1 
L 95.883949 7.2 
" style="fill:none;stroke:#b0b0b0;stroke-linecap:square;stroke-width:0.8;"/>
     </g>
     <g id="line2d_4">
      <g>
       <use style="stroke:#000000;stroke-width:0.8;" x="95.883949" xlink:href="#mfb2f4bdad4" y="143.1"/>
      </g>
     </g>
     <g id="text_2">
      <!-- −5 -->
      <g transform="translate(88.512855 157.698438)scale(0.1 -0.1)">
       <defs>
        <path d="M 10.796875 72.90625 
L 49.515625 72.90625 
L 49.515625 64.59375 
L 19.828125 64.59375 
L 19.828125 46.734375 
Q 21.96875 47.46875 24.109375 47.828125 
Q 26.265625 48.1875 28.421875 48.1875 
Q 40.625 48.1875 47.75 41.5 
Q 54.890625 34.8125 54.890625 23.390625 
Q 54.890625 11.625 47.5625 5.09375 
Q 40.234375 -1.421875 26.90625 -1.421875 
Q 22.3125 -1.421875 17.546875 -0.640625 
Q 12.796875 0.140625 7.71875 1.703125 
L 7.71875 11.625 
Q 12.109375 9.234375 16.796875 8.0625 
Q 21.484375 6.890625 26.703125 6.890625 
Q 35.15625 6.890625 40.078125 11.328125 
Q 45.015625 15.765625 45.015625 23.390625 
Q 45.015625 31 40.078125 35.4375 
Q 35.15625 39.890625 26.703125 39.890625 
Q 22.75 39.890625 18.8125 39.015625 
Q 14.890625 38.140625 10.796875 36.28125 
z
" id="DejaVuSans-53"/>
       </defs>
       <use xlink:href="#DejaVuSans-8722"/>
       <use x="83.789062" xlink:href="#DejaVuSans-53"/>
      </g>
     </g>
    </g>
    <g id="xtick_3">
     <g id="line2d_5">
      <path clip-path="url(#p27d6349e42)" d="M 140.270312 143.1 
L 140.270312 7.2 
" style="fill:none;stroke:#b0b0b0;stroke-linecap:square;stroke-width:0.8;"/>
     </g>
     <g id="line2d_6">
      <g>
       <use style="stroke:#000000;stroke-width:0.8;" x="140.270312" xlink:href="#mfb2f4bdad4" y="143.1"/>
      </g>
     </g>
     <g id="text_3">
      <!-- 0 -->
      <g transform="translate(137.089062 157.698438)scale(0.1 -0.1)">
       <use xlink:href="#DejaVuSans-48"/>
      </g>
     </g>
    </g>
    <g id="xtick_4">
     <g id="line2d_7">
      <path clip-path="url(#p27d6349e42)" d="M 184.656676 143.1 
L 184.656676 7.2 
" style="fill:none;stroke:#b0b0b0;stroke-linecap:square;stroke-width:0.8;"/>
     </g>
     <g id="line2d_8">
      <g>
       <use style="stroke:#000000;stroke-width:0.8;" x="184.656676" xlink:href="#mfb2f4bdad4" y="143.1"/>
      </g>
     </g>
     <g id="text_4">
      <!-- 5 -->
      <g transform="translate(181.475426 157.698438)scale(0.1 -0.1)">
       <use xlink:href="#DejaVuSans-53"/>
      </g>
     </g>
    </g>
    <g id="xtick_5">
     <g id="line2d_9">
      <path clip-path="url(#p27d6349e42)" d="M 229.04304 143.1 
L 229.04304 7.2 
" style="fill:none;stroke:#b0b0b0;stroke-linecap:square;stroke-width:0.8;"/>
     </g>
     <g id="line2d_10">
      <g>
       <use style="stroke:#000000;stroke-width:0.8;" x="229.04304" xlink:href="#mfb2f4bdad4" y="143.1"/>
      </g>
     </g>
     <g id="text_5">
      <!-- 10 -->
      <g transform="translate(222.68054 157.698438)scale(0.1 -0.1)">
       <use xlink:href="#DejaVuSans-49"/>
       <use x="63.623047" xlink:href="#DejaVuSans-48"/>
      </g>
     </g>
    </g>
    <g id="text_6">
     <!-- x -->
     <g transform="translate(137.310937 171.376563)scale(0.1 -0.1)">
      <defs>
       <path d="M 54.890625 54.6875 
L 35.109375 28.078125 
L 55.90625 0 
L 45.3125 0 
L 29.390625 21.484375 
L 13.484375 0 
L 2.875 0 
L 24.125 28.609375 
L 4.6875 54.6875 
L 15.28125 54.6875 
L 29.78125 35.203125 
L 44.28125 54.6875 
z
" id="DejaVuSans-120"/>
      </defs>
      <use xlink:href="#DejaVuSans-120"/>
     </g>
    </g>
   </g>
   <g id="matplotlib.axis_2">
    <g id="ytick_1">
     <g id="line2d_11">
      <path clip-path="url(#p27d6349e42)" d="M 42.620312 119.411597 
L 237.920313 119.411597 
" style="fill:none;stroke:#b0b0b0;stroke-linecap:square;stroke-width:0.8;"/>
     </g>
     <g id="line2d_12">
      <defs>
       <path d="M 0 0 
L -3.5 0 
" id="meff409bfb1" style="stroke:#000000;stroke-width:0.8;"/>
      </defs>
      <g>
       <use style="stroke:#000000;stroke-width:0.8;" x="42.620312" xlink:href="#meff409bfb1" y="119.411597"/>
      </g>
     </g>
     <g id="text_7">
      <!-- −5 -->
      <g transform="translate(20.878125 123.210816)scale(0.1 -0.1)">
       <use xlink:href="#DejaVuSans-8722"/>
       <use x="83.789062" xlink:href="#DejaVuSans-53"/>
      </g>
     </g>
    </g>
    <g id="ytick_2">
     <g id="line2d_13">
      <path clip-path="url(#p27d6349e42)" d="M 42.620312 75.15 
L 237.920313 75.15 
" style="fill:none;stroke:#b0b0b0;stroke-linecap:square;stroke-width:0.8;"/>
     </g>
     <g id="line2d_14">
      <g>
       <use style="stroke:#000000;stroke-width:0.8;" x="42.620312" xlink:href="#meff409bfb1" y="75.15"/>
      </g>
     </g>
     <g id="text_8">
      <!-- 0 -->
      <g transform="translate(29.257812 78.949219)scale(0.1 -0.1)">
       <use xlink:href="#DejaVuSans-48"/>
      </g>
     </g>
    </g>
    <g id="ytick_3">
     <g id="line2d_15">
      <path clip-path="url(#p27d6349e42)" d="M 42.620312 30.888403 
L 237.920313 30.888403 
" style="fill:none;stroke:#b0b0b0;stroke-linecap:square;stroke-width:0.8;"/>
     </g>
     <g id="line2d_16">
      <g>
       <use style="stroke:#000000;stroke-width:0.8;" x="42.620312" xlink:href="#meff409bfb1" y="30.888403"/>
      </g>
     </g>
     <g id="text_9">
      <!-- 5 -->
      <g transform="translate(29.257812 34.687622)scale(0.1 -0.1)">
       <use xlink:href="#DejaVuSans-53"/>
      </g>
     </g>
    </g>
    <g id="text_10">
     <!-- f(x) -->
     <g transform="translate(14.798437 83.771094)rotate(-90)scale(0.1 -0.1)">
      <defs>
       <path d="M 37.109375 75.984375 
L 37.109375 68.5 
L 28.515625 68.5 
Q 23.6875 68.5 21.796875 66.546875 
Q 19.921875 64.59375 19.921875 59.515625 
L 19.921875 54.6875 
L 34.71875 54.6875 
L 34.71875 47.703125 
L 19.921875 47.703125 
L 19.921875 0 
L 10.890625 0 
L 10.890625 47.703125 
L 2.296875 47.703125 
L 2.296875 54.6875 
L 10.890625 54.6875 
L 10.890625 58.5 
Q 10.890625 67.625 15.140625 71.796875 
Q 19.390625 75.984375 28.609375 75.984375 
z
" id="DejaVuSans-102"/>
       <path d="M 31 75.875 
Q 24.46875 64.65625 21.28125 53.65625 
Q 18.109375 42.671875 18.109375 31.390625 
Q 18.109375 20.125 21.3125 9.0625 
Q 24.515625 -2 31 -13.1875 
L 23.1875 -13.1875 
Q 15.875 -1.703125 12.234375 9.375 
Q 8.59375 20.453125 8.59375 31.390625 
Q 8.59375 42.28125 12.203125 53.3125 
Q 15.828125 64.359375 23.1875 75.875 
z
" id="DejaVuSans-40"/>
       <path d="M 8.015625 75.875 
L 15.828125 75.875 
Q 23.140625 64.359375 26.78125 53.3125 
Q 30.421875 42.28125 30.421875 31.390625 
Q 30.421875 20.453125 26.78125 9.375 
Q 23.140625 -1.703125 15.828125 -13.1875 
L 8.015625 -13.1875 
Q 14.5 -2 17.703125 9.0625 
Q 20.90625 20.125 20.90625 31.390625 
Q 20.90625 42.671875 17.703125 53.65625 
Q 14.5 64.65625 8.015625 75.875 
z
" id="DejaVuSans-41"/>
      </defs>
      <use xlink:href="#DejaVuSans-102"/>
      <use x="35.205078" xlink:href="#DejaVuSans-40"/>
      <use x="74.21875" xlink:href="#DejaVuSans-120"/>
      <use x="133.398438" xlink:href="#DejaVuSans-41"/>
     </g>
    </g>
   </g>
   <g id="line2d_17">
    <path clip-path="url(#p27d6349e42)" d="M 51.497585 75.150001 
L 54.515859 61.507494 
L 57.090268 50.885046 
L 59.309586 42.62211 
L 61.351355 35.837137 
L 63.215583 30.377167 
L 64.991044 25.861634 
L 66.588947 22.386217 
L 68.098084 19.624675 
L 69.518446 17.490897 
L 70.850042 15.899769 
L 72.092855 14.769325 
L 73.246902 14.022225 
L 74.312173 13.586851 
L 75.377449 13.390552 
L 76.442721 13.427546 
L 77.507993 13.691167 
L 78.662039 14.22383 
L 79.816082 15.003166 
L 81.058903 16.105105 
L 82.479265 17.678378 
L 83.988402 19.689963 
L 85.675084 22.313909 
L 87.628083 25.787152 
L 89.847401 30.206596 
L 92.599359 36.214766 
L 96.59413 45.535707 
L 102.719449 59.794341 
L 105.648948 66.04003 
L 108.134582 70.834182 
L 110.3539 74.634554 
L 112.306903 77.556075 
L 114.17113 79.946414 
L 115.857812 81.757911 
L 117.45572 83.158273 
L 118.964857 84.195921 
L 120.385219 84.920387 
L 121.805582 85.403652 
L 123.225948 85.651422 
L 124.64631 85.671741 
L 126.066673 85.474902 
L 127.57581 85.041747 
L 129.173722 84.350543 
L 130.949174 83.330132 
L 132.902177 81.942544 
L 135.210261 80.014893 
L 138.228535 77.174091 
L 146.040536 69.663821 
L 148.348629 67.823794 
L 150.301632 66.531905 
L 152.077085 65.614112 
L 153.674988 65.026675 
L 155.184125 64.700263 
L 156.604496 64.61058 
L 158.024858 64.743475 
L 159.44522 65.108131 
L 160.865583 65.711432 
L 162.285945 66.557878 
L 163.795082 67.725877 
L 165.392994 69.263456 
L 167.079672 71.216917 
L 168.855125 73.628375 
L 170.808127 76.680035 
L 172.93867 80.448145 
L 175.335538 85.168803 
L 178.087488 91.099228 
L 181.815943 99.711369 
L 189.272854 117.052863 
L 191.936037 122.623908 
L 194.155355 126.7735 
L 196.019574 129.822225 
L 197.706261 132.178709 
L 199.215398 133.924752 
L 200.63576 135.226983 
L 201.87859 136.076174 
L 203.032628 136.608833 
L 204.097908 136.872458 
L 205.163171 136.909443 
L 206.228452 136.713149 
L 207.293715 136.277779 
L 208.358995 135.598428 
L 209.513033 134.582592 
L 210.667088 133.272041 
L 211.909901 131.528413 
L 213.241488 129.276689 
L 214.661851 126.438774 
L 216.259762 122.713851 
L 217.946449 118.183227 
L 219.721893 112.772054 
L 221.674904 106.096761 
L 223.805448 98.012828 
L 226.202315 88.022895 
L 228.954265 75.566753 
L 228.954265 75.566753 
" style="fill:none;stroke:#1f77b4;stroke-linecap:square;stroke-width:1.5;"/>
   </g>
   <g id="line2d_18">
    <path clip-path="url(#p27d6349e42)" d="M 229.04304 75.149999 
L 206.849858 136.488573 
L 205.848192 136.810378 
L 205.331865 136.89407 
L 205.069008 136.915488 
L 204.936286 136.920908 
L 204.869587 136.922271 
L 204.83615 136.922613 
L 204.819408 136.922702 
L 204.811031 136.922723 
L 204.806841 136.922727 
" style="fill:none;stroke:#ff7f0e;stroke-linecap:square;stroke-width:1.5;"/>
    <defs>
     <path d="M 0 3 
C 0.795609 3 1.55874 2.683901 2.12132 2.12132 
C 2.683901 1.55874 3 0.795609 3 0 
C 3 -0.795609 2.683901 -1.55874 2.12132 -2.12132 
C 1.55874 -2.683901 0.795609 -3 0 -3 
C -0.795609 -3 -1.55874 -2.683901 -2.12132 -2.12132 
C -2.683901 -1.55874 -3 -0.795609 -3 0 
C -3 0.795609 -2.683901 1.55874 -2.12132 2.12132 
C -1.55874 2.683901 -0.795609 3 0 3 
z
" id="mec4162203d" style="stroke:#ff7f0e;"/>
    </defs>
    <g clip-path="url(#p27d6349e42)">
     <use style="fill:#ff7f0e;stroke:#ff7f0e;" x="229.04304" xlink:href="#mec4162203d" y="75.149999"/>
     <use style="fill:#ff7f0e;stroke:#ff7f0e;" x="206.849858" xlink:href="#mec4162203d" y="136.488573"/>
     <use style="fill:#ff7f0e;stroke:#ff7f0e;" x="205.848192" xlink:href="#mec4162203d" y="136.810378"/>
     <use style="fill:#ff7f0e;stroke:#ff7f0e;" x="205.331865" xlink:href="#mec4162203d" y="136.89407"/>
     <use style="fill:#ff7f0e;stroke:#ff7f0e;" x="205.069008" xlink:href="#mec4162203d" y="136.915488"/>
     <use style="fill:#ff7f0e;stroke:#ff7f0e;" x="204.936286" xlink:href="#mec4162203d" y="136.920908"/>
     <use style="fill:#ff7f0e;stroke:#ff7f0e;" x="204.869587" xlink:href="#mec4162203d" y="136.922271"/>
     <use style="fill:#ff7f0e;stroke:#ff7f0e;" x="204.83615" xlink:href="#mec4162203d" y="136.922613"/>
     <use style="fill:#ff7f0e;stroke:#ff7f0e;" x="204.819408" xlink:href="#mec4162203d" y="136.922702"/>
     <use style="fill:#ff7f0e;stroke:#ff7f0e;" x="204.811031" xlink:href="#mec4162203d" y="136.922723"/>
     <use style="fill:#ff7f0e;stroke:#ff7f0e;" x="204.806841" xlink:href="#mec4162203d" y="136.922727"/>
    </g>
   </g>
   <g id="patch_3">
    <path d="M 42.620312 143.1 
L 42.620312 7.2 
" style="fill:none;stroke:#000000;stroke-linecap:square;stroke-linejoin:miter;stroke-width:0.8;"/>
   </g>
   <g id="patch_4">
    <path d="M 237.920313 143.1 
L 237.920313 7.2 
" style="fill:none;stroke:#000000;stroke-linecap:square;stroke-linejoin:miter;stroke-width:0.8;"/>
   </g>
   <g id="patch_5">
    <path d="M 42.620312 143.1 
L 237.920313 143.1 
" style="fill:none;stroke:#000000;stroke-linecap:square;stroke-linejoin:miter;stroke-width:0.8;"/>
   </g>
   <g id="patch_6">
    <path d="M 42.620312 7.2 
L 237.920313 7.2 
" style="fill:none;stroke:#000000;stroke-linecap:square;stroke-linejoin:miter;stroke-width:0.8;"/>
   </g>
  </g>
 </g>
 <defs>
  <clipPath id="p27d6349e42">
   <rect height="135.9" width="195.3" x="42.620312" y="7.2"/>
  </clipPath>
 </defs>
</svg>
