<?xml version="1.0" encoding="utf-8" standalone="no"?>
<!DOCTYPE svg PUBLIC "-//W3C//DTD SVG 1.1//EN"
  "http://www.w3.org/Graphics/SVG/1.1/DTD/svg11.dtd">
<!-- Created with matplotlib (https://matplotlib.org/) -->
<svg height="180.65625pt" version="1.1" viewBox="0 0 264.207812 180.65625" width="264.207812pt" xmlns="http://www.w3.org/2000/svg" xmlns:xlink="http://www.w3.org/1999/xlink">
 <metadata>
  <rdf:RDF xmlns:cc="http://creativecommons.org/ns#" xmlns:dc="http://purl.org/dc/elements/1.1/" xmlns:rdf="http://www.w3.org/1999/02/22-rdf-syntax-ns#">
   <cc:Work>
    <dc:type rdf:resource="http://purl.org/dc/dcmitype/StillImage"/>
    <dc:date>2020-08-13T04:00:29.501512</dc:date>
    <dc:format>image/svg+xml</dc:format>
    <dc:creator>
     <cc:Agent>
      <dc:title>Matplotlib v3.3.0, https://matplotlib.org/</dc:title>
     </cc:Agent>
    </dc:creator>
   </cc:Work>
  </rdf:RDF>
 </metadata>
 <defs>
  <style type="text/css">*{stroke-linecap:butt;stroke-linejoin:round;}</style>
 </defs>
 <g id="figure_1">
  <g id="patch_1">
   <path d="M 0 180.65625 
L 264.207812 180.65625 
L 264.207812 0 
L 0 0 
z
" style="fill:none;"/>
  </g>
  <g id="axes_1">
   <g id="patch_2">
    <path d="M 61.707813 143.1 
L 257.007812 143.1 
L 257.007812 7.2 
L 61.707813 7.2 
z
" style="fill:#ffffff;"/>
   </g>
   <g id="matplotlib.axis_1">
    <g id="xtick_1">
     <g id="line2d_1">
      <defs>
       <path d="M 0 0 
L 0 3.5 
" id="m943df09373" style="stroke:#000000;stroke-width:0.8;"/>
      </defs>
      <g>
       <use style="stroke:#000000;stroke-width:0.8;" x="107.481249" xlink:href="#m943df09373" y="143.1"/>
      </g>
     </g>
     <g id="text_1">
      <!-- −4 -->
      <g transform="translate(100.110156 157.698438)scale(0.1 -0.1)">
       <defs>
        <path d="M 10.59375 35.5 
L 73.1875 35.5 
L 73.1875 27.203125 
L 10.59375 27.203125 
z
" id="DejaVuSans-8722"/>
        <path d="M 37.796875 64.3125 
L 12.890625 25.390625 
L 37.796875 25.390625 
z
M 35.203125 72.90625 
L 47.609375 72.90625 
L 47.609375 25.390625 
L 58.015625 25.390625 
L 58.015625 17.1875 
L 47.609375 17.1875 
L 47.609375 0 
L 37.796875 0 
L 37.796875 17.1875 
L 4.890625 17.1875 
L 4.890625 26.703125 
z
" id="DejaVuSans-52"/>
       </defs>
       <use xlink:href="#DejaVuSans-8722"/>
       <use x="83.789062" xlink:href="#DejaVuSans-52"/>
      </g>
     </g>
    </g>
    <g id="xtick_2">
     <g id="line2d_2">
      <g>
       <use style="stroke:#000000;stroke-width:0.8;" x="168.512498" xlink:href="#m943df09373" y="143.1"/>
      </g>
     </g>
     <g id="text_2">
      <!-- −2 -->
      <g transform="translate(161.141405 157.698438)scale(0.1 -0.1)">
       <defs>
        <path d="M 19.1875 8.296875 
L 53.609375 8.296875 
L 53.609375 0 
L 7.328125 0 
L 7.328125 8.296875 
Q 12.9375 14.109375 22.625 23.890625 
Q 32.328125 33.6875 34.8125 36.53125 
Q 39.546875 41.84375 41.421875 45.53125 
Q 43.3125 49.21875 43.3125 52.78125 
Q 43.3125 58.59375 39.234375 62.25 
Q 35.15625 65.921875 28.609375 65.921875 
Q 23.96875 65.921875 18.8125 64.3125 
Q 13.671875 62.703125 7.8125 59.421875 
L 7.8125 69.390625 
Q 13.765625 71.78125 18.9375 73 
Q 24.125 74.21875 28.421875 74.21875 
Q 39.75 74.21875 46.484375 68.546875 
Q 53.21875 62.890625 53.21875 53.421875 
Q 53.21875 48.921875 51.53125 44.890625 
Q 49.859375 40.875 45.40625 35.40625 
Q 44.1875 33.984375 37.640625 27.21875 
Q 31.109375 20.453125 19.1875 8.296875 
z
" id="DejaVuSans-50"/>
       </defs>
       <use xlink:href="#DejaVuSans-8722"/>
       <use x="83.789062" xlink:href="#DejaVuSans-50"/>
      </g>
     </g>
    </g>
    <g id="xtick_3">
     <g id="line2d_3">
      <g>
       <use style="stroke:#000000;stroke-width:0.8;" x="229.543747" xlink:href="#m943df09373" y="143.1"/>
      </g>
     </g>
     <g id="text_3">
      <!-- 0 -->
      <g transform="translate(226.362497 157.698438)scale(0.1 -0.1)">
       <defs>
        <path d="M 31.78125 66.40625 
Q 24.171875 66.40625 20.328125 58.90625 
Q 16.5 51.421875 16.5 36.375 
Q 16.5 21.390625 20.328125 13.890625 
Q 24.171875 6.390625 31.78125 6.390625 
Q 39.453125 6.390625 43.28125 13.890625 
Q 47.125 21.390625 47.125 36.375 
Q 47.125 51.421875 43.28125 58.90625 
Q 39.453125 66.40625 31.78125 66.40625 
z
M 31.78125 74.21875 
Q 44.046875 74.21875 50.515625 64.515625 
Q 56.984375 54.828125 56.984375 36.375 
Q 56.984375 17.96875 50.515625 8.265625 
Q 44.046875 -1.421875 31.78125 -1.421875 
Q 19.53125 -1.421875 13.0625 8.265625 
Q 6.59375 17.96875 6.59375 36.375 
Q 6.59375 54.828125 13.0625 64.515625 
Q 19.53125 74.21875 31.78125 74.21875 
z
" id="DejaVuSans-48"/>
       </defs>
       <use xlink:href="#DejaVuSans-48"/>
      </g>
     </g>
    </g>
    <g id="text_4">
     <!-- x1 -->
     <g transform="translate(153.217188 171.376563)scale(0.1 -0.1)">
      <defs>
       <path d="M 54.890625 54.6875 
L 35.109375 28.078125 
L 55.90625 0 
L 45.3125 0 
L 29.390625 21.484375 
L 13.484375 0 
L 2.875 0 
L 24.125 28.609375 
L 4.6875 54.6875 
L 15.28125 54.6875 
L 29.78125 35.203125 
L 44.28125 54.6875 
z
" id="DejaVuSans-120"/>
       <path d="M 12.40625 8.296875 
L 28.515625 8.296875 
L 28.515625 63.921875 
L 10.984375 60.40625 
L 10.984375 69.390625 
L 28.421875 72.90625 
L 38.28125 72.90625 
L 38.28125 8.296875 
L 54.390625 8.296875 
L 54.390625 0 
L 12.40625 0 
z
" id="DejaVuSans-49"/>
      </defs>
      <use xlink:href="#DejaVuSans-120"/>
      <use x="59.179688" xlink:href="#DejaVuSans-49"/>
     </g>
    </g>
   </g>
   <g id="matplotlib.axis_2">
    <g id="ytick_1">
     <g id="line2d_4">
      <defs>
       <path d="M 0 0 
L -3.5 0 
" id="m59e31b761f" style="stroke:#000000;stroke-width:0.8;"/>
      </defs>
      <g>
       <use style="stroke:#000000;stroke-width:0.8;" x="61.707813" xlink:href="#m59e31b761f" y="107.922362"/>
      </g>
     </g>
     <g id="text_5">
      <!-- −1000 -->
      <g transform="translate(20.878125 111.721581)scale(0.1 -0.1)">
       <use xlink:href="#DejaVuSans-8722"/>
       <use x="83.789062" xlink:href="#DejaVuSans-49"/>
       <use x="147.412109" xlink:href="#DejaVuSans-48"/>
       <use x="211.035156" xlink:href="#DejaVuSans-48"/>
       <use x="274.658203" xlink:href="#DejaVuSans-48"/>
      </g>
     </g>
    </g>
    <g id="ytick_2">
     <g id="line2d_5">
      <g>
       <use style="stroke:#000000;stroke-width:0.8;" x="61.707813" xlink:href="#m59e31b761f" y="64.854545"/>
      </g>
     </g>
     <g id="text_6">
      <!-- 0 -->
      <g transform="translate(48.345313 68.653764)scale(0.1 -0.1)">
       <use xlink:href="#DejaVuSans-48"/>
      </g>
     </g>
    </g>
    <g id="ytick_3">
     <g id="line2d_6">
      <g>
       <use style="stroke:#000000;stroke-width:0.8;" x="61.707813" xlink:href="#m59e31b761f" y="21.786729"/>
      </g>
     </g>
     <g id="text_7">
      <!-- 1000 -->
      <g transform="translate(29.257812 25.585947)scale(0.1 -0.1)">
       <use xlink:href="#DejaVuSans-49"/>
       <use x="63.623047" xlink:href="#DejaVuSans-48"/>
       <use x="127.246094" xlink:href="#DejaVuSans-48"/>
       <use x="190.869141" xlink:href="#DejaVuSans-48"/>
      </g>
     </g>
    </g>
    <g id="text_8">
     <!-- x2 -->
     <g transform="translate(14.798438 81.290625)rotate(-90)scale(0.1 -0.1)">
      <use xlink:href="#DejaVuSans-120"/>
      <use x="59.179688" xlink:href="#DejaVuSans-50"/>
     </g>
    </g>
   </g>
   <g id="LineCollection_1">
    <path clip-path="url(#pc7339b38d0)" d="M 229.543747 64.854545 
" style="fill:none;stroke:#1f77b4;stroke-width:1.5;"/>
   </g>
   <g id="LineCollection_2">
    <path clip-path="url(#pc7339b38d0)" d="M 257.007812 64.906563 
L 253.956253 64.906709 
L 250.904693 64.906838 
L 247.853119 64.90695 
L 244.80156 64.907045 
L 241.75 64.907123 
L 238.698441 64.907183 
L 235.646881 64.907226 
L 232.595307 64.907252 
L 229.543747 64.90726 
L 226.492188 64.907252 
L 223.440628 64.907226 
L 220.389069 64.907183 
L 217.337495 64.907123 
L 214.285935 64.907045 
L 211.234376 64.90695 
L 208.182816 64.906838 
L 205.131257 64.906709 
L 202.079682 64.906563 
L 199.028123 64.906399 
L 196.12183 64.906227 
L 195.976563 64.906217 
L 192.925004 64.906002 
L 189.873444 64.905768 
L 186.82187 64.905515 
L 183.770311 64.905244 
L 180.718751 64.904954 
L 177.667184 64.904645 
L 174.615625 64.904317 
L 171.564065 64.90397 
L 168.512498 64.903605 
L 165.460939 64.903221 
L 162.409372 64.902819 
L 159.357813 64.902398 
L 156.306253 64.901958 
L 156.057149 64.90192 
L 153.254686 64.901459 
L 150.203127 64.900936 
L 147.15156 64.900392 
L 144.1 64.899828 
L 141.048441 64.899244 
L 137.996874 64.898639 
L 134.945314 64.898013 
L 133.056254 64.897613 
L 131.893747 64.897341 
L 128.842188 64.896605 
L 125.790628 64.895845 
L 122.739062 64.895063 
L 119.687502 64.894259 
L 116.635943 64.893431 
L 116.188355 64.893306 
L 113.584376 64.892496 
L 110.532809 64.89152 
L 107.481249 64.89052 
L 104.42969 64.889494 
L 102.995818 64.889 
L 101.37813 64.888368 
L 98.326556 64.887148 
L 95.274997 64.885899 
L 92.394877 64.884693 
L 92.223437 64.88461 
L 89.171878 64.883103 
L 86.120318 64.881562 
L 83.839663 64.880386 
L 83.068744 64.879916 
L 80.017184 64.878017 
L 76.965625 64.876079 
L 73.914065 64.873663 
L 71.573533 64.871773 
L 70.862506 64.871034 
L 67.810932 64.867804 
L 67.497229 64.867466 
L 64.759372 64.863331 
L 64.64739 64.863159 
L 62.967633 64.858852 
L 62.407714 64.854545 
L 62.967633 64.850239 
L 64.64739 64.845932 
L 64.759372 64.84576 
L 67.497229 64.841625 
L 67.810932 64.841287 
L 70.862506 64.838057 
L 71.573547 64.837318 
L 73.914065 64.835428 
L 76.965625 64.833012 
L 80.017184 64.831073 
L 83.068744 64.829175 
L 83.839679 64.828705 
L 86.120318 64.827529 
L 89.171878 64.825988 
L 92.223437 64.824481 
L 92.394877 64.824398 
L 95.274997 64.823192 
L 98.326556 64.821943 
L 101.37813 64.820723 
L 102.995818 64.820091 
L 104.42969 64.819597 
L 107.481249 64.818571 
L 110.532809 64.81757 
L 113.584376 64.816595 
L 116.188393 64.815784 
" style="fill:none;stroke:#1f77b4;stroke-width:1.5;"/>
   </g>
   <g id="LineCollection_3">
    <path clip-path="url(#pc7339b38d0)" d="M 257.007812 64.928616 
L 253.956253 64.928721 
L 250.904693 64.928813 
L 247.853119 64.928893 
L 244.80156 64.92896 
L 241.75 64.929016 
L 238.698441 64.929059 
L 235.646881 64.92909 
L 232.595307 64.929108 
L 229.543747 64.929114 
L 226.492188 64.929108 
L 223.440628 64.92909 
L 220.389069 64.929059 
L 217.337495 64.929016 
L 214.285935 64.92896 
L 211.234376 64.928893 
L 208.182816 64.928813 
L 205.131257 64.928721 
L 202.079682 64.928616 
L 199.028123 64.928499 
L 195.976563 64.92837 
L 192.925004 64.928228 
L 189.873444 64.928075 
L 186.82187 64.927908 
L 184.296407 64.927761 
L 183.770311 64.927728 
L 180.718751 64.927526 
L 177.667184 64.92731 
L 174.615625 64.927082 
L 171.564065 64.926841 
L 168.512498 64.926586 
L 165.460939 64.926319 
L 162.409372 64.926038 
L 159.357813 64.925744 
L 156.306253 64.925438 
L 153.254686 64.925118 
L 150.203127 64.924785 
L 147.15156 64.924439 
L 144.1 64.92408 
L 141.048441 64.923708 
L 139.031327 64.923454 
L 137.996874 64.923315 
L 134.945314 64.922891 
L 131.893747 64.922454 
L 128.842188 64.922002 
L 125.790628 64.921537 
L 122.739062 64.921057 
L 119.687502 64.920564 
L 116.635943 64.920057 
L 113.584376 64.919536 
L 111.365054 64.919147 
L 110.532809 64.918991 
L 107.481249 64.918405 
L 104.42969 64.917803 
L 101.37813 64.917187 
L 98.326556 64.916556 
L 95.274997 64.91591 
L 92.223437 64.915249 
L 90.379079 64.91484 
L 89.171878 64.914553 
L 86.120318 64.913812 
L 83.068744 64.913054 
L 80.017184 64.91228 
L 76.965625 64.911491 
L 73.914065 64.910685 
L 73.351141 64.910534 
L 70.862506 64.90981 
L 67.810932 64.908906 
L 64.759372 64.907984 
L 61.707813 64.907045 
" style="fill:none;stroke:#1f77b4;stroke-width:1.5;"/>
   </g>
   <g id="LineCollection_4">
    <path clip-path="url(#pc7339b38d0)" d="M 257.007812 64.945484 
L 253.956253 64.945569 
L 250.904693 64.945644 
L 247.853119 64.945709 
L 244.80156 64.945764 
L 241.75 64.945809 
L 238.698441 64.945844 
L 235.646881 64.945869 
L 232.595307 64.945884 
L 229.543747 64.945889 
L 226.492188 64.945884 
L 223.440628 64.945869 
L 220.389069 64.945844 
L 217.337495 64.945809 
L 214.285935 64.945764 
L 211.234376 64.945709 
L 208.182816 64.945644 
L 205.131257 64.945569 
L 202.079682 64.945484 
L 199.028123 64.945389 
L 195.976563 64.945283 
L 192.925004 64.945168 
L 189.873444 64.945043 
L 188.630051 64.944988 
L 186.82187 64.944904 
L 183.770311 64.944752 
L 180.718751 64.944589 
L 177.667184 64.944415 
L 174.615625 64.944232 
L 171.564065 64.944037 
L 168.512498 64.943832 
L 165.460939 64.943617 
L 162.409372 64.943391 
L 159.357813 64.943155 
L 156.306253 64.942908 
L 153.254686 64.942651 
L 150.203127 64.942383 
L 147.15156 64.942104 
L 144.1 64.941816 
L 141.048441 64.941516 
L 137.996874 64.941206 
L 134.945314 64.940886 
L 133.056262 64.940681 
L 131.893747 64.940549 
L 128.842188 64.94019 
L 125.790628 64.93982 
L 122.739062 64.939439 
L 119.687502 64.939047 
L 116.635943 64.938644 
L 113.584376 64.93823 
L 110.532809 64.937804 
L 107.481249 64.937368 
L 104.42969 64.936921 
L 101.37813 64.936463 
L 100.803696 64.936374 
L 98.326556 64.935973 
L 95.274997 64.935466 
L 92.223437 64.934948 
L 89.171878 64.934419 
L 86.120318 64.933878 
L 83.068744 64.933325 
L 80.017184 64.93276 
L 76.965625 64.932184 
L 76.361341 64.932068 
L 73.914065 64.931569 
L 70.862506 64.930935 
L 67.810932 64.930289 
L 64.759372 64.929631 
L 61.707813 64.92896 
" style="fill:none;stroke:#1f77b4;stroke-width:1.5;"/>
   </g>
   <g id="LineCollection_5">
    <path clip-path="url(#pc7339b38d0)" d="M 257.007812 64.959662 
L 253.956253 64.959736 
L 250.904693 64.959802 
L 247.853119 64.959859 
L 244.80156 64.959908 
L 241.75 64.959947 
L 238.698441 64.959978 
L 235.646881 64.96 
L 232.595307 64.960013 
L 229.543747 64.960018 
L 226.492188 64.960013 
L 223.440628 64.96 
L 220.389069 64.959978 
L 217.337495 64.959947 
L 214.285935 64.959908 
L 211.234376 64.959859 
L 208.182816 64.959802 
L 205.131257 64.959736 
L 202.079682 64.959662 
L 199.028123 64.959578 
L 195.976563 64.959486 
L 192.925004 64.959385 
L 189.873444 64.959275 
L 186.82187 64.959156 
L 183.770311 64.959029 
L 180.718751 64.958893 
L 177.667184 64.958748 
L 174.615625 64.958594 
L 171.564065 64.958431 
L 168.512498 64.95826 
L 165.460939 64.95808 
L 162.693284 64.957908 
L 162.409372 64.95789 
L 159.357813 64.957684 
L 156.306253 64.957468 
L 153.254686 64.957244 
L 150.203127 64.95701 
L 147.15156 64.956767 
L 144.1 64.956515 
L 141.048441 64.956254 
L 137.996874 64.955984 
L 134.945314 64.955704 
L 131.893747 64.955416 
L 128.842188 64.955118 
L 125.790628 64.954811 
L 122.739062 64.954495 
L 119.687502 64.95417 
L 116.635943 64.953835 
L 114.560874 64.953601 
L 113.584376 64.953487 
L 110.532809 64.953118 
L 107.481249 64.95274 
L 104.42969 64.952352 
L 101.37813 64.951955 
L 98.326556 64.951549 
L 95.274997 64.951132 
L 92.223437 64.950706 
L 89.171878 64.950271 
L 86.120318 64.949826 
L 83.068744 64.949371 
L 82.565401 64.949295 
L 80.017184 64.948889 
L 76.965625 64.948393 
L 73.914065 64.947887 
L 70.862506 64.947372 
L 67.810932 64.946846 
L 64.759372 64.94631 
L 61.707813 64.945764 
" style="fill:none;stroke:#1f77b4;stroke-width:1.5;"/>
   </g>
   <g id="LineCollection_6">
    <path clip-path="url(#pc7339b38d0)" d="M 257.007812 64.972156 
L 253.956253 64.972222 
L 250.904693 64.972281 
L 247.853119 64.972332 
L 244.80156 64.972375 
L 241.75 64.97241 
L 238.698441 64.972438 
L 235.646881 64.972457 
L 232.595307 64.972469 
L 229.543747 64.972473 
L 226.492188 64.972469 
L 223.440628 64.972457 
L 220.389069 64.972438 
L 217.337495 64.97241 
L 214.285935 64.972375 
L 211.234376 64.972332 
L 208.182816 64.972281 
L 205.131257 64.972222 
L 202.079682 64.972156 
L 199.028123 64.972081 
L 195.976563 64.971999 
L 192.925004 64.971909 
L 189.873444 64.971811 
L 186.82187 64.971706 
L 183.770311 64.971592 
L 180.718751 64.971471 
L 177.667184 64.971341 
L 174.615625 64.971204 
L 171.564065 64.97106 
L 168.512498 64.970907 
L 167.023983 64.970829 
L 165.460939 64.970743 
L 162.409372 64.970569 
L 159.357813 64.970386 
L 156.306253 64.970195 
L 153.254686 64.969996 
L 150.203127 64.969788 
L 147.15156 64.969573 
L 144.1 64.96935 
L 141.048441 64.969118 
L 137.996874 64.968878 
L 134.945314 64.96863 
L 131.893747 64.968375 
L 128.842188 64.96811 
L 125.790628 64.967838 
L 122.739062 64.967558 
L 119.687502 64.967269 
L 116.635943 64.966973 
L 113.584376 64.966668 
L 112.157615 64.966522 
L 110.532809 64.966349 
L 107.481249 64.966015 
L 104.42969 64.965673 
L 101.37813 64.965323 
L 98.326556 64.964964 
L 95.274997 64.964596 
L 92.223437 64.964221 
L 89.171878 64.963836 
L 86.120318 64.963444 
L 83.068744 64.963043 
L 80.017184 64.962633 
L 76.965625 64.962215 
L 73.914065 64.961771 
L 70.862506 64.961318 
L 67.810932 64.960857 
L 64.759372 64.960387 
L 61.707813 64.959908 
" style="fill:none;stroke:#1f77b4;stroke-width:1.5;"/>
   </g>
   <g id="LineCollection_7">
    <path clip-path="url(#pc7339b38d0)" d="M 229.543747 64.983749 
L 226.492188 64.983745 
L 223.440628 64.983734 
L 220.389069 64.983716 
L 217.337495 64.983691 
L 214.285935 64.983658 
L 211.234376 64.983618 
L 208.182816 64.98357 
L 205.131257 64.983515 
L 202.079682 64.983453 
L 199.028123 64.983384 
L 195.976563 64.983307 
L 192.925004 64.983223 
L 189.873444 64.983132 
L 186.82187 64.983034 
L 183.770311 64.982928 
L 180.718751 64.982815 
L 177.667184 64.982694 
L 174.615625 64.982566 
L 171.564065 64.982431 
L 168.512498 64.982289 
L 165.460939 64.982139 
L 162.409372 64.981982 
L 159.357813 64.981818 
L 156.306253 64.981647 
L 153.254686 64.981468 
L 150.203127 64.981282 
L 147.15156 64.981088 
L 144.1 64.980887 
L 141.048441 64.980679 
L 137.996874 64.980464 
L 134.945314 64.980241 
L 131.893747 64.980011 
L 128.842188 64.979774 
L 125.790628 64.97953 
L 124.729295 64.979442 
L 122.739062 64.979272 
L 119.687502 64.979004 
L 116.635943 64.978728 
L 113.584376 64.978445 
L 110.532809 64.978154 
L 107.481249 64.977855 
L 104.42969 64.977549 
L 101.37813 64.977236 
L 98.326556 64.976915 
L 95.274997 64.976586 
L 92.223437 64.97625 
L 89.171878 64.975906 
L 86.120318 64.975555 
L 83.068744 64.975196 
L 82.565371 64.975135 
L 80.017184 64.974818 
L 76.965625 64.974431 
L 73.914065 64.974035 
L 70.862506 64.973632 
L 67.810932 64.973221 
L 64.759372 64.972802 
L 61.707813 64.972375 
" style="fill:none;stroke:#1f77b4;stroke-width:1.5;"/>
    <path clip-path="url(#pc7339b38d0)" d="M 257.007812 64.983453 
L 253.956253 64.983515 
L 250.904693 64.98357 
L 247.853119 64.983618 
L 244.80156 64.983658 
L 241.75 64.983691 
L 238.698441 64.983716 
L 235.646881 64.983734 
L 232.595307 64.983745 
L 229.543747 64.983749 
" style="fill:none;stroke:#1f77b4;stroke-width:1.5;"/>
   </g>
   <g id="LineCollection_8">
    <path clip-path="url(#pc7339b38d0)" d="M 62.407706 64.983749 
L 61.707813 64.983658 
" style="fill:none;stroke:#1f77b4;stroke-width:1.5;"/>
   </g>
   <g id="LineCollection_9"/>
   <g id="line2d_7">
    <path clip-path="url(#pc7339b38d0)" d="M 76.965625 64.940681 
L 95.274999 64.733956 
L 111.387249 65.023371 
L 125.566029 64.618189 
L 138.043355 65.185444 
L 149.023402 64.391287 
L 158.685844 65.503107 
L 167.188792 63.94656 
L 174.671387 66.125726 
L 181.25607 63.074893 
L 187.050591 67.346059 
L 192.14977 61.366427 
L 196.637047 69.737912 
L 200.585851 58.017833 
L 204.060799 74.425943 
L 207.118753 51.454589 
L 209.809752 83.614484 
L 212.177832 38.590631 
L 214.261741 101.624026 
L 216.095582 13.377273 
L 217.709362 136.922727 
" style="fill:none;stroke:#ff7f0e;stroke-linecap:square;stroke-width:1.5;"/>
    <defs>
     <path d="M 0 3 
C 0.795609 3 1.55874 2.683901 2.12132 2.12132 
C 2.683901 1.55874 3 0.795609 3 0 
C 3 -0.795609 2.683901 -1.55874 2.12132 -2.12132 
C 1.55874 -2.683901 0.795609 -3 0 -3 
C -0.795609 -3 -1.55874 -2.683901 -2.12132 -2.12132 
C -2.683901 -1.55874 -3 -0.795609 -3 0 
C -3 0.795609 -2.683901 1.55874 -2.12132 2.12132 
C -1.55874 2.683901 -0.795609 3 0 3 
z
" id="mb1817b2325" style="stroke:#ff7f0e;"/>
    </defs>
    <g clip-path="url(#pc7339b38d0)">
     <use style="fill:#ff7f0e;stroke:#ff7f0e;" x="76.965625" xlink:href="#mb1817b2325" y="64.940681"/>
     <use style="fill:#ff7f0e;stroke:#ff7f0e;" x="95.274999" xlink:href="#mb1817b2325" y="64.733956"/>
     <use style="fill:#ff7f0e;stroke:#ff7f0e;" x="111.387249" xlink:href="#mb1817b2325" y="65.023371"/>
     <use style="fill:#ff7f0e;stroke:#ff7f0e;" x="125.566029" xlink:href="#mb1817b2325" y="64.618189"/>
     <use style="fill:#ff7f0e;stroke:#ff7f0e;" x="138.043355" xlink:href="#mb1817b2325" y="65.185444"/>
     <use style="fill:#ff7f0e;stroke:#ff7f0e;" x="149.023402" xlink:href="#mb1817b2325" y="64.391287"/>
     <use style="fill:#ff7f0e;stroke:#ff7f0e;" x="158.685844" xlink:href="#mb1817b2325" y="65.503107"/>
     <use style="fill:#ff7f0e;stroke:#ff7f0e;" x="167.188792" xlink:href="#mb1817b2325" y="63.94656"/>
     <use style="fill:#ff7f0e;stroke:#ff7f0e;" x="174.671387" xlink:href="#mb1817b2325" y="66.125726"/>
     <use style="fill:#ff7f0e;stroke:#ff7f0e;" x="181.25607" xlink:href="#mb1817b2325" y="63.074893"/>
     <use style="fill:#ff7f0e;stroke:#ff7f0e;" x="187.050591" xlink:href="#mb1817b2325" y="67.346059"/>
     <use style="fill:#ff7f0e;stroke:#ff7f0e;" x="192.14977" xlink:href="#mb1817b2325" y="61.366427"/>
     <use style="fill:#ff7f0e;stroke:#ff7f0e;" x="196.637047" xlink:href="#mb1817b2325" y="69.737912"/>
     <use style="fill:#ff7f0e;stroke:#ff7f0e;" x="200.585851" xlink:href="#mb1817b2325" y="58.017833"/>
     <use style="fill:#ff7f0e;stroke:#ff7f0e;" x="204.060799" xlink:href="#mb1817b2325" y="74.425943"/>
     <use style="fill:#ff7f0e;stroke:#ff7f0e;" x="207.118753" xlink:href="#mb1817b2325" y="51.454589"/>
     <use style="fill:#ff7f0e;stroke:#ff7f0e;" x="209.809752" xlink:href="#mb1817b2325" y="83.614484"/>
     <use style="fill:#ff7f0e;stroke:#ff7f0e;" x="212.177832" xlink:href="#mb1817b2325" y="38.590631"/>
     <use style="fill:#ff7f0e;stroke:#ff7f0e;" x="214.261741" xlink:href="#mb1817b2325" y="101.624026"/>
     <use style="fill:#ff7f0e;stroke:#ff7f0e;" x="216.095582" xlink:href="#mb1817b2325" y="13.377273"/>
     <use style="fill:#ff7f0e;stroke:#ff7f0e;" x="217.709362" xlink:href="#mb1817b2325" y="136.922727"/>
    </g>
   </g>
   <g id="patch_3">
    <path d="M 61.707813 143.1 
L 61.707813 7.2 
" style="fill:none;stroke:#000000;stroke-linecap:square;stroke-linejoin:miter;stroke-width:0.8;"/>
   </g>
   <g id="patch_4">
    <path d="M 257.007812 143.1 
L 257.007812 7.2 
" style="fill:none;stroke:#000000;stroke-linecap:square;stroke-linejoin:miter;stroke-width:0.8;"/>
   </g>
   <g id="patch_5">
    <path d="M 61.707813 143.1 
L 257.007812 143.1 
" style="fill:none;stroke:#000000;stroke-linecap:square;stroke-linejoin:miter;stroke-width:0.8;"/>
   </g>
   <g id="patch_6">
    <path d="M 61.707813 7.2 
L 257.007812 7.2 
" style="fill:none;stroke:#000000;stroke-linecap:square;stroke-linejoin:miter;stroke-width:0.8;"/>
   </g>
  </g>
 </g>
 <defs>
  <clipPath id="pc7339b38d0">
   <rect height="135.9" width="195.3" x="61.707813" y="7.2"/>
  </clipPath>
 </defs>
</svg>
