<?xml version="1.0" encoding="utf-8" standalone="no"?>
<!DOCTYPE svg PUBLIC "-//W3C//DTD SVG 1.1//EN"
  "http://www.w3.org/Graphics/SVG/1.1/DTD/svg11.dtd">
<!-- Created with matplotlib (https://matplotlib.org/) -->
<svg height="182.505739pt" version="1.1" viewBox="0 0 238.965625 182.505739" width="238.965625pt" xmlns="http://www.w3.org/2000/svg" xmlns:xlink="http://www.w3.org/1999/xlink">
 <metadata>
  <rdf:RDF xmlns:cc="http://creativecommons.org/ns#" xmlns:dc="http://purl.org/dc/elements/1.1/" xmlns:rdf="http://www.w3.org/1999/02/22-rdf-syntax-ns#">
   <cc:Work>
    <dc:type rdf:resource="http://purl.org/dc/dcmitype/StillImage"/>
    <dc:date>2020-08-13T03:41:02.439939</dc:date>
    <dc:format>image/svg+xml</dc:format>
    <dc:creator>
     <cc:Agent>
      <dc:title>Matplotlib v3.3.0, https://matplotlib.org/</dc:title>
     </cc:Agent>
    </dc:creator>
   </cc:Work>
  </rdf:RDF>
 </metadata>
 <defs>
  <style type="text/css">*{stroke-linecap:butt;stroke-linejoin:round;}</style>
 </defs>
 <g id="figure_1">
  <g id="patch_1">
   <path d="M 0 182.505739 
L 238.965625 182.505739 
L 238.965625 0 
L 0 0 
z
" style="fill:none;"/>
  </g>
  <g id="axes_1">
   <g id="patch_2">
    <path d="M 30.103125 144.949489 
L 225.403125 144.949489 
L 225.403125 9.049489 
L 30.103125 9.049489 
z
" style="fill:#ffffff;"/>
   </g>
   <g id="matplotlib.axis_1">
    <g id="xtick_1">
     <g id="line2d_1">
      <path clip-path="url(#p9515fdc4c5)" d="M 30.103125 144.949489 
L 30.103125 9.049489 
" style="fill:none;stroke:#b0b0b0;stroke-linecap:square;stroke-width:0.8;"/>
     </g>
     <g id="line2d_2">
      <defs>
       <path d="M 0 0 
L 0 3.5 
" id="m69f8f6e6d9" style="stroke:#000000;stroke-width:0.8;"/>
      </defs>
      <g>
       <use style="stroke:#000000;stroke-width:0.8;" x="30.103125" xlink:href="#m69f8f6e6d9" y="144.949489"/>
      </g>
     </g>
     <g id="text_1">
      <!-- 0 -->
      <g transform="translate(26.921875 159.547926)scale(0.1 -0.1)">
       <defs>
        <path d="M 31.78125 66.40625 
Q 24.171875 66.40625 20.328125 58.90625 
Q 16.5 51.421875 16.5 36.375 
Q 16.5 21.390625 20.328125 13.890625 
Q 24.171875 6.390625 31.78125 6.390625 
Q 39.453125 6.390625 43.28125 13.890625 
Q 47.125 21.390625 47.125 36.375 
Q 47.125 51.421875 43.28125 58.90625 
Q 39.453125 66.40625 31.78125 66.40625 
z
M 31.78125 74.21875 
Q 44.046875 74.21875 50.515625 64.515625 
Q 56.984375 54.828125 56.984375 36.375 
Q 56.984375 17.96875 50.515625 8.265625 
Q 44.046875 -1.421875 31.78125 -1.421875 
Q 19.53125 -1.421875 13.0625 8.265625 
Q 6.59375 17.96875 6.59375 36.375 
Q 6.59375 54.828125 13.0625 64.515625 
Q 19.53125 74.21875 31.78125 74.21875 
z
" id="DejaVuSans-48"/>
       </defs>
       <use xlink:href="#DejaVuSans-48"/>
      </g>
     </g>
    </g>
    <g id="xtick_2">
     <g id="line2d_3">
      <path clip-path="url(#p9515fdc4c5)" d="M 62.653125 144.949489 
L 62.653125 9.049489 
" style="fill:none;stroke:#b0b0b0;stroke-linecap:square;stroke-width:0.8;"/>
     </g>
     <g id="line2d_4">
      <g>
       <use style="stroke:#000000;stroke-width:0.8;" x="62.653125" xlink:href="#m69f8f6e6d9" y="144.949489"/>
      </g>
     </g>
     <g id="text_2">
      <!-- 5 -->
      <g transform="translate(59.471875 159.547926)scale(0.1 -0.1)">
       <defs>
        <path d="M 10.796875 72.90625 
L 49.515625 72.90625 
L 49.515625 64.59375 
L 19.828125 64.59375 
L 19.828125 46.734375 
Q 21.96875 47.46875 24.109375 47.828125 
Q 26.265625 48.1875 28.421875 48.1875 
Q 40.625 48.1875 47.75 41.5 
Q 54.890625 34.8125 54.890625 23.390625 
Q 54.890625 11.625 47.5625 5.09375 
Q 40.234375 -1.421875 26.90625 -1.421875 
Q 22.3125 -1.421875 17.546875 -0.640625 
Q 12.796875 0.140625 7.71875 1.703125 
L 7.71875 11.625 
Q 12.109375 9.234375 16.796875 8.0625 
Q 21.484375 6.890625 26.703125 6.890625 
Q 35.15625 6.890625 40.078125 11.328125 
Q 45.015625 15.765625 45.015625 23.390625 
Q 45.015625 31 40.078125 35.4375 
Q 35.15625 39.890625 26.703125 39.890625 
Q 22.75 39.890625 18.8125 39.015625 
Q 14.890625 38.140625 10.796875 36.28125 
z
" id="DejaVuSans-53"/>
       </defs>
       <use xlink:href="#DejaVuSans-53"/>
      </g>
     </g>
    </g>
    <g id="xtick_3">
     <g id="line2d_5">
      <path clip-path="url(#p9515fdc4c5)" d="M 95.203125 144.949489 
L 95.203125 9.049489 
" style="fill:none;stroke:#b0b0b0;stroke-linecap:square;stroke-width:0.8;"/>
     </g>
     <g id="line2d_6">
      <g>
       <use style="stroke:#000000;stroke-width:0.8;" x="95.203125" xlink:href="#m69f8f6e6d9" y="144.949489"/>
      </g>
     </g>
     <g id="text_3">
      <!-- 10 -->
      <g transform="translate(88.840625 159.547926)scale(0.1 -0.1)">
       <defs>
        <path d="M 12.40625 8.296875 
L 28.515625 8.296875 
L 28.515625 63.921875 
L 10.984375 60.40625 
L 10.984375 69.390625 
L 28.421875 72.90625 
L 38.28125 72.90625 
L 38.28125 8.296875 
L 54.390625 8.296875 
L 54.390625 0 
L 12.40625 0 
z
" id="DejaVuSans-49"/>
       </defs>
       <use xlink:href="#DejaVuSans-49"/>
       <use x="63.623047" xlink:href="#DejaVuSans-48"/>
      </g>
     </g>
    </g>
    <g id="xtick_4">
     <g id="line2d_7">
      <path clip-path="url(#p9515fdc4c5)" d="M 127.753125 144.949489 
L 127.753125 9.049489 
" style="fill:none;stroke:#b0b0b0;stroke-linecap:square;stroke-width:0.8;"/>
     </g>
     <g id="line2d_8">
      <g>
       <use style="stroke:#000000;stroke-width:0.8;" x="127.753125" xlink:href="#m69f8f6e6d9" y="144.949489"/>
      </g>
     </g>
     <g id="text_4">
      <!-- 15 -->
      <g transform="translate(121.390625 159.547926)scale(0.1 -0.1)">
       <use xlink:href="#DejaVuSans-49"/>
       <use x="63.623047" xlink:href="#DejaVuSans-53"/>
      </g>
     </g>
    </g>
    <g id="xtick_5">
     <g id="line2d_9">
      <path clip-path="url(#p9515fdc4c5)" d="M 160.303125 144.949489 
L 160.303125 9.049489 
" style="fill:none;stroke:#b0b0b0;stroke-linecap:square;stroke-width:0.8;"/>
     </g>
     <g id="line2d_10">
      <g>
       <use style="stroke:#000000;stroke-width:0.8;" x="160.303125" xlink:href="#m69f8f6e6d9" y="144.949489"/>
      </g>
     </g>
     <g id="text_5">
      <!-- 20 -->
      <g transform="translate(153.940625 159.547926)scale(0.1 -0.1)">
       <defs>
        <path d="M 19.1875 8.296875 
L 53.609375 8.296875 
L 53.609375 0 
L 7.328125 0 
L 7.328125 8.296875 
Q 12.9375 14.109375 22.625 23.890625 
Q 32.328125 33.6875 34.8125 36.53125 
Q 39.546875 41.84375 41.421875 45.53125 
Q 43.3125 49.21875 43.3125 52.78125 
Q 43.3125 58.59375 39.234375 62.25 
Q 35.15625 65.921875 28.609375 65.921875 
Q 23.96875 65.921875 18.8125 64.3125 
Q 13.671875 62.703125 7.8125 59.421875 
L 7.8125 69.390625 
Q 13.765625 71.78125 18.9375 73 
Q 24.125 74.21875 28.421875 74.21875 
Q 39.75 74.21875 46.484375 68.546875 
Q 53.21875 62.890625 53.21875 53.421875 
Q 53.21875 48.921875 51.53125 44.890625 
Q 49.859375 40.875 45.40625 35.40625 
Q 44.1875 33.984375 37.640625 27.21875 
Q 31.109375 20.453125 19.1875 8.296875 
z
" id="DejaVuSans-50"/>
       </defs>
       <use xlink:href="#DejaVuSans-50"/>
       <use x="63.623047" xlink:href="#DejaVuSans-48"/>
      </g>
     </g>
    </g>
    <g id="xtick_6">
     <g id="line2d_11">
      <path clip-path="url(#p9515fdc4c5)" d="M 192.853125 144.949489 
L 192.853125 9.049489 
" style="fill:none;stroke:#b0b0b0;stroke-linecap:square;stroke-width:0.8;"/>
     </g>
     <g id="line2d_12">
      <g>
       <use style="stroke:#000000;stroke-width:0.8;" x="192.853125" xlink:href="#m69f8f6e6d9" y="144.949489"/>
      </g>
     </g>
     <g id="text_6">
      <!-- 25 -->
      <g transform="translate(186.490625 159.547926)scale(0.1 -0.1)">
       <use xlink:href="#DejaVuSans-50"/>
       <use x="63.623047" xlink:href="#DejaVuSans-53"/>
      </g>
     </g>
    </g>
    <g id="xtick_7">
     <g id="line2d_13">
      <path clip-path="url(#p9515fdc4c5)" d="M 225.403125 144.949489 
L 225.403125 9.049489 
" style="fill:none;stroke:#b0b0b0;stroke-linecap:square;stroke-width:0.8;"/>
     </g>
     <g id="line2d_14">
      <g>
       <use style="stroke:#000000;stroke-width:0.8;" x="225.403125" xlink:href="#m69f8f6e6d9" y="144.949489"/>
      </g>
     </g>
     <g id="text_7">
      <!-- 30 -->
      <g transform="translate(219.040625 159.547926)scale(0.1 -0.1)">
       <defs>
        <path d="M 40.578125 39.3125 
Q 47.65625 37.796875 51.625 33 
Q 55.609375 28.21875 55.609375 21.1875 
Q 55.609375 10.40625 48.1875 4.484375 
Q 40.765625 -1.421875 27.09375 -1.421875 
Q 22.515625 -1.421875 17.65625 -0.515625 
Q 12.796875 0.390625 7.625 2.203125 
L 7.625 11.71875 
Q 11.71875 9.328125 16.59375 8.109375 
Q 21.484375 6.890625 26.8125 6.890625 
Q 36.078125 6.890625 40.9375 10.546875 
Q 45.796875 14.203125 45.796875 21.1875 
Q 45.796875 27.640625 41.28125 31.265625 
Q 36.765625 34.90625 28.71875 34.90625 
L 20.21875 34.90625 
L 20.21875 43.015625 
L 29.109375 43.015625 
Q 36.375 43.015625 40.234375 45.921875 
Q 44.09375 48.828125 44.09375 54.296875 
Q 44.09375 59.90625 40.109375 62.90625 
Q 36.140625 65.921875 28.71875 65.921875 
Q 24.65625 65.921875 20.015625 65.03125 
Q 15.375 64.15625 9.8125 62.3125 
L 9.8125 71.09375 
Q 15.4375 72.65625 20.34375 73.4375 
Q 25.25 74.21875 29.59375 74.21875 
Q 40.828125 74.21875 47.359375 69.109375 
Q 53.90625 64.015625 53.90625 55.328125 
Q 53.90625 49.265625 50.4375 45.09375 
Q 46.96875 40.921875 40.578125 39.3125 
z
" id="DejaVuSans-51"/>
       </defs>
       <use xlink:href="#DejaVuSans-51"/>
       <use x="63.623047" xlink:href="#DejaVuSans-48"/>
      </g>
     </g>
    </g>
    <g id="text_8">
     <!-- epoch -->
     <g transform="translate(112.525 173.226051)scale(0.1 -0.1)">
      <defs>
       <path d="M 56.203125 29.59375 
L 56.203125 25.203125 
L 14.890625 25.203125 
Q 15.484375 15.921875 20.484375 11.0625 
Q 25.484375 6.203125 34.421875 6.203125 
Q 39.59375 6.203125 44.453125 7.46875 
Q 49.3125 8.734375 54.109375 11.28125 
L 54.109375 2.78125 
Q 49.265625 0.734375 44.1875 -0.34375 
Q 39.109375 -1.421875 33.890625 -1.421875 
Q 20.796875 -1.421875 13.15625 6.1875 
Q 5.515625 13.8125 5.515625 26.8125 
Q 5.515625 40.234375 12.765625 48.109375 
Q 20.015625 56 32.328125 56 
Q 43.359375 56 49.78125 48.890625 
Q 56.203125 41.796875 56.203125 29.59375 
z
M 47.21875 32.234375 
Q 47.125 39.59375 43.09375 43.984375 
Q 39.0625 48.390625 32.421875 48.390625 
Q 24.90625 48.390625 20.390625 44.140625 
Q 15.875 39.890625 15.1875 32.171875 
z
" id="DejaVuSans-101"/>
       <path d="M 18.109375 8.203125 
L 18.109375 -20.796875 
L 9.078125 -20.796875 
L 9.078125 54.6875 
L 18.109375 54.6875 
L 18.109375 46.390625 
Q 20.953125 51.265625 25.265625 53.625 
Q 29.59375 56 35.59375 56 
Q 45.5625 56 51.78125 48.09375 
Q 58.015625 40.1875 58.015625 27.296875 
Q 58.015625 14.40625 51.78125 6.484375 
Q 45.5625 -1.421875 35.59375 -1.421875 
Q 29.59375 -1.421875 25.265625 0.953125 
Q 20.953125 3.328125 18.109375 8.203125 
z
M 48.6875 27.296875 
Q 48.6875 37.203125 44.609375 42.84375 
Q 40.53125 48.484375 33.40625 48.484375 
Q 26.265625 48.484375 22.1875 42.84375 
Q 18.109375 37.203125 18.109375 27.296875 
Q 18.109375 17.390625 22.1875 11.75 
Q 26.265625 6.109375 33.40625 6.109375 
Q 40.53125 6.109375 44.609375 11.75 
Q 48.6875 17.390625 48.6875 27.296875 
z
" id="DejaVuSans-112"/>
       <path d="M 30.609375 48.390625 
Q 23.390625 48.390625 19.1875 42.75 
Q 14.984375 37.109375 14.984375 27.296875 
Q 14.984375 17.484375 19.15625 11.84375 
Q 23.34375 6.203125 30.609375 6.203125 
Q 37.796875 6.203125 41.984375 11.859375 
Q 46.1875 17.53125 46.1875 27.296875 
Q 46.1875 37.015625 41.984375 42.703125 
Q 37.796875 48.390625 30.609375 48.390625 
z
M 30.609375 56 
Q 42.328125 56 49.015625 48.375 
Q 55.71875 40.765625 55.71875 27.296875 
Q 55.71875 13.875 49.015625 6.21875 
Q 42.328125 -1.421875 30.609375 -1.421875 
Q 18.84375 -1.421875 12.171875 6.21875 
Q 5.515625 13.875 5.515625 27.296875 
Q 5.515625 40.765625 12.171875 48.375 
Q 18.84375 56 30.609375 56 
z
" id="DejaVuSans-111"/>
       <path d="M 48.78125 52.59375 
L 48.78125 44.1875 
Q 44.96875 46.296875 41.140625 47.34375 
Q 37.3125 48.390625 33.40625 48.390625 
Q 24.65625 48.390625 19.8125 42.84375 
Q 14.984375 37.3125 14.984375 27.296875 
Q 14.984375 17.28125 19.8125 11.734375 
Q 24.65625 6.203125 33.40625 6.203125 
Q 37.3125 6.203125 41.140625 7.25 
Q 44.96875 8.296875 48.78125 10.40625 
L 48.78125 2.09375 
Q 45.015625 0.34375 40.984375 -0.53125 
Q 36.96875 -1.421875 32.421875 -1.421875 
Q 20.0625 -1.421875 12.78125 6.34375 
Q 5.515625 14.109375 5.515625 27.296875 
Q 5.515625 40.671875 12.859375 48.328125 
Q 20.21875 56 33.015625 56 
Q 37.15625 56 41.109375 55.140625 
Q 45.0625 54.296875 48.78125 52.59375 
z
" id="DejaVuSans-99"/>
       <path d="M 54.890625 33.015625 
L 54.890625 0 
L 45.90625 0 
L 45.90625 32.71875 
Q 45.90625 40.484375 42.875 44.328125 
Q 39.84375 48.1875 33.796875 48.1875 
Q 26.515625 48.1875 22.3125 43.546875 
Q 18.109375 38.921875 18.109375 30.90625 
L 18.109375 0 
L 9.078125 0 
L 9.078125 75.984375 
L 18.109375 75.984375 
L 18.109375 46.1875 
Q 21.34375 51.125 25.703125 53.5625 
Q 30.078125 56 35.796875 56 
Q 45.21875 56 50.046875 50.171875 
Q 54.890625 44.34375 54.890625 33.015625 
z
" id="DejaVuSans-104"/>
      </defs>
      <use xlink:href="#DejaVuSans-101"/>
      <use x="61.523438" xlink:href="#DejaVuSans-112"/>
      <use x="125" xlink:href="#DejaVuSans-111"/>
      <use x="186.181641" xlink:href="#DejaVuSans-99"/>
      <use x="241.162109" xlink:href="#DejaVuSans-104"/>
     </g>
    </g>
   </g>
   <g id="matplotlib.axis_2">
    <g id="ytick_1">
     <g id="line2d_15">
      <path clip-path="url(#p9515fdc4c5)" d="M 30.103125 124.085226 
L 225.403125 124.085226 
" style="fill:none;stroke:#b0b0b0;stroke-linecap:square;stroke-width:0.8;"/>
     </g>
     <g id="line2d_16">
      <defs>
       <path d="M 0 0 
L -3.5 0 
" id="m39a1094e90" style="stroke:#000000;stroke-width:0.8;"/>
      </defs>
      <g>
       <use style="stroke:#000000;stroke-width:0.8;" x="30.103125" xlink:href="#m39a1094e90" y="124.085226"/>
      </g>
     </g>
     <g id="text_9">
      <!-- 0.5 -->
      <g transform="translate(7.2 127.884444)scale(0.1 -0.1)">
       <defs>
        <path d="M 10.6875 12.40625 
L 21 12.40625 
L 21 0 
L 10.6875 0 
z
" id="DejaVuSans-46"/>
       </defs>
       <use xlink:href="#DejaVuSans-48"/>
       <use x="63.623047" xlink:href="#DejaVuSans-46"/>
       <use x="95.410156" xlink:href="#DejaVuSans-53"/>
      </g>
     </g>
    </g>
    <g id="ytick_2">
     <g id="line2d_17">
      <path clip-path="url(#p9515fdc4c5)" d="M 30.103125 86.38989 
L 225.403125 86.38989 
" style="fill:none;stroke:#b0b0b0;stroke-linecap:square;stroke-width:0.8;"/>
     </g>
     <g id="line2d_18">
      <g>
       <use style="stroke:#000000;stroke-width:0.8;" x="30.103125" xlink:href="#m39a1094e90" y="86.38989"/>
      </g>
     </g>
     <g id="text_10">
      <!-- 1.0 -->
      <g transform="translate(7.2 90.189109)scale(0.1 -0.1)">
       <use xlink:href="#DejaVuSans-49"/>
       <use x="63.623047" xlink:href="#DejaVuSans-46"/>
       <use x="95.410156" xlink:href="#DejaVuSans-48"/>
      </g>
     </g>
    </g>
    <g id="ytick_3">
     <g id="line2d_19">
      <path clip-path="url(#p9515fdc4c5)" d="M 30.103125 48.694554 
L 225.403125 48.694554 
" style="fill:none;stroke:#b0b0b0;stroke-linecap:square;stroke-width:0.8;"/>
     </g>
     <g id="line2d_20">
      <g>
       <use style="stroke:#000000;stroke-width:0.8;" x="30.103125" xlink:href="#m39a1094e90" y="48.694554"/>
      </g>
     </g>
     <g id="text_11">
      <!-- 1.5 -->
      <g transform="translate(7.2 52.493773)scale(0.1 -0.1)">
       <use xlink:href="#DejaVuSans-49"/>
       <use x="63.623047" xlink:href="#DejaVuSans-46"/>
       <use x="95.410156" xlink:href="#DejaVuSans-53"/>
      </g>
     </g>
    </g>
    <g id="ytick_4">
     <g id="line2d_21">
      <path clip-path="url(#p9515fdc4c5)" d="M 30.103125 10.999219 
L 225.403125 10.999219 
" style="fill:none;stroke:#b0b0b0;stroke-linecap:square;stroke-width:0.8;"/>
     </g>
     <g id="line2d_22">
      <g>
       <use style="stroke:#000000;stroke-width:0.8;" x="30.103125" xlink:href="#m39a1094e90" y="10.999219"/>
      </g>
     </g>
     <g id="text_12">
      <!-- 2.0 -->
      <g transform="translate(7.2 14.798437)scale(0.1 -0.1)">
       <use xlink:href="#DejaVuSans-50"/>
       <use x="63.623047" xlink:href="#DejaVuSans-46"/>
       <use x="95.410156" xlink:href="#DejaVuSans-48"/>
      </g>
     </g>
    </g>
   </g>
   <g id="line2d_23">
    <path clip-path="url(#p9515fdc4c5)" d="M 31.460529 15.226761 
L 32.845636 50.556033 
L 34.230742 68.279207 
L 35.615848 78.590218 
L 37.970529 116.410714 
L 39.355636 117.100333 
L 40.740742 118.039018 
L 42.125848 118.339511 
L 44.480529 122.622283 
L 45.865636 123.548744 
L 47.250742 123.926759 
L 48.635848 123.729991 
L 50.990529 126.289761 
L 52.375636 126.268977 
L 53.760742 126.504135 
L 55.145848 126.486032 
L 57.500529 126.83533 
L 58.885636 127.78432 
L 60.270742 128.040934 
L 61.655848 128.298509 
L 64.010529 129.400412 
L 65.395636 129.354194 
L 66.780742 129.458681 
L 68.165848 129.697645 
L 70.520529 130.222722 
L 71.905636 130.507986 
L 73.290742 130.593799 
L 74.675848 130.683524 
L 77.030529 131.36536 
L 78.415636 131.533508 
L 79.800742 131.532863 
L 81.185848 131.621688 
L 83.540529 132.022601 
L 84.925636 132.52732 
L 86.310742 132.228226 
L 87.695848 132.465014 
L 90.050529 132.68586 
L 91.435636 132.965363 
L 92.820742 133.107996 
L 94.205848 133.072448 
L 96.560529 133.620683 
L 97.945636 133.695266 
L 99.330742 133.853682 
L 100.715848 133.471041 
L 103.070529 134.536276 
L 104.455636 134.151291 
L 105.840742 134.193354 
L 107.225848 134.239302 
L 109.580529 134.146453 
L 110.965636 134.263565 
L 112.350742 134.398918 
L 113.735848 134.577806 
L 116.090529 135.424112 
L 117.475636 134.979641 
L 118.860742 134.993551 
L 120.245848 134.924295 
L 122.600529 135.488238 
L 123.985636 135.105887 
L 125.370742 135.217915 
L 126.755848 135.472316 
L 129.110529 135.454255 
L 130.495636 135.606821 
L 131.880742 135.426194 
L 133.265848 135.622015 
L 135.620529 135.972523 
L 137.005636 135.581988 
L 138.390742 135.993821 
L 139.775848 135.933041 
L 142.130529 136.144105 
L 143.515636 136.152211 
L 144.900742 136.201841 
L 146.285848 136.166359 
L 148.640529 136.41361 
L 150.025636 136.390652 
L 151.410742 136.460613 
L 152.795848 136.516949 
L 155.150529 137.454184 
L 156.535636 136.884069 
L 157.920742 136.659841 
L 159.305848 136.736916 
L 161.660529 136.698981 
L 163.045636 137.011509 
L 164.430742 136.951096 
L 165.815848 136.852845 
L 168.170529 138.148945 
L 169.555636 137.730551 
L 170.940742 137.468997 
L 172.325848 137.267222 
L 174.680529 136.596445 
L 176.065636 137.135057 
L 177.450742 137.338126 
L 178.835848 137.272503 
L 181.190529 138.03848 
L 182.575636 137.712266 
L 183.960742 137.801373 
L 185.345848 137.678003 
L 187.700529 137.759107 
L 189.085636 137.792623 
L 190.470742 137.837683 
L 191.855848 137.950015 
L 194.210529 138.515874 
L 195.595636 137.955677 
L 196.980742 138.129254 
L 198.365848 138.055508 
L 200.720529 137.904377 
L 202.105636 138.090544 
L 203.490742 138.198237 
L 204.875848 138.104241 
L 207.230529 137.951779 
L 208.615636 138.055729 
L 210.000742 137.944949 
L 211.385848 138.110131 
L 213.740529 138.117646 
L 215.125636 138.51944 
L 216.510742 138.666989 
L 217.895848 138.590902 
L 220.250529 138.518174 
L 221.635636 138.470993 
L 223.020742 138.772216 
L 224.405848 138.681901 
" style="fill:none;stroke:#1f77b4;stroke-linecap:square;stroke-width:1.5;"/>
   </g>
   <g id="line2d_24">
    <path clip-path="url(#p9515fdc4c5)" d="M 31.460529 138.733397 
L 32.845636 126.812248 
L 34.230742 120.767251 
L 35.615848 117.180795 
L 37.970529 103.464699 
L 39.355636 103.302727 
L 40.740742 102.950315 
L 42.125848 102.831535 
L 44.480529 101.332557 
L 45.865636 100.681723 
L 47.250742 100.500118 
L 48.635848 100.491774 
L 50.990529 99.471349 
L 52.375636 99.539083 
L 53.760742 99.347662 
L 55.145848 99.294653 
L 57.500529 99.094396 
L 58.885636 98.802846 
L 60.270742 98.815608 
L 61.655848 98.713025 
L 64.010529 98.181462 
L 65.395636 98.243306 
L 66.780742 98.291407 
L 68.165848 98.205022 
L 70.520529 97.939976 
L 71.905636 97.872243 
L 73.290742 97.794692 
L 74.675848 97.773587 
L 77.030529 97.557133 
L 78.415636 97.42461 
L 79.800742 97.492344 
L 81.185848 97.476147 
L 83.540529 97.645482 
L 84.925636 97.277363 
L 86.310742 97.402033 
L 87.695848 97.255276 
L 90.050529 97.327427 
L 91.435636 97.062382 
L 92.820742 96.905318 
L 94.205848 96.884213 
L 96.560529 97.009373 
L 97.945636 96.862125 
L 99.330742 96.740401 
L 100.715848 96.792919 
L 103.070529 96.237796 
L 104.455636 96.511677 
L 105.840742 96.500878 
L 107.225848 96.452778 
L 109.580529 96.921024 
L 110.965636 96.59708 
L 112.350742 96.449833 
L 113.735848 96.383571 
L 116.090529 96.143558 
L 117.475636 96.202457 
L 118.860742 96.167118 
L 120.245848 96.189205 
L 122.600529 96.190677 
L 123.985636 96.208347 
L 125.370742 96.065026 
L 126.755848 95.959499 
L 129.110529 95.849063 
L 130.495636 95.852008 
L 131.880742 95.978641 
L 133.265848 95.893237 
L 135.620529 95.796054 
L 137.005636 95.955081 
L 138.390742 95.721449 
L 139.775848 95.7401 
L 142.130529 95.843173 
L 143.515636 95.778385 
L 144.900742 95.699853 
L 146.285848 95.691509 
L 148.640529 95.660587 
L 150.025636 95.816669 
L 151.410742 95.752862 
L 152.795848 95.628192 
L 155.150529 95.401431 
L 156.535636 95.613467 
L 157.920742 95.611504 
L 159.305848 95.584018 
L 161.660529 95.536899 
L 163.045636 95.398486 
L 164.430742 95.424991 
L 165.815848 95.452968 
L 168.170529 95.071597 
L 169.555636 95.159945 
L 170.940742 95.307193 
L 172.325848 95.324862 
L 174.680529 95.324862 
L 176.065636 95.321918 
L 177.450742 95.354312 
L 178.835848 95.349895 
L 181.190529 95.118716 
L 182.575636 95.154056 
L 183.960742 95.130496 
L 185.345848 95.171725 
L 187.700529 95.024478 
L 189.085636 95.157 
L 190.470742 95.171725 
L 191.855848 95.142276 
L 194.210529 94.724093 
L 195.595636 94.983249 
L 196.980742 94.973432 
L 198.365848 95.015643 
L 200.720529 95.101046 
L 202.105636 95.112826 
L 203.490742 94.996992 
L 204.875848 95.030368 
L 207.230529 95.183505 
L 208.615636 95.053927 
L 210.000742 95.154056 
L 211.385848 95.115771 
L 213.740529 94.853671 
L 215.125636 94.777102 
L 216.510742 94.731946 
L 217.895848 94.784465 
L 220.250529 95.089267 
L 221.635636 95.074542 
L 223.020742 94.847781 
L 224.405848 94.905207 
" style="fill:none;stroke:#bf00bf;stroke-dasharray:5.55,2.4;stroke-dashoffset:0;stroke-width:1.5;"/>
   </g>
   <g id="line2d_25">
    <path clip-path="url(#p9515fdc4c5)" d="M 36.613125 104.129315 
L 43.123125 100.344703 
L 49.633125 99.960211 
L 56.143125 100.435172 
L 62.653125 101.249391 
L 69.163125 98.022671 
L 75.673125 99.108296 
L 82.183125 98.475015 
L 88.693125 97.238608 
L 95.203125 97.359233 
L 101.713125 96.499779 
L 108.223125 96.81642 
L 114.733125 96.348998 
L 121.243125 97.638178 
L 127.753125 96.32638 
L 134.263125 98.007592 
L 140.773125 96.092669 
L 147.283125 95.700638 
L 153.793125 96.529935 
L 160.303125 95.889115 
L 166.813125 95.68556 
L 173.323125 95.821263 
L 179.833125 95.76095 
L 186.343125 96.303763 
L 192.853125 96.763646 
L 199.363125 95.263372 
L 205.873125 95.60263 
L 212.383125 95.436771 
L 218.893125 95.68556 
L 225.403125 95.301067 
" style="fill:none;stroke:#008000;stroke-dasharray:9.6,2.4,1.5,2.4;stroke-dashoffset:0;stroke-width:1.5;"/>
   </g>
   <g id="patch_3">
    <path d="M 30.103125 144.949489 
L 30.103125 9.049489 
" style="fill:none;stroke:#000000;stroke-linecap:square;stroke-linejoin:miter;stroke-width:0.8;"/>
   </g>
   <g id="patch_4">
    <path d="M 225.403125 144.949489 
L 225.403125 9.049489 
" style="fill:none;stroke:#000000;stroke-linecap:square;stroke-linejoin:miter;stroke-width:0.8;"/>
   </g>
   <g id="patch_5">
    <path d="M 30.103125 144.949489 
L 225.403125 144.949489 
" style="fill:none;stroke:#000000;stroke-linecap:square;stroke-linejoin:miter;stroke-width:0.8;"/>
   </g>
   <g id="patch_6">
    <path d="M 30.103125 9.049489 
L 225.403125 9.049489 
" style="fill:none;stroke:#000000;stroke-linecap:square;stroke-linejoin:miter;stroke-width:0.8;"/>
   </g>
   <g id="legend_1">
    <g id="patch_7">
     <path d="M 140.634375 61.083864 
L 218.403125 61.083864 
Q 220.403125 61.083864 220.403125 59.083864 
L 220.403125 16.049489 
Q 220.403125 14.049489 218.403125 14.049489 
L 140.634375 14.049489 
Q 138.634375 14.049489 138.634375 16.049489 
L 138.634375 59.083864 
Q 138.634375 61.083864 140.634375 61.083864 
z
" style="fill:#ffffff;opacity:0.8;stroke:#cccccc;stroke-linejoin:miter;"/>
    </g>
    <g id="line2d_26">
     <path d="M 142.634375 22.147926 
L 162.634375 22.147926 
" style="fill:none;stroke:#1f77b4;stroke-linecap:square;stroke-width:1.5;"/>
    </g>
    <g id="line2d_27"/>
    <g id="text_13">
     <!-- train loss -->
     <g transform="translate(170.634375 25.647926)scale(0.1 -0.1)">
      <defs>
       <path d="M 18.3125 70.21875 
L 18.3125 54.6875 
L 36.8125 54.6875 
L 36.8125 47.703125 
L 18.3125 47.703125 
L 18.3125 18.015625 
Q 18.3125 11.328125 20.140625 9.421875 
Q 21.96875 7.515625 27.59375 7.515625 
L 36.8125 7.515625 
L 36.8125 0 
L 27.59375 0 
Q 17.1875 0 13.234375 3.875 
Q 9.28125 7.765625 9.28125 18.015625 
L 9.28125 47.703125 
L 2.6875 47.703125 
L 2.6875 54.6875 
L 9.28125 54.6875 
L 9.28125 70.21875 
z
" id="DejaVuSans-116"/>
       <path d="M 41.109375 46.296875 
Q 39.59375 47.171875 37.8125 47.578125 
Q 36.03125 48 33.890625 48 
Q 26.265625 48 22.1875 43.046875 
Q 18.109375 38.09375 18.109375 28.8125 
L 18.109375 0 
L 9.078125 0 
L 9.078125 54.6875 
L 18.109375 54.6875 
L 18.109375 46.1875 
Q 20.953125 51.171875 25.484375 53.578125 
Q 30.03125 56 36.53125 56 
Q 37.453125 56 38.578125 55.875 
Q 39.703125 55.765625 41.0625 55.515625 
z
" id="DejaVuSans-114"/>
       <path d="M 34.28125 27.484375 
Q 23.390625 27.484375 19.1875 25 
Q 14.984375 22.515625 14.984375 16.5 
Q 14.984375 11.71875 18.140625 8.90625 
Q 21.296875 6.109375 26.703125 6.109375 
Q 34.1875 6.109375 38.703125 11.40625 
Q 43.21875 16.703125 43.21875 25.484375 
L 43.21875 27.484375 
z
M 52.203125 31.203125 
L 52.203125 0 
L 43.21875 0 
L 43.21875 8.296875 
Q 40.140625 3.328125 35.546875 0.953125 
Q 30.953125 -1.421875 24.3125 -1.421875 
Q 15.921875 -1.421875 10.953125 3.296875 
Q 6 8.015625 6 15.921875 
Q 6 25.140625 12.171875 29.828125 
Q 18.359375 34.515625 30.609375 34.515625 
L 43.21875 34.515625 
L 43.21875 35.40625 
Q 43.21875 41.609375 39.140625 45 
Q 35.0625 48.390625 27.6875 48.390625 
Q 23 48.390625 18.546875 47.265625 
Q 14.109375 46.140625 10.015625 43.890625 
L 10.015625 52.203125 
Q 14.9375 54.109375 19.578125 55.046875 
Q 24.21875 56 28.609375 56 
Q 40.484375 56 46.34375 49.84375 
Q 52.203125 43.703125 52.203125 31.203125 
z
" id="DejaVuSans-97"/>
       <path d="M 9.421875 54.6875 
L 18.40625 54.6875 
L 18.40625 0 
L 9.421875 0 
z
M 9.421875 75.984375 
L 18.40625 75.984375 
L 18.40625 64.59375 
L 9.421875 64.59375 
z
" id="DejaVuSans-105"/>
       <path d="M 54.890625 33.015625 
L 54.890625 0 
L 45.90625 0 
L 45.90625 32.71875 
Q 45.90625 40.484375 42.875 44.328125 
Q 39.84375 48.1875 33.796875 48.1875 
Q 26.515625 48.1875 22.3125 43.546875 
Q 18.109375 38.921875 18.109375 30.90625 
L 18.109375 0 
L 9.078125 0 
L 9.078125 54.6875 
L 18.109375 54.6875 
L 18.109375 46.1875 
Q 21.34375 51.125 25.703125 53.5625 
Q 30.078125 56 35.796875 56 
Q 45.21875 56 50.046875 50.171875 
Q 54.890625 44.34375 54.890625 33.015625 
z
" id="DejaVuSans-110"/>
       <path id="DejaVuSans-32"/>
       <path d="M 9.421875 75.984375 
L 18.40625 75.984375 
L 18.40625 0 
L 9.421875 0 
z
" id="DejaVuSans-108"/>
       <path d="M 44.28125 53.078125 
L 44.28125 44.578125 
Q 40.484375 46.53125 36.375 47.5 
Q 32.28125 48.484375 27.875 48.484375 
Q 21.1875 48.484375 17.84375 46.4375 
Q 14.5 44.390625 14.5 40.28125 
Q 14.5 37.15625 16.890625 35.375 
Q 19.28125 33.59375 26.515625 31.984375 
L 29.59375 31.296875 
Q 39.15625 29.25 43.1875 25.515625 
Q 47.21875 21.78125 47.21875 15.09375 
Q 47.21875 7.46875 41.1875 3.015625 
Q 35.15625 -1.421875 24.609375 -1.421875 
Q 20.21875 -1.421875 15.453125 -0.5625 
Q 10.6875 0.296875 5.421875 2 
L 5.421875 11.28125 
Q 10.40625 8.6875 15.234375 7.390625 
Q 20.0625 6.109375 24.8125 6.109375 
Q 31.15625 6.109375 34.5625 8.28125 
Q 37.984375 10.453125 37.984375 14.40625 
Q 37.984375 18.0625 35.515625 20.015625 
Q 33.0625 21.96875 24.703125 23.78125 
L 21.578125 24.515625 
Q 13.234375 26.265625 9.515625 29.90625 
Q 5.8125 33.546875 5.8125 39.890625 
Q 5.8125 47.609375 11.28125 51.796875 
Q 16.75 56 26.8125 56 
Q 31.78125 56 36.171875 55.265625 
Q 40.578125 54.546875 44.28125 53.078125 
z
" id="DejaVuSans-115"/>
      </defs>
      <use xlink:href="#DejaVuSans-116"/>
      <use x="39.208984" xlink:href="#DejaVuSans-114"/>
      <use x="80.322266" xlink:href="#DejaVuSans-97"/>
      <use x="141.601562" xlink:href="#DejaVuSans-105"/>
      <use x="169.384766" xlink:href="#DejaVuSans-110"/>
      <use x="232.763672" xlink:href="#DejaVuSans-32"/>
      <use x="264.550781" xlink:href="#DejaVuSans-108"/>
      <use x="292.333984" xlink:href="#DejaVuSans-111"/>
      <use x="353.515625" xlink:href="#DejaVuSans-115"/>
      <use x="405.615234" xlink:href="#DejaVuSans-115"/>
     </g>
    </g>
    <g id="line2d_28">
     <path d="M 142.634375 36.826051 
L 162.634375 36.826051 
" style="fill:none;stroke:#bf00bf;stroke-dasharray:5.55,2.4;stroke-dashoffset:0;stroke-width:1.5;"/>
    </g>
    <g id="line2d_29"/>
    <g id="text_14">
     <!-- train acc -->
     <g transform="translate(170.634375 40.326051)scale(0.1 -0.1)">
      <use xlink:href="#DejaVuSans-116"/>
      <use x="39.208984" xlink:href="#DejaVuSans-114"/>
      <use x="80.322266" xlink:href="#DejaVuSans-97"/>
      <use x="141.601562" xlink:href="#DejaVuSans-105"/>
      <use x="169.384766" xlink:href="#DejaVuSans-110"/>
      <use x="232.763672" xlink:href="#DejaVuSans-32"/>
      <use x="264.550781" xlink:href="#DejaVuSans-97"/>
      <use x="325.830078" xlink:href="#DejaVuSans-99"/>
      <use x="380.810547" xlink:href="#DejaVuSans-99"/>
     </g>
    </g>
    <g id="line2d_30">
     <path d="M 142.634375 51.504176 
L 162.634375 51.504176 
" style="fill:none;stroke:#008000;stroke-dasharray:9.6,2.4,1.5,2.4;stroke-dashoffset:0;stroke-width:1.5;"/>
    </g>
    <g id="line2d_31"/>
    <g id="text_15">
     <!-- test acc -->
     <g transform="translate(170.634375 55.004176)scale(0.1 -0.1)">
      <use xlink:href="#DejaVuSans-116"/>
      <use x="39.208984" xlink:href="#DejaVuSans-101"/>
      <use x="100.732422" xlink:href="#DejaVuSans-115"/>
      <use x="152.832031" xlink:href="#DejaVuSans-116"/>
      <use x="192.041016" xlink:href="#DejaVuSans-32"/>
      <use x="223.828125" xlink:href="#DejaVuSans-97"/>
      <use x="285.107422" xlink:href="#DejaVuSans-99"/>
      <use x="340.087891" xlink:href="#DejaVuSans-99"/>
     </g>
    </g>
   </g>
  </g>
 </g>
 <defs>
  <clipPath id="p9515fdc4c5">
   <rect height="135.9" width="195.3" x="30.103125" y="9.049489"/>
  </clipPath>
 </defs>
</svg>
