<?xml version="1.0" encoding="utf-8" standalone="no"?>
<!DOCTYPE svg PUBLIC "-//W3C//DTD SVG 1.1//EN"
  "http://www.w3.org/Graphics/SVG/1.1/DTD/svg11.dtd">
<!-- Created with matplotlib (https://matplotlib.org/) -->
<svg height="180.65625pt" version="1.1" viewBox="0 0 245.120313 180.65625" width="245.120313pt" xmlns="http://www.w3.org/2000/svg" xmlns:xlink="http://www.w3.org/1999/xlink">
 <metadata>
  <rdf:RDF xmlns:cc="http://creativecommons.org/ns#" xmlns:dc="http://purl.org/dc/elements/1.1/" xmlns:rdf="http://www.w3.org/1999/02/22-rdf-syntax-ns#">
   <cc:Work>
    <dc:type rdf:resource="http://purl.org/dc/dcmitype/StillImage"/>
    <dc:date>2020-08-13T04:00:28.960616</dc:date>
    <dc:format>image/svg+xml</dc:format>
    <dc:creator>
     <cc:Agent>
      <dc:title>Matplotlib v3.3.0, https://matplotlib.org/</dc:title>
     </cc:Agent>
    </dc:creator>
   </cc:Work>
  </rdf:RDF>
 </metadata>
 <defs>
  <style type="text/css">*{stroke-linecap:butt;stroke-linejoin:round;}</style>
 </defs>
 <g id="figure_1">
  <g id="patch_1">
   <path d="M 0 180.65625 
L 245.120313 180.65625 
L 245.120313 0 
L 0 0 
z
" style="fill:none;"/>
  </g>
  <g id="axes_1">
   <g id="patch_2">
    <path d="M 42.620312 143.1 
L 237.920313 143.1 
L 237.920313 7.2 
L 42.620312 7.2 
z
" style="fill:#ffffff;"/>
   </g>
   <g id="matplotlib.axis_1">
    <g id="xtick_1">
     <g id="line2d_1">
      <defs>
       <path d="M 0 0 
L 0 3.5 
" id="mc51099e49f" style="stroke:#000000;stroke-width:0.8;"/>
      </defs>
      <g>
       <use style="stroke:#000000;stroke-width:0.8;" x="88.393749" xlink:href="#mc51099e49f" y="143.1"/>
      </g>
     </g>
     <g id="text_1">
      <!-- −4 -->
      <g transform="translate(81.022656 157.698438)scale(0.1 -0.1)">
       <defs>
        <path d="M 10.59375 35.5 
L 73.1875 35.5 
L 73.1875 27.203125 
L 10.59375 27.203125 
z
" id="DejaVuSans-8722"/>
        <path d="M 37.796875 64.3125 
L 12.890625 25.390625 
L 37.796875 25.390625 
z
M 35.203125 72.90625 
L 47.609375 72.90625 
L 47.609375 25.390625 
L 58.015625 25.390625 
L 58.015625 17.1875 
L 47.609375 17.1875 
L 47.609375 0 
L 37.796875 0 
L 37.796875 17.1875 
L 4.890625 17.1875 
L 4.890625 26.703125 
z
" id="DejaVuSans-52"/>
       </defs>
       <use xlink:href="#DejaVuSans-8722"/>
       <use x="83.789062" xlink:href="#DejaVuSans-52"/>
      </g>
     </g>
    </g>
    <g id="xtick_2">
     <g id="line2d_2">
      <g>
       <use style="stroke:#000000;stroke-width:0.8;" x="149.424998" xlink:href="#mc51099e49f" y="143.1"/>
      </g>
     </g>
     <g id="text_2">
      <!-- −2 -->
      <g transform="translate(142.053905 157.698438)scale(0.1 -0.1)">
       <defs>
        <path d="M 19.1875 8.296875 
L 53.609375 8.296875 
L 53.609375 0 
L 7.328125 0 
L 7.328125 8.296875 
Q 12.9375 14.109375 22.625 23.890625 
Q 32.328125 33.6875 34.8125 36.53125 
Q 39.546875 41.84375 41.421875 45.53125 
Q 43.3125 49.21875 43.3125 52.78125 
Q 43.3125 58.59375 39.234375 62.25 
Q 35.15625 65.921875 28.609375 65.921875 
Q 23.96875 65.921875 18.8125 64.3125 
Q 13.671875 62.703125 7.8125 59.421875 
L 7.8125 69.390625 
Q 13.765625 71.78125 18.9375 73 
Q 24.125 74.21875 28.421875 74.21875 
Q 39.75 74.21875 46.484375 68.546875 
Q 53.21875 62.890625 53.21875 53.421875 
Q 53.21875 48.921875 51.53125 44.890625 
Q 49.859375 40.875 45.40625 35.40625 
Q 44.1875 33.984375 37.640625 27.21875 
Q 31.109375 20.453125 19.1875 8.296875 
z
" id="DejaVuSans-50"/>
       </defs>
       <use xlink:href="#DejaVuSans-8722"/>
       <use x="83.789062" xlink:href="#DejaVuSans-50"/>
      </g>
     </g>
    </g>
    <g id="xtick_3">
     <g id="line2d_3">
      <g>
       <use style="stroke:#000000;stroke-width:0.8;" x="210.456247" xlink:href="#mc51099e49f" y="143.1"/>
      </g>
     </g>
     <g id="text_3">
      <!-- 0 -->
      <g transform="translate(207.274997 157.698438)scale(0.1 -0.1)">
       <defs>
        <path d="M 31.78125 66.40625 
Q 24.171875 66.40625 20.328125 58.90625 
Q 16.5 51.421875 16.5 36.375 
Q 16.5 21.390625 20.328125 13.890625 
Q 24.171875 6.390625 31.78125 6.390625 
Q 39.453125 6.390625 43.28125 13.890625 
Q 47.125 21.390625 47.125 36.375 
Q 47.125 51.421875 43.28125 58.90625 
Q 39.453125 66.40625 31.78125 66.40625 
z
M 31.78125 74.21875 
Q 44.046875 74.21875 50.515625 64.515625 
Q 56.984375 54.828125 56.984375 36.375 
Q 56.984375 17.96875 50.515625 8.265625 
Q 44.046875 -1.421875 31.78125 -1.421875 
Q 19.53125 -1.421875 13.0625 8.265625 
Q 6.59375 17.96875 6.59375 36.375 
Q 6.59375 54.828125 13.0625 64.515625 
Q 19.53125 74.21875 31.78125 74.21875 
z
" id="DejaVuSans-48"/>
       </defs>
       <use xlink:href="#DejaVuSans-48"/>
      </g>
     </g>
    </g>
    <g id="text_4">
     <!-- x1 -->
     <g transform="translate(134.129687 171.376563)scale(0.1 -0.1)">
      <defs>
       <path d="M 54.890625 54.6875 
L 35.109375 28.078125 
L 55.90625 0 
L 45.3125 0 
L 29.390625 21.484375 
L 13.484375 0 
L 2.875 0 
L 24.125 28.609375 
L 4.6875 54.6875 
L 15.28125 54.6875 
L 29.78125 35.203125 
L 44.28125 54.6875 
z
" id="DejaVuSans-120"/>
       <path d="M 12.40625 8.296875 
L 28.515625 8.296875 
L 28.515625 63.921875 
L 10.984375 60.40625 
L 10.984375 69.390625 
L 28.421875 72.90625 
L 38.28125 72.90625 
L 38.28125 8.296875 
L 54.390625 8.296875 
L 54.390625 0 
L 12.40625 0 
z
" id="DejaVuSans-49"/>
      </defs>
      <use xlink:href="#DejaVuSans-120"/>
      <use x="59.179688" xlink:href="#DejaVuSans-49"/>
     </g>
    </g>
   </g>
   <g id="matplotlib.axis_2">
    <g id="ytick_1">
     <g id="line2d_4">
      <defs>
       <path d="M 0 0 
L -3.5 0 
" id="ma5d23cdb90" style="stroke:#000000;stroke-width:0.8;"/>
      </defs>
      <g>
       <use style="stroke:#000000;stroke-width:0.8;" x="42.620312" xlink:href="#ma5d23cdb90" y="143.1"/>
      </g>
     </g>
     <g id="text_5">
      <!-- −3 -->
      <g transform="translate(20.878125 146.899219)scale(0.1 -0.1)">
       <defs>
        <path d="M 40.578125 39.3125 
Q 47.65625 37.796875 51.625 33 
Q 55.609375 28.21875 55.609375 21.1875 
Q 55.609375 10.40625 48.1875 4.484375 
Q 40.765625 -1.421875 27.09375 -1.421875 
Q 22.515625 -1.421875 17.65625 -0.515625 
Q 12.796875 0.390625 7.625 2.203125 
L 7.625 11.71875 
Q 11.71875 9.328125 16.59375 8.109375 
Q 21.484375 6.890625 26.8125 6.890625 
Q 36.078125 6.890625 40.9375 10.546875 
Q 45.796875 14.203125 45.796875 21.1875 
Q 45.796875 27.640625 41.28125 31.265625 
Q 36.765625 34.90625 28.71875 34.90625 
L 20.21875 34.90625 
L 20.21875 43.015625 
L 29.109375 43.015625 
Q 36.375 43.015625 40.234375 45.921875 
Q 44.09375 48.828125 44.09375 54.296875 
Q 44.09375 59.90625 40.109375 62.90625 
Q 36.140625 65.921875 28.71875 65.921875 
Q 24.65625 65.921875 20.015625 65.03125 
Q 15.375 64.15625 9.8125 62.3125 
L 9.8125 71.09375 
Q 15.4375 72.65625 20.34375 73.4375 
Q 25.25 74.21875 29.59375 74.21875 
Q 40.828125 74.21875 47.359375 69.109375 
Q 53.90625 64.015625 53.90625 55.328125 
Q 53.90625 49.265625 50.4375 45.09375 
Q 46.96875 40.921875 40.578125 39.3125 
z
" id="DejaVuSans-51"/>
       </defs>
       <use xlink:href="#DejaVuSans-8722"/>
       <use x="83.789062" xlink:href="#DejaVuSans-51"/>
      </g>
     </g>
    </g>
    <g id="ytick_2">
     <g id="line2d_5">
      <g>
       <use style="stroke:#000000;stroke-width:0.8;" x="42.620312" xlink:href="#ma5d23cdb90" y="112.283673"/>
      </g>
     </g>
     <g id="text_6">
      <!-- −2 -->
      <g transform="translate(20.878125 116.082892)scale(0.1 -0.1)">
       <use xlink:href="#DejaVuSans-8722"/>
       <use x="83.789062" xlink:href="#DejaVuSans-50"/>
      </g>
     </g>
    </g>
    <g id="ytick_3">
     <g id="line2d_6">
      <g>
       <use style="stroke:#000000;stroke-width:0.8;" x="42.620312" xlink:href="#ma5d23cdb90" y="81.467347"/>
      </g>
     </g>
     <g id="text_7">
      <!-- −1 -->
      <g transform="translate(20.878125 85.266566)scale(0.1 -0.1)">
       <use xlink:href="#DejaVuSans-8722"/>
       <use x="83.789062" xlink:href="#DejaVuSans-49"/>
      </g>
     </g>
    </g>
    <g id="ytick_4">
     <g id="line2d_7">
      <g>
       <use style="stroke:#000000;stroke-width:0.8;" x="42.620312" xlink:href="#ma5d23cdb90" y="50.65102"/>
      </g>
     </g>
     <g id="text_8">
      <!-- 0 -->
      <g transform="translate(29.257812 54.450239)scale(0.1 -0.1)">
       <use xlink:href="#DejaVuSans-48"/>
      </g>
     </g>
    </g>
    <g id="ytick_5">
     <g id="line2d_8">
      <g>
       <use style="stroke:#000000;stroke-width:0.8;" x="42.620312" xlink:href="#ma5d23cdb90" y="19.834694"/>
      </g>
     </g>
     <g id="text_9">
      <!-- 1 -->
      <g transform="translate(29.257812 23.633913)scale(0.1 -0.1)">
       <use xlink:href="#DejaVuSans-49"/>
      </g>
     </g>
    </g>
    <g id="text_10">
     <!-- x2 -->
     <g transform="translate(14.798437 81.290625)rotate(-90)scale(0.1 -0.1)">
      <use xlink:href="#DejaVuSans-120"/>
      <use x="59.179688" xlink:href="#DejaVuSans-50"/>
     </g>
    </g>
   </g>
   <g id="LineCollection_1">
    <path clip-path="url(#pcd37a1937e)" d="M 210.456247 50.65102 
" style="fill:none;stroke:#1f77b4;stroke-width:1.5;"/>
   </g>
   <g id="LineCollection_2">
    <path clip-path="url(#pcd37a1937e)" d="M 237.920312 87.870979 
L 234.868753 87.975754 
L 231.817193 88.068204 
L 228.765619 88.148327 
L 225.71406 88.216122 
L 222.6625 88.271592 
L 219.610941 88.314734 
L 216.559381 88.345552 
L 213.507807 88.364041 
L 210.456247 88.370204 
L 207.404688 88.364041 
L 204.353128 88.345552 
L 201.301569 88.314734 
L 198.249995 88.271592 
L 195.198435 88.216122 
L 192.146876 88.148327 
L 189.095316 88.068204 
L 186.043757 87.975756 
L 182.992182 87.870979 
L 179.940623 87.753878 
L 177.03433 87.63061 
L 176.889063 87.623913 
L 173.837504 87.469831 
L 170.785944 87.302352 
L 167.73437 87.121472 
L 164.682811 86.927197 
L 161.631251 86.719521 
L 158.579684 86.498447 
L 155.528125 86.263976 
L 152.476565 86.016105 
L 149.424998 85.754835 
L 146.373439 85.480169 
L 143.321872 85.192103 
L 140.270312 84.890639 
L 137.218753 84.575777 
L 136.969649 84.54898 
L 134.167186 84.218805 
L 131.115627 83.844607 
L 128.06406 83.455733 
L 125.0125 83.052187 
L 121.960941 82.633966 
L 118.909374 82.201068 
L 115.857814 81.753499 
L 113.968754 81.467347 
L 112.806247 81.272716 
L 109.754688 80.745596 
L 106.703128 80.202255 
L 103.651562 79.642696 
L 100.600002 79.066918 
L 97.548443 78.47492 
L 97.100855 78.38571 
L 94.496876 77.805641 
L 91.445309 77.107741 
L 88.393749 76.391716 
L 85.34219 75.657562 
L 83.908318 75.30408 
L 82.29063 74.852111 
L 79.239056 73.978976 
L 76.187497 73.085304 
L 73.307377 72.22245 
L 73.135937 72.163187 
L 70.084378 71.084615 
L 67.032818 69.98234 
L 64.752163 69.140813 
L 63.981244 68.804636 
L 60.929684 67.445918 
L 57.878125 66.059184 
L 54.826565 64.330049 
L 52.486033 62.977547 
L 51.775006 62.449278 
L 48.723432 60.138039 
L 48.409729 59.895917 
L 45.671872 56.937551 
L 45.55989 56.814287 
L 43.880133 53.73265 
L 43.320214 50.65102 
L 43.880133 47.569383 
L 45.55989 44.487754 
L 45.671872 44.36449 
L 48.409729 41.406124 
L 48.723432 41.164003 
L 51.775006 38.852766 
L 52.486047 38.324487 
L 54.826565 36.971993 
L 57.878125 35.242857 
L 60.929684 33.856122 
L 63.981244 32.497404 
L 64.752179 32.16122 
L 67.032818 31.3197 
L 70.084378 30.217425 
L 73.135937 29.138854 
L 73.307377 29.07959 
L 76.187497 28.216737 
L 79.239056 27.323065 
L 82.29063 26.44993 
L 83.908318 25.997961 
L 85.34219 25.644479 
L 88.393749 24.910324 
L 91.445309 24.1943 
L 94.496876 23.496399 
L 97.100893 22.916324 
" style="fill:none;stroke:#1f77b4;stroke-width:1.5;"/>
   </g>
   <g id="LineCollection_3">
    <path clip-path="url(#pcd37a1937e)" d="M 237.920312 103.6507 
L 234.868753 103.725538 
L 231.817193 103.791573 
L 228.765619 103.848805 
L 225.71406 103.897229 
L 222.6625 103.936852 
L 219.610941 103.967668 
L 216.559381 103.989678 
L 213.507807 104.002886 
L 210.456247 104.007288 
L 207.404688 104.002886 
L 204.353128 103.989678 
L 201.301569 103.967668 
L 198.249995 103.936852 
L 195.198435 103.897229 
L 192.146876 103.848805 
L 189.095316 103.791575 
L 186.043757 103.725538 
L 182.992182 103.6507 
L 179.940623 103.567055 
L 176.889063 103.474606 
L 173.837504 103.373352 
L 170.785944 103.263293 
L 167.73437 103.14443 
L 165.208907 103.038773 
L 164.682811 103.015429 
L 161.631251 102.870685 
L 158.579684 102.716604 
L 155.528125 102.553185 
L 152.476565 102.380425 
L 149.424998 102.198329 
L 146.373439 102.006895 
L 143.321872 101.806121 
L 140.270312 101.596011 
L 137.218753 101.376562 
L 134.167186 101.147773 
L 131.115627 100.909646 
L 128.06406 100.662182 
L 125.0125 100.40538 
L 121.960941 100.139238 
L 119.943827 99.957144 
L 118.909374 99.857734 
L 115.857814 99.554542 
L 112.806247 99.241407 
L 109.754688 98.918333 
L 106.703128 98.585318 
L 103.651562 98.242363 
L 100.600002 97.889466 
L 97.548443 97.526629 
L 94.496876 97.15385 
L 92.277554 96.87551 
L 91.445309 96.763934 
L 88.393749 96.344195 
L 85.34219 95.913829 
L 82.29063 95.472837 
L 79.239056 95.021217 
L 76.187497 94.558972 
L 73.135937 94.086102 
L 71.291579 93.793877 
L 70.084378 93.588436 
L 67.032818 93.05771 
L 63.981244 92.51557 
L 60.929684 91.962018 
L 57.878125 91.397052 
L 54.826565 90.820674 
L 54.263641 90.712243 
L 51.775006 90.194531 
L 48.723432 89.547385 
L 45.671872 88.887919 
L 42.620312 88.216122 
" style="fill:none;stroke:#1f77b4;stroke-width:1.5;"/>
   </g>
   <g id="LineCollection_4">
    <path clip-path="url(#pcd37a1937e)" d="M 237.920312 115.720052 
L 234.868753 115.780969 
L 231.817193 115.83472 
L 228.765619 115.881301 
L 225.71406 115.920719 
L 222.6625 115.952968 
L 219.610941 115.978051 
L 216.559381 115.995968 
L 213.507807 116.006716 
L 210.456247 116.0103 
L 207.404688 116.006716 
L 204.353128 115.995968 
L 201.301569 115.978051 
L 198.249995 115.952968 
L 195.198435 115.920719 
L 192.146876 115.881301 
L 189.095316 115.83472 
L 186.043757 115.780969 
L 182.992182 115.720052 
L 179.940623 115.65197 
L 176.889063 115.576721 
L 173.837504 115.494306 
L 170.785944 115.404725 
L 169.542551 115.365303 
L 167.73437 115.305178 
L 164.682811 115.196192 
L 161.631251 115.079695 
L 158.579684 114.955678 
L 155.528125 114.824141 
L 152.476565 114.685093 
L 149.424998 114.538529 
L 146.373439 114.384446 
L 143.321872 114.222848 
L 140.270312 114.053733 
L 137.218753 113.877103 
L 134.167186 113.692958 
L 131.115627 113.501296 
L 128.06406 113.302116 
L 125.0125 113.09542 
L 121.960941 112.881211 
L 118.909374 112.659484 
L 115.857814 112.430238 
L 113.968762 112.283673 
L 112.806247 112.188853 
L 109.754688 111.932052 
L 106.703128 111.667347 
L 103.651562 111.39474 
L 100.600002 111.114235 
L 97.548443 110.825825 
L 94.496876 110.529514 
L 91.445309 110.2253 
L 88.393749 109.913187 
L 85.34219 109.593171 
L 82.29063 109.265256 
L 81.716196 109.20204 
L 79.239056 108.914698 
L 76.187497 108.552399 
L 73.135937 108.181771 
L 70.084378 107.802814 
L 67.032818 107.415528 
L 63.981244 107.019912 
L 60.929684 106.615968 
L 57.878125 106.203696 
L 57.273841 106.120407 
L 54.826565 105.76382 
L 51.775006 105.310381 
L 48.723432 104.848134 
L 45.671872 104.377083 
L 42.620312 103.897228 
" style="fill:none;stroke:#1f77b4;stroke-width:1.5;"/>
   </g>
   <g id="LineCollection_5">
    <path clip-path="url(#pcd37a1937e)" d="M 237.920312 125.864869 
L 234.868753 125.918326 
L 231.817193 125.965495 
L 228.765619 126.006372 
L 225.71406 126.040964 
L 222.6625 126.069264 
L 219.610941 126.091276 
L 216.559381 126.106999 
L 213.507807 126.11643 
L 210.456247 126.119576 
L 207.404688 126.11643 
L 204.353128 126.106999 
L 201.301569 126.091276 
L 198.249995 126.069264 
L 195.198435 126.040964 
L 192.146876 126.006372 
L 189.095316 125.965495 
L 186.043757 125.918326 
L 182.992182 125.864869 
L 179.940623 125.805123 
L 176.889063 125.739088 
L 173.837504 125.666765 
L 170.785944 125.588153 
L 167.73437 125.503249 
L 164.682811 125.412057 
L 161.631251 125.31458 
L 158.579684 125.210811 
L 155.528125 125.10075 
L 152.476565 124.984403 
L 149.424998 124.861769 
L 146.373439 124.732842 
L 143.605784 124.610207 
L 143.321872 124.597092 
L 140.270312 124.449566 
L 137.218753 124.295485 
L 134.167186 124.134847 
L 131.115627 123.967653 
L 128.06406 123.7939 
L 125.0125 123.61359 
L 121.960941 123.426728 
L 118.909374 123.233306 
L 115.857814 123.033325 
L 112.806247 122.82679 
L 109.754688 122.6137 
L 106.703128 122.39405 
L 103.651562 122.167844 
L 100.600002 121.935085 
L 97.548443 121.695767 
L 95.473374 121.52857 
L 94.496876 121.446393 
L 91.445309 121.182743 
L 88.393749 120.912243 
L 85.34219 120.634898 
L 82.29063 120.350703 
L 79.239056 120.05966 
L 76.187497 119.761769 
L 73.135937 119.457031 
L 70.084378 119.145442 
L 67.032818 118.827008 
L 63.981244 118.501724 
L 63.477901 118.44694 
L 60.929684 118.156692 
L 57.878125 117.801947 
L 54.826565 117.440035 
L 51.775006 117.070957 
L 48.723432 116.694709 
L 45.671872 116.311296 
L 42.620312 115.920717 
" style="fill:none;stroke:#1f77b4;stroke-width:1.5;"/>
   </g>
   <g id="LineCollection_6">
    <path clip-path="url(#pcd37a1937e)" d="M 237.920312 134.804804 
L 234.868753 134.85243 
L 231.817193 134.894453 
L 228.765619 134.930871 
L 225.71406 134.961689 
L 222.6625 134.986902 
L 219.610941 135.006512 
L 216.559381 135.02052 
L 213.507807 135.028922 
L 210.456247 135.031725 
L 207.404688 135.028922 
L 204.353128 135.02052 
L 201.301569 135.006512 
L 198.249995 134.986902 
L 195.198435 134.961689 
L 192.146876 134.930871 
L 189.095316 134.894453 
L 186.043757 134.85243 
L 182.992182 134.804804 
L 179.940623 134.751575 
L 176.889063 134.692744 
L 173.837504 134.628311 
L 170.785944 134.558275 
L 167.73437 134.482634 
L 164.682811 134.40139 
L 161.631251 134.314546 
L 158.579684 134.222097 
L 155.528125 134.124043 
L 152.476565 134.020389 
L 149.424998 133.911132 
L 147.936483 133.855104 
L 146.373439 133.79405 
L 143.321872 133.66904 
L 140.270312 133.538216 
L 137.218753 133.401577 
L 134.167186 133.259125 
L 131.115627 133.110859 
L 128.06406 132.956776 
L 125.0125 132.79688 
L 121.960941 132.631172 
L 118.909374 132.459647 
L 115.857814 132.282307 
L 112.806247 132.099153 
L 109.754688 131.910186 
L 106.703128 131.715403 
L 103.651562 131.514805 
L 100.600002 131.308397 
L 97.548443 131.096171 
L 94.496876 130.878129 
L 93.070115 130.773466 
L 91.445309 130.649601 
L 88.393749 130.410924 
L 85.34219 130.166208 
L 82.29063 129.915447 
L 79.239056 129.658644 
L 76.187497 129.3958 
L 73.135937 129.126913 
L 70.084378 128.851981 
L 67.032818 128.57101 
L 63.981244 128.283994 
L 60.929684 127.990936 
L 57.878125 127.691837 
L 54.826565 127.374241 
L 51.775006 127.050356 
L 48.723432 126.72018 
L 45.671872 126.383715 
L 42.620312 126.040964 
" style="fill:none;stroke:#1f77b4;stroke-width:1.5;"/>
   </g>
   <g id="LineCollection_7">
    <path clip-path="url(#pcd37a1937e)" d="M 210.456247 143.1 
L 207.404688 143.09739 
L 204.353128 143.089555 
L 201.301569 143.076494 
L 198.249995 143.058213 
L 195.198435 143.034712 
L 192.146876 143.005986 
L 189.095316 142.972034 
L 186.043757 142.932863 
L 182.992182 142.888466 
L 179.940623 142.838844 
L 176.889063 142.784001 
L 173.837504 142.723939 
L 170.785944 142.658646 
L 167.73437 142.588138 
L 164.682811 142.512399 
L 161.631251 142.431441 
L 158.579684 142.345262 
L 155.528125 142.253858 
L 152.476565 142.157229 
L 149.424998 142.055379 
L 146.373439 141.948305 
L 143.321872 141.83601 
L 140.270312 141.71849 
L 137.218753 141.595744 
L 134.167186 141.467779 
L 131.115627 141.334588 
L 128.06406 141.196177 
L 125.0125 141.052541 
L 121.960941 140.903684 
L 118.909374 140.749602 
L 115.857814 140.590295 
L 112.806247 140.425768 
L 109.754688 140.256016 
L 106.703128 140.081043 
L 105.641795 140.01837 
L 103.651562 139.896722 
L 100.600002 139.704798 
L 97.548443 139.507465 
L 94.496876 139.304725 
L 91.445309 139.096579 
L 88.393749 138.883028 
L 85.34219 138.66407 
L 82.29063 138.439707 
L 79.239056 138.209934 
L 76.187497 137.974758 
L 73.135937 137.734174 
L 70.084378 137.488185 
L 67.032818 137.236787 
L 63.981244 136.979986 
L 63.477871 136.936733 
L 60.929684 136.709815 
L 57.878125 136.432465 
L 54.826565 136.149521 
L 51.775006 135.860966 
L 48.723432 135.566806 
L 45.671872 135.267051 
L 42.620312 134.961686 
" style="fill:none;stroke:#1f77b4;stroke-width:1.5;"/>
    <path clip-path="url(#pcd37a1937e)" d="M 237.920312 142.888466 
L 234.868753 142.932863 
L 231.817193 142.972034 
L 228.765619 143.005986 
L 225.71406 143.034712 
L 222.6625 143.058213 
L 219.610941 143.076494 
L 216.559381 143.089555 
L 213.507807 143.09739 
L 210.456247 143.1 
" style="fill:none;stroke:#1f77b4;stroke-width:1.5;"/>
   </g>
   <g id="LineCollection_8">
    <path clip-path="url(#pcd37a1937e)" d="M 43.320206 143.1 
L 42.620312 143.034712 
" style="fill:none;stroke:#1f77b4;stroke-width:1.5;"/>
   </g>
   <g id="LineCollection_9"/>
   <g id="line2d_9">
    <path clip-path="url(#pcd37a1937e)" d="M 57.878125 112.283673 
L 70.084375 13.671429 
L 81.314124 72.838776 
L 91.645494 37.338367 
L 101.150355 58.638612 
L 109.894826 45.858465 
L 117.93974 53.526553 
L 125.34106 48.925701 
L 132.150275 51.686212 
L 138.414753 50.029905 
L 144.178073 51.023689 
L 149.480327 50.427419 
L 154.3584 50.785181 
L 158.846228 50.570524 
L 162.97503 50.699318 
L 166.773527 50.622042 
L 170.268145 50.668408 
L 173.483193 50.640588 
L 176.441037 50.65728 
L 179.162254 50.647265 
L 181.665774 50.653274 
" style="fill:none;stroke:#ff7f0e;stroke-linecap:square;stroke-width:1.5;"/>
    <defs>
     <path d="M 0 3 
C 0.795609 3 1.55874 2.683901 2.12132 2.12132 
C 2.683901 1.55874 3 0.795609 3 0 
C 3 -0.795609 2.683901 -1.55874 2.12132 -2.12132 
C 1.55874 -2.683901 0.795609 -3 0 -3 
C -0.795609 -3 -1.55874 -2.683901 -2.12132 -2.12132 
C -2.683901 -1.55874 -3 -0.795609 -3 0 
C -3 0.795609 -2.683901 1.55874 -2.12132 2.12132 
C -1.55874 2.683901 -0.795609 3 0 3 
z
" id="ma8a1611e95" style="stroke:#ff7f0e;"/>
    </defs>
    <g clip-path="url(#pcd37a1937e)">
     <use style="fill:#ff7f0e;stroke:#ff7f0e;" x="57.878125" xlink:href="#ma8a1611e95" y="112.283673"/>
     <use style="fill:#ff7f0e;stroke:#ff7f0e;" x="70.084375" xlink:href="#ma8a1611e95" y="13.671429"/>
     <use style="fill:#ff7f0e;stroke:#ff7f0e;" x="81.314124" xlink:href="#ma8a1611e95" y="72.838776"/>
     <use style="fill:#ff7f0e;stroke:#ff7f0e;" x="91.645494" xlink:href="#ma8a1611e95" y="37.338367"/>
     <use style="fill:#ff7f0e;stroke:#ff7f0e;" x="101.150355" xlink:href="#ma8a1611e95" y="58.638612"/>
     <use style="fill:#ff7f0e;stroke:#ff7f0e;" x="109.894826" xlink:href="#ma8a1611e95" y="45.858465"/>
     <use style="fill:#ff7f0e;stroke:#ff7f0e;" x="117.93974" xlink:href="#ma8a1611e95" y="53.526553"/>
     <use style="fill:#ff7f0e;stroke:#ff7f0e;" x="125.34106" xlink:href="#ma8a1611e95" y="48.925701"/>
     <use style="fill:#ff7f0e;stroke:#ff7f0e;" x="132.150275" xlink:href="#ma8a1611e95" y="51.686212"/>
     <use style="fill:#ff7f0e;stroke:#ff7f0e;" x="138.414753" xlink:href="#ma8a1611e95" y="50.029905"/>
     <use style="fill:#ff7f0e;stroke:#ff7f0e;" x="144.178073" xlink:href="#ma8a1611e95" y="51.023689"/>
     <use style="fill:#ff7f0e;stroke:#ff7f0e;" x="149.480327" xlink:href="#ma8a1611e95" y="50.427419"/>
     <use style="fill:#ff7f0e;stroke:#ff7f0e;" x="154.3584" xlink:href="#ma8a1611e95" y="50.785181"/>
     <use style="fill:#ff7f0e;stroke:#ff7f0e;" x="158.846228" xlink:href="#ma8a1611e95" y="50.570524"/>
     <use style="fill:#ff7f0e;stroke:#ff7f0e;" x="162.97503" xlink:href="#ma8a1611e95" y="50.699318"/>
     <use style="fill:#ff7f0e;stroke:#ff7f0e;" x="166.773527" xlink:href="#ma8a1611e95" y="50.622042"/>
     <use style="fill:#ff7f0e;stroke:#ff7f0e;" x="170.268145" xlink:href="#ma8a1611e95" y="50.668408"/>
     <use style="fill:#ff7f0e;stroke:#ff7f0e;" x="173.483193" xlink:href="#ma8a1611e95" y="50.640588"/>
     <use style="fill:#ff7f0e;stroke:#ff7f0e;" x="176.441037" xlink:href="#ma8a1611e95" y="50.65728"/>
     <use style="fill:#ff7f0e;stroke:#ff7f0e;" x="179.162254" xlink:href="#ma8a1611e95" y="50.647265"/>
     <use style="fill:#ff7f0e;stroke:#ff7f0e;" x="181.665774" xlink:href="#ma8a1611e95" y="50.653274"/>
    </g>
   </g>
   <g id="patch_3">
    <path d="M 42.620312 143.1 
L 42.620312 7.2 
" style="fill:none;stroke:#000000;stroke-linecap:square;stroke-linejoin:miter;stroke-width:0.8;"/>
   </g>
   <g id="patch_4">
    <path d="M 237.920313 143.1 
L 237.920313 7.2 
" style="fill:none;stroke:#000000;stroke-linecap:square;stroke-linejoin:miter;stroke-width:0.8;"/>
   </g>
   <g id="patch_5">
    <path d="M 42.620312 143.1 
L 237.920312 143.1 
" style="fill:none;stroke:#000000;stroke-linecap:square;stroke-linejoin:miter;stroke-width:0.8;"/>
   </g>
   <g id="patch_6">
    <path d="M 42.620312 7.2 
L 237.920312 7.2 
" style="fill:none;stroke:#000000;stroke-linecap:square;stroke-linejoin:miter;stroke-width:0.8;"/>
   </g>
  </g>
 </g>
 <defs>
  <clipPath id="pcd37a1937e">
   <rect height="135.9" width="195.3" x="42.620312" y="7.2"/>
  </clipPath>
 </defs>
</svg>
