<?xml version="1.0" encoding="utf-8" standalone="no"?>
<!DOCTYPE svg PUBLIC "-//W3C//DTD SVG 1.1//EN"
  "http://www.w3.org/Graphics/SVG/1.1/DTD/svg11.dtd">
<!-- Created with matplotlib (https://matplotlib.org/) -->
<svg height="166.978125pt" version="1.1" viewBox="0 0 235.467638 166.978125" width="235.467638pt" xmlns="http://www.w3.org/2000/svg" xmlns:xlink="http://www.w3.org/1999/xlink">
 <metadata>
  <rdf:RDF xmlns:cc="http://creativecommons.org/ns#" xmlns:dc="http://purl.org/dc/elements/1.1/" xmlns:rdf="http://www.w3.org/1999/02/22-rdf-syntax-ns#">
   <cc:Work>
    <dc:type rdf:resource="http://purl.org/dc/dcmitype/StillImage"/>
    <dc:date>2020-08-13T04:28:33.767510</dc:date>
    <dc:format>image/svg+xml</dc:format>
    <dc:creator>
     <cc:Agent>
      <dc:title>Matplotlib v3.3.0, https://matplotlib.org/</dc:title>
     </cc:Agent>
    </dc:creator>
   </cc:Work>
  </rdf:RDF>
 </metadata>
 <defs>
  <style type="text/css">*{stroke-linecap:butt;stroke-linejoin:round;}</style>
 </defs>
 <g id="figure_1">
  <g id="patch_1">
   <path d="M 0 166.978125 
L 235.467638 166.978125 
L 235.467638 0 
L 0 0 
z
" style="fill:none;"/>
  </g>
  <g id="axes_1">
   <g id="patch_2">
    <path d="M 28.942188 143.1 
L 224.242188 143.1 
L 224.242188 7.2 
L 28.942188 7.2 
z
" style="fill:#ffffff;"/>
   </g>
   <g id="matplotlib.axis_1">
    <g id="xtick_1">
     <g id="line2d_1">
      <path clip-path="url(#pd38f02b7e2)" d="M 37.81946 143.1 
L 37.81946 7.2 
" style="fill:none;stroke:#b0b0b0;stroke-linecap:square;stroke-width:0.8;"/>
     </g>
     <g id="line2d_2">
      <defs>
       <path d="M 0 0 
L 0 3.5 
" id="m0fe76b29d7" style="stroke:#000000;stroke-width:0.8;"/>
      </defs>
      <g>
       <use style="stroke:#000000;stroke-width:0.8;" x="37.81946" xlink:href="#m0fe76b29d7" y="143.1"/>
      </g>
     </g>
     <g id="text_1">
      <!-- 0 -->
      <g transform="translate(34.63821 157.698438)scale(0.1 -0.1)">
       <defs>
        <path d="M 31.78125 66.40625 
Q 24.171875 66.40625 20.328125 58.90625 
Q 16.5 51.421875 16.5 36.375 
Q 16.5 21.390625 20.328125 13.890625 
Q 24.171875 6.390625 31.78125 6.390625 
Q 39.453125 6.390625 43.28125 13.890625 
Q 47.125 21.390625 47.125 36.375 
Q 47.125 51.421875 43.28125 58.90625 
Q 39.453125 66.40625 31.78125 66.40625 
z
M 31.78125 74.21875 
Q 44.046875 74.21875 50.515625 64.515625 
Q 56.984375 54.828125 56.984375 36.375 
Q 56.984375 17.96875 50.515625 8.265625 
Q 44.046875 -1.421875 31.78125 -1.421875 
Q 19.53125 -1.421875 13.0625 8.265625 
Q 6.59375 17.96875 6.59375 36.375 
Q 6.59375 54.828125 13.0625 64.515625 
Q 19.53125 74.21875 31.78125 74.21875 
z
" id="DejaVuSans-48"/>
       </defs>
       <use xlink:href="#DejaVuSans-48"/>
      </g>
     </g>
    </g>
    <g id="xtick_2">
     <g id="line2d_3">
      <path clip-path="url(#pd38f02b7e2)" d="M 73.364096 143.1 
L 73.364096 7.2 
" style="fill:none;stroke:#b0b0b0;stroke-linecap:square;stroke-width:0.8;"/>
     </g>
     <g id="line2d_4">
      <g>
       <use style="stroke:#000000;stroke-width:0.8;" x="73.364096" xlink:href="#m0fe76b29d7" y="143.1"/>
      </g>
     </g>
     <g id="text_2">
      <!-- 200 -->
      <g transform="translate(63.820346 157.698438)scale(0.1 -0.1)">
       <defs>
        <path d="M 19.1875 8.296875 
L 53.609375 8.296875 
L 53.609375 0 
L 7.328125 0 
L 7.328125 8.296875 
Q 12.9375 14.109375 22.625 23.890625 
Q 32.328125 33.6875 34.8125 36.53125 
Q 39.546875 41.84375 41.421875 45.53125 
Q 43.3125 49.21875 43.3125 52.78125 
Q 43.3125 58.59375 39.234375 62.25 
Q 35.15625 65.921875 28.609375 65.921875 
Q 23.96875 65.921875 18.8125 64.3125 
Q 13.671875 62.703125 7.8125 59.421875 
L 7.8125 69.390625 
Q 13.765625 71.78125 18.9375 73 
Q 24.125 74.21875 28.421875 74.21875 
Q 39.75 74.21875 46.484375 68.546875 
Q 53.21875 62.890625 53.21875 53.421875 
Q 53.21875 48.921875 51.53125 44.890625 
Q 49.859375 40.875 45.40625 35.40625 
Q 44.1875 33.984375 37.640625 27.21875 
Q 31.109375 20.453125 19.1875 8.296875 
z
" id="DejaVuSans-50"/>
       </defs>
       <use xlink:href="#DejaVuSans-50"/>
       <use x="63.623047" xlink:href="#DejaVuSans-48"/>
       <use x="127.246094" xlink:href="#DejaVuSans-48"/>
      </g>
     </g>
    </g>
    <g id="xtick_3">
     <g id="line2d_5">
      <path clip-path="url(#pd38f02b7e2)" d="M 108.908731 143.1 
L 108.908731 7.2 
" style="fill:none;stroke:#b0b0b0;stroke-linecap:square;stroke-width:0.8;"/>
     </g>
     <g id="line2d_6">
      <g>
       <use style="stroke:#000000;stroke-width:0.8;" x="108.908731" xlink:href="#m0fe76b29d7" y="143.1"/>
      </g>
     </g>
     <g id="text_3">
      <!-- 400 -->
      <g transform="translate(99.364981 157.698438)scale(0.1 -0.1)">
       <defs>
        <path d="M 37.796875 64.3125 
L 12.890625 25.390625 
L 37.796875 25.390625 
z
M 35.203125 72.90625 
L 47.609375 72.90625 
L 47.609375 25.390625 
L 58.015625 25.390625 
L 58.015625 17.1875 
L 47.609375 17.1875 
L 47.609375 0 
L 37.796875 0 
L 37.796875 17.1875 
L 4.890625 17.1875 
L 4.890625 26.703125 
z
" id="DejaVuSans-52"/>
       </defs>
       <use xlink:href="#DejaVuSans-52"/>
       <use x="63.623047" xlink:href="#DejaVuSans-48"/>
       <use x="127.246094" xlink:href="#DejaVuSans-48"/>
      </g>
     </g>
    </g>
    <g id="xtick_4">
     <g id="line2d_7">
      <path clip-path="url(#pd38f02b7e2)" d="M 144.453367 143.1 
L 144.453367 7.2 
" style="fill:none;stroke:#b0b0b0;stroke-linecap:square;stroke-width:0.8;"/>
     </g>
     <g id="line2d_8">
      <g>
       <use style="stroke:#000000;stroke-width:0.8;" x="144.453367" xlink:href="#m0fe76b29d7" y="143.1"/>
      </g>
     </g>
     <g id="text_4">
      <!-- 600 -->
      <g transform="translate(134.909617 157.698438)scale(0.1 -0.1)">
       <defs>
        <path d="M 33.015625 40.375 
Q 26.375 40.375 22.484375 35.828125 
Q 18.609375 31.296875 18.609375 23.390625 
Q 18.609375 15.53125 22.484375 10.953125 
Q 26.375 6.390625 33.015625 6.390625 
Q 39.65625 6.390625 43.53125 10.953125 
Q 47.40625 15.53125 47.40625 23.390625 
Q 47.40625 31.296875 43.53125 35.828125 
Q 39.65625 40.375 33.015625 40.375 
z
M 52.59375 71.296875 
L 52.59375 62.3125 
Q 48.875 64.0625 45.09375 64.984375 
Q 41.3125 65.921875 37.59375 65.921875 
Q 27.828125 65.921875 22.671875 59.328125 
Q 17.53125 52.734375 16.796875 39.40625 
Q 19.671875 43.65625 24.015625 45.921875 
Q 28.375 48.1875 33.59375 48.1875 
Q 44.578125 48.1875 50.953125 41.515625 
Q 57.328125 34.859375 57.328125 23.390625 
Q 57.328125 12.15625 50.6875 5.359375 
Q 44.046875 -1.421875 33.015625 -1.421875 
Q 20.359375 -1.421875 13.671875 8.265625 
Q 6.984375 17.96875 6.984375 36.375 
Q 6.984375 53.65625 15.1875 63.9375 
Q 23.390625 74.21875 37.203125 74.21875 
Q 40.921875 74.21875 44.703125 73.484375 
Q 48.484375 72.75 52.59375 71.296875 
z
" id="DejaVuSans-54"/>
       </defs>
       <use xlink:href="#DejaVuSans-54"/>
       <use x="63.623047" xlink:href="#DejaVuSans-48"/>
       <use x="127.246094" xlink:href="#DejaVuSans-48"/>
      </g>
     </g>
    </g>
    <g id="xtick_5">
     <g id="line2d_9">
      <path clip-path="url(#pd38f02b7e2)" d="M 179.998002 143.1 
L 179.998002 7.2 
" style="fill:none;stroke:#b0b0b0;stroke-linecap:square;stroke-width:0.8;"/>
     </g>
     <g id="line2d_10">
      <g>
       <use style="stroke:#000000;stroke-width:0.8;" x="179.998002" xlink:href="#m0fe76b29d7" y="143.1"/>
      </g>
     </g>
     <g id="text_5">
      <!-- 800 -->
      <g transform="translate(170.454252 157.698438)scale(0.1 -0.1)">
       <defs>
        <path d="M 31.78125 34.625 
Q 24.75 34.625 20.71875 30.859375 
Q 16.703125 27.09375 16.703125 20.515625 
Q 16.703125 13.921875 20.71875 10.15625 
Q 24.75 6.390625 31.78125 6.390625 
Q 38.8125 6.390625 42.859375 10.171875 
Q 46.921875 13.96875 46.921875 20.515625 
Q 46.921875 27.09375 42.890625 30.859375 
Q 38.875 34.625 31.78125 34.625 
z
M 21.921875 38.8125 
Q 15.578125 40.375 12.03125 44.71875 
Q 8.5 49.078125 8.5 55.328125 
Q 8.5 64.0625 14.71875 69.140625 
Q 20.953125 74.21875 31.78125 74.21875 
Q 42.671875 74.21875 48.875 69.140625 
Q 55.078125 64.0625 55.078125 55.328125 
Q 55.078125 49.078125 51.53125 44.71875 
Q 48 40.375 41.703125 38.8125 
Q 48.828125 37.15625 52.796875 32.3125 
Q 56.78125 27.484375 56.78125 20.515625 
Q 56.78125 9.90625 50.3125 4.234375 
Q 43.84375 -1.421875 31.78125 -1.421875 
Q 19.734375 -1.421875 13.25 4.234375 
Q 6.78125 9.90625 6.78125 20.515625 
Q 6.78125 27.484375 10.78125 32.3125 
Q 14.796875 37.15625 21.921875 38.8125 
z
M 18.3125 54.390625 
Q 18.3125 48.734375 21.84375 45.5625 
Q 25.390625 42.390625 31.78125 42.390625 
Q 38.140625 42.390625 41.71875 45.5625 
Q 45.3125 48.734375 45.3125 54.390625 
Q 45.3125 60.0625 41.71875 63.234375 
Q 38.140625 66.40625 31.78125 66.40625 
Q 25.390625 66.40625 21.84375 63.234375 
Q 18.3125 60.0625 18.3125 54.390625 
z
" id="DejaVuSans-56"/>
       </defs>
       <use xlink:href="#DejaVuSans-56"/>
       <use x="63.623047" xlink:href="#DejaVuSans-48"/>
       <use x="127.246094" xlink:href="#DejaVuSans-48"/>
      </g>
     </g>
    </g>
    <g id="xtick_6">
     <g id="line2d_11">
      <path clip-path="url(#pd38f02b7e2)" d="M 215.542638 143.1 
L 215.542638 7.2 
" style="fill:none;stroke:#b0b0b0;stroke-linecap:square;stroke-width:0.8;"/>
     </g>
     <g id="line2d_12">
      <g>
       <use style="stroke:#000000;stroke-width:0.8;" x="215.542638" xlink:href="#m0fe76b29d7" y="143.1"/>
      </g>
     </g>
     <g id="text_6">
      <!-- 1000 -->
      <g transform="translate(202.817638 157.698438)scale(0.1 -0.1)">
       <defs>
        <path d="M 12.40625 8.296875 
L 28.515625 8.296875 
L 28.515625 63.921875 
L 10.984375 60.40625 
L 10.984375 69.390625 
L 28.421875 72.90625 
L 38.28125 72.90625 
L 38.28125 8.296875 
L 54.390625 8.296875 
L 54.390625 0 
L 12.40625 0 
z
" id="DejaVuSans-49"/>
       </defs>
       <use xlink:href="#DejaVuSans-49"/>
       <use x="63.623047" xlink:href="#DejaVuSans-48"/>
       <use x="127.246094" xlink:href="#DejaVuSans-48"/>
       <use x="190.869141" xlink:href="#DejaVuSans-48"/>
      </g>
     </g>
    </g>
   </g>
   <g id="matplotlib.axis_2">
    <g id="ytick_1">
     <g id="line2d_13">
      <path clip-path="url(#pd38f02b7e2)" d="M 28.942188 120.878362 
L 224.242188 120.878362 
" style="fill:none;stroke:#b0b0b0;stroke-linecap:square;stroke-width:0.8;"/>
     </g>
     <g id="line2d_14">
      <defs>
       <path d="M 0 0 
L -3.5 0 
" id="mb3d1a010a6" style="stroke:#000000;stroke-width:0.8;"/>
      </defs>
      <g>
       <use style="stroke:#000000;stroke-width:0.8;" x="28.942188" xlink:href="#mb3d1a010a6" y="120.878362"/>
      </g>
     </g>
     <g id="text_7">
      <!-- −1 -->
      <g transform="translate(7.2 124.677581)scale(0.1 -0.1)">
       <defs>
        <path d="M 10.59375 35.5 
L 73.1875 35.5 
L 73.1875 27.203125 
L 10.59375 27.203125 
z
" id="DejaVuSans-8722"/>
       </defs>
       <use xlink:href="#DejaVuSans-8722"/>
       <use x="83.789062" xlink:href="#DejaVuSans-49"/>
      </g>
     </g>
    </g>
    <g id="ytick_2">
     <g id="line2d_15">
      <path clip-path="url(#pd38f02b7e2)" d="M 28.942188 79.495756 
L 224.242188 79.495756 
" style="fill:none;stroke:#b0b0b0;stroke-linecap:square;stroke-width:0.8;"/>
     </g>
     <g id="line2d_16">
      <g>
       <use style="stroke:#000000;stroke-width:0.8;" x="28.942188" xlink:href="#mb3d1a010a6" y="79.495756"/>
      </g>
     </g>
     <g id="text_8">
      <!-- 0 -->
      <g transform="translate(15.579688 83.294975)scale(0.1 -0.1)">
       <use xlink:href="#DejaVuSans-48"/>
      </g>
     </g>
    </g>
    <g id="ytick_3">
     <g id="line2d_17">
      <path clip-path="url(#pd38f02b7e2)" d="M 28.942188 38.113151 
L 224.242188 38.113151 
" style="fill:none;stroke:#b0b0b0;stroke-linecap:square;stroke-width:0.8;"/>
     </g>
     <g id="line2d_18">
      <g>
       <use style="stroke:#000000;stroke-width:0.8;" x="28.942188" xlink:href="#mb3d1a010a6" y="38.113151"/>
      </g>
     </g>
     <g id="text_9">
      <!-- 1 -->
      <g transform="translate(15.579688 41.91237)scale(0.1 -0.1)">
       <use xlink:href="#DejaVuSans-49"/>
      </g>
     </g>
    </g>
   </g>
   <g id="line2d_19">
    <path clip-path="url(#pd38f02b7e2)" d="M 37.81946 61.186383 
L 37.997183 69.455692 
L 38.35263 74.250246 
L 38.530353 69.204836 
L 38.708076 74.948145 
L 38.885799 67.215505 
L 39.063522 75.334821 
L 39.241246 60.531889 
L 39.418969 85.450069 
L 39.596692 85.583753 
L 39.774415 62.057434 
L 39.952138 89.199713 
L 40.129862 78.64968 
L 40.307585 77.456992 
L 40.485308 92.808037 
L 40.663031 68.107474 
L 40.840754 68.013309 
L 41.018477 87.448948 
L 41.196201 49.511565 
L 41.373924 87.635989 
L 41.551647 60.485135 
L 41.72937 72.186522 
L 41.907093 74.603392 
L 42.084816 67.636041 
L 42.26254 74.894379 
L 42.440263 69.164654 
L 42.617986 69.57766 
L 42.795709 72.096312 
L 42.973432 64.540147 
L 43.151156 67.453554 
L 43.506602 61.722367 
L 43.684325 61.357899 
L 43.862048 53.560768 
L 44.039771 88.132088 
L 44.217495 59.237635 
L 44.395218 55.623313 
L 44.750664 68.845451 
L 45.106111 47.847901 
L 45.461557 71.736126 
L 45.63928 69.906686 
L 45.817003 61.050159 
L 45.994726 67.544097 
L 46.17245 81.507359 
L 46.350173 66.909831 
L 46.527896 64.916834 
L 46.705619 53.516581 
L 46.883342 52.187449 
L 47.061065 71.128553 
L 47.238789 60.462035 
L 47.416512 67.100946 
L 47.594235 56.199411 
L 47.771958 66.142018 
L 47.949681 54.267141 
L 48.127405 67.807366 
L 48.305128 52.035442 
L 48.482851 68.336971 
L 48.660574 43.213296 
L 48.838297 59.78908 
L 49.01602 39.356187 
L 49.193744 44.302061 
L 49.371467 67.474203 
L 49.54919 46.715368 
L 49.904636 58.453773 
L 50.260083 42.870957 
L 50.437806 41.669042 
L 50.615529 60.247017 
L 50.793252 47.730979 
L 51.148699 61.132234 
L 51.326422 47.909945 
L 51.504145 55.241723 
L 51.681868 42.695 
L 51.859591 63.27468 
L 52.037314 61.583669 
L 52.215038 58.694863 
L 52.570484 48.306705 
L 52.748207 32.054339 
L 52.92593 56.008328 
L 53.103654 45.764619 
L 53.281377 54.037755 
L 53.4591 42.961918 
L 53.636823 57.337256 
L 53.992269 31.810249 
L 54.347716 58.92565 
L 54.525439 61.71199 
L 54.703162 66.651982 
L 54.880885 40.176081 
L 55.058608 56.573966 
L 55.236332 48.891885 
L 55.414055 52.823463 
L 55.591778 41.982731 
L 55.947224 54.994723 
L 56.124948 34.815303 
L 56.480394 47.557957 
L 56.658117 31.3661 
L 56.83584 52.91113 
L 57.013563 40.998922 
L 57.191287 49.361357 
L 57.36901 38.650985 
L 57.546733 34.714833 
L 57.724456 34.228539 
L 57.902179 68.187654 
L 58.257626 23.568407 
L 58.435349 42.119913 
L 58.613072 45.850368 
L 58.790795 43.870742 
L 58.968518 48.20462 
L 59.146242 42.385055 
L 59.323965 56.349964 
L 59.501688 37.68236 
L 59.679411 46.456933 
L 59.857134 34.19743 
L 60.034857 43.170873 
L 60.212581 33.650502 
L 60.390304 41.292457 
L 60.74575 24.857287 
L 61.27892 38.858006 
L 61.456643 53.68872 
L 61.634366 32.186159 
L 61.989812 45.653533 
L 62.167536 37.737814 
L 62.345259 40.261358 
L 62.700705 30.965741 
L 62.878428 34.857343 
L 63.056151 35.624376 
L 63.233875 45.923996 
L 63.411598 32.016496 
L 63.589321 34.327435 
L 63.767044 46.728725 
L 63.944767 45.808006 
L 64.122491 41.524475 
L 64.300214 48.296505 
L 64.477937 27.319793 
L 64.65566 20.34206 
L 64.833383 41.74965 
L 65.011106 29.094543 
L 65.18883 32.212083 
L 65.366553 22.999708 
L 65.544276 30.45634 
L 65.721999 46.759397 
L 65.899722 45.604749 
L 66.077445 29.792786 
L 66.255169 38.748921 
L 66.610615 31.355464 
L 66.966061 53.759738 
L 67.143785 26.846936 
L 67.499231 36.612602 
L 67.676954 22.536003 
L 68.0324 35.698502 
L 68.210124 40.465104 
L 68.56557 36.163307 
L 68.743293 54.594138 
L 68.921016 55.314061 
L 69.276463 36.025331 
L 69.454186 30.674777 
L 69.631909 45.430585 
L 69.809632 42.124565 
L 69.987355 28.867695 
L 70.165079 25.880973 
L 70.342802 47.465633 
L 70.698248 35.510794 
L 70.875971 54.214993 
L 71.053694 33.693229 
L 71.231418 33.671809 
L 71.409141 26.266487 
L 71.586864 32.958815 
L 71.764587 30.064531 
L 71.94231 13.377273 
L 72.297757 50.813873 
L 72.47548 27.476989 
L 72.653203 25.533292 
L 72.830926 51.413081 
L 73.008649 46.221968 
L 73.186373 21.832925 
L 73.364096 42.064652 
L 73.541819 45.227964 
L 73.719542 33.31581 
L 73.897265 50.575733 
L 74.074988 53.086742 
L 74.252712 34.84061 
L 74.608158 55.558619 
L 74.785881 31.821053 
L 74.963604 38.099999 
L 75.141328 35.461403 
L 75.319051 45.549162 
L 75.496774 48.765213 
L 75.674497 46.676342 
L 75.85222 60.490412 
L 76.029943 37.263576 
L 76.207667 34.835539 
L 76.38539 27.337217 
L 76.563113 49.463116 
L 76.740836 45.173815 
L 76.918559 44.217575 
L 77.096283 45.688554 
L 77.274006 57.495599 
L 77.451729 37.467406 
L 77.629452 59.012792 
L 77.807175 50.243207 
L 77.984898 53.945547 
L 78.340345 45.563246 
L 78.695791 51.149836 
L 78.873514 44.80369 
L 79.051237 47.812998 
L 79.228961 38.055013 
L 79.406684 53.574474 
L 79.584407 35.132951 
L 79.76213 52.226986 
L 79.939853 45.296274 
L 80.117577 53.090669 
L 80.2953 36.246441 
L 80.650746 62.220057 
L 80.828469 61.40075 
L 81.006192 49.265628 
L 81.183916 50.265374 
L 81.361639 56.501337 
L 81.539362 56.488621 
L 81.717085 43.114617 
L 81.894808 63.127453 
L 82.072531 52.660973 
L 82.250255 58.336637 
L 82.427978 55.779465 
L 82.605701 63.17512 
L 82.783424 43.616357 
L 82.961147 74.668273 
L 83.494317 49.374999 
L 83.67204 60.828289 
L 83.849763 53.355951 
L 84.027486 53.952732 
L 84.20521 59.846017 
L 84.382933 51.302397 
L 84.560656 52.268405 
L 84.916102 68.28424 
L 85.093826 73.206721 
L 85.271549 34.771555 
L 85.449272 62.368436 
L 85.804718 66.168459 
L 85.982441 66.264589 
L 86.160165 64.041664 
L 86.337888 51.044934 
L 86.693334 66.334734 
L 86.871057 60.214801 
L 87.04878 65.817362 
L 87.58195 59.329757 
L 87.759673 52.692933 
L 88.11512 77.272253 
L 88.470566 66.449107 
L 88.648289 53.761756 
L 89.003735 69.744738 
L 89.181459 67.418809 
L 89.359182 56.668964 
L 89.536905 61.771694 
L 89.714628 61.199602 
L 89.892351 69.904682 
L 90.070074 58.848061 
L 90.247798 67.184793 
L 90.425521 67.57938 
L 90.603244 87.832621 
L 90.780967 83.805639 
L 90.95869 77.127781 
L 91.136414 79.014395 
L 91.314137 79.667611 
L 91.49186 79.045241 
L 91.669583 79.985133 
L 92.025029 70.390402 
L 92.202753 78.86933 
L 92.380476 62.798355 
L 92.735922 77.44471 
L 92.913645 71.817575 
L 93.091368 87.183126 
L 93.269092 81.329586 
L 93.446815 80.631515 
L 93.624538 83.713631 
L 93.802261 102.943352 
L 93.979984 74.27243 
L 94.157708 83.627571 
L 94.335431 69.151579 
L 94.513154 93.896924 
L 94.690877 80.473664 
L 94.8686 93.163627 
L 95.046323 82.077654 
L 95.40177 85.540139 
L 95.579493 67.389718 
L 95.757216 68.33027 
L 95.934939 88.992795 
L 96.112663 66.109895 
L 96.290386 79.089534 
L 96.468109 83.494496 
L 96.645832 81.759103 
L 96.823555 86.975879 
L 97.001278 85.055962 
L 97.179002 89.549044 
L 97.356725 100.263955 
L 97.534448 82.868593 
L 97.712171 86.621343 
L 97.889894 94.520314 
L 98.067617 93.096403 
L 98.245341 86.156008 
L 98.423064 87.819541 
L 98.600787 85.590959 
L 98.77851 93.614806 
L 98.956233 78.826949 
L 99.133957 102.317199 
L 99.31168 106.744947 
L 99.489403 85.642345 
L 99.667126 92.603754 
L 99.844849 83.036047 
L 100.022572 97.181076 
L 100.200296 88.122012 
L 100.555742 108.698935 
L 100.733465 93.437618 
L 100.911188 94.296782 
L 101.088911 91.641561 
L 101.266635 104.845314 
L 101.622081 92.371448 
L 101.799804 99.250642 
L 101.977527 81.880766 
L 102.332974 104.235487 
L 102.510697 94.441921 
L 102.68842 96.7047 
L 102.866143 106.941217 
L 103.043866 109.525526 
L 103.22159 123.579768 
L 103.399313 86.338044 
L 103.577036 105.380447 
L 103.754759 105.115586 
L 103.932482 88.732698 
L 104.110206 106.839709 
L 104.287929 90.562693 
L 104.465652 113.682736 
L 104.643375 115.703788 
L 104.821098 105.383554 
L 104.998821 111.079942 
L 105.176545 109.397813 
L 105.354268 94.158022 
L 105.531991 102.134903 
L 105.709714 102.135376 
L 105.887437 100.882331 
L 106.06516 103.24159 
L 106.420607 121.530264 
L 106.59833 105.890775 
L 106.776053 108.829924 
L 106.953776 109.329483 
L 107.1315 99.789627 
L 107.309223 99.593875 
L 107.664669 128.027237 
L 107.842392 99.297926 
L 108.197839 113.990725 
L 108.375562 114.585293 
L 108.553285 112.01883 
L 108.731008 112.399147 
L 108.908731 119.673423 
L 109.264178 100.287613 
L 109.441901 118.803055 
L 109.619624 105.474764 
L 109.797347 105.256194 
L 109.97507 115.425694 
L 110.152794 110.77036 
L 110.330517 114.021059 
L 110.50824 111.482076 
L 110.685963 111.897791 
L 110.863686 116.035143 
L 111.041409 99.894135 
L 111.396856 118.847047 
L 111.574579 113.656133 
L 111.752302 123.257009 
L 111.930025 123.26285 
L 112.107749 108.776875 
L 112.285472 124.678384 
L 112.463195 115.253834 
L 112.640918 118.458652 
L 112.818641 108.012795 
L 112.996364 112.100284 
L 113.174088 108.236954 
L 113.351811 125.230877 
L 113.529534 127.017353 
L 113.707257 114.098438 
L 113.88498 116.896076 
L 114.062703 123.35363 
L 114.240427 95.478504 
L 114.41815 121.491094 
L 114.773596 110.002077 
L 114.951319 127.468607 
L 115.484489 113.955921 
L 115.662212 114.933818 
L 115.839935 121.352027 
L 116.017658 118.968573 
L 116.195382 113.593803 
L 116.373105 118.154215 
L 116.550828 117.257676 
L 116.728551 119.900157 
L 116.906274 107.625384 
L 117.083997 107.747786 
L 117.261721 112.275467 
L 117.439444 119.810215 
L 117.617167 110.951874 
L 117.79489 113.318661 
L 117.972613 124.016414 
L 118.150337 123.101337 
L 118.505783 109.318475 
L 118.683506 115.613051 
L 118.861229 112.922033 
L 119.038952 123.612105 
L 119.216676 117.165282 
L 119.394399 124.773348 
L 119.572122 107.063313 
L 119.749845 121.8178 
L 119.927568 122.193033 
L 120.105292 120.745834 
L 120.283015 131.906313 
L 120.460738 114.060004 
L 120.638461 130.795595 
L 120.816184 135.485028 
L 120.993907 122.6171 
L 121.171631 129.77368 
L 121.349354 125.478173 
L 121.527077 113.543864 
L 121.882523 131.20362 
L 122.060246 129.550606 
L 122.23797 120.589859 
L 122.415693 122.477051 
L 122.593416 127.858961 
L 122.948862 111.781864 
L 123.126586 121.039613 
L 123.304309 119.713828 
L 123.482032 122.150001 
L 123.659755 113.661104 
L 123.837478 125.804015 
L 124.015201 110.239938 
L 124.192925 128.720814 
L 124.370648 134.13284 
L 124.548371 122.249878 
L 124.726094 124.352414 
L 124.903817 108.59078 
L 125.08154 123.969603 
L 125.259264 123.215017 
L 125.436987 126.687787 
L 125.61471 119.64797 
L 125.970156 125.777494 
L 126.14788 110.981732 
L 126.325603 120.672461 
L 126.503326 121.430416 
L 126.681049 116.982133 
L 126.858772 124.14001 
L 127.036495 110.459875 
L 127.214219 114.110905 
L 127.569665 131.343051 
L 127.747388 105.799847 
L 127.925111 122.232301 
L 128.102835 107.776369 
L 128.458281 120.562633 
L 128.636004 109.440751 
L 128.813727 121.49066 
L 128.99145 115.069382 
L 129.169174 124.778247 
L 129.346897 124.16105 
L 129.52462 114.700608 
L 129.702343 125.041842 
L 129.880066 116.733665 
L 130.057789 121.876815 
L 130.235513 117.020469 
L 130.413236 131.728807 
L 130.590959 118.086573 
L 130.768682 129.369538 
L 130.946405 102.981261 
L 131.124129 136.922727 
L 131.479575 99.179735 
L 131.657298 107.67702 
L 131.835021 110.441311 
L 132.190468 127.786211 
L 132.368191 104.126059 
L 132.545914 116.666475 
L 132.723637 112.667189 
L 132.90136 123.84023 
L 133.079083 111.12919 
L 133.43453 120.088987 
L 133.612253 106.300464 
L 133.967699 107.683218 
L 134.323146 101.788198 
L 134.500869 116.602238 
L 134.678592 114.762148 
L 134.856315 115.091468 
L 135.034038 111.099307 
L 135.211762 110.28538 
L 135.389485 108.803879 
L 135.567208 104.198703 
L 135.922654 115.93785 
L 136.278101 102.560358 
L 136.455824 112.547036 
L 136.633547 100.337502 
L 136.81127 107.188089 
L 136.988993 106.618078 
L 137.166717 94.111153 
L 137.522163 111.994099 
L 137.699886 96.443226 
L 137.877609 104.225014 
L 138.055332 105.280606 
L 138.233056 120.080132 
L 138.410779 118.490387 
L 138.588502 89.83841 
L 138.766225 106.030338 
L 138.943948 84.605145 
L 139.121672 88.615231 
L 139.299395 118.79715 
L 139.654841 100.9359 
L 139.832564 110.403427 
L 140.188011 91.0267 
L 140.365734 88.713451 
L 140.543457 96.888154 
L 140.72118 113.620686 
L 140.898903 101.856355 
L 141.25435 106.717119 
L 141.432073 100.269185 
L 141.787519 98.730499 
L 141.965242 95.090497 
L 142.142966 88.947159 
L 142.320689 103.060189 
L 142.676135 87.760844 
L 142.853858 95.339569 
L 143.031581 82.600066 
L 143.209305 95.407738 
L 143.387028 88.275608 
L 143.564751 89.971996 
L 143.742474 99.397006 
L 143.920197 93.924027 
L 144.097921 93.168367 
L 144.275644 84.232812 
L 144.453367 93.319137 
L 144.63109 74.620802 
L 144.808813 84.594842 
L 144.986536 75.755906 
L 145.16426 79.495247 
L 145.341983 96.997589 
L 145.519706 77.401648 
L 145.697429 81.634161 
L 145.875152 81.416267 
L 146.052875 93.70253 
L 146.230599 92.338843 
L 146.408322 78.425702 
L 146.586045 84.092971 
L 146.763768 111.774834 
L 146.941491 80.885242 
L 147.119215 84.085506 
L 147.296938 83.082146 
L 147.474661 74.897531 
L 147.652384 91.323235 
L 147.830107 84.150347 
L 148.185554 78.409045 
L 148.363277 73.250778 
L 148.718723 84.330448 
L 149.251893 68.601754 
L 149.962785 96.067144 
L 150.140509 70.697456 
L 150.318232 85.269484 
L 150.495955 73.33733 
L 150.673678 71.245129 
L 151.029124 92.601991 
L 151.206848 85.591138 
L 151.384571 88.450624 
L 151.562294 74.481043 
L 151.740017 77.171881 
L 151.91774 70.668933 
L 152.095464 76.342801 
L 152.273187 65.906179 
L 152.45091 92.023721 
L 152.628633 70.505827 
L 152.806356 67.735374 
L 152.984079 69.523823 
L 153.161803 77.891536 
L 153.339526 76.138449 
L 153.517249 70.762256 
L 153.694972 74.829783 
L 153.872695 71.49889 
L 154.050418 75.214502 
L 154.228142 74.919778 
L 154.405865 59.13101 
L 154.761311 67.186864 
L 154.939034 71.286306 
L 155.116758 66.524291 
L 155.294481 69.140389 
L 155.472204 50.115777 
L 155.649927 72.892522 
L 155.82765 64.40276 
L 156.005373 70.838122 
L 156.183097 60.894884 
L 156.36082 75.621345 
L 156.538543 56.683764 
L 156.716266 69.328891 
L 156.893989 65.37778 
L 157.071712 70.221155 
L 157.249436 62.035984 
L 157.427159 64.189032 
L 157.604882 72.623174 
L 157.782605 55.591074 
L 157.960328 61.086491 
L 158.138052 57.935156 
L 158.315775 73.654925 
L 158.671221 56.300864 
L 158.848944 61.482311 
L 159.026667 48.855497 
L 159.204391 53.6948 
L 159.382114 39.012965 
L 159.559837 58.564133 
L 159.73756 58.461289 
L 159.915283 60.142492 
L 160.093007 50.991399 
L 160.27073 50.973632 
L 160.448453 58.646007 
L 160.626176 56.743021 
L 160.803899 48.422149 
L 160.981622 63.664601 
L 161.159346 63.562733 
L 161.337069 41.182279 
L 161.514792 47.825408 
L 161.692515 64.161723 
L 161.870238 48.36522 
L 162.047961 50.844854 
L 162.225685 42.606888 
L 162.403408 51.522921 
L 162.581131 52.384224 
L 162.758854 74.097753 
L 162.936577 68.327605 
L 163.114301 37.713829 
L 163.292024 43.476913 
L 163.469747 54.819762 
L 163.64747 41.410185 
L 163.825193 42.250638 
L 164.002916 60.39754 
L 164.18064 66.876876 
L 164.358363 46.424147 
L 164.713809 51.928528 
L 164.891532 39.044932 
L 165.069255 49.106856 
L 165.246979 41.523527 
L 165.602425 59.585957 
L 165.780148 42.301359 
L 166.135595 50.990484 
L 166.313318 39.637532 
L 166.491041 45.769957 
L 166.668764 45.029243 
L 166.846487 50.86078 
L 167.02421 48.009808 
L 167.201934 51.433238 
L 167.379657 50.689544 
L 167.55738 44.51722 
L 167.735103 52.153429 
L 167.912826 49.396834 
L 168.090549 54.041024 
L 168.268273 51.183438 
L 168.445996 30.487192 
L 168.623719 47.680271 
L 168.801442 40.106007 
L 168.979165 40.186648 
L 169.156889 35.243602 
L 169.334612 47.685095 
L 169.512335 45.459649 
L 169.690058 54.191264 
L 169.867781 53.550669 
L 170.045504 53.941585 
L 170.223228 50.272968 
L 170.400951 34.507412 
L 170.578674 31.766936 
L 170.756397 34.964191 
L 170.93412 46.155616 
L 171.111844 40.550123 
L 171.46729 55.361999 
L 171.822736 34.520392 
L 172.000459 42.855514 
L 172.178183 43.521766 
L 172.355906 31.451256 
L 172.533629 33.124994 
L 172.711352 46.732333 
L 172.889075 14.912561 
L 173.066798 38.280095 
L 173.244522 32.926927 
L 173.422245 21.709536 
L 173.599968 38.56713 
L 173.777691 29.81211 
L 173.955414 40.328146 
L 174.133138 34.622948 
L 174.310861 45.385883 
L 174.666307 23.765892 
L 174.84403 41.960349 
L 175.021753 37.038756 
L 175.199477 43.980851 
L 175.3772 30.065962 
L 175.554923 48.359912 
L 175.732646 39.762146 
L 175.910369 47.971978 
L 176.088092 24.122157 
L 176.265816 44.133183 
L 176.443539 40.782158 
L 176.621262 46.05844 
L 176.798985 45.127724 
L 176.976708 36.30527 
L 177.154432 34.479885 
L 177.332155 39.039621 
L 177.509878 34.946881 
L 177.687601 37.808837 
L 177.865324 44.047686 
L 178.043047 41.932538 
L 178.220771 50.72215 
L 178.398494 33.375309 
L 178.576217 39.693624 
L 178.75394 36.154057 
L 178.931663 25.50497 
L 179.109387 53.197483 
L 179.28711 34.903498 
L 179.464833 38.014571 
L 179.642556 46.183415 
L 179.820279 46.283731 
L 179.998002 34.610783 
L 180.353449 41.551432 
L 180.531172 39.346898 
L 180.708895 34.947063 
L 180.886618 41.421218 
L 181.064341 23.521467 
L 181.419788 48.396676 
L 181.597511 47.136969 
L 181.775234 32.546953 
L 181.952957 41.652397 
L 182.130681 43.378407 
L 182.486127 34.150906 
L 182.66385 28.656702 
L 182.841573 50.230462 
L 183.019296 50.11998 
L 183.19702 41.795677 
L 183.374743 38.784674 
L 183.552466 47.301091 
L 183.730189 50.464897 
L 183.907912 32.805812 
L 184.085635 42.118182 
L 184.263359 40.90606 
L 184.441082 49.324188 
L 184.618805 40.213237 
L 184.796528 59.666504 
L 185.151975 30.069854 
L 185.329698 39.433034 
L 185.507421 25.972588 
L 185.685144 37.992524 
L 185.862867 41.466174 
L 186.04059 37.959112 
L 186.218314 40.449821 
L 186.396037 38.092658 
L 186.57376 52.175683 
L 186.751483 33.552929 
L 186.929206 55.479517 
L 187.284653 28.332522 
L 187.462376 47.551386 
L 187.640099 39.81194 
L 187.817822 54.653709 
L 188.173269 39.474862 
L 188.350992 49.383771 
L 188.528715 45.272047 
L 188.706438 48.59997 
L 188.884161 54.865577 
L 189.061884 37.870675 
L 189.239608 47.107029 
L 189.417331 49.069188 
L 189.595054 49.476769 
L 189.772777 48.274742 
L 189.9505 27.126934 
L 190.305947 50.325374 
L 190.48367 43.42439 
L 191.016839 58.870053 
L 191.194563 52.45832 
L 191.372286 50.749453 
L 191.550009 53.723015 
L 191.727732 45.112022 
L 191.905455 53.364291 
L 192.083178 45.957494 
L 192.438625 65.988044 
L 192.616348 47.260873 
L 192.794071 49.56917 
L 192.971794 37.428449 
L 193.504964 55.079586 
L 193.682687 49.80267 
L 193.86041 59.891125 
L 194.038133 37.780225 
L 194.215857 52.246679 
L 194.39358 54.979933 
L 194.571303 46.237283 
L 194.926749 61.167403 
L 195.104473 42.045447 
L 195.282196 52.611377 
L 195.459919 49.672404 
L 195.637642 39.872386 
L 195.815365 57.205397 
L 195.993088 59.34064 
L 196.170812 59.325328 
L 196.348535 58.685941 
L 196.526258 67.402969 
L 196.703981 58.490022 
L 196.881704 60.781169 
L 197.059427 80.520448 
L 197.237151 57.977079 
L 197.414874 53.769311 
L 197.592597 57.055134 
L 197.948043 70.116118 
L 198.125767 58.084625 
L 198.30349 67.839793 
L 198.481213 55.511736 
L 198.658936 83.725033 
L 198.836659 57.552656 
L 199.014382 62.834192 
L 199.192106 78.228103 
L 199.369829 57.096566 
L 199.725275 75.122943 
L 199.902998 66.78984 
L 200.080721 64.375531 
L 200.258445 65.318657 
L 200.436168 60.474079 
L 200.613891 88.396829 
L 200.791614 68.62111 
L 200.969337 68.802008 
L 201.147061 63.202157 
L 201.324784 78.837217 
L 201.502507 69.740873 
L 201.68023 69.210446 
L 201.857953 67.105062 
L 202.035676 76.305647 
L 202.2134 65.460927 
L 202.391123 77.102387 
L 202.746569 85.192667 
L 203.279739 69.808707 
L 203.457462 70.495731 
L 203.635185 77.878582 
L 203.812908 73.711147 
L 203.990631 86.069917 
L 204.346078 69.588035 
L 204.523801 90.473413 
L 204.701524 80.682304 
L 205.05697 71.912611 
L 205.234694 80.928819 
L 205.412417 81.276483 
L 205.59014 90.537687 
L 205.767863 70.333317 
L 205.945586 64.042479 
L 206.12331 89.413893 
L 206.301033 83.527469 
L 206.478756 87.529499 
L 206.656479 78.048088 
L 206.834202 80.839578 
L 207.011925 79.204161 
L 207.189649 86.662563 
L 207.367372 84.884087 
L 207.545095 89.074014 
L 207.722818 84.838719 
L 207.900541 91.376439 
L 208.078264 86.235541 
L 208.255988 92.228789 
L 208.433711 90.341115 
L 208.611434 73.764792 
L 208.96688 79.942737 
L 209.322327 67.826077 
L 209.50005 98.04684 
L 209.677773 99.248879 
L 209.855496 79.991422 
L 210.033219 104.437877 
L 210.210943 73.01645 
L 210.388666 94.629453 
L 210.566389 87.345763 
L 210.744112 100.250949 
L 210.921835 102.345404 
L 211.099559 101.050407 
L 211.277282 101.589082 
L 211.455005 88.396202 
L 211.632728 107.004453 
L 211.810451 86.901353 
L 211.988174 115.165441 
L 212.343621 88.277292 
L 212.521344 107.418451 
L 212.699067 92.776485 
L 212.87679 98.852229 
L 213.054513 119.721366 
L 213.232237 92.412392 
L 213.40996 92.454921 
L 213.587683 99.675501 
L 213.765406 79.547835 
L 213.943129 107.712766 
L 214.120853 105.703437 
L 214.298576 115.110238 
L 214.476299 99.231737 
L 214.654022 96.926827 
L 215.009468 108.451762 
L 215.187192 99.025759 
L 215.364915 107.525474 
L 215.364915 107.525474 
" style="fill:none;stroke:#1f77b4;stroke-linecap:square;stroke-width:1.5;"/>
   </g>
   <g id="patch_3">
    <path d="M 28.942188 143.1 
L 28.942188 7.2 
" style="fill:none;stroke:#000000;stroke-linecap:square;stroke-linejoin:miter;stroke-width:0.8;"/>
   </g>
   <g id="patch_4">
    <path d="M 224.242188 143.1 
L 224.242188 7.2 
" style="fill:none;stroke:#000000;stroke-linecap:square;stroke-linejoin:miter;stroke-width:0.8;"/>
   </g>
   <g id="patch_5">
    <path d="M 28.942188 143.1 
L 224.242188 143.1 
" style="fill:none;stroke:#000000;stroke-linecap:square;stroke-linejoin:miter;stroke-width:0.8;"/>
   </g>
   <g id="patch_6">
    <path d="M 28.942188 7.2 
L 224.242188 7.2 
" style="fill:none;stroke:#000000;stroke-linecap:square;stroke-linejoin:miter;stroke-width:0.8;"/>
   </g>
  </g>
 </g>
 <defs>
  <clipPath id="pd38f02b7e2">
   <rect height="135.9" width="195.3" x="28.942188" y="7.2"/>
  </clipPath>
 </defs>
</svg>
